M48
;GenerationSoftware,Autodesk,EAGLE,9.6.2*%
;CreationDate,2025-10-11T14:19:15Z*%
FMAT,2
ICI,OFF
METRIC,TZ,000.000
T13C0.350
T12C0.800
T11C0.813
T10C0.920
T9C1.000
T8C1.016
T7C1.060
T6C1.400
T5C1.500
T4C1.600
T3C1.650
T2C2.300
T1C3.000
%
G90
M71
T1
X3334Y3334
X72787Y74771
X72787Y3334
X3334Y74771
T2
X56185Y70406
X44145Y70406
T3
X71279Y52964
X71279Y41174
X71279Y44834
X71279Y49304
T4
X64135Y75981
T5
X64135Y66731
T6
X70803Y31592
X70803Y62547
X70803Y57547
X70803Y36592
T7
X28337Y2857
X25837Y2857
X23337Y2857
X20837Y2857
X52944Y2857
X50444Y2857
X57944Y2857
X55444Y2857
X43101Y2857
X40601Y2857
X38101Y2857
X35601Y2857
T8
X29527Y8890
X37941Y30797
X40481Y30797
X43021Y30797
X19209Y30797
X21749Y30797
X24289Y30797
X26829Y30797
X29845Y42863
X32385Y42863
X34925Y42863
X40005Y40084
X37465Y40084
X29527Y16510
X34925Y40084
X32385Y40084
X29845Y40084
X29527Y26670
X29527Y24130
X29527Y21590
X29527Y19050
X29527Y13970
X29527Y11430
X16828Y8890
X16828Y11430
X16828Y13970
X16828Y16510
X16828Y19050
X16828Y21590
X16828Y24130
X16828Y26670
X45720Y26670
X45720Y24130
X45720Y21590
X45720Y19050
X45720Y16510
X45720Y13970
X45720Y8890
X33020Y8890
X33020Y11430
X33020Y13970
X33020Y16510
X33020Y19050
X33020Y21590
X33020Y24130
X33020Y26670
X61912Y26670
X61912Y24130
X61912Y21590
X61912Y19050
X61912Y16510
X45720Y11430
X61912Y11430
X61912Y8890
X49212Y8890
X49212Y11430
X49212Y13970
X49212Y16510
X49212Y19050
X49212Y21590
X49212Y24130
X49212Y26670
X61912Y13970
X7858Y73739
X10398Y73739
X12938Y73739
X15478Y73739
X7858Y76279
X10398Y76279
X12938Y76279
X15478Y76279
X29845Y45641
X32385Y45641
X34925Y45641
X7937Y2857
X10478Y2857
X13017Y2857
X51594Y30797
X54134Y30797
X56674Y30797
X59214Y30797
X35401Y30797
T9
X6171Y35798
X3671Y35798
X66814Y2857
X6191Y28416
X3691Y28416
X8691Y28416
X6191Y22066
X3691Y22066
X8691Y22066
X6191Y15716
X8691Y15716
X6191Y9366
X3691Y9366
X26908Y74434
X20558Y71934
X20558Y74434
X39608Y71934
X3691Y15716
X8691Y9366
X39608Y74434
X33258Y71934
X33258Y74434
X26908Y71934
X64314Y2857
T10
X48915Y65696
X48915Y67696
X51415Y67696
X51415Y65696
T11
X42545Y19368
X37465Y26987
X40005Y26987
X53657Y19368
X56197Y19368
X58737Y19368
X58737Y26987
X56197Y26987
X21273Y19368
X23812Y19368
X26352Y19368
X53657Y26987
X26352Y26987
X21273Y26987
X23812Y26987
X37465Y19368
X40005Y19368
X42545Y26987
T12
X59335Y73231
X64135Y72731
X68935Y73231
T13
X48260Y39370
X56277Y55324
X54531Y58182
X58102Y58817
X58102Y59690
X58102Y60563
X54372Y51832
X54451Y53896
X59769Y63421
X53578Y46355
X8493Y71438
X1905Y69215
X2585Y47192
X42704Y67469
X42624Y63103
X39688Y60166
X43418Y45244
X43418Y44371
X42545Y44371
X44847Y41672
X14208Y74533
X29210Y69533
X33338Y69533
X25559Y69533
X6036Y68263
X33258Y63262
X8735Y68421
X34449Y63500
X11112Y29210
X8176Y37624
X11112Y11271
X10636Y38100
X11271Y22860
X9049Y38100
X10954Y16986
X9843Y38576
X25797Y47228
X9366Y35481
X10636Y34211
X14843Y44291
X14526Y46514
X23855Y47033
X20955Y69691
X7382Y70644
X36592Y58817
X36433Y67387
X35329Y64222
X17701Y70803
X5001Y70406
X16828Y68580
X23812Y61119
X27146Y42863
X13970Y47307
X26194Y46355
X26987Y43894
X43259Y40402
X15081Y47307
X23416Y49451
X16192Y47307
X22939Y48577
X17304Y47307
X22781Y47625
X39211Y34608
X17304Y38021
X15081Y37465
X44291Y33973
X57944Y35084
X55404Y35401
X23336Y44132
X53499Y76359
X56436Y50244
X52387Y63182
X15954Y44212
X40005Y24130
X57706Y63500
X27305Y51693
X26352Y54451
X15399Y54292
X35560Y52626
X34766Y49371
X32385Y54451
X25241Y57150
X23812Y62131
X15557Y6271
X15557Y5318
X15557Y4366
X15557Y3413
X15557Y2461
X15557Y1508
X16510Y1508
X16510Y2461
X16510Y3413
X16510Y4366
X16510Y5318
X16510Y6271
X31512Y6271
X31512Y5318
X31512Y4366
X31512Y3413
X31512Y2461
X31512Y1508
X32464Y1508
X32464Y2461
X32464Y3413
X32464Y4366
X32464Y5318
X32464Y6271
X46355Y6271
X46355Y5318
X46355Y4366
X46355Y3413
X46355Y2461
X46355Y1508
X47307Y1508
X47307Y2461
X47307Y3413
X47307Y4366
X47307Y5318
X47307Y6271
X61436Y61754
X62230Y55562
X61119Y6112
X61119Y5318
X61119Y4524
X61119Y3731
X61119Y2937
X61119Y2143
X61119Y1349
X50324Y32896
X47942Y36671
X31274Y29051
X47466Y29051
X58579Y24924
X60484Y24527
X50800Y26670
X51594Y26194
X30956Y54451
X48895Y27940
X34052Y65504
X37766Y65357
X36989Y64611
X33417Y64770
X53419Y53896
X56356Y62071
X66119Y37306
X66119Y38576
X66119Y39846
X66119Y41116
X63659Y41116
X63659Y38576
X63659Y39846
X63659Y37306
X61595Y41116
X61595Y39846
X61595Y38576
X61595Y37306
X24286Y51432
X31512Y48498
X2129Y31274
X35401Y26194
X34608Y26670
X32702Y27940
X19050Y26194
X18256Y26670
X16510Y27940
X52864Y21749
X53816Y21749
X54769Y21749
X55721Y21749
X56674Y21749
X57626Y21749
X58579Y21749
X51911Y21749
X37624Y21749
X38576Y21749
X39529Y21749
X40481Y21749
X41434Y21749
X42386Y21749
X43339Y21749
X20479Y21749
X21431Y21749
X22384Y21749
X23336Y21749
X24289Y21749
X25241Y21749
X26194Y21749
X27146Y21749
X23019Y17780
X26511Y14605
X27146Y13970
X27781Y13335
X28416Y12700
X39211Y17780
X42704Y14605
X43339Y13970
X43974Y13335
X44609Y12700
X55404Y17780
X58896Y14605
X59531Y13970
X60166Y13335
X60801Y12700
X23654Y41513
X19526Y43498
X15399Y63817
X15399Y62865
X15399Y61912
X15399Y60960
X15399Y60007
X15399Y59055
X15399Y58102
X15399Y57150
X15399Y56197
X15399Y55245
X15399Y53340
X15399Y52387
X16510Y52387
X16510Y53340
X16510Y54292
X16510Y55245
X16510Y56197
X16510Y57150
X16510Y58102
X16510Y59055
X16510Y60007
X16510Y60960
X16510Y61912
X16510Y62865
X16510Y63817
X17621Y63817
X17621Y62865
X17621Y61912
X17621Y60960
X17621Y60007
X17621Y59055
X17621Y58102
X17621Y57150
X17621Y56197
X17621Y55245
X17621Y54292
X17621Y53340
X17621Y52387
X15875Y33814
X15875Y32861
X15875Y31909
X16828Y33814
X16828Y32861
X16828Y31909
X38100Y64294
X35322Y57706
X39053Y69367
X64611Y19447
X64611Y18653
X42069Y45244
X64611Y17859
X64611Y20241
X64611Y12621
X64611Y11827
X64611Y11033
X64611Y13414
X64611Y10239
X44847Y56039
X44053Y56039
X45641Y56039
X45641Y56832
X44847Y56832
X44053Y56832
X44053Y55245
X44847Y55245
X45641Y55245
X52149Y46355
X54848Y44926
X53499Y44926
X53499Y47704
X52149Y47704
X52149Y44926
X54848Y46355
X54848Y47704
X62309Y45482
X60563Y46355
X60563Y45482
X62151Y59690
X62944Y59690
X62944Y51435
X62151Y51435
X62151Y50641
X62944Y50641
X62151Y60484
X62944Y60484
X12859Y5874
X64611Y21034
X61436Y46355
X61436Y47228
X61436Y45482
X60563Y47228
X62309Y47228
X62309Y46355
X36671Y21749
X2778Y45879
X14069Y32782
X12740Y71139
X12382Y41989
X56197Y42466
X55245Y42466
X54292Y42466
X53340Y42466
X52387Y42466
X51435Y42466
X50482Y42466
X49530Y42466
X48577Y42466
X47625Y42466
X48260Y38418
M30