%TF.GenerationSoftware,KiCad,Pcbnew,8.0.7*%
%TF.CreationDate,2025-11-03T18:44:04+05:30*%
%TF.ProjectId,ESP_NOW_TX-rounded,4553505f-4e4f-4575-9f54-582d726f756e,rev?*%
%TF.SameCoordinates,Original*%
%TF.FileFunction,Copper,L2,Bot*%
%TF.FilePolarity,Positive*%
%FSLAX46Y46*%
G04 Gerber Fmt 4.6, Leading zero omitted, Abs format (unit mm)*
G04 Created by KiCad (PCBNEW 8.0.7) date 2025-11-03 18:44:04*
%MOMM*%
%LPD*%
G01*
G04 APERTURE LIST*
%TA.AperFunction,ComponentPad*%
%ADD10R,1.600000X1.600000*%
%TD*%
%TA.AperFunction,ComponentPad*%
%ADD11C,1.600000*%
%TD*%
%TA.AperFunction,ComponentPad*%
%ADD12R,2.400000X2.400000*%
%TD*%
%TA.AperFunction,ComponentPad*%
%ADD13C,2.400000*%
%TD*%
%TA.AperFunction,ComponentPad*%
%ADD14R,1.700000X1.700000*%
%TD*%
%TA.AperFunction,ComponentPad*%
%ADD15O,1.700000X1.700000*%
%TD*%
%TA.AperFunction,ComponentPad*%
%ADD16C,3.000000*%
%TD*%
%TA.AperFunction,ComponentPad*%
%ADD17C,2.500000*%
%TD*%
%TA.AperFunction,ComponentPad*%
%ADD18C,0.800000*%
%TD*%
%TA.AperFunction,ComponentPad*%
%ADD19C,6.000000*%
%TD*%
%TA.AperFunction,ComponentPad*%
%ADD20R,2.000000X2.000000*%
%TD*%
%TA.AperFunction,ComponentPad*%
%ADD21O,1.600000X2.000000*%
%TD*%
%TA.AperFunction,ComponentPad*%
%ADD22R,2.000000X1.700000*%
%TD*%
%TA.AperFunction,ComponentPad*%
%ADD23O,2.000000X1.700000*%
%TD*%
%TA.AperFunction,ViaPad*%
%ADD24C,0.600000*%
%TD*%
%TA.AperFunction,Conductor*%
%ADD25C,2.000000*%
%TD*%
%TA.AperFunction,Conductor*%
%ADD26C,0.500000*%
%TD*%
%TA.AperFunction,Conductor*%
%ADD27C,1.500000*%
%TD*%
G04 APERTURE END LIST*
D10*
%TO.P,C2,1*%
%TO.N,+3.3V*%
X140290000Y-98880000D03*
D11*
%TO.P,C2,2*%
%TO.N,GND*%
X137790000Y-98880000D03*
%TD*%
D10*
%TO.P,C1,1*%
%TO.N,+5V*%
X129410000Y-106990000D03*
D11*
%TO.P,C1,2*%
%TO.N,GND*%
X129410000Y-104490000D03*
%TD*%
D12*
%TO.P,J2,1*%
%TO.N,P*%
X112310000Y-151405000D03*
D13*
%TO.P,J2,2*%
%TO.N,N*%
X117390000Y-151405000D03*
%TD*%
D12*
%TO.P,J1,1*%
%TO.N,N*%
X124440000Y-151455000D03*
D13*
%TO.P,J1,2*%
%TO.N,L4*%
X129520000Y-151455000D03*
%TO.P,J1,3*%
%TO.N,L3*%
X134600000Y-151455000D03*
%TO.P,J1,4*%
%TO.N,L2*%
X139680000Y-151455000D03*
%TO.P,J1,5*%
%TO.N,L1*%
X144760000Y-151455000D03*
%TD*%
D12*
%TO.P,J8,1*%
%TO.N,+5V*%
X151800000Y-151485000D03*
D13*
%TO.P,J8,2*%
%TO.N,Pixel*%
X156880000Y-151485000D03*
%TO.P,J8,3*%
%TO.N,GND*%
X161960000Y-151485000D03*
%TD*%
D12*
%TO.P,J6,1*%
%TO.N,+5V*%
X168970000Y-151460000D03*
D13*
%TO.P,J6,2*%
%TO.N,Net-(J6-Pad2)*%
X174050000Y-151460000D03*
%TO.P,J6,3*%
%TO.N,GND*%
X179130000Y-151460000D03*
%TD*%
D14*
%TO.P,J4,1,Pin_1*%
%TO.N,GND*%
X184105000Y-89100000D03*
D15*
%TO.P,J4,2,Pin_2*%
%TO.N,Net-(J4-Pin_2)*%
X181565000Y-89100000D03*
%TO.P,J4,3,Pin_3*%
X179025000Y-89100000D03*
%TO.P,J4,4,Pin_4*%
%TO.N,RXD*%
X176485000Y-89100000D03*
%TO.P,J4,5,Pin_5*%
%TO.N,TXD*%
X173945000Y-89100000D03*
%TO.P,J4,6,Pin_6*%
%TO.N,GND*%
X171405000Y-89100000D03*
%TO.P,J4,7,Pin_7*%
%TO.N,Net-(D7-K)*%
X168865000Y-89100000D03*
%TD*%
D14*
%TO.P,J7,1,Pin_1*%
%TO.N,SDA*%
X154480000Y-62390000D03*
D15*
%TO.P,J7,2,Pin_2*%
%TO.N,SCL*%
X151940000Y-62390000D03*
%TO.P,J7,3,Pin_3*%
%TO.N,+3V3*%
X149400000Y-62390000D03*
%TO.P,J7,4,Pin_4*%
%TO.N,GND*%
X146860000Y-62390000D03*
%TD*%
D14*
%TO.P,J5,1,Pin_1*%
%TO.N,+3V3*%
X119290000Y-62170000D03*
D15*
%TO.P,J5,2,Pin_2*%
%TO.N,SDA*%
X116750000Y-62170000D03*
%TO.P,J5,3,Pin_3*%
%TO.N,SCL*%
X114210000Y-62170000D03*
%TO.P,J5,4,Pin_4*%
%TO.N,unconnected-(J5-Pin_4-Pad4)*%
X111670000Y-62170000D03*
%TO.P,J5,5,Pin_5*%
%TO.N,GND*%
X109130000Y-62170000D03*
%TD*%
D16*
%TO.P,K4,1*%
%TO.N,P*%
X133580000Y-126610000D03*
D17*
%TO.P,K4,2*%
%TO.N,Net-(D12-K)*%
X127530000Y-128560000D03*
D16*
%TO.P,K4,3*%
%TO.N,L4*%
X127530000Y-140760000D03*
%TO.P,K4,4*%
%TO.N,unconnected-(K4-Pad4)*%
X139580000Y-140810000D03*
D17*
%TO.P,K4,5*%
%TO.N,+5V*%
X139530000Y-128560000D03*
%TD*%
D16*
%TO.P,K3,1*%
%TO.N,P*%
X150530000Y-126610000D03*
D17*
%TO.P,K3,2*%
%TO.N,Net-(D11-K)*%
X144480000Y-128560000D03*
D16*
%TO.P,K3,3*%
%TO.N,L3*%
X144480000Y-140760000D03*
%TO.P,K3,4*%
%TO.N,unconnected-(K3-Pad4)*%
X156530000Y-140810000D03*
D17*
%TO.P,K3,5*%
%TO.N,+5V*%
X156480000Y-128560000D03*
%TD*%
%TO.P,K2,5*%
%TO.N,+5V*%
X173200000Y-128640000D03*
D16*
%TO.P,K2,4*%
%TO.N,unconnected-(K2-Pad4)*%
X173250000Y-140890000D03*
%TO.P,K2,3*%
%TO.N,L2*%
X161200000Y-140840000D03*
D17*
%TO.P,K2,2*%
%TO.N,Net-(D10-K)*%
X161200000Y-128640000D03*
D16*
%TO.P,K2,1*%
%TO.N,P*%
X167250000Y-126690000D03*
%TD*%
D17*
%TO.P,K1,5*%
%TO.N,+5V*%
X190150000Y-128640000D03*
D16*
%TO.P,K1,4*%
%TO.N,unconnected-(K1-Pad4)*%
X190200000Y-140890000D03*
%TO.P,K1,3*%
%TO.N,L1*%
X178150000Y-140840000D03*
D17*
%TO.P,K1,2*%
%TO.N,Net-(D1-A)*%
X178150000Y-128640000D03*
D16*
%TO.P,K1,1*%
%TO.N,P*%
X184200000Y-126690000D03*
%TD*%
D18*
%TO.P,H1,1*%
%TO.N,N/C*%
X99070000Y-64510000D03*
X99729010Y-62919010D03*
X99729010Y-66100990D03*
X101320000Y-62260000D03*
D19*
X101320000Y-64510000D03*
D18*
X101320000Y-66760000D03*
X102910990Y-62919010D03*
X102910990Y-66100990D03*
X103570000Y-64510000D03*
%TD*%
%TO.P,H4,1*%
%TO.N,N/C*%
X186829010Y-155649010D03*
X187488020Y-154058020D03*
X187488020Y-157240000D03*
X189079010Y-153399010D03*
D19*
X189079010Y-155649010D03*
D18*
X189079010Y-157899010D03*
X190670000Y-154058020D03*
X190670000Y-157240000D03*
X191329010Y-155649010D03*
%TD*%
%TO.P,H3,1*%
%TO.N,N/C*%
X186900000Y-64200000D03*
X187559010Y-62609010D03*
X187559010Y-65790990D03*
X189150000Y-61950000D03*
D19*
X189150000Y-64200000D03*
D18*
X189150000Y-66450000D03*
X190740990Y-62609010D03*
X190740990Y-65790990D03*
X191400000Y-64200000D03*
%TD*%
%TO.P,H2,1*%
%TO.N,N/C*%
X99180000Y-155580000D03*
X99839010Y-153989010D03*
X99839010Y-157170990D03*
X101430000Y-153330000D03*
D19*
X101430000Y-155580000D03*
D18*
X101430000Y-157830000D03*
X103020990Y-153989010D03*
X103020990Y-157170990D03*
X103680000Y-155580000D03*
%TD*%
D20*
%TO.P,U1,1,~{RST}*%
%TO.N,unconnected-(U1-~{RST}-Pad1)*%
X124370000Y-76755000D03*
D21*
%TO.P,U1,2,A0*%
%TO.N,AI*%
X121830000Y-76755000D03*
%TO.P,U1,3,D0*%
%TO.N,unconnected-(U1-D0-Pad3)*%
X119290000Y-76755000D03*
%TO.P,U1,4,SCK/D5*%
%TO.N,R4*%
X116750000Y-76755000D03*
%TO.P,U1,5,MISO/D6*%
%TO.N,R3*%
X114210000Y-76755000D03*
%TO.P,U1,6,MOSI/D7*%
%TO.N,R2*%
X111670000Y-76755000D03*
%TO.P,U1,7,CS/D8*%
%TO.N,R1*%
X109130000Y-76755000D03*
%TO.P,U1,8,3V3*%
%TO.N,+3V3*%
X106590000Y-76755000D03*
%TO.P,U1,9,5V*%
%TO.N,+5V*%
X106590000Y-99615000D03*
%TO.P,U1,10,GND*%
%TO.N,GND*%
X109130000Y-99615000D03*
%TO.P,U1,11,D4*%
%TO.N,unconnected-(U1-D4-Pad11)*%
X111670000Y-99615000D03*
%TO.P,U1,12,D3*%
%TO.N,Pixel*%
X114210000Y-99615000D03*
%TO.P,U1,13,SDA/D2*%
%TO.N,SDA*%
X116750000Y-99615000D03*
%TO.P,U1,14,SCL/D1*%
%TO.N,SCL*%
X119290000Y-99615000D03*
%TO.P,U1,15,RX*%
%TO.N,RXD*%
X121830000Y-99615000D03*
%TO.P,U1,16,TX*%
%TO.N,TXD*%
X124370000Y-99615000D03*
%TD*%
D22*
%TO.P,PS1,1,AC/L*%
%TO.N,P*%
X108110000Y-141180000D03*
D23*
%TO.P,PS1,2,AC/N*%
%TO.N,N*%
X114110000Y-141180000D03*
%TO.P,PS1,3,-Vout*%
%TO.N,GND*%
X102110000Y-107580000D03*
%TO.P,PS1,4,+Vout*%
%TO.N,+5V*%
X120110000Y-107580000D03*
%TD*%
D24*
%TO.N,TXD*%
X142660000Y-94110000D03*
%TO.N,RXD*%
X142880000Y-95420000D03*
%TO.N,Pixel*%
X114210000Y-106020000D03*
X114230000Y-113050000D03*
%TO.N,R4*%
X126060000Y-113800000D03*
%TO.N,R3*%
X145100000Y-111520000D03*
%TO.N,R2*%
X161120000Y-112410000D03*
%TO.N,R1*%
X177080000Y-113970000D03*
%TO.N,SCL*%
X114150000Y-67340000D03*
%TO.N,SDA*%
X117800000Y-67370000D03*
%TO.N,GND*%
X126970000Y-116540000D03*
X144340000Y-116540000D03*
X161240000Y-116540000D03*
X177950000Y-116440000D03*
%TO.N,TXD*%
X174160000Y-92540000D03*
%TO.N,RXD*%
X176480000Y-92540000D03*
%TO.N,GND*%
X103010000Y-150170000D03*
%TD*%
D25*
%TO.N,P*%
X183640000Y-123890000D02*
G75*
G02*
X184200017Y-125241959I-1352000J-1352000D01*
G01*
X184200000Y-125241959D02*
X184200000Y-126690000D01*
X109150000Y-124370000D02*
G75*
G02*
X111660782Y-123329993I2510800J-2510800D01*
G01*
X108110000Y-140280000D02*
X108110000Y-126880782D01*
X111660782Y-123330000D02*
X182288040Y-123330000D01*
X108110000Y-126880782D02*
G75*
G02*
X109150005Y-124370005I3550800J-18D01*
G01*
X182288040Y-123330000D02*
G75*
G02*
X183639988Y-123890012I-40J-1912000D01*
G01*
D26*
%TO.N,R4*%
X144290000Y-74058488D02*
X144290000Y-76175223D01*
X144290000Y-77460000D02*
X144290000Y-82146288D01*
%TO.N,GND*%
X114346288Y-116540000D02*
X109660000Y-116540000D01*
D27*
X117552097Y-158677976D02*
X113230270Y-158678326D01*
X102110000Y-112540002D02*
X102110000Y-116539999D01*
X111796810Y-158678404D02*
X110341903Y-158678444D01*
D26*
X108920285Y-116540000D02*
X105713427Y-116540000D01*
%TO.N,SDA*%
X101000000Y-95646949D02*
G75*
G03*
X101285014Y-96334986I973100J49D01*
G01*
X116750000Y-66045649D02*
G75*
G02*
X116654985Y-66274985I-324400J49D01*
G01*
X116750000Y-66314350D02*
G75*
G03*
X116655035Y-66275035I-55600J50D01*
G01*
X108503963Y-66370000D02*
G75*
G03*
X104656215Y-67963801I37J-5441600D01*
G01*
X116750000Y-97234558D02*
G75*
G03*
X116569988Y-96800012I-614600J-42D01*
G01*
X117555000Y-67370000D02*
G75*
G02*
X117136754Y-67196762I0J591500D01*
G01*
X101973050Y-96620000D02*
G75*
G02*
X101285014Y-96334986I50J973100D01*
G01*
X116750000Y-66495000D02*
G75*
G03*
X116972733Y-67032743I760500J0D01*
G01*
X102593792Y-70026207D02*
G75*
G03*
X100999959Y-73873963I3847708J-3847793D01*
G01*
X116570000Y-96800000D02*
G75*
G03*
X116135441Y-96619983I-434600J-434600D01*
G01*
X116655000Y-66275000D02*
G75*
G02*
X116425649Y-66370021I-229400J229400D01*
G01*
X116750000Y-66314350D02*
X116750000Y-66045649D01*
%TO.N,SCL*%
X102055000Y-95625000D02*
G75*
G03*
X102332634Y-95739986I277600J277600D01*
G01*
X119290000Y-96456984D02*
G75*
G03*
X119079996Y-95950004I-717000J-16D01*
G01*
X101940000Y-74213963D02*
G75*
G02*
X103533801Y-70366215I5441600J-37D01*
G01*
X102055000Y-95625000D02*
G75*
G02*
X101940014Y-95347365I277600J277600D01*
G01*
X108813963Y-67340000D02*
G75*
G03*
X104966236Y-68933821I37J-5441500D01*
G01*
X119080000Y-95950000D02*
G75*
G03*
X118573015Y-95739994I-507000J-507000D01*
G01*
%TO.N,R4*%
X143885000Y-113345000D02*
G75*
G03*
X144290018Y-112367243I-977800J977800D01*
G01*
X144000000Y-72300000D02*
G75*
G02*
X144289991Y-73000121I-700100J-700100D01*
G01*
X143885000Y-113345000D02*
G75*
G02*
X142907243Y-113750018I-977800J977800D01*
G01*
X126085000Y-113775000D02*
G75*
G02*
X126145355Y-113749982I60400J-60400D01*
G01*
X116930000Y-72190000D02*
G75*
G03*
X116749953Y-72624558I434500J-434600D01*
G01*
X116930000Y-72190000D02*
G75*
G02*
X117364558Y-72009953I434600J-434500D01*
G01*
X143299878Y-72010000D02*
G75*
G02*
X144000006Y-72299994I22J-990100D01*
G01*
X144290000Y-76175223D02*
X144290000Y-77460000D01*
%TO.N,R3*%
X115336690Y-71110000D02*
G75*
G03*
X114540003Y-71440003I10J-1126700D01*
G01*
X144625000Y-71585000D02*
G75*
G03*
X143478248Y-71109980I-1146800J-1146800D01*
G01*
X114540000Y-71440000D02*
G75*
G03*
X114209996Y-72236690I796700J-796700D01*
G01*
X145100000Y-72731751D02*
G75*
G03*
X144624986Y-71585014I-1621800J-49D01*
G01*
%TO.N,R2*%
X112438198Y-70200000D02*
G75*
G03*
X111895001Y-70425001I2J-768200D01*
G01*
X161080000Y-112370000D02*
G75*
G02*
X161039987Y-112273431I96600J96600D01*
G01*
X161040000Y-71070624D02*
G75*
G03*
X160785007Y-70454993I-870600J24D01*
G01*
X111670000Y-70968198D02*
G75*
G02*
X111895001Y-70425001I768200J-2D01*
G01*
X160169375Y-70200000D02*
G75*
G02*
X160785007Y-70454993I25J-870600D01*
G01*
%TO.N,R1*%
X109130000Y-70758111D02*
G75*
G02*
X109559997Y-69719997I1468100J11D01*
G01*
X186985000Y-113595000D02*
G75*
G02*
X185814106Y-114080003I-1170900J1170900D01*
G01*
X187470000Y-70775182D02*
G75*
G03*
X187034995Y-69725005I-1485200J-18D01*
G01*
X187470000Y-112424106D02*
G75*
G02*
X186984998Y-113594998I-1655900J6D01*
G01*
X177135000Y-114025000D02*
G75*
G03*
X177267781Y-114080008I132800J132800D01*
G01*
X109560000Y-69720000D02*
G75*
G02*
X110598111Y-69290005I1038100J-1038100D01*
G01*
X185984817Y-69290000D02*
G75*
G02*
X187034995Y-69725005I-17J-1485200D01*
G01*
D25*
%TO.N,P*%
X150530000Y-124217695D02*
G75*
G02*
X150790001Y-123590001I887700J-5D01*
G01*
X112310000Y-149557500D02*
G75*
G03*
X111003628Y-146403612I-4460300J0D01*
G01*
X109570175Y-144970175D02*
G75*
G02*
X108109985Y-141445000I3525125J3525175D01*
G01*
D27*
%TO.N,L2*%
X140185000Y-146345000D02*
G75*
G02*
X141404177Y-145839991I1219200J-1219200D01*
G01*
X140185000Y-146345000D02*
G75*
G03*
X139679991Y-147564177I1219200J-1219200D01*
G01*
X157461436Y-145840000D02*
G75*
G03*
X160104989Y-144744989I-36J3738600D01*
G01*
X161200000Y-142245000D02*
G75*
G02*
X160206521Y-144643492I-3392000J0D01*
G01*
%TO.N,L1*%
X178150000Y-142910603D02*
G75*
G02*
X176714999Y-146374999I-4899400J3D01*
G01*
X144760000Y-149773172D02*
G75*
G02*
X145335008Y-148385008I1963200J-28D01*
G01*
X145335000Y-148385000D02*
G75*
G02*
X146723172Y-147809989I1388200J-1388200D01*
G01*
X173250603Y-147810000D02*
G75*
G03*
X176714999Y-146374999I-3J4899400D01*
G01*
%TO.N,L3*%
X143035000Y-142205000D02*
G75*
G02*
X139546461Y-143649955I-3488500J3488600D01*
G01*
X134600000Y-147320279D02*
G75*
G02*
X135675006Y-144725006I3670300J-21D01*
G01*
X138270279Y-143650000D02*
G75*
G03*
X135675006Y-144725006I21J-3670300D01*
G01*
%TO.N,L4*%
X128525000Y-145465000D02*
G75*
G02*
X129519953Y-147867142I-2402200J-2402100D01*
G01*
X127530000Y-143062857D02*
G75*
G03*
X128524988Y-145465012I3397100J-43D01*
G01*
D26*
%TO.N,Pixel*%
X114220000Y-106030000D02*
G75*
G02*
X114229983Y-106054142I-24100J-24100D01*
G01*
D25*
%TO.N,N*%
X115089342Y-144929342D02*
G75*
G02*
X114110004Y-142565000I2364358J2364342D01*
G01*
X124415000Y-151430000D02*
G75*
G03*
X124354644Y-151404982I-60400J-60400D01*
G01*
X117390000Y-149317500D02*
G75*
G03*
X115913920Y-145753908I-5039700J0D01*
G01*
D26*
%TO.N,+3V3*%
X118975000Y-68095000D02*
G75*
G03*
X119290009Y-67334522I-760500J760500D01*
G01*
X106800000Y-68620000D02*
G75*
G03*
X106589994Y-69126984I507000J-507000D01*
G01*
X120675000Y-64940000D02*
G75*
G03*
X119290000Y-66325000I0J-1385000D01*
G01*
X120675000Y-64940000D02*
G75*
G02*
X119290000Y-63555000I0J1385000D01*
G01*
X118975000Y-68095000D02*
G75*
G02*
X118214522Y-68410009I-760500J760500D01*
G01*
X149265000Y-64805000D02*
G75*
G03*
X149399992Y-64479081I-325900J325900D01*
G01*
X149265000Y-64805000D02*
G75*
G02*
X148939081Y-64939992I-325900J325900D01*
G01*
X107306984Y-68410000D02*
G75*
G03*
X106800004Y-68620004I16J-717000D01*
G01*
X119290000Y-66325000D02*
X119290000Y-63555000D01*
%TO.N,TXD*%
X142130000Y-95014766D02*
G75*
G02*
X142395010Y-94375010I904800J-34D01*
G01*
X141395944Y-101630000D02*
G75*
G03*
X141914987Y-101414987I-44J734100D01*
G01*
X142130000Y-100895944D02*
G75*
G02*
X141914987Y-101414987I-734100J44D01*
G01*
X173945000Y-92172972D02*
G75*
G03*
X174052492Y-92432508I367000J-28D01*
G01*
X124645000Y-101355000D02*
G75*
G02*
X124370004Y-100691091I663900J663900D01*
G01*
X125308908Y-101630000D02*
G75*
G02*
X124644997Y-101355003I-8J938900D01*
G01*
%TO.N,RXD*%
X176485000Y-92531464D02*
G75*
G02*
X176482510Y-92537510I-8500J-36D01*
G01*
X122100000Y-102280000D02*
G75*
G02*
X121830016Y-101628162I651800J651800D01*
G01*
X142625000Y-102295000D02*
G75*
G02*
X142009375Y-102549990I-615600J615600D01*
G01*
X142625000Y-102295000D02*
G75*
G03*
X142879990Y-101679375I-615600J615600D01*
G01*
X122751837Y-102550000D02*
G75*
G02*
X122099989Y-102280011I-37J921800D01*
G01*
D27*
%TO.N,+5V*%
X129115000Y-107285000D02*
G75*
G02*
X128402806Y-107580003I-712200J712200D01*
G01*
D26*
%TO.N,GND*%
X186340000Y-89330000D02*
G75*
G03*
X185784730Y-89099987I-555300J-555300D01*
G01*
D27*
X109614450Y-158678444D02*
G75*
G02*
X108409248Y-158179196I50J1704444D01*
G01*
X102560000Y-149720000D02*
G75*
G02*
X102109998Y-148633603I1086400J1086400D01*
G01*
X108908076Y-104490000D02*
G75*
G03*
X109065007Y-104425007I24J221900D01*
G01*
D26*
X109065000Y-104425000D02*
G75*
G03*
X109091923Y-104489942I26900J-26900D01*
G01*
X109130000Y-104268076D02*
G75*
G02*
X109065007Y-104425007I-221900J-24D01*
G01*
X177514594Y-112830000D02*
G75*
G03*
X175885002Y-113505002I6J-2304600D01*
G01*
X177900000Y-116490000D02*
G75*
G02*
X177779289Y-116539996I-120700J120700D01*
G01*
X186340000Y-89330000D02*
G75*
G02*
X186570013Y-89885269I-555300J-555300D01*
G01*
D27*
X102440000Y-104820000D02*
G75*
G03*
X102109996Y-105616690I796700J-796700D01*
G01*
X178085000Y-157495000D02*
G75*
G02*
X175562146Y-158540019I-2522900J2522900D01*
G01*
D26*
X175210000Y-115134594D02*
G75*
G02*
X175885002Y-113505002I2304600J-6D01*
G01*
D27*
X107910000Y-156375000D02*
G75*
G03*
X106987236Y-154147214I-3150600J0D01*
G01*
X162203424Y-158606576D02*
G75*
G02*
X162042695Y-158673135I-160724J160776D01*
G01*
D26*
X174030000Y-116540000D02*
G75*
G03*
X175210000Y-115360000I0J1180000D01*
G01*
X176390000Y-116540000D02*
G75*
G02*
X175210000Y-115360000I0J1180000D01*
G01*
X110394544Y-60689686D02*
G75*
G03*
X109500390Y-61059637I-1044J-1263014D01*
G01*
X146074486Y-60719622D02*
G75*
G02*
X146629921Y-60949973I-686J-786478D01*
G01*
D27*
X102440000Y-104820000D02*
G75*
G02*
X103236690Y-104489996I796700J-796700D01*
G01*
D26*
X185375025Y-112830000D02*
G75*
G03*
X186219993Y-112479993I-25J1195000D01*
G01*
D27*
X162270000Y-158445847D02*
G75*
G02*
X162203399Y-158606551I-227300J47D01*
G01*
X162203424Y-158606576D02*
G75*
G02*
X162364152Y-158540036I160676J-160724D01*
G01*
X162270000Y-158445847D02*
G75*
G03*
X162364152Y-158540000I94200J47D01*
G01*
D26*
X102110000Y-118539998D02*
G75*
G02*
X104109998Y-116540000I2000000J-2D01*
G01*
D27*
X162115000Y-157565000D02*
G75*
G02*
X162269999Y-157939203I-374200J-374200D01*
G01*
D26*
X109130000Y-61800000D02*
G75*
G02*
X109391621Y-61168362I893300J0D01*
G01*
D27*
X178085000Y-157495000D02*
G75*
G03*
X179130019Y-154972146I-2522900J2522900D01*
G01*
X107910000Y-156973993D02*
G75*
G03*
X108409229Y-158179215I1704400J-7D01*
G01*
D26*
X146629928Y-60949966D02*
G75*
G02*
X146859998Y-61505408I-555428J-555434D01*
G01*
X186570000Y-111635025D02*
G75*
G02*
X186219993Y-112479993I-1195000J25D01*
G01*
D27*
X162115000Y-157565000D02*
G75*
G02*
X161960001Y-157190796I374200J374200D01*
G01*
D26*
X109660000Y-116540000D02*
X108920285Y-116540000D01*
D27*
X108908076Y-104490000D02*
X109091923Y-104490000D01*
X113230270Y-158678326D02*
X111796810Y-158678404D01*
D26*
X174030000Y-116540000D02*
X176390000Y-116540000D01*
D27*
X102110000Y-116539999D02*
X102110000Y-118539998D01*
D26*
%TO.N,TXD*%
X142130000Y-100895944D02*
X142130000Y-95014766D01*
X142660000Y-94110000D02*
X142395000Y-94375000D01*
X125308908Y-101630000D02*
X141395944Y-101630000D01*
X124370000Y-100691091D02*
X124370000Y-99615000D01*
%TO.N,RXD*%
X142880000Y-95420000D02*
X142880000Y-101679375D01*
X122751837Y-102550000D02*
X142009375Y-102550000D01*
X121830000Y-101628162D02*
X121830000Y-99615000D01*
%TO.N,Pixel*%
X114220000Y-106030000D02*
X114210000Y-106020000D01*
X114230000Y-106054142D02*
X114230000Y-113050000D01*
%TO.N,R4*%
X126060000Y-113800000D02*
X126085000Y-113775000D01*
X142907243Y-113750000D02*
X126145355Y-113750000D01*
X144290000Y-112367243D02*
X144290000Y-82146288D01*
X144290000Y-74058488D02*
X144290000Y-73000121D01*
X116750000Y-72624558D02*
X116750000Y-76755000D01*
X143299878Y-72010000D02*
X117364558Y-72010000D01*
%TO.N,R3*%
X115336690Y-71110000D02*
X143478248Y-71110000D01*
X145100000Y-72731751D02*
X145100000Y-111520000D01*
X114210000Y-72236690D02*
X114210000Y-76755000D01*
%TO.N,R2*%
X161080000Y-112370000D02*
X161120000Y-112410000D01*
X161040000Y-71070624D02*
X161040000Y-112273431D01*
X112438198Y-70200000D02*
X160169375Y-70200000D01*
X111670000Y-70968198D02*
X111670000Y-76755000D01*
%TO.N,R1*%
X177267781Y-114080000D02*
X185814106Y-114080000D01*
X187470000Y-70775182D02*
X187470000Y-112424106D01*
X177135000Y-114025000D02*
X177080000Y-113970000D01*
X109130000Y-70758111D02*
X109130000Y-76755000D01*
X185984817Y-69290000D02*
X110598111Y-69290000D01*
%TO.N,GND*%
X185784730Y-89100000D02*
X184105000Y-89100000D01*
X186570000Y-111635025D02*
X186570000Y-89885269D01*
X177514594Y-112830000D02*
X185375025Y-112830000D01*
X175210000Y-115134594D02*
X175210000Y-115360000D01*
X177779289Y-116540000D02*
X176390000Y-116540000D01*
X174030000Y-116540000D02*
X161240000Y-116540000D01*
%TO.N,+3V3*%
X119290000Y-66325000D02*
X119290000Y-67334522D01*
X107306984Y-68410000D02*
X118214522Y-68410000D01*
X106590000Y-69126984D02*
X106590000Y-76755000D01*
D27*
%TO.N,L3*%
X138270279Y-143650000D02*
X139546461Y-143650000D01*
X134600000Y-147320279D02*
X134600000Y-151455000D01*
X143035000Y-142205000D02*
X144480000Y-140760000D01*
D26*
%TO.N,SCL*%
X119290000Y-96456984D02*
X119290000Y-99615000D01*
X118573015Y-95740000D02*
X102332634Y-95740000D01*
X108813963Y-67340000D02*
X114150000Y-67340000D01*
X104966207Y-68933792D02*
X103533792Y-70366206D01*
X101940000Y-74213963D02*
X101940000Y-95347365D01*
%TO.N,SDA*%
X108503963Y-66370000D02*
X116425649Y-66370000D01*
X102593792Y-70026207D02*
X104656206Y-67963792D01*
X101000000Y-95646949D02*
X101000000Y-73873963D01*
X116135441Y-96620000D02*
X101973050Y-96620000D01*
X116750000Y-97234558D02*
X116750000Y-99615000D01*
X116750000Y-66045649D02*
X116750000Y-62170000D01*
X116750000Y-66495000D02*
X116750000Y-66314350D01*
%TO.N,+3V3*%
X149400000Y-64479081D02*
X149400000Y-62390000D01*
X120675000Y-64940000D02*
X148939081Y-64940000D01*
%TO.N,SDA*%
X116972738Y-67032738D02*
X117136758Y-67196758D01*
X117800000Y-67370000D02*
X117555000Y-67370000D01*
%TO.N,GND*%
X146074486Y-60719622D02*
X110394544Y-60689686D01*
X109500376Y-61059623D02*
X109391629Y-61168370D01*
X146860000Y-61505408D02*
X146860000Y-62390000D01*
X109130000Y-61800000D02*
X109130000Y-62170000D01*
%TO.N,+3V3*%
X119290000Y-63555000D02*
X119290000Y-62170000D01*
%TO.N,GND*%
X114346288Y-116540000D02*
X126970000Y-116540000D01*
X126970000Y-116540000D02*
X144340000Y-116540000D01*
X161240000Y-116540000D02*
X144340000Y-116540000D01*
X177950000Y-116440000D02*
X177900000Y-116490000D01*
X104109998Y-116540000D02*
X105713427Y-116540000D01*
D27*
X102110000Y-118539998D02*
X102110000Y-148633603D01*
X102110000Y-112540002D02*
X102110000Y-107580000D01*
D26*
%TO.N,TXD*%
X174160000Y-92540000D02*
X174052500Y-92432500D01*
X173945000Y-92172972D02*
X173945000Y-89100000D01*
%TO.N,RXD*%
X176480000Y-92540000D02*
X176482500Y-92537500D01*
X176485000Y-92531464D02*
X176485000Y-89100000D01*
%TO.N,GND*%
X109130000Y-104268076D02*
X109130000Y-99615000D01*
D27*
X108908076Y-104490000D02*
X103236690Y-104490000D01*
X109091923Y-104490000D02*
X129410000Y-104490000D01*
X103010000Y-150170000D02*
X102560000Y-149720000D01*
X109614450Y-158678444D02*
X110341903Y-158678444D01*
X117552097Y-158677976D02*
X162042695Y-158673162D01*
X107910000Y-156973993D02*
X107910000Y-156375000D01*
X103010000Y-150170000D02*
X106987225Y-154147225D01*
X161960000Y-157190796D02*
X161960000Y-151485000D01*
X175562146Y-158540000D02*
X162364152Y-158540000D01*
X162270000Y-157939203D02*
X162270000Y-158445847D01*
X179130000Y-154972146D02*
X179130000Y-151460000D01*
D25*
%TO.N,P*%
X167250000Y-123867781D02*
X167250000Y-126690000D01*
X150790000Y-123590000D02*
X151050000Y-123330000D01*
X150530000Y-124217695D02*
X150530000Y-126610000D01*
D27*
%TO.N,GND*%
X102110000Y-105616690D02*
X102110000Y-107580000D01*
%TO.N,+5V*%
X129115000Y-107285000D02*
X129410000Y-106990000D01*
X128402806Y-107580000D02*
X120110000Y-107580000D01*
%TO.N,L1*%
X144760000Y-149773172D02*
X144760000Y-151455000D01*
X178150000Y-142910603D02*
X178150000Y-140840000D01*
X173250603Y-147810000D02*
X146723172Y-147810000D01*
%TO.N,L2*%
X160206514Y-144643485D02*
X160104999Y-144744999D01*
X157461436Y-145840000D02*
X141404177Y-145840000D01*
X161200000Y-142245000D02*
X161200000Y-140840000D01*
X139680000Y-147564177D02*
X139680000Y-151455000D01*
%TO.N,L4*%
X129520000Y-147867142D02*
X129520000Y-151455000D01*
X127530000Y-143062857D02*
X127530000Y-140760000D01*
D25*
%TO.N,N*%
X117390000Y-151405000D02*
X124354644Y-151405000D01*
X124415000Y-151430000D02*
X124440000Y-151455000D01*
X117390000Y-151405000D02*
X117390000Y-149317500D01*
X115089342Y-144929342D02*
X115913914Y-145753914D01*
X114110000Y-142565000D02*
X114110000Y-141180000D01*
%TO.N,P*%
X112310000Y-149557500D02*
X112310000Y-151405000D01*
X109570175Y-144970175D02*
X111003620Y-146403620D01*
X108110000Y-140280000D02*
X108110000Y-141180000D01*
X108110000Y-141445000D02*
X108110000Y-140280000D01*
X133580000Y-126610000D02*
X133580000Y-123940000D01*
%TD*%
M02*
