  0
SECTION
  2
HEADER
  9
$ACADVER
  1
AC1014
  9
$HANDSEED
  5
FFFF
  9
$INSUNITS
 70
     0
  9
$MEASUREMENT
 70
     1
  0
ENDSEC
  0
SECTION
  2
TABLES
  0
TABLE
  2
VPORT
  5
8
330
0
100
AcDbSymbolTable
 70
     4
  0
VPORT
  5
2E
330
8
100
AcDbSymbolTableRecord
100
AcDbViewportTableRecord
  2
*ACTIVE
 70
     0
 10
0.0
 20
0.0
 11
1.0
 21
1.0
 12
210.0
 22
148.5
 13
0.0
 23
0.0
 14
10.0
 24
10.0
 15
10.0
 25
10.0
 16
0.0
 26
0.0
 36
1.0
 17
0.0
 27
0.0
 37
0.0
 40
341.0
 41
1.24
 42
50.0
 43
0.0
 44
0.0
 50
0.0
 51
0.0
 71
     0
 72
   100
 73
     1
 74
     3
 75
     0
 76
     0
 77
     0
 78
     0
  0
ENDTAB
  0
TABLE
  2
LTYPE
  5
5
330
0
100
AcDbSymbolTable
 70
     1
  0
LTYPE
  5
14
330
5
100
AcDbSymbolTableRecord
100
AcDbLinetypeTableRecord
  2
BYBLOCK
 70
     0
  3

 72
    65
 73
     0
 40
0.0
  0
LTYPE
  5
15
330
5
100
AcDbSymbolTableRecord
100
AcDbLinetypeTableRecord
  2
BYLAYER
 70
     0
  3

 72
    65
 73
     0
 40
0.0
  0
LTYPE
  5
16
330
5
100
AcDbSymbolTableRecord
100
AcDbLinetypeTableRecord
  2
CONTINUOUS
 70
     0
  3
Solid line
 72
    65
 73
     0
 40
0.0
  0
ENDTAB
  0
TABLE
  2
LAYER
  5
2
100
AcDbSymbolTable
 70
1
  0
LAYER
  5
50
100
AcDbSymbolTableRecord
100
AcDbLayerTableRecord
  2
0
 70
0
  6
CONTINUOUS
  0
ENDTAB
  0
TABLE
  2
STYLE
  5
3
330
0
100
AcDbSymbolTable
 70
     1
  0
STYLE
  5
11
330
3
100
AcDbSymbolTableRecord
100
AcDbTextStyleTableRecord
  2
STANDARD
 70
     0
 40
0.0
 41
1.0
 50
0.0
 71
     0
 42
2.5
  3
txt
  4

  0
ENDTAB
  0
TABLE
  2
VIEW
  5
6
330
0
100
AcDbSymbolTable
 70
     0
  0
ENDTAB
  0
TABLE
  2
UCS
  5
7
330
0
100
AcDbSymbolTable
 70
     0
  0
ENDTAB
  0
TABLE
  2
APPID
  5
9
330
0
100
AcDbSymbolTable
 70
     2
  0
APPID
  5
12
330
9
100
AcDbSymbolTableRecord
100
AcDbRegAppTableRecord
  2
ACAD
 70
     0
  0
ENDTAB
  0
TABLE
  2
DIMSTYLE
  5
A
330
0
100
AcDbSymbolTable
 70
     1
  0
DIMSTYLE
105
27
330
A
100
AcDbSymbolTableRecord
100
AcDbDimStyleTableRecord
  2
ISO-25
 70
     0
  3

  4

  5

  6

  7

 40
1.0
 41
2.5
 42
0.625
 43
3.75
 44
1.25
 45
0.0
 46
0.0
 47
0.0
 48
0.0
140
2.5
141
2.5
142
0.0
143
0.03937007874016
144
1.0
145
0.0
146
1.0
147
0.625
 71
     0
 72
     0
 73
     0
 74
     0
 75
     0
 76
     0
 77
     1
 78
     8
170
     0
171
     3
172
     1
173
     0
174
     0
175
     0
176
     0
177
     0
178
     0
270
     2
271
     2
272
     2
273
     2
274
     3
340
11
275
     0
280
     0
281
     0
282
     0
283
     0
284
     8
285
     0
286
     0
287
     3
288
     0
  0
ENDTAB
  0
TABLE
  2
BLOCK_RECORD
  5
1
330
0
100
AcDbSymbolTable
 70
     1
  0
BLOCK_RECORD
  5
1F
330
1
100
AcDbSymbolTableRecord
100
AcDbBlockTableRecord
  2
*MODEL_SPACE
  0
BLOCK_RECORD
  5
1B
330
1
100
AcDbSymbolTableRecord
100
AcDbBlockTableRecord
  2
*PAPER_SPACE
  0
ENDTAB
  0
ENDSEC
  0
SECTION
  2
BLOCKS
  0
BLOCK
  5
20
330
1F
100
AcDbEntity
  8
0
100
AcDbBlockBegin
  2
*MODEL_SPACE
 70
     0
 10
0.0
 20
0.0
 30
0.0
  3
*MODEL_SPACE
  1

  0
ENDBLK
  5
21
330
1F
100
AcDbEntity
  8
0
100
AcDbBlockEnd
  0
BLOCK
  5
1C
330
1B
100
AcDbEntity
 67
     1
  8
0
100
AcDbBlockBegin
  2
*PAPER_SPACE
  1

  0
ENDBLK
  5
1D
330
1B
100
AcDbEntity
 67
     1
  8
0
100
AcDbBlockEnd
  0
ENDSEC
  0
SECTION
  2
ENTITIES
  0
SPLINE
  5
100
100
AcDbEntity
  8
0
 62
7
100
AcDbSpline
 70
8
 71
3
 72
8
 73
4
 74
0
 40
0
 40
0
 40
0
 40
0
 40
1
 40
1
 40
1
 40
1
 10
113.385827
 20
56.692913
 30
0.0
 10
113.385827
 20
76.947340
 30
0.0
 10
102.580218
 20
95.663202
 30
0.0
 10
85.039370
 20
105.790416
 30
0.0
  0
SPLINE
  5
101
100
AcDbEntity
  8
0
 62
7
100
AcDbSpline
 70
8
 71
3
 72
8
 73
4
 74
0
 40
0
 40
0
 40
0
 40
0
 40
1
 40
1
 40
1
 40
1
 10
85.039370
 20
105.790416
 30
0.0
 10
67.498522
 20
115.917629
 30
0.0
 10
45.887305
 20
115.917629
 30
0.0
 10
28.346457
 20
105.790416
 30
0.0
  0
SPLINE
  5
102
100
AcDbEntity
  8
0
 62
7
100
AcDbSpline
 70
8
 71
3
 72
8
 73
4
 74
0
 40
0
 40
0
 40
0
 40
0
 40
1
 40
1
 40
1
 40
1
 10
28.346457
 20
105.790416
 30
0.0
 10
10.805609
 20
95.663202
 30
0.0
 10
0.000001
 20
76.947340
 30
0.0
 10
0.000001
 20
56.692913
 30
0.0
  0
SPLINE
  5
103
100
AcDbEntity
  8
0
 62
7
100
AcDbSpline
 70
8
 71
3
 72
8
 73
4
 74
0
 40
0
 40
0
 40
0
 40
0
 40
1
 40
1
 40
1
 40
1
 10
0.000001
 20
56.692913
 30
0.0
 10
0.000001
 20
36.438486
 30
0.0
 10
10.805609
 20
17.722624
 30
0.0
 10
28.346457
 20
7.595410
 30
0.0
  0
SPLINE
  5
104
100
AcDbEntity
  8
0
 62
7
100
AcDbSpline
 70
8
 71
3
 72
8
 73
4
 74
0
 40
0
 40
0
 40
0
 40
0
 40
1
 40
1
 40
1
 40
1
 10
28.346457
 20
7.595410
 30
0.0
 10
45.887306
 20
-2.531803
 30
0.0
 10
67.498522
 20
-2.531803
 30
0.0
 10
85.039370
 20
7.595410
 30
0.0
  0
SPLINE
  5
105
100
AcDbEntity
  8
0
 62
7
100
AcDbSpline
 70
8
 71
3
 72
8
 73
4
 74
0
 40
0
 40
0
 40
0
 40
0
 40
1
 40
1
 40
1
 40
1
 10
85.039370
 20
7.595410
 30
0.0
 10
102.580219
 20
17.722624
 30
0.0
 10
113.385827
 20
36.438486
 30
0.0
 10
113.385827
 20
56.692913
 30
0.0
  0
LINE
  5
106
100
AcDbEntity
  8
0
 62
7
100
AcDbLine
 10
113.385827
 20
56.692913
 30
0.0
 11
113.385827
 21
56.692913
 31
0.0
  0
LINE
  5
107
100
AcDbEntity
  8
0
 62
7
100
AcDbLine
 10
0.944882
 20
46.389685
 30
0.0
 11
0.944882
 21
66.999685
 31
0.0
  0
LINE
  5
108
100
AcDbEntity
  8
0
 62
7
100
AcDbLine
 10
46.385400
 20
0.949685
 30
0.0
 11
67.000400
 21
0.949685
 31
0.0
  0
LINE
  5
109
100
AcDbEntity
  8
0
 62
7
100
AcDbLine
 10
1.889760
 20
42.179685
 30
0.0
 11
1.889760
 21
71.209685
 31
0.0
  0
LINE
  5
10a
100
AcDbEntity
  8
0
 62
7
100
AcDbLine
 10
42.177300
 20
1.889685
 30
0.0
 11
71.208600
 21
1.889685
 31
0.0
  0
LINE
  5
10b
100
AcDbEntity
  8
0
 62
7
100
AcDbLine
 10
2.834650
 20
38.989685
 30
0.0
 11
2.834650
 21
74.399685
 31
0.0
  0
LINE
  5
10c
100
AcDbEntity
  8
0
 62
7
100
AcDbLine
 10
38.990700
 20
2.829685
 30
0.0
 11
74.395100
 21
2.829685
 31
0.0
  0
LINE
  5
10d
100
AcDbEntity
  8
0
 62
7
100
AcDbLine
 10
3.779530
 20
36.339685
 30
0.0
 11
3.779530
 21
77.049685
 31
0.0
  0
LINE
  5
10e
100
AcDbEntity
  8
0
 62
7
100
AcDbLine
 10
36.339400
 20
3.779685
 30
0.0
 11
77.046400
 21
3.779685
 31
0.0
  0
LINE
  5
10f
100
AcDbEntity
  8
0
 62
7
100
AcDbLine
 10
4.724410
 20
34.039685
 30
0.0
 11
4.724410
 21
79.349685
 31
0.0
  0
LINE
  5
110
100
AcDbEntity
  8
0
 62
7
100
AcDbLine
 10
34.035400
 20
4.719685
 30
0.0
 11
79.350400
 21
4.719685
 31
0.0
  0
LINE
  5
111
100
AcDbEntity
  8
0
 62
7
100
AcDbLine
 10
5.669290
 20
31.979685
 30
0.0
 11
5.669290
 21
81.399685
 31
0.0
  0
LINE
  5
112
100
AcDbEntity
  8
0
 62
7
100
AcDbLine
 10
31.981200
 20
5.669685
 30
0.0
 11
81.404600
 21
5.669685
 31
0.0
  0
LINE
  5
113
100
AcDbEntity
  8
0
 62
7
100
AcDbLine
 10
6.614170
 20
30.119685
 30
0.0
 11
6.614170
 21
83.269685
 31
0.0
  0
LINE
  5
114
100
AcDbEntity
  8
0
 62
7
100
AcDbLine
 10
30.118300
 20
6.609685
 30
0.0
 11
83.267500
 21
6.609685
 31
0.0
  0
LINE
  5
115
100
AcDbEntity
  8
0
 62
7
100
AcDbLine
 10
7.559050
 20
28.409685
 30
0.0
 11
7.559050
 21
84.979685
 31
0.0
  0
LINE
  5
116
100
AcDbEntity
  8
0
 62
7
100
AcDbLine
 10
28.409600
 20
7.559685
 30
0.0
 11
84.976300
 21
7.559685
 31
0.0
  0
LINE
  5
117
100
AcDbEntity
  8
0
 62
7
100
AcDbLine
 10
8.503940
 20
26.829685
 30
0.0
 11
8.503940
 21
86.559685
 31
0.0
  0
LINE
  5
118
100
AcDbEntity
  8
0
 62
7
100
AcDbLine
 10
26.828200
 20
8.499685
 30
0.0
 11
86.557600
 21
8.499685
 31
0.0
  0
LINE
  5
119
100
AcDbEntity
  8
0
 62
7
100
AcDbLine
 10
9.448820
 20
25.349685
 30
0.0
 11
9.448820
 21
88.029685
 31
0.0
  0
LINE
  5
11a
100
AcDbEntity
  8
0
 62
7
100
AcDbLine
 10
25.354600
 20
9.449685
 30
0.0
 11
88.031200
 21
9.449685
 31
0.0
  0
LINE
  5
11b
100
AcDbEntity
  8
0
 62
7
100
AcDbLine
 10
10.393700
 20
23.979685
 30
0.0
 11
10.393700
 21
89.409685
 31
0.0
  0
LINE
  5
11c
100
AcDbEntity
  8
0
 62
7
100
AcDbLine
 10
23.975100
 20
10.389685
 30
0.0
 11
89.410800
 21
10.389685
 31
0.0
  0
LINE
  5
11d
100
AcDbEntity
  8
0
 62
7
100
AcDbLine
 10
11.338600
 20
22.679685
 30
0.0
 11
11.338600
 21
90.709685
 31
0.0
  0
LINE
  5
11e
100
AcDbEntity
  8
0
 62
7
100
AcDbLine
 10
22.677200
 20
11.339685
 30
0.0
 11
90.708700
 21
11.339685
 31
0.0
  0
LINE
  5
11f
100
AcDbEntity
  8
0
 62
7
100
AcDbLine
 10
12.283500
 20
21.449685
 30
0.0
 11
12.283500
 21
91.929685
 31
0.0
  0
LINE
  5
120
100
AcDbEntity
  8
0
 62
7
100
AcDbLine
 10
21.452600
 20
12.279685
 30
0.0
 11
91.933200
 21
12.279685
 31
0.0
  0
LINE
  5
121
100
AcDbEntity
  8
0
 62
7
100
AcDbLine
 10
13.228300
 20
20.289685
 30
0.0
 11
13.228300
 21
93.089685
 31
0.0
  0
LINE
  5
122
100
AcDbEntity
  8
0
 62
7
100
AcDbLine
 10
20.293400
 20
13.229685
 30
0.0
 11
93.092400
 21
13.229685
 31
0.0
  0
LINE
  5
123
100
AcDbEntity
  8
0
 62
7
100
AcDbLine
 10
14.173200
 20
19.189685
 30
0.0
 11
14.173200
 21
94.189685
 31
0.0
  0
LINE
  5
124
100
AcDbEntity
  8
0
 62
7
100
AcDbLine
 10
19.194000
 20
14.169685
 30
0.0
 11
94.191900
 21
14.169685
 31
0.0
  0
LINE
  5
125
100
AcDbEntity
  8
0
 62
7
100
AcDbLine
 10
15.118100
 20
18.149685
 30
0.0
 11
15.118100
 21
95.239685
 31
0.0
  0
LINE
  5
126
100
AcDbEntity
  8
0
 62
7
100
AcDbLine
 10
18.149300
 20
15.119685
 30
0.0
 11
95.236500
 21
15.119685
 31
0.0
  0
LINE
  5
127
100
AcDbEntity
  8
0
 62
7
100
AcDbLine
 10
16.063000
 20
17.149685
 30
0.0
 11
16.063000
 21
96.229685
 31
0.0
  0
LINE
  5
128
100
AcDbEntity
  8
0
 62
7
100
AcDbLine
 10
17.154500
 20
16.059685
 30
0.0
 11
96.231300
 21
16.059685
 31
0.0
  0
LINE
  5
129
100
AcDbEntity
  8
0
 62
7
100
AcDbLine
 10
17.007900
 20
16.209685
 30
0.0
 11
17.007900
 21
97.179685
 31
0.0
  0
LINE
  5
12a
100
AcDbEntity
  8
0
 62
7
100
AcDbLine
 10
16.206200
 20
17.009685
 30
0.0
 11
97.179600
 21
17.009685
 31
0.0
  0
LINE
  5
12b
100
AcDbEntity
  8
0
 62
7
100
AcDbLine
 10
17.952800
 20
15.299685
 30
0.0
 11
17.952800
 21
98.089685
 31
0.0
  0
LINE
  5
12c
100
AcDbEntity
  8
0
 62
7
100
AcDbLine
 10
15.301000
 20
17.949685
 30
0.0
 11
98.084800
 21
17.949685
 31
0.0
  0
LINE
  5
12d
100
AcDbEntity
  8
0
 62
7
100
AcDbLine
 10
18.897600
 20
14.439685
 30
0.0
 11
18.897600
 21
98.949685
 31
0.0
  0
LINE
  5
12e
100
AcDbEntity
  8
0
 62
7
100
AcDbLine
 10
14.436700
 20
18.899685
 30
0.0
 11
98.949200
 21
18.899685
 31
0.0
  0
LINE
  5
12f
100
AcDbEntity
  8
0
 62
7
100
AcDbLine
 10
19.842500
 20
13.609685
 30
0.0
 11
19.842500
 21
99.779685
 31
0.0
  0
LINE
  5
130
100
AcDbEntity
  8
0
 62
7
100
AcDbLine
 10
13.610100
 20
19.839685
 30
0.0
 11
99.775700
 21
19.839685
 31
0.0
  0
LINE
  5
131
100
AcDbEntity
  8
0
 62
7
100
AcDbLine
 10
20.787400
 20
12.819685
 30
0.0
 11
20.787400
 21
100.569685
 31
0.0
  0
LINE
  5
132
100
AcDbEntity
  8
0
 62
7
100
AcDbLine
 10
12.819400
 20
20.789685
 30
0.0
 11
100.566000
 21
20.789685
 31
0.0
  0
LINE
  5
133
100
AcDbEntity
  8
0
 62
7
100
AcDbLine
 10
21.732300
 20
12.059685
 30
0.0
 11
21.732300
 21
101.319685
 31
0.0
  0
LINE
  5
134
100
AcDbEntity
  8
0
 62
7
100
AcDbLine
 10
12.062700
 20
21.729685
 30
0.0
 11
101.323000
 21
21.729685
 31
0.0
  0
LINE
  5
135
100
AcDbEntity
  8
0
 62
7
100
AcDbLine
 10
22.677200
 20
11.339685
 30
0.0
 11
22.677200
 21
102.049685
 31
0.0
  0
LINE
  5
136
100
AcDbEntity
  8
0
 62
7
100
AcDbLine
 10
11.338600
 20
22.679685
 30
0.0
 11
102.047000
 21
22.679685
 31
0.0
  0
LINE
  5
137
100
AcDbEntity
  8
0
 62
7
100
AcDbLine
 10
23.622000
 20
10.649685
 30
0.0
 11
23.622000
 21
102.739685
 31
0.0
  0
LINE
  5
138
100
AcDbEntity
  8
0
 62
7
100
AcDbLine
 10
10.645000
 20
23.619685
 30
0.0
 11
102.741000
 21
23.619685
 31
0.0
  0
LINE
  5
139
100
AcDbEntity
  8
0
 62
7
100
AcDbLine
 10
24.566900
 20
9.979685
 30
0.0
 11
24.566900
 21
103.409685
 31
0.0
  0
LINE
  5
13a
100
AcDbEntity
  8
0
 62
7
100
AcDbLine
 10
9.980980
 20
24.569685
 30
0.0
 11
103.405000
 21
24.569685
 31
0.0
  0
LINE
  5
13b
100
AcDbEntity
  8
0
 62
7
100
AcDbLine
 10
25.511800
 20
9.349685
 30
0.0
 11
25.511800
 21
104.039685
 31
0.0
  0
LINE
  5
13c
100
AcDbEntity
  8
0
 62
7
100
AcDbLine
 10
9.344880
 20
25.509685
 30
0.0
 11
104.041000
 21
25.509685
 31
0.0
  0
LINE
  5
13d
100
AcDbEntity
  8
0
 62
7
100
AcDbLine
 10
26.456700
 20
8.739685
 30
0.0
 11
26.456700
 21
104.649685
 31
0.0
  0
LINE
  5
13e
100
AcDbEntity
  8
0
 62
7
100
AcDbLine
 10
8.736000
 20
26.459685
 30
0.0
 11
104.650000
 21
26.459685
 31
0.0
  0
LINE
  5
13f
100
AcDbEntity
  8
0
 62
7
100
AcDbLine
 10
27.401600
 20
8.149685
 30
0.0
 11
27.401600
 21
105.229685
 31
0.0
  0
LINE
  5
140
100
AcDbEntity
  8
0
 62
7
100
AcDbLine
 10
8.153200
 20
27.399685
 30
0.0
 11
105.233000
 21
27.399685
 31
0.0
  0
LINE
  5
141
100
AcDbEntity
  8
0
 62
7
100
AcDbLine
 10
28.346500
 20
7.599685
 30
0.0
 11
28.346500
 21
105.789685
 31
0.0
  0
LINE
  5
142
100
AcDbEntity
  8
0
 62
7
100
AcDbLine
 10
7.595340
 20
28.349685
 30
0.0
 11
105.790000
 21
28.349685
 31
0.0
  0
LINE
  5
143
100
AcDbEntity
  8
0
 62
7
100
AcDbLine
 10
29.291300
 20
7.059685
 30
0.0
 11
29.291300
 21
106.319685
 31
0.0
  0
LINE
  5
144
100
AcDbEntity
  8
0
 62
7
100
AcDbLine
 10
7.062050
 20
29.289685
 30
0.0
 11
106.324000
 21
29.289685
 31
0.0
  0
LINE
  5
145
100
AcDbEntity
  8
0
 62
7
100
AcDbLine
 10
30.236200
 20
6.549685
 30
0.0
 11
30.236200
 21
106.829685
 31
0.0
  0
LINE
  5
146
100
AcDbEntity
  8
0
 62
7
100
AcDbLine
 10
6.551810
 20
30.239685
 30
0.0
 11
106.834000
 21
30.239685
 31
0.0
  0
LINE
  5
147
100
AcDbEntity
  8
0
 62
7
100
AcDbLine
 10
31.181100
 20
6.059685
 30
0.0
 11
31.181100
 21
107.319685
 31
0.0
  0
LINE
  5
148
100
AcDbEntity
  8
0
 62
7
100
AcDbLine
 10
6.064630
 20
31.179685
 30
0.0
 11
107.321000
 21
31.179685
 31
0.0
  0
LINE
  5
149
100
AcDbEntity
  8
0
 62
7
100
AcDbLine
 10
32.126000
 20
5.599685
 30
0.0
 11
32.126000
 21
107.789685
 31
0.0
  0
LINE
  5
14a
100
AcDbEntity
  8
0
 62
7
100
AcDbLine
 10
5.599370
 20
32.129685
 30
0.0
 11
107.786000
 21
32.129685
 31
0.0
  0
LINE
  5
14b
100
AcDbEntity
  8
0
 62
7
100
AcDbLine
 10
33.070900
 20
5.159685
 30
0.0
 11
33.070900
 21
108.229685
 31
0.0
  0
LINE
  5
14c
100
AcDbEntity
  8
0
 62
7
100
AcDbLine
 10
5.155650
 20
33.069685
 30
0.0
 11
108.230000
 21
33.069685
 31
0.0
  0
LINE
  5
14d
100
AcDbEntity
  8
0
 62
7
100
AcDbLine
 10
34.015700
 20
4.729685
 30
0.0
 11
34.015700
 21
108.649685
 31
0.0
  0
LINE
  5
14e
100
AcDbEntity
  8
0
 62
7
100
AcDbLine
 10
4.733100
 20
34.019685
 30
0.0
 11
108.653000
 21
34.019685
 31
0.0
  0
LINE
  5
14f
100
AcDbEntity
  8
0
 62
7
100
AcDbLine
 10
34.960600
 20
4.329685
 30
0.0
 11
34.960600
 21
109.059685
 31
0.0
  0
LINE
  5
150
100
AcDbEntity
  8
0
 62
7
100
AcDbLine
 10
4.330580
 20
34.959685
 30
0.0
 11
109.055000
 21
34.959685
 31
0.0
  0
LINE
  5
151
100
AcDbEntity
  8
0
 62
7
100
AcDbLine
 10
35.905500
 20
3.949685
 30
0.0
 11
35.905500
 21
109.439685
 31
0.0
  0
LINE
  5
152
100
AcDbEntity
  8
0
 62
7
100
AcDbLine
 10
3.948470
 20
35.909685
 30
0.0
 11
109.437000
 21
35.909685
 31
0.0
  0
LINE
  5
153
100
AcDbEntity
  8
0
 62
7
100
AcDbLine
 10
36.850400
 20
3.589685
 30
0.0
 11
36.850400
 21
109.799685
 31
0.0
  0
LINE
  5
154
100
AcDbEntity
  8
0
 62
7
100
AcDbLine
 10
3.586020
 20
36.849685
 30
0.0
 11
109.800000
 21
36.849685
 31
0.0
  0
LINE
  5
155
100
AcDbEntity
  8
0
 62
7
100
AcDbLine
 10
37.795300
 20
3.239685
 30
0.0
 11
37.795300
 21
110.139685
 31
0.0
  0
LINE
  5
156
100
AcDbEntity
  8
0
 62
7
100
AcDbLine
 10
3.242460
 20
37.799685
 30
0.0
 11
110.143000
 21
37.799685
 31
0.0
  0
LINE
  5
157
100
AcDbEntity
  8
0
 62
7
100
AcDbLine
 10
38.740200
 20
2.919685
 30
0.0
 11
38.740200
 21
110.469685
 31
0.0
  0
LINE
  5
158
100
AcDbEntity
  8
0
 62
7
100
AcDbLine
 10
2.917420
 20
38.739685
 30
0.0
 11
110.468000
 21
38.739685
 31
0.0
  0
LINE
  5
159
100
AcDbEntity
  8
0
 62
7
100
AcDbLine
 10
39.685000
 20
2.609685
 30
0.0
 11
39.685000
 21
110.769685
 31
0.0
  0
LINE
  5
15a
100
AcDbEntity
  8
0
 62
7
100
AcDbLine
 10
2.611280
 20
39.689685
 30
0.0
 11
110.775000
 21
39.689685
 31
0.0
  0
LINE
  5
15b
100
AcDbEntity
  8
0
 62
7
100
AcDbLine
 10
40.629900
 20
2.319685
 30
0.0
 11
40.629900
 21
111.059685
 31
0.0
  0
LINE
  5
15c
100
AcDbEntity
  8
0
 62
7
100
AcDbLine
 10
2.323280
 20
40.629685
 30
0.0
 11
111.063000
 21
40.629685
 31
0.0
  0
LINE
  5
15d
100
AcDbEntity
  8
0
 62
7
100
AcDbLine
 10
41.574800
 20
2.049685
 30
0.0
 11
41.574800
 21
111.329685
 31
0.0
  0
LINE
  5
15e
100
AcDbEntity
  8
0
 62
7
100
AcDbLine
 10
2.053040
 20
41.579685
 30
0.0
 11
111.333000
 21
41.579685
 31
0.0
  0
LINE
  5
15f
100
AcDbEntity
  8
0
 62
7
100
AcDbLine
 10
42.519700
 20
1.799685
 30
0.0
 11
42.519700
 21
111.589685
 31
0.0
  0
LINE
  5
160
100
AcDbEntity
  8
0
 62
7
100
AcDbLine
 10
1.800190
 20
42.519685
 30
0.0
 11
111.586000
 21
42.519685
 31
0.0
  0
LINE
  5
161
100
AcDbEntity
  8
0
 62
7
100
AcDbLine
 10
43.464600
 20
1.569685
 30
0.0
 11
43.464600
 21
111.819685
 31
0.0
  0
LINE
  5
162
100
AcDbEntity
  8
0
 62
7
100
AcDbLine
 10
1.564720
 20
43.459685
 30
0.0
 11
111.821000
 21
43.459685
 31
0.0
  0
LINE
  5
163
100
AcDbEntity
  8
0
 62
7
100
AcDbLine
 10
44.409400
 20
1.349685
 30
0.0
 11
44.409400
 21
112.039685
 31
0.0
  0
LINE
  5
164
100
AcDbEntity
  8
0
 62
7
100
AcDbLine
 10
1.346650
 20
44.409685
 30
0.0
 11
112.039000
 21
44.409685
 31
0.0
  0
LINE
  5
165
100
AcDbEntity
  8
0
 62
7
100
AcDbLine
 10
45.354300
 20
1.149685
 30
0.0
 11
45.354300
 21
112.239685
 31
0.0
  0
LINE
  5
166
100
AcDbEntity
  8
0
 62
7
100
AcDbLine
 10
1.145580
 20
45.349685
 30
0.0
 11
112.240000
 21
45.349685
 31
0.0
  0
LINE
  5
167
100
AcDbEntity
  8
0
 62
7
100
AcDbLine
 10
46.299200
 20
0.959685
 30
0.0
 11
46.299200
 21
112.429685
 31
0.0
  0
LINE
  5
168
100
AcDbEntity
  8
0
 62
7
100
AcDbLine
 10
0.960756
 20
46.299685
 30
0.0
 11
112.425000
 21
46.299685
 31
0.0
  0
LINE
  5
169
100
AcDbEntity
  8
0
 62
7
100
AcDbLine
 10
47.244100
 20
0.789685
 30
0.0
 11
47.244100
 21
112.589685
 31
0.0
  0
LINE
  5
16a
100
AcDbEntity
  8
0
 62
7
100
AcDbLine
 10
0.792945
 20
47.239685
 30
0.0
 11
112.593000
 21
47.239685
 31
0.0
  0
LINE
  5
16b
100
AcDbEntity
  8
0
 62
7
100
AcDbLine
 10
48.189000
 20
0.639685
 30
0.0
 11
48.189000
 21
112.739685
 31
0.0
  0
LINE
  5
16c
100
AcDbEntity
  8
0
 62
7
100
AcDbLine
 10
0.641386
 20
48.189685
 30
0.0
 11
112.744000
 21
48.189685
 31
0.0
  0
LINE
  5
16d
100
AcDbEntity
  8
0
 62
7
100
AcDbLine
 10
49.133900
 20
0.509685
 30
0.0
 11
49.133900
 21
112.879685
 31
0.0
  0
LINE
  5
16e
100
AcDbEntity
  8
0
 62
7
100
AcDbLine
 10
0.506079
 20
49.129685
 30
0.0
 11
112.880000
 21
49.129685
 31
0.0
  0
LINE
  5
16f
100
AcDbEntity
  8
0
 62
7
100
AcDbLine
 10
50.078700
 20
0.389685
 30
0.0
 11
50.078700
 21
112.999685
 31
0.0
  0
LINE
  5
170
100
AcDbEntity
  8
0
 62
7
100
AcDbLine
 10
0.387024
 20
50.079685
 30
0.0
 11
112.999000
 21
50.079685
 31
0.0
  0
LINE
  5
171
100
AcDbEntity
  8
0
 62
7
100
AcDbLine
 10
51.023600
 20
0.279685
 30
0.0
 11
51.023600
 21
113.099685
 31
0.0
  0
LINE
  5
172
100
AcDbEntity
  8
0
 62
7
100
AcDbLine
 10
0.284220
 20
51.019685
 30
0.0
 11
113.102000
 21
51.019685
 31
0.0
  0
LINE
  5
173
100
AcDbEntity
  8
0
 62
7
100
AcDbLine
 10
51.968500
 20
0.199685
 30
0.0
 11
51.968500
 21
113.189685
 31
0.0
  0
LINE
  5
174
100
AcDbEntity
  8
0
 62
7
100
AcDbLine
 10
0.197291
 20
51.969685
 30
0.0
 11
113.189000
 21
51.969685
 31
0.0
  0
LINE
  5
175
100
AcDbEntity
  8
0
 62
7
100
AcDbLine
 10
52.913400
 20
0.129685
 30
0.0
 11
52.913400
 21
113.259685
 31
0.0
  0
LINE
  5
176
100
AcDbEntity
  8
0
 62
7
100
AcDbLine
 10
0.126236
 20
52.909685
 30
0.0
 11
113.260000
 21
52.909685
 31
0.0
  0
LINE
  5
177
100
AcDbEntity
  8
0
 62
7
100
AcDbLine
 10
53.858300
 20
0.069685
 30
0.0
 11
53.858300
 21
113.319685
 31
0.0
  0
LINE
  5
178
100
AcDbEntity
  8
0
 62
7
100
AcDbLine
 10
0.071055
 20
53.859685
 30
0.0
 11
113.315000
 21
53.859685
 31
0.0
  0
LINE
  5
179
100
AcDbEntity
  8
0
 62
7
100
AcDbLine
 10
54.803200
 20
0.029685
 30
0.0
 11
54.803200
 21
113.349685
 31
0.0
  0
LINE
  5
17a
100
AcDbEntity
  8
0
 62
7
100
AcDbLine
 10
0.031370
 20
54.799685
 30
0.0
 11
113.354000
 21
54.799685
 31
0.0
  0
LINE
  5
17b
100
AcDbEntity
  8
0
 62
7
100
AcDbLine
 10
55.748000
 20
0.009685
 30
0.0
 11
55.748000
 21
113.379685
 31
0.0
  0
LINE
  5
17c
100
AcDbEntity
  8
0
 62
7
100
AcDbLine
 10
0.007937
 20
55.749685
 30
0.0
 11
113.378000
 21
55.749685
 31
0.0
  0
LINE
  5
17d
100
AcDbEntity
  8
0
 62
7
100
AcDbLine
 10
56.692900
 20
-0.000315
 30
0.0
 11
56.692900
 21
113.389685
 31
0.0
  0
LINE
  5
17e
100
AcDbEntity
  8
0
 62
7
100
AcDbLine
 10
0.000000
 20
56.689685
 30
0.0
 11
113.386000
 21
56.689685
 31
0.0
  0
LINE
  5
17f
100
AcDbEntity
  8
0
 62
7
100
AcDbLine
 10
57.637800
 20
0.009685
 30
0.0
 11
57.637800
 21
113.379685
 31
0.0
  0
LINE
  5
180
100
AcDbEntity
  8
0
 62
7
100
AcDbLine
 10
0.007937
 20
57.639685
 30
0.0
 11
113.378000
 21
57.639685
 31
0.0
  0
LINE
  5
181
100
AcDbEntity
  8
0
 62
7
100
AcDbLine
 10
58.582700
 20
0.029685
 30
0.0
 11
58.582700
 21
113.349685
 31
0.0
  0
LINE
  5
182
100
AcDbEntity
  8
0
 62
7
100
AcDbLine
 10
0.031370
 20
58.579685
 30
0.0
 11
113.354000
 21
58.579685
 31
0.0
  0
LINE
  5
183
100
AcDbEntity
  8
0
 62
7
100
AcDbLine
 10
59.527600
 20
0.069685
 30
0.0
 11
59.527600
 21
113.319685
 31
0.0
  0
LINE
  5
184
100
AcDbEntity
  8
0
 62
7
100
AcDbLine
 10
0.071055
 20
59.529685
 30
0.0
 11
113.315000
 21
59.529685
 31
0.0
  0
LINE
  5
185
100
AcDbEntity
  8
0
 62
7
100
AcDbLine
 10
60.472400
 20
0.129685
 30
0.0
 11
60.472400
 21
113.259685
 31
0.0
  0
LINE
  5
186
100
AcDbEntity
  8
0
 62
7
100
AcDbLine
 10
0.126236
 20
60.469685
 30
0.0
 11
113.260000
 21
60.469685
 31
0.0
  0
LINE
  5
187
100
AcDbEntity
  8
0
 62
7
100
AcDbLine
 10
61.417300
 20
0.199685
 30
0.0
 11
61.417300
 21
113.189685
 31
0.0
  0
LINE
  5
188
100
AcDbEntity
  8
0
 62
7
100
AcDbLine
 10
0.197291
 20
61.419685
 30
0.0
 11
113.189000
 21
61.419685
 31
0.0
  0
LINE
  5
189
100
AcDbEntity
  8
0
 62
7
100
AcDbLine
 10
62.362200
 20
0.279685
 30
0.0
 11
62.362200
 21
113.099685
 31
0.0
  0
LINE
  5
18a
100
AcDbEntity
  8
0
 62
7
100
AcDbLine
 10
0.284220
 20
62.359685
 30
0.0
 11
113.102000
 21
62.359685
 31
0.0
  0
LINE
  5
18b
100
AcDbEntity
  8
0
 62
7
100
AcDbLine
 10
63.307100
 20
0.389685
 30
0.0
 11
63.307100
 21
112.999685
 31
0.0
  0
LINE
  5
18c
100
AcDbEntity
  8
0
 62
7
100
AcDbLine
 10
0.387024
 20
63.309685
 30
0.0
 11
112.999000
 21
63.309685
 31
0.0
  0
LINE
  5
18d
100
AcDbEntity
  8
0
 62
7
100
AcDbLine
 10
64.252000
 20
0.509685
 30
0.0
 11
64.252000
 21
112.879685
 31
0.0
  0
LINE
  5
18e
100
AcDbEntity
  8
0
 62
7
100
AcDbLine
 10
0.506079
 20
64.249685
 30
0.0
 11
112.880000
 21
64.249685
 31
0.0
  0
LINE
  5
18f
100
AcDbEntity
  8
0
 62
7
100
AcDbLine
 10
65.196800
 20
0.639685
 30
0.0
 11
65.196800
 21
112.739685
 31
0.0
  0
LINE
  5
190
100
AcDbEntity
  8
0
 62
7
100
AcDbLine
 10
0.641386
 20
65.199685
 30
0.0
 11
112.744000
 21
65.199685
 31
0.0
  0
LINE
  5
191
100
AcDbEntity
  8
0
 62
7
100
AcDbLine
 10
66.141700
 20
0.789685
 30
0.0
 11
66.141700
 21
112.589685
 31
0.0
  0
LINE
  5
192
100
AcDbEntity
  8
0
 62
7
100
AcDbLine
 10
0.792945
 20
66.139685
 30
0.0
 11
112.593000
 21
66.139685
 31
0.0
  0
LINE
  5
193
100
AcDbEntity
  8
0
 62
7
100
AcDbLine
 10
67.086600
 20
0.959685
 30
0.0
 11
67.086600
 21
112.429685
 31
0.0
  0
LINE
  5
194
100
AcDbEntity
  8
0
 62
7
100
AcDbLine
 10
0.960756
 20
67.089685
 30
0.0
 11
112.425000
 21
67.089685
 31
0.0
  0
LINE
  5
195
100
AcDbEntity
  8
0
 62
7
100
AcDbLine
 10
68.031500
 20
1.149685
 30
0.0
 11
68.031500
 21
112.239685
 31
0.0
  0
LINE
  5
196
100
AcDbEntity
  8
0
 62
7
100
AcDbLine
 10
1.145580
 20
68.029685
 30
0.0
 11
112.240000
 21
68.029685
 31
0.0
  0
LINE
  5
197
100
AcDbEntity
  8
0
 62
7
100
AcDbLine
 10
68.976400
 20
1.349685
 30
0.0
 11
68.976400
 21
112.039685
 31
0.0
  0
LINE
  5
198
100
AcDbEntity
  8
0
 62
7
100
AcDbLine
 10
1.346650
 20
68.979685
 30
0.0
 11
112.039000
 21
68.979685
 31
0.0
  0
LINE
  5
199
100
AcDbEntity
  8
0
 62
7
100
AcDbLine
 10
69.921300
 20
1.569685
 30
0.0
 11
69.921300
 21
111.819685
 31
0.0
  0
LINE
  5
19a
100
AcDbEntity
  8
0
 62
7
100
AcDbLine
 10
1.564720
 20
69.919685
 30
0.0
 11
111.821000
 21
69.919685
 31
0.0
  0
LINE
  5
19b
100
AcDbEntity
  8
0
 62
7
100
AcDbLine
 10
70.866100
 20
1.799685
 30
0.0
 11
70.866100
 21
111.589685
 31
0.0
  0
LINE
  5
19c
100
AcDbEntity
  8
0
 62
7
100
AcDbLine
 10
1.800190
 20
70.869685
 30
0.0
 11
111.586000
 21
70.869685
 31
0.0
  0
LINE
  5
19d
100
AcDbEntity
  8
0
 62
7
100
AcDbLine
 10
71.811000
 20
2.049685
 30
0.0
 11
71.811000
 21
111.329685
 31
0.0
  0
LINE
  5
19e
100
AcDbEntity
  8
0
 62
7
100
AcDbLine
 10
2.053040
 20
71.809685
 30
0.0
 11
111.333000
 21
71.809685
 31
0.0
  0
LINE
  5
19f
100
AcDbEntity
  8
0
 62
7
100
AcDbLine
 10
72.755900
 20
2.319685
 30
0.0
 11
72.755900
 21
111.059685
 31
0.0
  0
LINE
  5
1a0
100
AcDbEntity
  8
0
 62
7
100
AcDbLine
 10
2.323280
 20
72.759685
 30
0.0
 11
111.063000
 21
72.759685
 31
0.0
  0
LINE
  5
1a1
100
AcDbEntity
  8
0
 62
7
100
AcDbLine
 10
73.700800
 20
2.609685
 30
0.0
 11
73.700800
 21
110.769685
 31
0.0
  0
LINE
  5
1a2
100
AcDbEntity
  8
0
 62
7
100
AcDbLine
 10
2.611280
 20
73.699685
 30
0.0
 11
110.775000
 21
73.699685
 31
0.0
  0
LINE
  5
1a3
100
AcDbEntity
  8
0
 62
7
100
AcDbLine
 10
74.645700
 20
2.919685
 30
0.0
 11
74.645700
 21
110.469685
 31
0.0
  0
LINE
  5
1a4
100
AcDbEntity
  8
0
 62
7
100
AcDbLine
 10
2.917420
 20
74.649685
 30
0.0
 11
110.468000
 21
74.649685
 31
0.0
  0
LINE
  5
1a5
100
AcDbEntity
  8
0
 62
7
100
AcDbLine
 10
75.590600
 20
3.239685
 30
0.0
 11
75.590600
 21
110.139685
 31
0.0
  0
LINE
  5
1a6
100
AcDbEntity
  8
0
 62
7
100
AcDbLine
 10
3.242460
 20
75.589685
 30
0.0
 11
110.143000
 21
75.589685
 31
0.0
  0
LINE
  5
1a7
100
AcDbEntity
  8
0
 62
7
100
AcDbLine
 10
76.535400
 20
3.589685
 30
0.0
 11
76.535400
 21
109.799685
 31
0.0
  0
LINE
  5
1a8
100
AcDbEntity
  8
0
 62
7
100
AcDbLine
 10
3.586020
 20
76.539685
 30
0.0
 11
109.800000
 21
76.539685
 31
0.0
  0
LINE
  5
1a9
100
AcDbEntity
  8
0
 62
7
100
AcDbLine
 10
77.480300
 20
3.949685
 30
0.0
 11
77.480300
 21
109.439685
 31
0.0
  0
LINE
  5
1aa
100
AcDbEntity
  8
0
 62
7
100
AcDbLine
 10
3.948470
 20
77.479685
 30
0.0
 11
109.437000
 21
77.479685
 31
0.0
  0
LINE
  5
1ab
100
AcDbEntity
  8
0
 62
7
100
AcDbLine
 10
78.425200
 20
4.329685
 30
0.0
 11
78.425200
 21
109.059685
 31
0.0
  0
LINE
  5
1ac
100
AcDbEntity
  8
0
 62
7
100
AcDbLine
 10
4.330580
 20
78.429685
 30
0.0
 11
109.055000
 21
78.429685
 31
0.0
  0
LINE
  5
1ad
100
AcDbEntity
  8
0
 62
7
100
AcDbLine
 10
79.370100
 20
4.729685
 30
0.0
 11
79.370100
 21
108.649685
 31
0.0
  0
LINE
  5
1ae
100
AcDbEntity
  8
0
 62
7
100
AcDbLine
 10
4.733100
 20
79.369685
 30
0.0
 11
108.653000
 21
79.369685
 31
0.0
  0
LINE
  5
1af
100
AcDbEntity
  8
0
 62
7
100
AcDbLine
 10
80.315000
 20
5.159685
 30
0.0
 11
80.315000
 21
108.229685
 31
0.0
  0
LINE
  5
1b0
100
AcDbEntity
  8
0
 62
7
100
AcDbLine
 10
5.155650
 20
80.319685
 30
0.0
 11
108.230000
 21
80.319685
 31
0.0
  0
LINE
  5
1b1
100
AcDbEntity
  8
0
 62
7
100
AcDbLine
 10
81.259800
 20
5.599685
 30
0.0
 11
81.259800
 21
107.789685
 31
0.0
  0
LINE
  5
1b2
100
AcDbEntity
  8
0
 62
7
100
AcDbLine
 10
5.599370
 20
81.259685
 30
0.0
 11
107.786000
 21
81.259685
 31
0.0
  0
LINE
  5
1b3
100
AcDbEntity
  8
0
 62
7
100
AcDbLine
 10
82.204700
 20
6.059685
 30
0.0
 11
82.204700
 21
107.319685
 31
0.0
  0
LINE
  5
1b4
100
AcDbEntity
  8
0
 62
7
100
AcDbLine
 10
6.064630
 20
82.209685
 30
0.0
 11
107.321000
 21
82.209685
 31
0.0
  0
LINE
  5
1b5
100
AcDbEntity
  8
0
 62
7
100
AcDbLine
 10
83.149600
 20
6.549685
 30
0.0
 11
83.149600
 21
106.829685
 31
0.0
  0
LINE
  5
1b6
100
AcDbEntity
  8
0
 62
7
100
AcDbLine
 10
6.551810
 20
83.149685
 30
0.0
 11
106.834000
 21
83.149685
 31
0.0
  0
LINE
  5
1b7
100
AcDbEntity
  8
0
 62
7
100
AcDbLine
 10
84.094500
 20
7.059685
 30
0.0
 11
84.094500
 21
106.319685
 31
0.0
  0
LINE
  5
1b8
100
AcDbEntity
  8
0
 62
7
100
AcDbLine
 10
7.062050
 20
84.089685
 30
0.0
 11
106.324000
 21
84.089685
 31
0.0
  0
LINE
  5
1b9
100
AcDbEntity
  8
0
 62
7
100
AcDbLine
 10
85.039400
 20
7.599685
 30
0.0
 11
85.039400
 21
105.789685
 31
0.0
  0
LINE
  5
1ba
100
AcDbEntity
  8
0
 62
7
100
AcDbLine
 10
7.595340
 20
85.039685
 30
0.0
 11
105.790000
 21
85.039685
 31
0.0
  0
LINE
  5
1bb
100
AcDbEntity
  8
0
 62
7
100
AcDbLine
 10
85.984300
 20
8.149685
 30
0.0
 11
85.984300
 21
105.229685
 31
0.0
  0
LINE
  5
1bc
100
AcDbEntity
  8
0
 62
7
100
AcDbLine
 10
8.153200
 20
85.979685
 30
0.0
 11
105.233000
 21
85.979685
 31
0.0
  0
LINE
  5
1bd
100
AcDbEntity
  8
0
 62
7
100
AcDbLine
 10
86.929100
 20
8.739685
 30
0.0
 11
86.929100
 21
104.649685
 31
0.0
  0
LINE
  5
1be
100
AcDbEntity
  8
0
 62
7
100
AcDbLine
 10
8.736000
 20
86.929685
 30
0.0
 11
104.650000
 21
86.929685
 31
0.0
  0
LINE
  5
1bf
100
AcDbEntity
  8
0
 62
7
100
AcDbLine
 10
87.874000
 20
9.349685
 30
0.0
 11
87.874000
 21
104.039685
 31
0.0
  0
LINE
  5
1c0
100
AcDbEntity
  8
0
 62
7
100
AcDbLine
 10
9.344880
 20
87.869685
 30
0.0
 11
104.041000
 21
87.869685
 31
0.0
  0
LINE
  5
1c1
100
AcDbEntity
  8
0
 62
7
100
AcDbLine
 10
88.818900
 20
9.979685
 30
0.0
 11
88.818900
 21
103.409685
 31
0.0
  0
LINE
  5
1c2
100
AcDbEntity
  8
0
 62
7
100
AcDbLine
 10
9.980980
 20
88.819685
 30
0.0
 11
103.405000
 21
88.819685
 31
0.0
  0
LINE
  5
1c3
100
AcDbEntity
  8
0
 62
7
100
AcDbLine
 10
89.763800
 20
10.649685
 30
0.0
 11
89.763800
 21
102.739685
 31
0.0
  0
LINE
  5
1c4
100
AcDbEntity
  8
0
 62
7
100
AcDbLine
 10
10.645000
 20
89.759685
 30
0.0
 11
102.741000
 21
89.759685
 31
0.0
  0
LINE
  5
1c5
100
AcDbEntity
  8
0
 62
7
100
AcDbLine
 10
90.708700
 20
11.339685
 30
0.0
 11
90.708700
 21
102.049685
 31
0.0
  0
LINE
  5
1c6
100
AcDbEntity
  8
0
 62
7
100
AcDbLine
 10
11.338600
 20
90.709685
 30
0.0
 11
102.047000
 21
90.709685
 31
0.0
  0
LINE
  5
1c7
100
AcDbEntity
  8
0
 62
7
100
AcDbLine
 10
91.653500
 20
12.059685
 30
0.0
 11
91.653500
 21
101.319685
 31
0.0
  0
LINE
  5
1c8
100
AcDbEntity
  8
0
 62
7
100
AcDbLine
 10
12.062700
 20
91.649685
 30
0.0
 11
101.323000
 21
91.649685
 31
0.0
  0
LINE
  5
1c9
100
AcDbEntity
  8
0
 62
7
100
AcDbLine
 10
92.598400
 20
12.819685
 30
0.0
 11
92.598400
 21
100.569685
 31
0.0
  0
LINE
  5
1ca
100
AcDbEntity
  8
0
 62
7
100
AcDbLine
 10
12.819400
 20
92.599685
 30
0.0
 11
100.566000
 21
92.599685
 31
0.0
  0
LINE
  5
1cb
100
AcDbEntity
  8
0
 62
7
100
AcDbLine
 10
93.543300
 20
13.609685
 30
0.0
 11
93.543300
 21
99.779685
 31
0.0
  0
LINE
  5
1cc
100
AcDbEntity
  8
0
 62
7
100
AcDbLine
 10
13.610100
 20
93.539685
 30
0.0
 11
99.775700
 21
93.539685
 31
0.0
  0
LINE
  5
1cd
100
AcDbEntity
  8
0
 62
7
100
AcDbLine
 10
94.488200
 20
14.439685
 30
0.0
 11
94.488200
 21
98.949685
 31
0.0
  0
LINE
  5
1ce
100
AcDbEntity
  8
0
 62
7
100
AcDbLine
 10
14.436700
 20
94.489685
 30
0.0
 11
98.949200
 21
94.489685
 31
0.0
  0
LINE
  5
1cf
100
AcDbEntity
  8
0
 62
7
100
AcDbLine
 10
95.433100
 20
15.299685
 30
0.0
 11
95.433100
 21
98.089685
 31
0.0
  0
LINE
  5
1d0
100
AcDbEntity
  8
0
 62
7
100
AcDbLine
 10
15.301000
 20
95.429685
 30
0.0
 11
98.084800
 21
95.429685
 31
0.0
  0
LINE
  5
1d1
100
AcDbEntity
  8
0
 62
7
100
AcDbLine
 10
96.378000
 20
16.209685
 30
0.0
 11
96.378000
 21
97.179685
 31
0.0
  0
LINE
  5
1d2
100
AcDbEntity
  8
0
 62
7
100
AcDbLine
 10
16.206200
 20
96.379685
 30
0.0
 11
97.179600
 21
96.379685
 31
0.0
  0
LINE
  5
1d3
100
AcDbEntity
  8
0
 62
7
100
AcDbLine
 10
97.322800
 20
17.149685
 30
0.0
 11
97.322800
 21
96.229685
 31
0.0
  0
LINE
  5
1d4
100
AcDbEntity
  8
0
 62
7
100
AcDbLine
 10
17.154500
 20
97.319685
 30
0.0
 11
96.231300
 21
97.319685
 31
0.0
  0
LINE
  5
1d5
100
AcDbEntity
  8
0
 62
7
100
AcDbLine
 10
98.267700
 20
18.149685
 30
0.0
 11
98.267700
 21
95.239685
 31
0.0
  0
LINE
  5
1d6
100
AcDbEntity
  8
0
 62
7
100
AcDbLine
 10
18.149300
 20
98.269685
 30
0.0
 11
95.236500
 21
98.269685
 31
0.0
  0
LINE
  5
1d7
100
AcDbEntity
  8
0
 62
7
100
AcDbLine
 10
99.212600
 20
19.189685
 30
0.0
 11
99.212600
 21
94.189685
 31
0.0
  0
LINE
  5
1d8
100
AcDbEntity
  8
0
 62
7
100
AcDbLine
 10
19.194000
 20
99.209685
 30
0.0
 11
94.191900
 21
99.209685
 31
0.0
  0
LINE
  5
1d9
100
AcDbEntity
  8
0
 62
7
100
AcDbLine
 10
100.157000
 20
20.289685
 30
0.0
 11
100.157000
 21
93.089685
 31
0.0
  0
LINE
  5
1da
100
AcDbEntity
  8
0
 62
7
100
AcDbLine
 10
20.293400
 20
100.159685
 30
0.0
 11
93.092400
 21
100.159685
 31
0.0
  0
LINE
  5
1db
100
AcDbEntity
  8
0
 62
7
100
AcDbLine
 10
101.102000
 20
21.449685
 30
0.0
 11
101.102000
 21
91.929685
 31
0.0
  0
LINE
  5
1dc
100
AcDbEntity
  8
0
 62
7
100
AcDbLine
 10
21.452600
 20
101.099685
 30
0.0
 11
91.933200
 21
101.099685
 31
0.0
  0
LINE
  5
1dd
100
AcDbEntity
  8
0
 62
7
100
AcDbLine
 10
102.047000
 20
22.679685
 30
0.0
 11
102.047000
 21
90.709685
 31
0.0
  0
LINE
  5
1de
100
AcDbEntity
  8
0
 62
7
100
AcDbLine
 10
22.677200
 20
102.049685
 30
0.0
 11
90.708700
 21
102.049685
 31
0.0
  0
LINE
  5
1df
100
AcDbEntity
  8
0
 62
7
100
AcDbLine
 10
102.992000
 20
23.979685
 30
0.0
 11
102.992000
 21
89.409685
 31
0.0
  0
LINE
  5
1e0
100
AcDbEntity
  8
0
 62
7
100
AcDbLine
 10
23.975100
 20
102.989685
 30
0.0
 11
89.410800
 21
102.989685
 31
0.0
  0
LINE
  5
1e1
100
AcDbEntity
  8
0
 62
7
100
AcDbLine
 10
103.937000
 20
25.349685
 30
0.0
 11
103.937000
 21
88.029685
 31
0.0
  0
LINE
  5
1e2
100
AcDbEntity
  8
0
 62
7
100
AcDbLine
 10
25.354600
 20
103.939685
 30
0.0
 11
88.031200
 21
103.939685
 31
0.0
  0
LINE
  5
1e3
100
AcDbEntity
  8
0
 62
7
100
AcDbLine
 10
104.882000
 20
26.829685
 30
0.0
 11
104.882000
 21
86.559685
 31
0.0
  0
LINE
  5
1e4
100
AcDbEntity
  8
0
 62
7
100
AcDbLine
 10
26.828200
 20
104.879685
 30
0.0
 11
86.557600
 21
104.879685
 31
0.0
  0
LINE
  5
1e5
100
AcDbEntity
  8
0
 62
7
100
AcDbLine
 10
105.827000
 20
28.409685
 30
0.0
 11
105.827000
 21
84.979685
 31
0.0
  0
LINE
  5
1e6
100
AcDbEntity
  8
0
 62
7
100
AcDbLine
 10
28.409600
 20
105.829685
 30
0.0
 11
84.976300
 21
105.829685
 31
0.0
  0
LINE
  5
1e7
100
AcDbEntity
  8
0
 62
7
100
AcDbLine
 10
106.772000
 20
30.119685
 30
0.0
 11
106.772000
 21
83.269685
 31
0.0
  0
LINE
  5
1e8
100
AcDbEntity
  8
0
 62
7
100
AcDbLine
 10
30.118300
 20
106.769685
 30
0.0
 11
83.267500
 21
106.769685
 31
0.0
  0
LINE
  5
1e9
100
AcDbEntity
  8
0
 62
7
100
AcDbLine
 10
107.717000
 20
31.979685
 30
0.0
 11
107.717000
 21
81.399685
 31
0.0
  0
LINE
  5
1ea
100
AcDbEntity
  8
0
 62
7
100
AcDbLine
 10
31.981200
 20
107.719685
 30
0.0
 11
81.404600
 21
107.719685
 31
0.0
  0
LINE
  5
1eb
100
AcDbEntity
  8
0
 62
7
100
AcDbLine
 10
108.661000
 20
34.039685
 30
0.0
 11
108.661000
 21
79.349685
 31
0.0
  0
LINE
  5
1ec
100
AcDbEntity
  8
0
 62
7
100
AcDbLine
 10
34.035400
 20
108.659685
 30
0.0
 11
79.350400
 21
108.659685
 31
0.0
  0
LINE
  5
1ed
100
AcDbEntity
  8
0
 62
7
100
AcDbLine
 10
109.606000
 20
36.339685
 30
0.0
 11
109.606000
 21
77.049685
 31
0.0
  0
LINE
  5
1ee
100
AcDbEntity
  8
0
 62
7
100
AcDbLine
 10
36.339400
 20
109.609685
 30
0.0
 11
77.046400
 21
109.609685
 31
0.0
  0
LINE
  5
1ef
100
AcDbEntity
  8
0
 62
7
100
AcDbLine
 10
110.551000
 20
38.989685
 30
0.0
 11
110.551000
 21
74.399685
 31
0.0
  0
LINE
  5
1f0
100
AcDbEntity
  8
0
 62
7
100
AcDbLine
 10
38.990700
 20
110.549685
 30
0.0
 11
74.395100
 21
110.549685
 31
0.0
  0
LINE
  5
1f1
100
AcDbEntity
  8
0
 62
7
100
AcDbLine
 10
111.496000
 20
42.179685
 30
0.0
 11
111.496000
 21
71.209685
 31
0.0
  0
LINE
  5
1f2
100
AcDbEntity
  8
0
 62
7
100
AcDbLine
 10
42.177300
 20
111.499685
 30
0.0
 11
71.208600
 21
111.499685
 31
0.0
  0
LINE
  5
1f3
100
AcDbEntity
  8
0
 62
7
100
AcDbLine
 10
112.441000
 20
46.389685
 30
0.0
 11
112.441000
 21
66.999685
 31
0.0
  0
LINE
  5
1f4
100
AcDbEntity
  8
0
 62
7
100
AcDbLine
 10
46.385400
 20
112.439685
 30
0.0
 11
67.000400
 21
112.439685
 31
0.0
  0
ENDSEC
  0
SECTION
  2
OBJECTS
  0
DICTIONARY
  5
C
330
0
100
AcDbDictionary
  3
ACAD_GROUP
350
D
  3
ACAD_MLINESTYLE
350
17
  0
DICTIONARY
  5
D
330
C
100
AcDbDictionary
  0
DICTIONARY
  5
1A
330
C
100
AcDbDictionary
  0
DICTIONARY
  5
17
330
C
100
AcDbDictionary
  3
STANDARD
350
18
  0
DICTIONARY
  5
19
330
C
100
AcDbDictionary
  0
ENDSEC
  0
EOF
