%TF.GenerationSoftware,KiCad,Pcbnew,(5.1.9)-1*%
%TF.CreationDate,2023-01-30T15:23:52+05:30*%
%TF.ProjectId,SequencialRelay,53657175-656e-4636-9961-6c52656c6179,rev?*%
%TF.SameCoordinates,Original*%
%TF.FileFunction,Copper,L2,Bot*%
%TF.FilePolarity,Positive*%
%FSLAX46Y46*%
G04 Gerber Fmt 4.6, Leading zero omitted, Abs format (unit mm)*
G04 Created by KiCad (PCBNEW (5.1.9)-1) date 2023-01-30 15:23:52*
%MOMM*%
%LPD*%
G01*
G04 APERTURE LIST*
%TA.AperFunction,NonConductor*%
%ADD10C,0.300000*%
%TD*%
%TA.AperFunction,Profile*%
%ADD11C,0.050000*%
%TD*%
%TA.AperFunction,SMDPad,CuDef*%
%ADD12R,1.700000X2.000000*%
%TD*%
%TA.AperFunction,SMDPad,CuDef*%
%ADD13R,2.000000X1.700000*%
%TD*%
%TA.AperFunction,ComponentPad*%
%ADD14R,1.600000X1.600000*%
%TD*%
%TA.AperFunction,ComponentPad*%
%ADD15C,1.600000*%
%TD*%
%TA.AperFunction,SMDPad,CuDef*%
%ADD16R,3.500000X1.800000*%
%TD*%
%TA.AperFunction,ComponentPad*%
%ADD17R,1.800000X1.800000*%
%TD*%
%TA.AperFunction,ComponentPad*%
%ADD18C,1.800000*%
%TD*%
%TA.AperFunction,SMDPad,CuDef*%
%ADD19R,1.800000X3.500000*%
%TD*%
%TA.AperFunction,ComponentPad*%
%ADD20R,3.000000X3.000000*%
%TD*%
%TA.AperFunction,ComponentPad*%
%ADD21C,3.000000*%
%TD*%
%TA.AperFunction,ComponentPad*%
%ADD22R,1.700000X1.700000*%
%TD*%
%TA.AperFunction,ComponentPad*%
%ADD23O,1.700000X1.700000*%
%TD*%
%TA.AperFunction,ComponentPad*%
%ADD24C,2.500000*%
%TD*%
%TA.AperFunction,SMDPad,CuDef*%
%ADD25R,1.900000X0.800000*%
%TD*%
%TA.AperFunction,ComponentPad*%
%ADD26C,1.440000*%
%TD*%
%TA.AperFunction,ComponentPad*%
%ADD27O,1.600000X1.600000*%
%TD*%
%TA.AperFunction,ComponentPad*%
%ADD28R,1.905000X2.000000*%
%TD*%
%TA.AperFunction,ComponentPad*%
%ADD29O,1.905000X2.000000*%
%TD*%
%TA.AperFunction,ComponentPad*%
%ADD30R,2.000000X2.000000*%
%TD*%
%TA.AperFunction,ComponentPad*%
%ADD31C,2.000000*%
%TD*%
%TA.AperFunction,ViaPad*%
%ADD32C,1.600000*%
%TD*%
%TA.AperFunction,Conductor*%
%ADD33C,0.400000*%
%TD*%
%TA.AperFunction,Conductor*%
%ADD34C,1.000000*%
%TD*%
%TA.AperFunction,Conductor*%
%ADD35C,0.800000*%
%TD*%
G04 APERTURE END LIST*
D10*
X55085714Y-22378571D02*
X55942857Y-22378571D01*
X55514285Y-22378571D02*
X55514285Y-20878571D01*
X55657142Y-21092857D01*
X55800000Y-21235714D01*
X55942857Y-21307142D01*
X53657142Y-22378571D02*
X54514285Y-22378571D01*
X54085714Y-22378571D02*
X54085714Y-20878571D01*
X54228571Y-21092857D01*
X54371428Y-21235714D01*
X54514285Y-21307142D01*
X51014285Y-22235714D02*
X51085714Y-22307142D01*
X51300000Y-22378571D01*
X51442857Y-22378571D01*
X51657142Y-22307142D01*
X51800000Y-22164285D01*
X51871428Y-22021428D01*
X51942857Y-21735714D01*
X51942857Y-21521428D01*
X51871428Y-21235714D01*
X51800000Y-21092857D01*
X51657142Y-20950000D01*
X51442857Y-20878571D01*
X51300000Y-20878571D01*
X51085714Y-20950000D01*
X51014285Y-21021428D01*
X50371428Y-22378571D02*
X50371428Y-20878571D01*
X49728571Y-22378571D02*
X49728571Y-21592857D01*
X49800000Y-21450000D01*
X49942857Y-21378571D01*
X50157142Y-21378571D01*
X50300000Y-21450000D01*
X50371428Y-21521428D01*
X47942857Y-22307142D02*
X47728571Y-22378571D01*
X47371428Y-22378571D01*
X47228571Y-22307142D01*
X47157142Y-22235714D01*
X47085714Y-22092857D01*
X47085714Y-21950000D01*
X47157142Y-21807142D01*
X47228571Y-21735714D01*
X47371428Y-21664285D01*
X47657142Y-21592857D01*
X47800000Y-21521428D01*
X47871428Y-21450000D01*
X47942857Y-21307142D01*
X47942857Y-21164285D01*
X47871428Y-21021428D01*
X47800000Y-20950000D01*
X47657142Y-20878571D01*
X47300000Y-20878571D01*
X47085714Y-20950000D01*
X45871428Y-22307142D02*
X46014285Y-22378571D01*
X46300000Y-22378571D01*
X46442857Y-22307142D01*
X46514285Y-22164285D01*
X46514285Y-21592857D01*
X46442857Y-21450000D01*
X46300000Y-21378571D01*
X46014285Y-21378571D01*
X45871428Y-21450000D01*
X45800000Y-21592857D01*
X45800000Y-21735714D01*
X46514285Y-21878571D01*
X44514285Y-21378571D02*
X44514285Y-22878571D01*
X44514285Y-22307142D02*
X44657142Y-22378571D01*
X44942857Y-22378571D01*
X45085714Y-22307142D01*
X45157142Y-22235714D01*
X45228571Y-22092857D01*
X45228571Y-21664285D01*
X45157142Y-21521428D01*
X45085714Y-21450000D01*
X44942857Y-21378571D01*
X44657142Y-21378571D01*
X44514285Y-21450000D01*
X43157142Y-21378571D02*
X43157142Y-22378571D01*
X43800000Y-21378571D02*
X43800000Y-22164285D01*
X43728571Y-22307142D01*
X43585714Y-22378571D01*
X43371428Y-22378571D01*
X43228571Y-22307142D01*
X43157142Y-22235714D01*
X41871428Y-22307142D02*
X42014285Y-22378571D01*
X42300000Y-22378571D01*
X42442857Y-22307142D01*
X42514285Y-22164285D01*
X42514285Y-21592857D01*
X42442857Y-21450000D01*
X42300000Y-21378571D01*
X42014285Y-21378571D01*
X41871428Y-21450000D01*
X41800000Y-21592857D01*
X41800000Y-21735714D01*
X42514285Y-21878571D01*
X41157142Y-21378571D02*
X41157142Y-22378571D01*
X41157142Y-21521428D02*
X41085714Y-21450000D01*
X40942857Y-21378571D01*
X40728571Y-21378571D01*
X40585714Y-21450000D01*
X40514285Y-21592857D01*
X40514285Y-22378571D01*
X39157142Y-22307142D02*
X39300000Y-22378571D01*
X39585714Y-22378571D01*
X39728571Y-22307142D01*
X39800000Y-22235714D01*
X39871428Y-22092857D01*
X39871428Y-21664285D01*
X39800000Y-21521428D01*
X39728571Y-21450000D01*
X39585714Y-21378571D01*
X39300000Y-21378571D01*
X39157142Y-21450000D01*
X37942857Y-22307142D02*
X38085714Y-22378571D01*
X38371428Y-22378571D01*
X38514285Y-22307142D01*
X38585714Y-22164285D01*
X38585714Y-21592857D01*
X38514285Y-21450000D01*
X38371428Y-21378571D01*
X38085714Y-21378571D01*
X37942857Y-21450000D01*
X37871428Y-21592857D01*
X37871428Y-21735714D01*
X38585714Y-21878571D01*
X35228571Y-22378571D02*
X35728571Y-21664285D01*
X36085714Y-22378571D02*
X36085714Y-20878571D01*
X35514285Y-20878571D01*
X35371428Y-20950000D01*
X35300000Y-21021428D01*
X35228571Y-21164285D01*
X35228571Y-21378571D01*
X35300000Y-21521428D01*
X35371428Y-21592857D01*
X35514285Y-21664285D01*
X36085714Y-21664285D01*
X34014285Y-22307142D02*
X34157142Y-22378571D01*
X34442857Y-22378571D01*
X34585714Y-22307142D01*
X34657142Y-22164285D01*
X34657142Y-21592857D01*
X34585714Y-21450000D01*
X34442857Y-21378571D01*
X34157142Y-21378571D01*
X34014285Y-21450000D01*
X33942857Y-21592857D01*
X33942857Y-21735714D01*
X34657142Y-21878571D01*
X33085714Y-22378571D02*
X33228571Y-22307142D01*
X33300000Y-22164285D01*
X33300000Y-20878571D01*
X31871428Y-22378571D02*
X31871428Y-21592857D01*
X31942857Y-21450000D01*
X32085714Y-21378571D01*
X32371428Y-21378571D01*
X32514285Y-21450000D01*
X31871428Y-22307142D02*
X32014285Y-22378571D01*
X32371428Y-22378571D01*
X32514285Y-22307142D01*
X32585714Y-22164285D01*
X32585714Y-22021428D01*
X32514285Y-21878571D01*
X32371428Y-21807142D01*
X32014285Y-21807142D01*
X31871428Y-21735714D01*
X31300000Y-21378571D02*
X30942857Y-22378571D01*
X30585714Y-21378571D02*
X30942857Y-22378571D01*
X31085714Y-22735714D01*
X31157142Y-22807142D01*
X31300000Y-22878571D01*
X110864285Y-24492857D02*
X110650000Y-24564285D01*
X110578571Y-24635714D01*
X110507142Y-24778571D01*
X110507142Y-24992857D01*
X110578571Y-25135714D01*
X110650000Y-25207142D01*
X110792857Y-25278571D01*
X111364285Y-25278571D01*
X111364285Y-23778571D01*
X110864285Y-23778571D01*
X110721428Y-23850000D01*
X110650000Y-23921428D01*
X110578571Y-24064285D01*
X110578571Y-24207142D01*
X110650000Y-24350000D01*
X110721428Y-24421428D01*
X110864285Y-24492857D01*
X111364285Y-24492857D01*
X109578571Y-23778571D02*
X109292857Y-23778571D01*
X109150000Y-23850000D01*
X109007142Y-23992857D01*
X108935714Y-24278571D01*
X108935714Y-24778571D01*
X109007142Y-25064285D01*
X109150000Y-25207142D01*
X109292857Y-25278571D01*
X109578571Y-25278571D01*
X109721428Y-25207142D01*
X109864285Y-25064285D01*
X109935714Y-24778571D01*
X109935714Y-24278571D01*
X109864285Y-23992857D01*
X109721428Y-23850000D01*
X109578571Y-23778571D01*
X108507142Y-23778571D02*
X107650000Y-23778571D01*
X108078571Y-25278571D02*
X108078571Y-23778571D01*
X107364285Y-23778571D02*
X106507142Y-23778571D01*
X106935714Y-25278571D02*
X106935714Y-23778571D01*
X105721428Y-23778571D02*
X105435714Y-23778571D01*
X105292857Y-23850000D01*
X105150000Y-23992857D01*
X105078571Y-24278571D01*
X105078571Y-24778571D01*
X105150000Y-25064285D01*
X105292857Y-25207142D01*
X105435714Y-25278571D01*
X105721428Y-25278571D01*
X105864285Y-25207142D01*
X106007142Y-25064285D01*
X106078571Y-24778571D01*
X106078571Y-24278571D01*
X106007142Y-23992857D01*
X105864285Y-23850000D01*
X105721428Y-23778571D01*
X104435714Y-25278571D02*
X104435714Y-23778571D01*
X103935714Y-24850000D01*
X103435714Y-23778571D01*
X103435714Y-25278571D01*
D11*
X20000000Y-130000000D02*
X20000000Y-20000000D01*
X120000000Y-130000000D02*
X20000000Y-130000000D01*
X120000000Y-20000000D02*
X120000000Y-130000000D01*
X20000000Y-20000000D02*
X120000000Y-20000000D01*
D12*
%TO.P,C1,2*%
%TO.N,GND*%
X70000000Y-75000000D03*
%TO.P,C1,1*%
%TO.N,+5v*%
X70000000Y-79000000D03*
%TD*%
D13*
%TO.P,C3,2*%
%TO.N,GND*%
X44000000Y-118000000D03*
%TO.P,C3,1*%
%TO.N,+12v*%
X48000000Y-118000000D03*
%TD*%
D14*
%TO.P,C4,1*%
%TO.N,+5v*%
X68500000Y-101000000D03*
D15*
%TO.P,C4,2*%
%TO.N,GND*%
X71000000Y-101000000D03*
%TD*%
D12*
%TO.P,C5,2*%
%TO.N,GND*%
X77000000Y-117000000D03*
%TO.P,C5,1*%
%TO.N,+5v*%
X77000000Y-113000000D03*
%TD*%
D16*
%TO.P,D1,1*%
%TO.N,+12v*%
X52000000Y-127000000D03*
%TO.P,D1,2*%
%TO.N,Net-(D1-Pad2)*%
X57000000Y-127000000D03*
%TD*%
%TO.P,D2,2*%
%TO.N,Net-(D2-Pad2)*%
X57000000Y-122000000D03*
%TO.P,D2,1*%
%TO.N,+12v*%
X52000000Y-122000000D03*
%TD*%
%TO.P,D3,2*%
%TO.N,GND*%
X46000000Y-122000000D03*
%TO.P,D3,1*%
%TO.N,Net-(D2-Pad2)*%
X41000000Y-122000000D03*
%TD*%
%TO.P,D4,2*%
%TO.N,GND*%
X46000000Y-127000000D03*
%TO.P,D4,1*%
%TO.N,Net-(D1-Pad2)*%
X41000000Y-127000000D03*
%TD*%
%TO.P,D5,1*%
%TO.N,+12v*%
X67500000Y-113500000D03*
%TO.P,D5,2*%
%TO.N,+5v*%
X72500000Y-113500000D03*
%TD*%
D17*
%TO.P,D6,1*%
%TO.N,Net-(D6-Pad1)*%
X60500000Y-118000000D03*
D18*
%TO.P,D6,2*%
%TO.N,+5v*%
X63040000Y-118000000D03*
%TD*%
%TO.P,D7,2*%
%TO.N,+12v*%
X56000000Y-111460000D03*
D17*
%TO.P,D7,1*%
%TO.N,Net-(D7-Pad1)*%
X56000000Y-114000000D03*
%TD*%
%TO.P,D8,1*%
%TO.N,Net-(D8-Pad1)*%
X56000000Y-43000000D03*
D18*
%TO.P,D8,2*%
%TO.N,+12v*%
X56000000Y-40460000D03*
%TD*%
D17*
%TO.P,D9,1*%
%TO.N,Net-(D9-Pad1)*%
X84000000Y-48000000D03*
D18*
%TO.P,D9,2*%
%TO.N,+12v*%
X84000000Y-50540000D03*
%TD*%
D19*
%TO.P,D10,1*%
%TO.N,+12v*%
X45000000Y-110500000D03*
%TO.P,D10,2*%
%TO.N,Net-(D10-Pad2)*%
X45000000Y-105500000D03*
%TD*%
%TO.P,D11,2*%
%TO.N,Net-(D11-Pad2)*%
X45000000Y-35000000D03*
%TO.P,D11,1*%
%TO.N,+12v*%
X45000000Y-40000000D03*
%TD*%
%TO.P,D12,1*%
%TO.N,+12v*%
X96000000Y-51000000D03*
%TO.P,D12,2*%
%TO.N,Net-(D12-Pad2)*%
X96000000Y-56000000D03*
%TD*%
D18*
%TO.P,D13,2*%
%TO.N,+12v*%
X56000000Y-93460000D03*
D17*
%TO.P,D13,1*%
%TO.N,Net-(D13-Pad1)*%
X56000000Y-96000000D03*
%TD*%
%TO.P,D14,1*%
%TO.N,Net-(D14-Pad1)*%
X84000000Y-102000000D03*
D18*
%TO.P,D14,2*%
%TO.N,+12v*%
X84000000Y-104540000D03*
%TD*%
D17*
%TO.P,D15,1*%
%TO.N,Net-(D15-Pad1)*%
X84000000Y-30000000D03*
D18*
%TO.P,D15,2*%
%TO.N,+12v*%
X84000000Y-32540000D03*
%TD*%
D19*
%TO.P,D16,1*%
%TO.N,+12v*%
X45000000Y-92875000D03*
%TO.P,D16,2*%
%TO.N,Net-(D16-Pad2)*%
X45000000Y-87875000D03*
%TD*%
%TO.P,D17,2*%
%TO.N,Net-(D17-Pad2)*%
X96000000Y-110500000D03*
%TO.P,D17,1*%
%TO.N,+12v*%
X96000000Y-105500000D03*
%TD*%
%TO.P,D18,2*%
%TO.N,Net-(D18-Pad2)*%
X96000000Y-38000000D03*
%TO.P,D18,1*%
%TO.N,+12v*%
X96000000Y-33000000D03*
%TD*%
D18*
%TO.P,D19,2*%
%TO.N,+12v*%
X56000000Y-75460000D03*
D17*
%TO.P,D19,1*%
%TO.N,Net-(D19-Pad1)*%
X56000000Y-78000000D03*
%TD*%
D18*
%TO.P,D20,2*%
%TO.N,+12v*%
X84000000Y-86540000D03*
D17*
%TO.P,D20,1*%
%TO.N,Net-(D20-Pad1)*%
X84000000Y-84000000D03*
%TD*%
%TO.P,D21,1*%
%TO.N,Net-(D21-Pad1)*%
X65500000Y-57000000D03*
D18*
%TO.P,D21,2*%
%TO.N,+12v*%
X65500000Y-54460000D03*
%TD*%
D19*
%TO.P,D22,1*%
%TO.N,+12v*%
X45000000Y-75250000D03*
%TO.P,D22,2*%
%TO.N,Net-(D22-Pad2)*%
X45000000Y-70250000D03*
%TD*%
%TO.P,D23,1*%
%TO.N,+12v*%
X96000000Y-87000000D03*
%TO.P,D23,2*%
%TO.N,Net-(D23-Pad2)*%
X96000000Y-92000000D03*
%TD*%
D16*
%TO.P,D24,1*%
%TO.N,+12v*%
X67000000Y-45000000D03*
%TO.P,D24,2*%
%TO.N,Net-(D24-Pad2)*%
X72000000Y-45000000D03*
%TD*%
D18*
%TO.P,D25,2*%
%TO.N,+12v*%
X56000000Y-57460000D03*
D17*
%TO.P,D25,1*%
%TO.N,Net-(D25-Pad1)*%
X56000000Y-60000000D03*
%TD*%
D18*
%TO.P,D26,2*%
%TO.N,+12v*%
X84000000Y-68540000D03*
D17*
%TO.P,D26,1*%
%TO.N,Net-(D26-Pad1)*%
X84000000Y-66000000D03*
%TD*%
D19*
%TO.P,D27,2*%
%TO.N,Net-(D27-Pad2)*%
X45000000Y-52625000D03*
%TO.P,D27,1*%
%TO.N,+12v*%
X45000000Y-57625000D03*
%TD*%
%TO.P,D28,2*%
%TO.N,Net-(D28-Pad2)*%
X96000000Y-74000000D03*
%TO.P,D28,1*%
%TO.N,+12v*%
X96000000Y-69000000D03*
%TD*%
D20*
%TO.P,J1,1*%
%TO.N,Net-(D1-Pad2)*%
X66920000Y-125500000D03*
D21*
%TO.P,J1,2*%
%TO.N,Net-(D2-Pad2)*%
X72000000Y-125500000D03*
%TD*%
D22*
%TO.P,J2,1*%
%TO.N,Mosi*%
X77000000Y-87500000D03*
D23*
%TO.P,J2,2*%
%TO.N,Miso*%
X77000000Y-84960000D03*
%TO.P,J2,3*%
%TO.N,SCK*%
X77000000Y-82420000D03*
%TO.P,J2,4*%
%TO.N,rst*%
X77000000Y-79880000D03*
%TO.P,J2,5*%
%TO.N,+5v*%
X77000000Y-77340000D03*
%TO.P,J2,6*%
%TO.N,GND*%
X77000000Y-74800000D03*
%TD*%
D20*
%TO.P,J3,1*%
%TO.N,Net-(J3-Pad1)*%
X25000000Y-113000000D03*
D21*
%TO.P,J3,2*%
%TO.N,Net-(J3-Pad2)*%
X25000000Y-107920000D03*
%TO.P,J3,3*%
%TO.N,Net-(J3-Pad3)*%
X25000000Y-102840000D03*
%TD*%
D20*
%TO.P,J4,1*%
%TO.N,Net-(J4-Pad1)*%
X25000000Y-42000000D03*
D21*
%TO.P,J4,2*%
%TO.N,Net-(J4-Pad2)*%
X25000000Y-36920000D03*
%TO.P,J4,3*%
%TO.N,Net-(J4-Pad3)*%
X25000000Y-31840000D03*
%TD*%
%TO.P,J5,3*%
%TO.N,Net-(J5-Pad3)*%
X115000000Y-59160000D03*
%TO.P,J5,2*%
%TO.N,Net-(J5-Pad2)*%
X115000000Y-54080000D03*
D20*
%TO.P,J5,1*%
%TO.N,Net-(J5-Pad1)*%
X115000000Y-49000000D03*
%TD*%
D21*
%TO.P,J6,3*%
%TO.N,Net-(J6-Pad3)*%
X25000000Y-84840000D03*
%TO.P,J6,2*%
%TO.N,Net-(J6-Pad2)*%
X25000000Y-89920000D03*
D20*
%TO.P,J6,1*%
%TO.N,Net-(J6-Pad1)*%
X25000000Y-95000000D03*
%TD*%
%TO.P,J7,1*%
%TO.N,Net-(J7-Pad1)*%
X115000000Y-103000000D03*
D21*
%TO.P,J7,2*%
%TO.N,Net-(J7-Pad2)*%
X115000000Y-108080000D03*
%TO.P,J7,3*%
%TO.N,Net-(J7-Pad3)*%
X115000000Y-113160000D03*
%TD*%
D20*
%TO.P,J8,1*%
%TO.N,Net-(J8-Pad1)*%
X115000000Y-31000000D03*
D21*
%TO.P,J8,2*%
%TO.N,Net-(J8-Pad2)*%
X115000000Y-36080000D03*
%TO.P,J8,3*%
%TO.N,Net-(J8-Pad3)*%
X115000000Y-41160000D03*
%TD*%
D20*
%TO.P,J9,1*%
%TO.N,Net-(J9-Pad1)*%
X25000000Y-77000000D03*
D21*
%TO.P,J9,2*%
%TO.N,Net-(J9-Pad2)*%
X25000000Y-71920000D03*
%TO.P,J9,3*%
%TO.N,Net-(J9-Pad3)*%
X25000000Y-66840000D03*
%TD*%
%TO.P,J10,3*%
%TO.N,Net-(J10-Pad3)*%
X115000000Y-95160000D03*
%TO.P,J10,2*%
%TO.N,Net-(J10-Pad2)*%
X115000000Y-90080000D03*
D20*
%TO.P,J10,1*%
%TO.N,Net-(J10-Pad1)*%
X115000000Y-85000000D03*
%TD*%
%TO.P,J11,1*%
%TO.N,Net-(J11-Pad1)*%
X65000000Y-25000000D03*
D21*
%TO.P,J11,2*%
%TO.N,Net-(J11-Pad2)*%
X70080000Y-25000000D03*
%TO.P,J11,3*%
%TO.N,Net-(J11-Pad3)*%
X75160000Y-25000000D03*
%TD*%
%TO.P,J12,3*%
%TO.N,Net-(J12-Pad3)*%
X25000000Y-48840000D03*
%TO.P,J12,2*%
%TO.N,Net-(J12-Pad2)*%
X25000000Y-53920000D03*
D20*
%TO.P,J12,1*%
%TO.N,Net-(J12-Pad1)*%
X25000000Y-59000000D03*
%TD*%
D21*
%TO.P,J13,3*%
%TO.N,Net-(J13-Pad3)*%
X115000000Y-77160000D03*
%TO.P,J13,2*%
%TO.N,Net-(J13-Pad2)*%
X115000000Y-72080000D03*
D20*
%TO.P,J13,1*%
%TO.N,Net-(J13-Pad1)*%
X115000000Y-67000000D03*
%TD*%
D24*
%TO.P,K1,2*%
%TO.N,Net-(D10-Pad2)*%
X49050000Y-101950000D03*
D21*
%TO.P,K1,3*%
%TO.N,Net-(J3-Pad3)*%
X36850000Y-101950000D03*
%TO.P,K1,4*%
%TO.N,Net-(J3-Pad1)*%
X36800000Y-114000000D03*
D24*
%TO.P,K1,5*%
%TO.N,+12v*%
X49050000Y-113950000D03*
D21*
%TO.P,K1,1*%
%TO.N,Net-(J3-Pad2)*%
X51000000Y-108000000D03*
%TD*%
D24*
%TO.P,K2,2*%
%TO.N,Net-(D11-Pad2)*%
X49050000Y-30950000D03*
D21*
%TO.P,K2,3*%
%TO.N,Net-(J4-Pad3)*%
X36850000Y-30950000D03*
%TO.P,K2,4*%
%TO.N,Net-(J4-Pad1)*%
X36800000Y-43000000D03*
D24*
%TO.P,K2,5*%
%TO.N,+12v*%
X49050000Y-42950000D03*
D21*
%TO.P,K2,1*%
%TO.N,Net-(J4-Pad2)*%
X51000000Y-37000000D03*
%TD*%
%TO.P,K3,1*%
%TO.N,Net-(J5-Pad2)*%
X89000000Y-54000000D03*
D24*
%TO.P,K3,5*%
%TO.N,+12v*%
X90950000Y-48050000D03*
D21*
%TO.P,K3,4*%
%TO.N,Net-(J5-Pad1)*%
X103200000Y-48000000D03*
%TO.P,K3,3*%
%TO.N,Net-(J5-Pad3)*%
X103150000Y-60050000D03*
D24*
%TO.P,K3,2*%
%TO.N,Net-(D12-Pad2)*%
X90950000Y-60050000D03*
%TD*%
D21*
%TO.P,K4,1*%
%TO.N,Net-(J6-Pad2)*%
X51000000Y-90000000D03*
D24*
%TO.P,K4,5*%
%TO.N,+12v*%
X49050000Y-95950000D03*
D21*
%TO.P,K4,4*%
%TO.N,Net-(J6-Pad1)*%
X36800000Y-96000000D03*
%TO.P,K4,3*%
%TO.N,Net-(J6-Pad3)*%
X36850000Y-83950000D03*
D24*
%TO.P,K4,2*%
%TO.N,Net-(D16-Pad2)*%
X49050000Y-83950000D03*
%TD*%
%TO.P,K5,2*%
%TO.N,Net-(D17-Pad2)*%
X90950000Y-114050000D03*
D21*
%TO.P,K5,3*%
%TO.N,Net-(J7-Pad3)*%
X103150000Y-114050000D03*
%TO.P,K5,4*%
%TO.N,Net-(J7-Pad1)*%
X103200000Y-102000000D03*
D24*
%TO.P,K5,5*%
%TO.N,+12v*%
X90950000Y-102050000D03*
D21*
%TO.P,K5,1*%
%TO.N,Net-(J7-Pad2)*%
X89000000Y-108000000D03*
%TD*%
D24*
%TO.P,K6,2*%
%TO.N,Net-(D18-Pad2)*%
X90950000Y-42050000D03*
D21*
%TO.P,K6,3*%
%TO.N,Net-(J8-Pad3)*%
X103150000Y-42050000D03*
%TO.P,K6,4*%
%TO.N,Net-(J8-Pad1)*%
X103200000Y-30000000D03*
D24*
%TO.P,K6,5*%
%TO.N,+12v*%
X90950000Y-30050000D03*
D21*
%TO.P,K6,1*%
%TO.N,Net-(J8-Pad2)*%
X89000000Y-36000000D03*
%TD*%
%TO.P,K7,1*%
%TO.N,Net-(J9-Pad2)*%
X51000000Y-72000000D03*
D24*
%TO.P,K7,5*%
%TO.N,+12v*%
X49050000Y-77950000D03*
D21*
%TO.P,K7,4*%
%TO.N,Net-(J9-Pad1)*%
X36800000Y-78000000D03*
%TO.P,K7,3*%
%TO.N,Net-(J9-Pad3)*%
X36850000Y-65950000D03*
D24*
%TO.P,K7,2*%
%TO.N,Net-(D22-Pad2)*%
X49050000Y-65950000D03*
%TD*%
D21*
%TO.P,K8,1*%
%TO.N,Net-(J10-Pad2)*%
X89000000Y-90000000D03*
D24*
%TO.P,K8,5*%
%TO.N,+12v*%
X90950000Y-84050000D03*
D21*
%TO.P,K8,4*%
%TO.N,Net-(J10-Pad1)*%
X103200000Y-84000000D03*
%TO.P,K8,3*%
%TO.N,Net-(J10-Pad3)*%
X103150000Y-96050000D03*
D24*
%TO.P,K8,2*%
%TO.N,Net-(D23-Pad2)*%
X90950000Y-96050000D03*
%TD*%
%TO.P,K9,2*%
%TO.N,Net-(D24-Pad2)*%
X76050000Y-49050000D03*
D21*
%TO.P,K9,3*%
%TO.N,Net-(J11-Pad3)*%
X76050000Y-36850000D03*
%TO.P,K9,4*%
%TO.N,Net-(J11-Pad1)*%
X64000000Y-36800000D03*
D24*
%TO.P,K9,5*%
%TO.N,+12v*%
X64050000Y-49050000D03*
D21*
%TO.P,K9,1*%
%TO.N,Net-(J11-Pad2)*%
X70000000Y-51000000D03*
%TD*%
D24*
%TO.P,K10,2*%
%TO.N,Net-(D27-Pad2)*%
X49050000Y-47950000D03*
D21*
%TO.P,K10,3*%
%TO.N,Net-(J12-Pad3)*%
X36850000Y-47950000D03*
%TO.P,K10,4*%
%TO.N,Net-(J12-Pad1)*%
X36800000Y-60000000D03*
D24*
%TO.P,K10,5*%
%TO.N,+12v*%
X49050000Y-59950000D03*
D21*
%TO.P,K10,1*%
%TO.N,Net-(J12-Pad2)*%
X51000000Y-54000000D03*
%TD*%
%TO.P,K11,1*%
%TO.N,Net-(J13-Pad2)*%
X89000000Y-72000000D03*
D24*
%TO.P,K11,5*%
%TO.N,+12v*%
X90950000Y-66050000D03*
D21*
%TO.P,K11,4*%
%TO.N,Net-(J13-Pad1)*%
X103200000Y-66000000D03*
%TO.P,K11,3*%
%TO.N,Net-(J13-Pad3)*%
X103150000Y-78050000D03*
D24*
%TO.P,K11,2*%
%TO.N,Net-(D28-Pad2)*%
X90950000Y-78050000D03*
%TD*%
D25*
%TO.P,Q1,3*%
%TO.N,Net-(D10-Pad2)*%
X54500000Y-102000000D03*
%TO.P,Q1,2*%
%TO.N,GND*%
X57500000Y-102950000D03*
%TO.P,Q1,1*%
%TO.N,Net-(Q1-Pad1)*%
X57500000Y-101050000D03*
%TD*%
%TO.P,Q2,1*%
%TO.N,Net-(Q2-Pad1)*%
X57500000Y-30050000D03*
%TO.P,Q2,2*%
%TO.N,GND*%
X57500000Y-31950000D03*
%TO.P,Q2,3*%
%TO.N,Net-(D11-Pad2)*%
X54500000Y-31000000D03*
%TD*%
%TO.P,Q3,1*%
%TO.N,Net-(Q3-Pad1)*%
X82500000Y-60950000D03*
%TO.P,Q3,2*%
%TO.N,GND*%
X82500000Y-59050000D03*
%TO.P,Q3,3*%
%TO.N,Net-(D12-Pad2)*%
X85500000Y-60000000D03*
%TD*%
%TO.P,Q4,3*%
%TO.N,Net-(D16-Pad2)*%
X54500000Y-84000000D03*
%TO.P,Q4,2*%
%TO.N,GND*%
X57500000Y-84950000D03*
%TO.P,Q4,1*%
%TO.N,Net-(Q4-Pad1)*%
X57500000Y-83050000D03*
%TD*%
%TO.P,Q5,3*%
%TO.N,Net-(D17-Pad2)*%
X85500000Y-114000000D03*
%TO.P,Q5,2*%
%TO.N,GND*%
X82500000Y-113050000D03*
%TO.P,Q5,1*%
%TO.N,Net-(Q5-Pad1)*%
X82500000Y-114950000D03*
%TD*%
%TO.P,Q6,3*%
%TO.N,Net-(D18-Pad2)*%
X85500000Y-42000000D03*
%TO.P,Q6,2*%
%TO.N,GND*%
X82500000Y-41050000D03*
%TO.P,Q6,1*%
%TO.N,Net-(Q6-Pad1)*%
X82500000Y-42950000D03*
%TD*%
%TO.P,Q7,1*%
%TO.N,Net-(Q7-Pad1)*%
X57500000Y-65050000D03*
%TO.P,Q7,2*%
%TO.N,GND*%
X57500000Y-66950000D03*
%TO.P,Q7,3*%
%TO.N,Net-(D22-Pad2)*%
X54500000Y-66000000D03*
%TD*%
%TO.P,Q8,1*%
%TO.N,Net-(Q8-Pad1)*%
X82500000Y-96950000D03*
%TO.P,Q8,2*%
%TO.N,GND*%
X82500000Y-95050000D03*
%TO.P,Q8,3*%
%TO.N,Net-(D23-Pad2)*%
X85500000Y-96000000D03*
%TD*%
%TO.P,Q9,1*%
%TO.N,Net-(Q9-Pad1)*%
X76500000Y-54050000D03*
%TO.P,Q9,2*%
%TO.N,GND*%
X76500000Y-55950000D03*
%TO.P,Q9,3*%
%TO.N,Net-(D24-Pad2)*%
X73500000Y-55000000D03*
%TD*%
%TO.P,Q10,3*%
%TO.N,Net-(D27-Pad2)*%
X54500000Y-48000000D03*
%TO.P,Q10,2*%
%TO.N,GND*%
X57500000Y-48950000D03*
%TO.P,Q10,1*%
%TO.N,Net-(Q10-Pad1)*%
X57500000Y-47050000D03*
%TD*%
%TO.P,Q11,1*%
%TO.N,Net-(Q11-Pad1)*%
X82500000Y-78950000D03*
%TO.P,Q11,2*%
%TO.N,GND*%
X82500000Y-77050000D03*
%TO.P,Q11,3*%
%TO.N,Net-(D28-Pad2)*%
X85500000Y-78000000D03*
%TD*%
D12*
%TO.P,R1,2*%
%TO.N,rst*%
X62000000Y-60000000D03*
%TO.P,R1,1*%
%TO.N,+5v*%
X62000000Y-64000000D03*
%TD*%
D13*
%TO.P,R2,2*%
%TO.N,Net-(D6-Pad1)*%
X57500000Y-118000000D03*
%TO.P,R2,1*%
%TO.N,GND*%
X53500000Y-118000000D03*
%TD*%
%TO.P,R3,1*%
%TO.N,Net-(D7-Pad1)*%
X59000000Y-106000000D03*
%TO.P,R3,2*%
%TO.N,Net-(D10-Pad2)*%
X55000000Y-106000000D03*
%TD*%
D12*
%TO.P,R4,1*%
%TO.N,Net-(Q1-Pad1)*%
X61000000Y-101500000D03*
%TO.P,R4,2*%
%TO.N,R1*%
X61000000Y-97500000D03*
%TD*%
D13*
%TO.P,R5,1*%
%TO.N,Net-(D8-Pad1)*%
X59000000Y-35000000D03*
%TO.P,R5,2*%
%TO.N,Net-(D11-Pad2)*%
X55000000Y-35000000D03*
%TD*%
%TO.P,R6,1*%
%TO.N,Net-(D9-Pad1)*%
X81000000Y-56000000D03*
%TO.P,R6,2*%
%TO.N,Net-(D12-Pad2)*%
X85000000Y-56000000D03*
%TD*%
%TO.P,R7,2*%
%TO.N,R5*%
X57500000Y-26500000D03*
%TO.P,R7,1*%
%TO.N,Net-(Q2-Pad1)*%
X53500000Y-26500000D03*
%TD*%
%TO.P,R8,2*%
%TO.N,R9*%
X81500000Y-63500000D03*
%TO.P,R8,1*%
%TO.N,Net-(Q3-Pad1)*%
X85500000Y-63500000D03*
%TD*%
%TO.P,R9,1*%
%TO.N,S6*%
X83000000Y-120000000D03*
%TO.P,R9,2*%
%TO.N,+5v*%
X79000000Y-120000000D03*
%TD*%
%TO.P,R10,1*%
%TO.N,S5*%
X83000000Y-123500000D03*
%TO.P,R10,2*%
%TO.N,+5v*%
X79000000Y-123500000D03*
%TD*%
%TO.P,R11,2*%
%TO.N,+5v*%
X79000000Y-127000000D03*
%TO.P,R11,1*%
%TO.N,S4*%
X83000000Y-127000000D03*
%TD*%
%TO.P,R12,1*%
%TO.N,S3*%
X107500000Y-127500000D03*
%TO.P,R12,2*%
%TO.N,+5v*%
X111500000Y-127500000D03*
%TD*%
%TO.P,R13,1*%
%TO.N,S2*%
X107500000Y-123500000D03*
%TO.P,R13,2*%
%TO.N,+5v*%
X111500000Y-123500000D03*
%TD*%
%TO.P,R14,1*%
%TO.N,S1*%
X107500000Y-120000000D03*
%TO.P,R14,2*%
%TO.N,+5v*%
X111500000Y-120000000D03*
%TD*%
%TO.P,R15,1*%
%TO.N,Net-(D13-Pad1)*%
X59000000Y-88000000D03*
%TO.P,R15,2*%
%TO.N,Net-(D16-Pad2)*%
X55000000Y-88000000D03*
%TD*%
D12*
%TO.P,R16,2*%
%TO.N,R2*%
X61000000Y-79500000D03*
%TO.P,R16,1*%
%TO.N,Net-(Q4-Pad1)*%
X61000000Y-83500000D03*
%TD*%
D13*
%TO.P,R17,1*%
%TO.N,Net-(D14-Pad1)*%
X81000000Y-110000000D03*
%TO.P,R17,2*%
%TO.N,Net-(D17-Pad2)*%
X85000000Y-110000000D03*
%TD*%
%TO.P,R18,1*%
%TO.N,Net-(D15-Pad1)*%
X81000000Y-38000000D03*
%TO.P,R18,2*%
%TO.N,Net-(D18-Pad2)*%
X85000000Y-38000000D03*
%TD*%
%TO.P,R19,2*%
%TO.N,R6*%
X81500000Y-117500000D03*
%TO.P,R19,1*%
%TO.N,Net-(Q5-Pad1)*%
X85500000Y-117500000D03*
%TD*%
%TO.P,R20,2*%
%TO.N,R10*%
X81500000Y-45000000D03*
%TO.P,R20,1*%
%TO.N,Net-(Q6-Pad1)*%
X85500000Y-45000000D03*
%TD*%
%TO.P,R21,1*%
%TO.N,Net-(D19-Pad1)*%
X59000000Y-70000000D03*
%TO.P,R21,2*%
%TO.N,Net-(D22-Pad2)*%
X55000000Y-70000000D03*
%TD*%
%TO.P,R22,2*%
%TO.N,R3*%
X58500000Y-62500000D03*
%TO.P,R22,1*%
%TO.N,Net-(Q7-Pad1)*%
X54500000Y-62500000D03*
%TD*%
%TO.P,R23,1*%
%TO.N,Net-(D20-Pad1)*%
X81000000Y-92000000D03*
%TO.P,R23,2*%
%TO.N,Net-(D23-Pad2)*%
X85000000Y-92000000D03*
%TD*%
D12*
%TO.P,R24,2*%
%TO.N,Net-(D24-Pad2)*%
X70000000Y-55000000D03*
%TO.P,R24,1*%
%TO.N,Net-(D21-Pad1)*%
X70000000Y-59000000D03*
%TD*%
D13*
%TO.P,R25,2*%
%TO.N,R7*%
X75500000Y-97000000D03*
%TO.P,R25,1*%
%TO.N,Net-(Q8-Pad1)*%
X79500000Y-97000000D03*
%TD*%
D12*
%TO.P,R26,2*%
%TO.N,R11*%
X80000000Y-52000000D03*
%TO.P,R26,1*%
%TO.N,Net-(Q9-Pad1)*%
X80000000Y-48000000D03*
%TD*%
D13*
%TO.P,R27,1*%
%TO.N,Net-(D25-Pad1)*%
X59000000Y-54000000D03*
%TO.P,R27,2*%
%TO.N,Net-(D27-Pad2)*%
X55000000Y-54000000D03*
%TD*%
D12*
%TO.P,R28,2*%
%TO.N,R4*%
X60500000Y-49000000D03*
%TO.P,R28,1*%
%TO.N,Net-(Q10-Pad1)*%
X60500000Y-45000000D03*
%TD*%
D13*
%TO.P,R29,1*%
%TO.N,Net-(D26-Pad1)*%
X81000000Y-74000000D03*
%TO.P,R29,2*%
%TO.N,Net-(D28-Pad2)*%
X85000000Y-74000000D03*
%TD*%
%TO.P,R30,2*%
%TO.N,R8*%
X82000000Y-81500000D03*
%TO.P,R30,1*%
%TO.N,Net-(Q11-Pad1)*%
X86000000Y-81500000D03*
%TD*%
D26*
%TO.P,RV1,1*%
%TO.N,+5v*%
X78000000Y-110000000D03*
%TO.P,RV1,2*%
%TO.N,ADC2*%
X75460000Y-107460000D03*
%TO.P,RV1,3*%
%TO.N,GND*%
X72920000Y-110000000D03*
%TD*%
%TO.P,RV2,3*%
%TO.N,GND*%
X61920000Y-110000000D03*
%TO.P,RV2,2*%
%TO.N,ADC1*%
X64460000Y-107460000D03*
%TO.P,RV2,1*%
%TO.N,+5v*%
X67000000Y-110000000D03*
%TD*%
D14*
%TO.P,SW1,1*%
%TO.N,S1*%
X102000000Y-120000000D03*
D27*
%TO.P,SW1,7*%
%TO.N,GND*%
X89300000Y-127620000D03*
%TO.P,SW1,2*%
%TO.N,S2*%
X99460000Y-120000000D03*
%TO.P,SW1,8*%
%TO.N,GND*%
X91840000Y-127620000D03*
%TO.P,SW1,3*%
%TO.N,S3*%
X96920000Y-120000000D03*
%TO.P,SW1,9*%
%TO.N,GND*%
X94380000Y-127620000D03*
%TO.P,SW1,4*%
%TO.N,S4*%
X94380000Y-120000000D03*
%TO.P,SW1,10*%
%TO.N,GND*%
X96920000Y-127620000D03*
%TO.P,SW1,5*%
%TO.N,S5*%
X91840000Y-120000000D03*
%TO.P,SW1,11*%
%TO.N,GND*%
X99460000Y-127620000D03*
%TO.P,SW1,6*%
%TO.N,S6*%
X89300000Y-120000000D03*
%TO.P,SW1,12*%
%TO.N,GND*%
X102000000Y-127620000D03*
%TD*%
D14*
%TO.P,U1,1*%
%TO.N,rst*%
X66000000Y-60000000D03*
D27*
%TO.P,U1,15*%
%TO.N,R7*%
X73620000Y-93020000D03*
%TO.P,U1,2*%
%TO.N,R1*%
X66000000Y-62540000D03*
%TO.P,U1,16*%
%TO.N,R8*%
X73620000Y-90480000D03*
%TO.P,U1,3*%
%TO.N,R2*%
X66000000Y-65080000D03*
%TO.P,U1,17*%
%TO.N,Mosi*%
X73620000Y-87940000D03*
%TO.P,U1,4*%
%TO.N,R3*%
X66000000Y-67620000D03*
%TO.P,U1,18*%
%TO.N,Miso*%
X73620000Y-85400000D03*
%TO.P,U1,5*%
%TO.N,R4*%
X66000000Y-70160000D03*
%TO.P,U1,19*%
%TO.N,SCK*%
X73620000Y-82860000D03*
%TO.P,U1,6*%
%TO.N,R5*%
X66000000Y-72700000D03*
%TO.P,U1,20*%
%TO.N,+5v*%
X73620000Y-80320000D03*
%TO.P,U1,7*%
X66000000Y-75240000D03*
%TO.P,U1,21*%
X73620000Y-77780000D03*
%TO.P,U1,8*%
%TO.N,GND*%
X66000000Y-77780000D03*
%TO.P,U1,22*%
X73620000Y-75240000D03*
%TO.P,U1,9*%
%TO.N,S1*%
X66000000Y-80320000D03*
%TO.P,U1,23*%
%TO.N,ADC2*%
X73620000Y-72700000D03*
%TO.P,U1,10*%
%TO.N,S2*%
X66000000Y-82860000D03*
%TO.P,U1,24*%
%TO.N,ADC1*%
X73620000Y-70160000D03*
%TO.P,U1,11*%
%TO.N,S3*%
X66000000Y-85400000D03*
%TO.P,U1,25*%
%TO.N,R9*%
X73620000Y-67620000D03*
%TO.P,U1,12*%
%TO.N,S6*%
X66000000Y-87940000D03*
%TO.P,U1,26*%
%TO.N,R10*%
X73620000Y-65080000D03*
%TO.P,U1,13*%
%TO.N,S5*%
X66000000Y-90480000D03*
%TO.P,U1,27*%
%TO.N,R11*%
X73620000Y-62540000D03*
%TO.P,U1,14*%
%TO.N,R6*%
X66000000Y-93020000D03*
%TO.P,U1,28*%
%TO.N,S4*%
X73620000Y-60000000D03*
%TD*%
D28*
%TO.P,U2,1*%
%TO.N,+12v*%
X67500000Y-119000000D03*
D29*
%TO.P,U2,2*%
%TO.N,GND*%
X70040000Y-119000000D03*
%TO.P,U2,3*%
%TO.N,+5v*%
X72580000Y-119000000D03*
%TD*%
D30*
%TO.P,C2,1*%
%TO.N,+12v*%
X33000000Y-126000000D03*
D31*
%TO.P,C2,2*%
%TO.N,GND*%
X33000000Y-121000000D03*
%TD*%
D32*
%TO.N,GND*%
X51000000Y-118000000D03*
X74500000Y-116500000D03*
X58000000Y-51500000D03*
X80000000Y-99500000D03*
X80000000Y-94500000D03*
X61473393Y-69811886D03*
X83500000Y-53500000D03*
X79131378Y-41631378D03*
X59699990Y-33049988D03*
X78500000Y-69500000D03*
X81500000Y-66000000D03*
%TO.N,+5v*%
X109170683Y-121778112D03*
X86300010Y-122000000D03*
X64300023Y-66500000D03*
%TO.N,+12v*%
X52000000Y-124500000D03*
X49000000Y-124500000D03*
X76000000Y-41500000D03*
%TO.N,Net-(D2-Pad2)*%
X37000000Y-123000000D03*
X64000000Y-122000000D03*
X60500000Y-122000000D03*
%TO.N,rst*%
X73000000Y-56500000D03*
X77000000Y-60000000D03*
X79500000Y-66500000D03*
X75500000Y-72000000D03*
%TO.N,R1*%
X60500000Y-91000000D03*
%TO.N,R5*%
X60000000Y-26500000D03*
X60521004Y-66812143D03*
%TO.N,S5*%
X85000000Y-125500000D03*
%TO.N,S4*%
X88500000Y-118000000D03*
X75000000Y-103500000D03*
X83500000Y-99500000D03*
%TO.N,R2*%
X59500000Y-60000000D03*
X60500000Y-76500000D03*
%TO.N,R6*%
X66500000Y-103500000D03*
X80000000Y-115500000D03*
%TO.N,R10*%
X79500000Y-61000000D03*
X79000000Y-45000000D03*
%TO.N,R11*%
X79000000Y-54000000D03*
%TO.N,R4*%
X66000000Y-51500000D03*
X61000000Y-51500000D03*
%TO.N,ADC2*%
X79000000Y-72000000D03*
X81000000Y-102500000D03*
%TO.N,ADC1*%
X64000000Y-94500000D03*
X67500000Y-97000000D03*
X68500000Y-81000000D03*
%TD*%
D33*
%TO.N,GND*%
X89300000Y-127620000D02*
X91840000Y-127620000D01*
X91840000Y-127620000D02*
X94380000Y-127620000D01*
X94380000Y-127620000D02*
X96920000Y-127620000D01*
X96920000Y-127620000D02*
X99460000Y-127620000D01*
X99460000Y-127620000D02*
X102000000Y-127620000D01*
D34*
X33000000Y-121000000D02*
X35500000Y-118500000D01*
X35500000Y-118500000D02*
X42000000Y-118500000D01*
X42500000Y-118000000D02*
X44000000Y-118000000D01*
X42000000Y-118500000D02*
X42500000Y-118000000D01*
D33*
X76500000Y-55950000D02*
X76500000Y-57500000D01*
X78050000Y-59050000D02*
X82500000Y-59050000D01*
X76500000Y-57500000D02*
X78050000Y-59050000D01*
X76560000Y-75240000D02*
X77000000Y-74800000D01*
X73620000Y-75240000D02*
X76560000Y-75240000D01*
D34*
X46000000Y-127000000D02*
X46000000Y-122000000D01*
X44000000Y-120000000D02*
X46000000Y-122000000D01*
X44000000Y-118000000D02*
X44000000Y-120000000D01*
D35*
X73380000Y-75000000D02*
X73620000Y-75240000D01*
X70000000Y-75000000D02*
X73380000Y-75000000D01*
D34*
X51000000Y-118000000D02*
X53500000Y-118000000D01*
X61920000Y-112580000D02*
X61920000Y-110000000D01*
X58500000Y-116000000D02*
X61920000Y-112580000D01*
X55500000Y-116000000D02*
X58500000Y-116000000D01*
X53500000Y-118000000D02*
X55500000Y-116000000D01*
X76500000Y-116500000D02*
X77000000Y-117000000D01*
X74500000Y-116500000D02*
X76500000Y-116500000D01*
X71000000Y-108080000D02*
X72920000Y-110000000D01*
D35*
X57500000Y-102950000D02*
X58450000Y-102950000D01*
X58450000Y-102950000D02*
X59500000Y-104000000D01*
X59500000Y-104000000D02*
X61000000Y-104000000D01*
X61920000Y-104920000D02*
X61920000Y-110000000D01*
X61000000Y-104000000D02*
X61920000Y-104920000D01*
X58550000Y-86000000D02*
X57500000Y-84950000D01*
X61500000Y-86000000D02*
X58550000Y-86000000D01*
X64220000Y-77780000D02*
X66000000Y-77780000D01*
X63000000Y-79000000D02*
X64220000Y-77780000D01*
X63000000Y-84500000D02*
X63000000Y-79000000D01*
X61500000Y-86000000D02*
X63000000Y-84500000D01*
X57500000Y-51000000D02*
X58000000Y-51500000D01*
X57500000Y-48950000D02*
X57500000Y-51000000D01*
D34*
X71000000Y-108080000D02*
X71000000Y-101000000D01*
D33*
X79550000Y-113050000D02*
X82500000Y-113050000D01*
X77000000Y-117000000D02*
X77000000Y-115600000D01*
X77000000Y-115600000D02*
X79550000Y-113050000D01*
D35*
X78500000Y-101000000D02*
X80000000Y-99500000D01*
X71000000Y-101000000D02*
X78500000Y-101000000D01*
X80000000Y-94500000D02*
X80500000Y-94500000D01*
X81050000Y-95050000D02*
X82500000Y-95050000D01*
X80500000Y-94500000D02*
X81050000Y-95050000D01*
X77000000Y-74800000D02*
X78300000Y-74800000D01*
X80550000Y-77050000D02*
X82500000Y-77050000D01*
X78300000Y-74800000D02*
X80550000Y-77050000D01*
X64220000Y-77780000D02*
X61473393Y-75033393D01*
X61473393Y-75033393D02*
X61473393Y-70943256D01*
X61473393Y-70943256D02*
X61473393Y-69811886D01*
D33*
X83500000Y-53500000D02*
X83000000Y-54000000D01*
X83000000Y-58550000D02*
X82500000Y-59050000D01*
X83000000Y-54000000D02*
X83000000Y-58550000D01*
X82500000Y-41050000D02*
X79712756Y-41050000D01*
X79712756Y-41050000D02*
X79131378Y-41631378D01*
D35*
X63279998Y-96000002D02*
X62500000Y-95220004D01*
X63279998Y-103560002D02*
X63279998Y-96000002D01*
X61920000Y-104920000D02*
X63279998Y-103560002D01*
X62500000Y-95220004D02*
X62500000Y-87000000D01*
X62500000Y-87000000D02*
X61500000Y-86000000D01*
X57500000Y-31950000D02*
X59250000Y-31950000D01*
X59250000Y-31950000D02*
X59699990Y-32399990D01*
X59699990Y-32399990D02*
X59699990Y-33049988D01*
X61473393Y-69811886D02*
X61473393Y-69473393D01*
X60295035Y-68295035D02*
X59295035Y-68295035D01*
X61473393Y-69473393D02*
X60295035Y-68295035D01*
X57950000Y-66950000D02*
X57500000Y-66950000D01*
X59295035Y-68295035D02*
X57950000Y-66950000D01*
D33*
X81500000Y-66500000D02*
X81500000Y-66000000D01*
X78500000Y-69500000D02*
X81500000Y-66500000D01*
%TO.N,+5v*%
X111500000Y-120000000D02*
X111500000Y-123500000D01*
X111500000Y-123500000D02*
X111500000Y-127500000D01*
X79000000Y-120000000D02*
X79000000Y-123500000D01*
X79000000Y-123500000D02*
X79000000Y-127000000D01*
X73620000Y-80320000D02*
X73620000Y-77780000D01*
X76560000Y-77780000D02*
X77000000Y-77340000D01*
X73620000Y-77780000D02*
X76560000Y-77780000D01*
D34*
X72500000Y-118920000D02*
X72580000Y-119000000D01*
X72500000Y-113500000D02*
X72500000Y-118920000D01*
D33*
X76500000Y-113500000D02*
X77000000Y-113000000D01*
X72500000Y-113500000D02*
X76500000Y-113500000D01*
X72580000Y-119000000D02*
X75500000Y-119000000D01*
X76500000Y-120000000D02*
X79000000Y-120000000D01*
X75500000Y-119000000D02*
X76500000Y-120000000D01*
X77000000Y-111000000D02*
X78000000Y-110000000D01*
X77000000Y-113000000D02*
X77000000Y-111000000D01*
X67000000Y-110000000D02*
X69500000Y-110000000D01*
X72500000Y-113000000D02*
X72500000Y-113500000D01*
X69500000Y-110000000D02*
X72500000Y-113000000D01*
D35*
X70000000Y-79000000D02*
X71000000Y-79000000D01*
X72220000Y-77780000D02*
X73620000Y-77780000D01*
X71000000Y-79000000D02*
X72220000Y-77780000D01*
D33*
X66000000Y-75240000D02*
X67240000Y-75240000D01*
X67240000Y-75240000D02*
X68000000Y-76000000D01*
X68000000Y-76000000D02*
X68000000Y-78500000D01*
X68500000Y-79000000D02*
X70000000Y-79000000D01*
X68000000Y-78500000D02*
X68500000Y-79000000D01*
D34*
X63040000Y-118000000D02*
X63040000Y-114960000D01*
X63040000Y-114960000D02*
X64000000Y-114000000D01*
X64000000Y-114000000D02*
X64000000Y-112000000D01*
X66000000Y-110000000D02*
X67000000Y-110000000D01*
X64000000Y-112000000D02*
X66000000Y-110000000D01*
D33*
X109721888Y-121778112D02*
X111500000Y-120000000D01*
X109170683Y-121778112D02*
X109721888Y-121778112D01*
D34*
X67000000Y-107500000D02*
X67000000Y-110000000D01*
X68500000Y-106000000D02*
X67000000Y-107500000D01*
X68500000Y-99500000D02*
X68500000Y-101000000D01*
X68500000Y-100500000D02*
X68500000Y-99500000D01*
X68500000Y-106000000D02*
X68500000Y-101000000D01*
D33*
X79000000Y-120000000D02*
X81000000Y-122000000D01*
X81000000Y-122000000D02*
X86300010Y-122000000D01*
D34*
X68500000Y-99500000D02*
X70100002Y-97899998D01*
X70100002Y-97899998D02*
X70100002Y-79100002D01*
X70100002Y-79100002D02*
X70000000Y-79000000D01*
D33*
X62000000Y-64000000D02*
X62000000Y-64199977D01*
X62000000Y-64199977D02*
X64300023Y-66500000D01*
D34*
%TO.N,+12v*%
X45000000Y-40000000D02*
X45000000Y-41000000D01*
X46950000Y-42950000D02*
X49050000Y-42950000D01*
X45000000Y-41000000D02*
X46950000Y-42950000D01*
X45000000Y-57625000D02*
X45000000Y-59000000D01*
X45950000Y-59950000D02*
X49050000Y-59950000D01*
X45000000Y-59000000D02*
X45950000Y-59950000D01*
X45000000Y-75250000D02*
X45000000Y-76500000D01*
X46450000Y-77950000D02*
X49050000Y-77950000D01*
X45000000Y-76500000D02*
X46450000Y-77950000D01*
X45000000Y-92875000D02*
X45000000Y-94500000D01*
X46450000Y-95950000D02*
X49050000Y-95950000D01*
X45000000Y-94500000D02*
X46450000Y-95950000D01*
X45000000Y-110500000D02*
X45000000Y-112500000D01*
X46450000Y-113950000D02*
X49050000Y-113950000D01*
X45000000Y-112500000D02*
X46450000Y-113950000D01*
X90950000Y-30050000D02*
X95050000Y-30050000D01*
X96000000Y-31000000D02*
X96000000Y-33000000D01*
X95050000Y-30050000D02*
X96000000Y-31000000D01*
X90950000Y-48050000D02*
X95050000Y-48050000D01*
X96000000Y-49000000D02*
X96000000Y-51000000D01*
X95050000Y-48050000D02*
X96000000Y-49000000D01*
X90950000Y-66050000D02*
X95550000Y-66050000D01*
X96000000Y-66500000D02*
X96000000Y-69000000D01*
X95550000Y-66050000D02*
X96000000Y-66500000D01*
X90950000Y-84050000D02*
X95550000Y-84050000D01*
X96000000Y-84500000D02*
X96000000Y-87000000D01*
X95550000Y-84050000D02*
X96000000Y-84500000D01*
X90950000Y-102050000D02*
X94550000Y-102050000D01*
X96000000Y-103500000D02*
X96000000Y-105500000D01*
D35*
X51540000Y-40460000D02*
X56000000Y-40460000D01*
X49050000Y-42950000D02*
X51540000Y-40460000D01*
X51540000Y-57460000D02*
X56000000Y-57460000D01*
X49050000Y-59950000D02*
X51540000Y-57460000D01*
X51540000Y-75460000D02*
X56000000Y-75460000D01*
X49050000Y-77950000D02*
X51540000Y-75460000D01*
X51540000Y-93460000D02*
X56000000Y-93460000D01*
X49050000Y-95950000D02*
X51540000Y-93460000D01*
X51540000Y-111460000D02*
X56000000Y-111460000D01*
X49050000Y-113950000D02*
X51540000Y-111460000D01*
X88460000Y-32540000D02*
X84000000Y-32540000D01*
X90950000Y-30050000D02*
X88460000Y-32540000D01*
X88460000Y-50540000D02*
X84000000Y-50540000D01*
X90950000Y-48050000D02*
X88460000Y-50540000D01*
X88460000Y-68540000D02*
X84000000Y-68540000D01*
X90950000Y-66050000D02*
X88460000Y-68540000D01*
X88460000Y-86540000D02*
X84000000Y-86540000D01*
X90950000Y-84050000D02*
X88460000Y-86540000D01*
X88460000Y-104540000D02*
X84000000Y-104540000D01*
X90950000Y-102050000D02*
X88460000Y-104540000D01*
D34*
X64050000Y-47950000D02*
X67000000Y-45000000D01*
X64050000Y-49050000D02*
X64050000Y-47950000D01*
X64050000Y-53010000D02*
X65500000Y-54460000D01*
X64050000Y-49050000D02*
X64050000Y-53010000D01*
X48000000Y-118000000D02*
X48000000Y-117000000D01*
X49050000Y-115950000D02*
X49050000Y-113950000D01*
X48000000Y-117000000D02*
X49050000Y-115950000D01*
X45000000Y-110500000D02*
X43500000Y-110500000D01*
X43500000Y-110500000D02*
X42000000Y-109000000D01*
X42000000Y-100400000D02*
X46450000Y-95950000D01*
X42000000Y-109000000D02*
X42000000Y-100400000D01*
X45000000Y-92875000D02*
X43375000Y-92875000D01*
X43375000Y-92875000D02*
X42000000Y-91500000D01*
X42000000Y-82400000D02*
X46450000Y-77950000D01*
X42000000Y-91500000D02*
X42000000Y-82400000D01*
X45000000Y-75250000D02*
X42750000Y-75250000D01*
X42750000Y-75250000D02*
X42000000Y-74500000D01*
X42000000Y-63900000D02*
X45950000Y-59950000D01*
X42000000Y-74500000D02*
X42000000Y-63900000D01*
X45000000Y-57625000D02*
X42625000Y-57625000D01*
X42625000Y-57625000D02*
X41500000Y-56500000D01*
X41500000Y-43500000D02*
X45000000Y-40000000D01*
X41500000Y-56500000D02*
X41500000Y-43500000D01*
X96000000Y-33000000D02*
X97000000Y-33000000D01*
X97000000Y-33000000D02*
X99000000Y-35000000D01*
X99000000Y-44100000D02*
X95050000Y-48050000D01*
X99000000Y-35000000D02*
X99000000Y-44100000D01*
X96000000Y-51000000D02*
X97500000Y-51000000D01*
X97500000Y-51000000D02*
X99000000Y-52500000D01*
X99000000Y-62600000D02*
X95550000Y-66050000D01*
X99000000Y-52500000D02*
X99000000Y-62600000D01*
X96000000Y-69000000D02*
X98500000Y-69000000D01*
X98500000Y-69000000D02*
X99000000Y-69500000D01*
X99000000Y-81500000D02*
X96000000Y-84500000D01*
X99000000Y-69500000D02*
X99000000Y-81500000D01*
X96000000Y-87000000D02*
X98500000Y-87000000D01*
X98500000Y-87000000D02*
X99000000Y-87500000D01*
X99000000Y-98000000D02*
X94750000Y-102250000D01*
X99000000Y-87500000D02*
X99000000Y-98000000D01*
X94750000Y-102250000D02*
X96000000Y-103500000D01*
X94550000Y-102050000D02*
X94750000Y-102250000D01*
X67500000Y-113500000D02*
X67500000Y-119000000D01*
X48000000Y-118000000D02*
X52000000Y-122000000D01*
X52000000Y-124500000D02*
X52000000Y-122000000D01*
X52000000Y-127000000D02*
X52000000Y-124500000D01*
X52000000Y-124500000D02*
X49000000Y-124500000D01*
X67000000Y-45000000D02*
X67000000Y-43500000D01*
X69000000Y-41500000D02*
X76000000Y-41500000D01*
X67000000Y-43500000D02*
X69000000Y-41500000D01*
%TO.N,Net-(D1-Pad2)*%
X57000000Y-127000000D02*
X61000000Y-127000000D01*
X62500000Y-125500000D02*
X66920000Y-125500000D01*
X61000000Y-127000000D02*
X62500000Y-125500000D01*
X41000000Y-127500000D02*
X42674990Y-129174990D01*
X41000000Y-127000000D02*
X41000000Y-127500000D01*
X57000000Y-127000000D02*
X57000000Y-128000000D01*
X57000000Y-128000000D02*
X55825010Y-129174990D01*
X55825010Y-129174990D02*
X42674990Y-129174990D01*
%TO.N,Net-(D2-Pad2)*%
X68500000Y-122000000D02*
X72000000Y-125500000D01*
X38000000Y-122000000D02*
X37000000Y-123000000D01*
X41000000Y-122000000D02*
X38000000Y-122000000D01*
X57000000Y-122000000D02*
X60500000Y-122000000D01*
X60500000Y-122000000D02*
X68500000Y-122000000D01*
%TO.N,Net-(D6-Pad1)*%
X57500000Y-118000000D02*
X60500000Y-118000000D01*
D33*
%TO.N,Net-(D7-Pad1)*%
X56000000Y-114000000D02*
X57500000Y-114000000D01*
X59000000Y-112500000D02*
X59000000Y-106000000D01*
X57500000Y-114000000D02*
X59000000Y-112500000D01*
%TO.N,Net-(D8-Pad1)*%
X56000000Y-43000000D02*
X57000000Y-43000000D01*
X59000000Y-41000000D02*
X59000000Y-35000000D01*
X57000000Y-43000000D02*
X59000000Y-41000000D01*
%TO.N,Net-(D9-Pad1)*%
X84000000Y-48000000D02*
X82500000Y-48000000D01*
X82500000Y-48000000D02*
X82000000Y-48500000D01*
X82000000Y-55000000D02*
X81000000Y-56000000D01*
X82000000Y-48500000D02*
X82000000Y-55000000D01*
D34*
%TO.N,Net-(D10-Pad2)*%
X45000000Y-105500000D02*
X45000000Y-103000000D01*
X46050000Y-101950000D02*
X49050000Y-101950000D01*
X45000000Y-103000000D02*
X46050000Y-101950000D01*
D35*
X54450000Y-101950000D02*
X54500000Y-102000000D01*
X49050000Y-101950000D02*
X54450000Y-101950000D01*
D33*
X55000000Y-102500000D02*
X54500000Y-102000000D01*
X55000000Y-106000000D02*
X55000000Y-102500000D01*
D34*
%TO.N,Net-(D11-Pad2)*%
X45000000Y-35000000D02*
X45000000Y-32500000D01*
X46550000Y-30950000D02*
X49050000Y-30950000D01*
X45000000Y-32500000D02*
X46550000Y-30950000D01*
D35*
X54450000Y-30950000D02*
X54500000Y-31000000D01*
X49050000Y-30950000D02*
X54450000Y-30950000D01*
D33*
X55000000Y-31500000D02*
X54500000Y-31000000D01*
X55000000Y-35000000D02*
X55000000Y-31500000D01*
D34*
%TO.N,Net-(D12-Pad2)*%
X90950000Y-60050000D02*
X94450000Y-60050000D01*
X96000000Y-58500000D02*
X96000000Y-56000000D01*
X94450000Y-60050000D02*
X96000000Y-58500000D01*
D35*
X90900000Y-60000000D02*
X90950000Y-60050000D01*
X85500000Y-60000000D02*
X90900000Y-60000000D01*
D33*
X85000000Y-59500000D02*
X85500000Y-60000000D01*
X85000000Y-56000000D02*
X85000000Y-59500000D01*
%TO.N,Net-(D13-Pad1)*%
X56000000Y-96000000D02*
X57500000Y-96000000D01*
X59000000Y-94500000D02*
X59000000Y-88000000D01*
X57500000Y-96000000D02*
X59000000Y-94500000D01*
%TO.N,Net-(D14-Pad1)*%
X84000000Y-102000000D02*
X81000000Y-105000000D01*
X81000000Y-105000000D02*
X81000000Y-110000000D01*
%TO.N,Net-(D15-Pad1)*%
X84000000Y-30000000D02*
X82000000Y-30000000D01*
X81000000Y-31000000D02*
X81000000Y-38000000D01*
X82000000Y-30000000D02*
X81000000Y-31000000D01*
D34*
%TO.N,Net-(D16-Pad2)*%
X45000000Y-87875000D02*
X45000000Y-85000000D01*
X46050000Y-83950000D02*
X49050000Y-83950000D01*
X45000000Y-85000000D02*
X46050000Y-83950000D01*
D35*
X54450000Y-83950000D02*
X54500000Y-84000000D01*
X49050000Y-83950000D02*
X54450000Y-83950000D01*
D33*
X55000000Y-84500000D02*
X54500000Y-84000000D01*
X55000000Y-88000000D02*
X55000000Y-84500000D01*
D34*
%TO.N,Net-(D17-Pad2)*%
X90950000Y-114050000D02*
X94450000Y-114050000D01*
X96000000Y-112500000D02*
X96000000Y-110500000D01*
X94450000Y-114050000D02*
X96000000Y-112500000D01*
D33*
X85000000Y-113500000D02*
X85500000Y-114000000D01*
X85000000Y-110000000D02*
X85000000Y-113500000D01*
D35*
X90900000Y-114000000D02*
X90950000Y-114050000D01*
X85500000Y-114000000D02*
X90900000Y-114000000D01*
D34*
%TO.N,Net-(D18-Pad2)*%
X90950000Y-42050000D02*
X94450000Y-42050000D01*
X96000000Y-40500000D02*
X96000000Y-38000000D01*
X94450000Y-42050000D02*
X96000000Y-40500000D01*
D35*
X90900000Y-42000000D02*
X90950000Y-42050000D01*
X85500000Y-42000000D02*
X90900000Y-42000000D01*
D33*
X85000000Y-41500000D02*
X85500000Y-42000000D01*
X85000000Y-38000000D02*
X85000000Y-41500000D01*
%TO.N,Net-(D19-Pad1)*%
X56000000Y-78000000D02*
X57500000Y-78000000D01*
X59000000Y-76500000D02*
X59000000Y-70000000D01*
X57500000Y-78000000D02*
X59000000Y-76500000D01*
%TO.N,Net-(D20-Pad1)*%
X84000000Y-84000000D02*
X82500000Y-84000000D01*
X81000000Y-85500000D02*
X81000000Y-92000000D01*
X82500000Y-84000000D02*
X81000000Y-85500000D01*
%TO.N,Net-(D21-Pad1)*%
X65500000Y-57000000D02*
X66500000Y-57000000D01*
X68500000Y-59000000D02*
X70000000Y-59000000D01*
X66500000Y-57000000D02*
X68500000Y-59000000D01*
D34*
%TO.N,Net-(D22-Pad2)*%
X45000000Y-70250000D02*
X45000000Y-67000000D01*
X46050000Y-65950000D02*
X49050000Y-65950000D01*
X45000000Y-67000000D02*
X46050000Y-65950000D01*
D35*
X54450000Y-65950000D02*
X54500000Y-66000000D01*
X49050000Y-65950000D02*
X54450000Y-65950000D01*
D33*
X55000000Y-66500000D02*
X54500000Y-66000000D01*
X55000000Y-70000000D02*
X55000000Y-66500000D01*
D34*
%TO.N,Net-(D23-Pad2)*%
X90950000Y-96050000D02*
X94450000Y-96050000D01*
X96000000Y-94500000D02*
X96000000Y-92000000D01*
X94450000Y-96050000D02*
X96000000Y-94500000D01*
D35*
X90900000Y-96000000D02*
X90950000Y-96050000D01*
X85500000Y-96000000D02*
X90900000Y-96000000D01*
D33*
X85000000Y-95500000D02*
X85500000Y-96000000D01*
X85000000Y-92000000D02*
X85000000Y-95500000D01*
D34*
%TO.N,Net-(D24-Pad2)*%
X72000000Y-45000000D02*
X74500000Y-45000000D01*
X76050000Y-46550000D02*
X76050000Y-49050000D01*
X74500000Y-45000000D02*
X76050000Y-46550000D01*
D33*
X70000000Y-55000000D02*
X73500000Y-55000000D01*
D35*
X73500000Y-51600000D02*
X73500000Y-55000000D01*
X76050000Y-49050000D02*
X73500000Y-51600000D01*
D33*
%TO.N,Net-(D25-Pad1)*%
X56000000Y-60000000D02*
X57500000Y-60000000D01*
X57500000Y-60000000D02*
X59000000Y-58500000D01*
X59000000Y-58500000D02*
X59000000Y-54000000D01*
%TO.N,Net-(D26-Pad1)*%
X84000000Y-66000000D02*
X81000000Y-69000000D01*
X81000000Y-69000000D02*
X81000000Y-74000000D01*
D34*
%TO.N,Net-(D27-Pad2)*%
X45000000Y-52625000D02*
X45000000Y-48500000D01*
X45550000Y-47950000D02*
X49050000Y-47950000D01*
X45000000Y-48500000D02*
X45550000Y-47950000D01*
D35*
X49050000Y-47950000D02*
X54450000Y-47950000D01*
X54500000Y-53500000D02*
X55000000Y-54000000D01*
X54500000Y-48000000D02*
X54500000Y-53500000D01*
D34*
%TO.N,Net-(D28-Pad2)*%
X90950000Y-78050000D02*
X94950000Y-78050000D01*
X96000000Y-77000000D02*
X96000000Y-74000000D01*
X94950000Y-78050000D02*
X96000000Y-77000000D01*
D35*
X90900000Y-78000000D02*
X90950000Y-78050000D01*
X85500000Y-78000000D02*
X90900000Y-78000000D01*
D33*
X85000000Y-77500000D02*
X85500000Y-78000000D01*
X85000000Y-74000000D02*
X85000000Y-77500000D01*
%TO.N,Mosi*%
X76560000Y-87940000D02*
X77000000Y-87500000D01*
X73620000Y-87940000D02*
X76560000Y-87940000D01*
%TO.N,Miso*%
X76560000Y-85400000D02*
X77000000Y-84960000D01*
X73620000Y-85400000D02*
X76560000Y-85400000D01*
%TO.N,SCK*%
X76560000Y-82860000D02*
X77000000Y-82420000D01*
X73620000Y-82860000D02*
X76560000Y-82860000D01*
%TO.N,rst*%
X62000000Y-60000000D02*
X66000000Y-60000000D01*
X76500000Y-60000000D02*
X77000000Y-60000000D01*
X73000000Y-56500000D02*
X76500000Y-60000000D01*
X75500000Y-70500000D02*
X75500000Y-72000000D01*
X79500000Y-66500000D02*
X75500000Y-70500000D01*
%TO.N,Net-(Q1-Pad1)*%
X60550000Y-101050000D02*
X61000000Y-101500000D01*
X57500000Y-101050000D02*
X60550000Y-101050000D01*
%TO.N,Net-(Q2-Pad1)*%
X53500000Y-26500000D02*
X53500000Y-27500000D01*
X56050000Y-30050000D02*
X57500000Y-30050000D01*
X53500000Y-27500000D02*
X56050000Y-30050000D01*
%TO.N,Net-(Q3-Pad1)*%
X82950000Y-60950000D02*
X85500000Y-63500000D01*
X82500000Y-60950000D02*
X82950000Y-60950000D01*
%TO.N,Net-(Q4-Pad1)*%
X60550000Y-83050000D02*
X61000000Y-83500000D01*
X57500000Y-83050000D02*
X60550000Y-83050000D01*
%TO.N,Net-(Q5-Pad1)*%
X82950000Y-114950000D02*
X85500000Y-117500000D01*
X82500000Y-114950000D02*
X82950000Y-114950000D01*
%TO.N,Net-(Q6-Pad1)*%
X83450000Y-42950000D02*
X85500000Y-45000000D01*
X82500000Y-42950000D02*
X83450000Y-42950000D01*
%TO.N,Net-(Q7-Pad1)*%
X57050000Y-65050000D02*
X54500000Y-62500000D01*
X57500000Y-65050000D02*
X57050000Y-65050000D01*
%TO.N,Net-(Q8-Pad1)*%
X82450000Y-97000000D02*
X82500000Y-96950000D01*
X79500000Y-97000000D02*
X82450000Y-97000000D01*
%TO.N,Net-(Q9-Pad1)*%
X78500000Y-51500000D02*
X76500000Y-53500000D01*
X78500000Y-49500000D02*
X78500000Y-51500000D01*
X76500000Y-53500000D02*
X76500000Y-54050000D01*
X80000000Y-48000000D02*
X78500000Y-49500000D01*
%TO.N,Net-(Q10-Pad1)*%
X57500000Y-47050000D02*
X57500000Y-46000000D01*
X58500000Y-45000000D02*
X60500000Y-45000000D01*
X57500000Y-46000000D02*
X58500000Y-45000000D01*
%TO.N,Net-(Q11-Pad1)*%
X83450000Y-78950000D02*
X86000000Y-81500000D01*
X82500000Y-78950000D02*
X83450000Y-78950000D01*
%TO.N,R1*%
X61000000Y-91500000D02*
X60500000Y-91000000D01*
X61000000Y-97500000D02*
X61000000Y-91500000D01*
%TO.N,R5*%
X57500000Y-26500000D02*
X60000000Y-26500000D01*
X66000000Y-72291139D02*
X60521004Y-66812143D01*
X66000000Y-72700000D02*
X66000000Y-72291139D01*
%TO.N,R9*%
X73620000Y-67620000D02*
X75380000Y-67620000D01*
X79500000Y-63500000D02*
X81500000Y-63500000D01*
X75380000Y-67620000D02*
X79500000Y-63500000D01*
%TO.N,S6*%
X83000000Y-120000000D02*
X89300000Y-120000000D01*
%TO.N,S5*%
X83000000Y-123500000D02*
X90500000Y-123500000D01*
X91840000Y-122160000D02*
X91840000Y-120000000D01*
X90500000Y-123500000D02*
X91840000Y-122160000D01*
X85000000Y-125500000D02*
X83000000Y-123500000D01*
%TO.N,S4*%
X83000000Y-127000000D02*
X86500000Y-127000000D01*
X86500000Y-127000000D02*
X89000000Y-124500000D01*
X89000000Y-124500000D02*
X92500000Y-124500000D01*
X94380000Y-122620000D02*
X94380000Y-120000000D01*
X92500000Y-124500000D02*
X94380000Y-122620000D01*
X94380000Y-120000000D02*
X92380000Y-118000000D01*
X92380000Y-118000000D02*
X88500000Y-118000000D01*
X75000000Y-103500000D02*
X78075998Y-103500000D01*
X78075998Y-103500000D02*
X82075998Y-99500000D01*
X82075998Y-99500000D02*
X83500000Y-99500000D01*
%TO.N,S3*%
X96920000Y-120000000D02*
X96920000Y-122420000D01*
X96920000Y-122420000D02*
X99500000Y-125000000D01*
X99500000Y-125000000D02*
X103000000Y-125000000D01*
X105500000Y-127500000D02*
X107500000Y-127500000D01*
X103000000Y-125000000D02*
X105500000Y-127500000D01*
%TO.N,S2*%
X99460000Y-120000000D02*
X99460000Y-121960000D01*
X101000000Y-123500000D02*
X107500000Y-123500000D01*
X99460000Y-121960000D02*
X101000000Y-123500000D01*
%TO.N,S1*%
X102000000Y-120000000D02*
X107500000Y-120000000D01*
%TO.N,R2*%
X66000000Y-65080000D02*
X64580000Y-65080000D01*
X64580000Y-65080000D02*
X64000000Y-64500000D01*
X64000000Y-64500000D02*
X64000000Y-62500000D01*
X64000000Y-62500000D02*
X63500000Y-62000000D01*
X59500000Y-60250002D02*
X59500000Y-60000000D01*
X61249998Y-62000000D02*
X59500000Y-60250002D01*
X63500000Y-62000000D02*
X61249998Y-62000000D01*
X60500000Y-79000000D02*
X61000000Y-79500000D01*
X60500000Y-76500000D02*
X60500000Y-79000000D01*
%TO.N,R6*%
X66000000Y-103000000D02*
X66500000Y-103500000D01*
X66000000Y-93020000D02*
X66000000Y-103000000D01*
X80000000Y-116000000D02*
X81500000Y-117500000D01*
X80000000Y-115500000D02*
X80000000Y-116000000D01*
%TO.N,R10*%
X75420000Y-65080000D02*
X79500000Y-61000000D01*
X73620000Y-65080000D02*
X75420000Y-65080000D01*
X79000000Y-45000000D02*
X81500000Y-45000000D01*
%TO.N,R3*%
X65200001Y-68419999D02*
X66000000Y-67620000D01*
X61436143Y-65512141D02*
X64344001Y-68419999D01*
X60262141Y-65512141D02*
X61436143Y-65512141D01*
X58500000Y-63750000D02*
X60262141Y-65512141D01*
X64344001Y-68419999D02*
X65200001Y-68419999D01*
X58500000Y-62500000D02*
X58500000Y-63750000D01*
%TO.N,R7*%
X73620000Y-95120000D02*
X75500000Y-97000000D01*
X73620000Y-93020000D02*
X73620000Y-95120000D01*
%TO.N,R11*%
X79000000Y-53000000D02*
X80000000Y-52000000D01*
X79000000Y-54000000D02*
X79000000Y-53000000D01*
%TO.N,R4*%
X66000000Y-70160000D02*
X67340000Y-70160000D01*
X67340000Y-70160000D02*
X71500000Y-66000000D01*
X71500000Y-66000000D02*
X71500000Y-61500000D01*
X71500000Y-61500000D02*
X72000000Y-61000000D01*
X72000000Y-61000000D02*
X72000000Y-58000000D01*
X72000000Y-58000000D02*
X71000000Y-57000000D01*
X71000000Y-57000000D02*
X69000000Y-57000000D01*
X69000000Y-57000000D02*
X68000000Y-56000000D01*
X68000000Y-53500000D02*
X66000000Y-51500000D01*
X68000000Y-56000000D02*
X68000000Y-53500000D01*
X61000000Y-49500000D02*
X60500000Y-49000000D01*
X61000000Y-51500000D02*
X61000000Y-49500000D01*
%TO.N,R8*%
X73620000Y-90480000D02*
X78020000Y-90480000D01*
X78020000Y-90480000D02*
X79500000Y-89000000D01*
X79500000Y-89000000D02*
X79500000Y-82500000D01*
X80500000Y-81500000D02*
X82000000Y-81500000D01*
X79500000Y-82500000D02*
X80500000Y-81500000D01*
%TO.N,ADC2*%
X73620000Y-72700000D02*
X74420000Y-73500000D01*
X74420000Y-73500000D02*
X75500000Y-73500000D01*
X75500000Y-73500000D02*
X76000000Y-73500000D01*
X77500000Y-72000000D02*
X79000000Y-72000000D01*
X76000000Y-73500000D02*
X77500000Y-72000000D01*
X76040000Y-107460000D02*
X75460000Y-107460000D01*
X81000000Y-102500000D02*
X76040000Y-107460000D01*
%TO.N,ADC1*%
X64460000Y-107460000D02*
X64460000Y-104540000D01*
X64460000Y-104540000D02*
X65000000Y-104000000D01*
X65000000Y-95500000D02*
X64000000Y-94500000D01*
X65000000Y-104000000D02*
X65000000Y-95500000D01*
X67500000Y-97000000D02*
X68500000Y-96000000D01*
X68500000Y-96000000D02*
X68500000Y-91000000D01*
X68500000Y-91000000D02*
X68500000Y-81000000D01*
%TD*%
M02*
