G04 #@! TF.GenerationSoftware,KiCad,Pcbnew,(5.1.4)-1*
G04 #@! TF.CreationDate,2020-08-14T12:18:12+05:30*
G04 #@! TF.ProjectId,JR_3RWLC2_PCB,4a525f33-5257-44c4-9332-5f5043422e6b,rev?*
G04 #@! TF.SameCoordinates,Original*
G04 #@! TF.FileFunction,Copper,L1,Top*
G04 #@! TF.FilePolarity,Positive*
%FSLAX46Y46*%
G04 Gerber Fmt 4.6, Leading zero omitted, Abs format (unit mm)*
G04 Created by KiCad (PCBNEW (5.1.4)-1) date 2020-08-14 12:18:12*
%MOMM*%
%LPD*%
G04 APERTURE LIST*
%ADD10C,0.300000*%
%ADD11C,0.050000*%
%ADD12C,3.000000*%
%ADD13C,2.000000*%
%ADD14C,0.100000*%
%ADD15C,1.440000*%
%ADD16R,2.000000X2.000000*%
%ADD17C,1.800000*%
%ADD18R,1.800000X1.800000*%
%ADD19R,3.000000X3.000000*%
%ADD20R,1.700000X1.700000*%
%ADD21O,1.700000X1.700000*%
%ADD22R,2.500000X2.500000*%
%ADD23O,2.500000X2.500000*%
%ADD24R,2.000000X1.905000*%
%ADD25O,2.000000X1.905000*%
%ADD26R,1.600000X1.600000*%
%ADD27O,1.600000X1.600000*%
%ADD28O,1.800000X1.800000*%
%ADD29C,1.200000*%
%ADD30C,1.000000*%
%ADD31C,0.400000*%
%ADD32C,0.800000*%
%ADD33C,2.000000*%
%ADD34C,4.000000*%
%ADD35C,0.254000*%
G04 APERTURE END LIST*
D10*
X46295714Y-100524571D02*
X47152857Y-100524571D01*
X46724285Y-102024571D02*
X46724285Y-100524571D01*
X47938571Y-100524571D02*
X48224285Y-100524571D01*
X48367142Y-100596000D01*
X48510000Y-100738857D01*
X48581428Y-101024571D01*
X48581428Y-101524571D01*
X48510000Y-101810285D01*
X48367142Y-101953142D01*
X48224285Y-102024571D01*
X47938571Y-102024571D01*
X47795714Y-101953142D01*
X47652857Y-101810285D01*
X47581428Y-101524571D01*
X47581428Y-101024571D01*
X47652857Y-100738857D01*
X47795714Y-100596000D01*
X47938571Y-100524571D01*
X49224285Y-102024571D02*
X49224285Y-100524571D01*
X49795714Y-100524571D01*
X49938571Y-100596000D01*
X50010000Y-100667428D01*
X50081428Y-100810285D01*
X50081428Y-101024571D01*
X50010000Y-101167428D01*
X49938571Y-101238857D01*
X49795714Y-101310285D01*
X49224285Y-101310285D01*
D11*
X20000000Y-105000000D02*
X20000000Y-20000000D01*
X100000000Y-105000000D02*
X20000000Y-105000000D01*
X100000000Y-20000000D02*
X100000000Y-105000000D01*
X20000000Y-20000000D02*
X100000000Y-20000000D01*
D12*
X35814000Y-65516000D03*
D13*
X30714000Y-68056000D03*
D12*
X26914000Y-83256000D03*
X26914000Y-90856000D03*
X44714000Y-80716000D03*
D14*
G36*
X41463009Y-67058408D02*
G01*
X41511545Y-67065607D01*
X41559142Y-67077530D01*
X41605342Y-67094060D01*
X41649698Y-67115039D01*
X41691785Y-67140265D01*
X41731197Y-67169495D01*
X41767553Y-67202447D01*
X41800505Y-67238803D01*
X41829735Y-67278215D01*
X41854961Y-67320302D01*
X41875940Y-67364658D01*
X41892470Y-67410858D01*
X41904393Y-67458455D01*
X41911592Y-67506991D01*
X41914000Y-67556000D01*
X41914000Y-68556000D01*
X41911592Y-68605009D01*
X41904393Y-68653545D01*
X41892470Y-68701142D01*
X41875940Y-68747342D01*
X41854961Y-68791698D01*
X41829735Y-68833785D01*
X41800505Y-68873197D01*
X41767553Y-68909553D01*
X41731197Y-68942505D01*
X41691785Y-68971735D01*
X41649698Y-68996961D01*
X41605342Y-69017940D01*
X41559142Y-69034470D01*
X41511545Y-69046393D01*
X41463009Y-69053592D01*
X41414000Y-69056000D01*
X40414000Y-69056000D01*
X40364991Y-69053592D01*
X40316455Y-69046393D01*
X40268858Y-69034470D01*
X40222658Y-69017940D01*
X40178302Y-68996961D01*
X40136215Y-68971735D01*
X40096803Y-68942505D01*
X40060447Y-68909553D01*
X40027495Y-68873197D01*
X39998265Y-68833785D01*
X39973039Y-68791698D01*
X39952060Y-68747342D01*
X39935530Y-68701142D01*
X39923607Y-68653545D01*
X39916408Y-68605009D01*
X39914000Y-68556000D01*
X39914000Y-67556000D01*
X39916408Y-67506991D01*
X39923607Y-67458455D01*
X39935530Y-67410858D01*
X39952060Y-67364658D01*
X39973039Y-67320302D01*
X39998265Y-67278215D01*
X40027495Y-67238803D01*
X40060447Y-67202447D01*
X40096803Y-67169495D01*
X40136215Y-67140265D01*
X40178302Y-67115039D01*
X40222658Y-67094060D01*
X40268858Y-67077530D01*
X40316455Y-67065607D01*
X40364991Y-67058408D01*
X40414000Y-67056000D01*
X41414000Y-67056000D01*
X41463009Y-67058408D01*
X41463009Y-67058408D01*
G37*
D13*
X40914000Y-68056000D03*
D15*
X70625000Y-47498000D03*
X73165000Y-50038000D03*
X70625000Y-52578000D03*
D16*
X82350000Y-48550000D03*
D13*
X87350000Y-48550000D03*
X96700000Y-43500000D03*
D16*
X91700000Y-43500000D03*
D14*
G36*
X71235009Y-67058408D02*
G01*
X71283545Y-67065607D01*
X71331142Y-67077530D01*
X71377342Y-67094060D01*
X71421698Y-67115039D01*
X71463785Y-67140265D01*
X71503197Y-67169495D01*
X71539553Y-67202447D01*
X71572505Y-67238803D01*
X71601735Y-67278215D01*
X71626961Y-67320302D01*
X71647940Y-67364658D01*
X71664470Y-67410858D01*
X71676393Y-67458455D01*
X71683592Y-67506991D01*
X71686000Y-67556000D01*
X71686000Y-68556000D01*
X71683592Y-68605009D01*
X71676393Y-68653545D01*
X71664470Y-68701142D01*
X71647940Y-68747342D01*
X71626961Y-68791698D01*
X71601735Y-68833785D01*
X71572505Y-68873197D01*
X71539553Y-68909553D01*
X71503197Y-68942505D01*
X71463785Y-68971735D01*
X71421698Y-68996961D01*
X71377342Y-69017940D01*
X71331142Y-69034470D01*
X71283545Y-69046393D01*
X71235009Y-69053592D01*
X71186000Y-69056000D01*
X70186000Y-69056000D01*
X70136991Y-69053592D01*
X70088455Y-69046393D01*
X70040858Y-69034470D01*
X69994658Y-69017940D01*
X69950302Y-68996961D01*
X69908215Y-68971735D01*
X69868803Y-68942505D01*
X69832447Y-68909553D01*
X69799495Y-68873197D01*
X69770265Y-68833785D01*
X69745039Y-68791698D01*
X69724060Y-68747342D01*
X69707530Y-68701142D01*
X69695607Y-68653545D01*
X69688408Y-68605009D01*
X69686000Y-68556000D01*
X69686000Y-67556000D01*
X69688408Y-67506991D01*
X69695607Y-67458455D01*
X69707530Y-67410858D01*
X69724060Y-67364658D01*
X69745039Y-67320302D01*
X69770265Y-67278215D01*
X69799495Y-67238803D01*
X69832447Y-67202447D01*
X69868803Y-67169495D01*
X69908215Y-67140265D01*
X69950302Y-67115039D01*
X69994658Y-67094060D01*
X70040858Y-67077530D01*
X70088455Y-67065607D01*
X70136991Y-67058408D01*
X70186000Y-67056000D01*
X71186000Y-67056000D01*
X71235009Y-67058408D01*
X71235009Y-67058408D01*
G37*
D13*
X70686000Y-68056000D03*
D12*
X74486000Y-80716000D03*
X56686000Y-90856000D03*
X56686000Y-83256000D03*
D13*
X60486000Y-68056000D03*
D12*
X65586000Y-65516000D03*
D17*
X24384000Y-73366912D03*
D18*
X21844000Y-73366912D03*
D17*
X24384000Y-66684760D03*
D18*
X21844000Y-66684760D03*
X21844000Y-60002608D03*
D17*
X24384000Y-60002608D03*
D18*
X21844000Y-53320456D03*
D17*
X24384000Y-53320456D03*
X24384000Y-46638304D03*
D18*
X21844000Y-46638304D03*
X21844000Y-39956152D03*
D17*
X24384000Y-39956152D03*
D18*
X21844000Y-33274000D03*
D17*
X24384000Y-33274000D03*
D19*
X83820000Y-24130000D03*
D12*
X78740000Y-24130000D03*
D19*
X63246000Y-24384000D03*
D12*
X58166000Y-24384000D03*
X53086000Y-24384000D03*
X35814000Y-24384000D03*
X40894000Y-24384000D03*
D19*
X45974000Y-24384000D03*
D20*
X40386000Y-45212000D03*
D21*
X40386000Y-47752000D03*
X40386000Y-50292000D03*
X40386000Y-52832000D03*
D12*
X41656000Y-100330000D03*
D19*
X36576000Y-100330000D03*
X74930000Y-100330000D03*
D12*
X80010000Y-100330000D03*
X85090000Y-100330000D03*
D22*
X89662000Y-73406000D03*
D23*
X83662000Y-75406000D03*
X83662000Y-87606000D03*
X95662000Y-87606000D03*
X95662000Y-75406000D03*
D24*
X91186000Y-53848000D03*
D25*
X91186000Y-56388000D03*
X91186000Y-58928000D03*
D26*
X60960000Y-29972000D03*
D27*
X58420000Y-37592000D03*
X58420000Y-29972000D03*
X60960000Y-37592000D03*
X73660000Y-37592000D03*
X71120000Y-29972000D03*
X71120000Y-37592000D03*
D26*
X73660000Y-29972000D03*
D27*
X36576000Y-39370000D03*
X34036000Y-31750000D03*
X34036000Y-39370000D03*
D26*
X36576000Y-31750000D03*
X48768000Y-31750000D03*
D27*
X46228000Y-39370000D03*
X46228000Y-31750000D03*
X48768000Y-39370000D03*
D19*
X55494000Y-100330000D03*
D12*
X60574000Y-100330000D03*
D28*
X50038000Y-62992000D03*
X50038000Y-65532000D03*
D18*
X50038000Y-68072000D03*
X84328000Y-68072000D03*
D28*
X84328000Y-65532000D03*
X84328000Y-62992000D03*
D18*
X79502000Y-68072000D03*
D28*
X79502000Y-65532000D03*
X79502000Y-62992000D03*
D20*
X77675000Y-53000000D03*
D21*
X77675000Y-50460000D03*
X77675000Y-47920000D03*
X77675000Y-45380000D03*
X77675000Y-42840000D03*
X77675000Y-40300000D03*
D29*
X88392000Y-60452000D03*
X25950000Y-61200000D03*
X28194000Y-60452000D03*
X28956000Y-44958000D03*
X26670000Y-51816000D03*
X26162000Y-54864000D03*
X27940000Y-48006000D03*
X34798000Y-44958000D03*
X73550000Y-43750000D03*
X26250000Y-68025000D03*
X26225000Y-74700000D03*
X65450000Y-48925000D03*
X58150000Y-56575000D03*
X56619000Y-48006000D03*
X97200000Y-29400000D03*
X94625000Y-39975000D03*
X73600000Y-47250000D03*
X45768999Y-47406001D03*
X53300000Y-68350000D03*
X90800000Y-63450000D03*
X98400000Y-66500000D03*
X82025000Y-64475000D03*
X73950000Y-60375000D03*
X95200000Y-50450000D03*
X97050000Y-46700000D03*
X84900000Y-46250000D03*
X80075000Y-49275000D03*
X56134000Y-38354000D03*
X31750000Y-39878000D03*
X43942000Y-39878000D03*
X68834000Y-38100000D03*
X76728000Y-30460000D03*
X97282000Y-62484000D03*
X63050000Y-56375000D03*
X80264000Y-28956000D03*
X84074000Y-39116000D03*
X26670000Y-59436000D03*
X61468000Y-55118000D03*
X65875000Y-53850000D03*
X63754000Y-53848000D03*
X26924000Y-56930010D03*
X72500000Y-51825000D03*
X28194000Y-54864000D03*
X57873573Y-52619374D03*
X29210000Y-53340000D03*
X59186384Y-51996010D03*
X57150000Y-50292000D03*
X59537515Y-49447972D03*
X49530000Y-35560000D03*
X57658000Y-32512000D03*
X61976000Y-34290000D03*
X70358000Y-32512000D03*
X26416000Y-35306000D03*
X33782000Y-33782000D03*
X37084000Y-36576000D03*
X45212000Y-33782000D03*
X55118000Y-48763988D03*
X55626000Y-61976000D03*
X52743007Y-57325010D03*
X88392000Y-58674000D03*
X60318154Y-57438010D03*
X81280000Y-58928000D03*
X54917853Y-57325010D03*
X59182000Y-41910000D03*
X61976000Y-43180000D03*
X55626000Y-43942000D03*
X32766000Y-44196000D03*
X50788439Y-46355991D03*
X46990000Y-43942000D03*
X52810721Y-46355991D03*
X59700000Y-47950000D03*
X63550000Y-48750000D03*
X63525000Y-51200000D03*
X51087622Y-48883156D03*
D30*
X79502000Y-68072000D02*
X84328000Y-68072000D01*
X88392000Y-65908000D02*
X88392000Y-60452000D01*
X84328000Y-68072000D02*
X86228000Y-68072000D01*
X86228000Y-68072000D02*
X88392000Y-65908000D01*
D31*
X27340001Y-48605999D02*
X25816001Y-48605999D01*
X27940000Y-48006000D02*
X27340001Y-48605999D01*
X25816001Y-48605999D02*
X24384000Y-50038000D01*
X40386000Y-45212000D02*
X35052000Y-45212000D01*
X35052000Y-45212000D02*
X34798000Y-44958000D01*
X41636000Y-45212000D02*
X40386000Y-45212000D01*
X56019001Y-47406001D02*
X45768999Y-47406001D01*
X56619000Y-48006000D02*
X56019001Y-47406001D01*
X43830001Y-47406001D02*
X41636000Y-45212000D01*
X45768999Y-47406001D02*
X43830001Y-47406001D01*
D32*
X42999999Y-40820001D02*
X43942000Y-39878000D01*
X31750000Y-39878000D02*
X32692001Y-40820001D01*
X32692001Y-40820001D02*
X42999999Y-40820001D01*
X55534001Y-38953999D02*
X56134000Y-38354000D01*
X53667999Y-40820001D02*
X55534001Y-38953999D01*
X43942000Y-39878000D02*
X44884001Y-40820001D01*
X44884001Y-40820001D02*
X53667999Y-40820001D01*
X56134000Y-38354000D02*
X57912000Y-40132000D01*
X57912000Y-40132000D02*
X66802000Y-40132000D01*
X66802000Y-40132000D02*
X68834000Y-38100000D01*
X75942002Y-30460000D02*
X76728000Y-30460000D01*
X69433999Y-36968003D02*
X75942002Y-30460000D01*
X68834000Y-38100000D02*
X69433999Y-37500001D01*
X69433999Y-37500001D02*
X69433999Y-36968003D01*
D30*
X91186000Y-58928000D02*
X93726000Y-58928000D01*
X93726000Y-58928000D02*
X97282000Y-62484000D01*
X90728000Y-58928000D02*
X91186000Y-58928000D01*
X82350000Y-50550000D02*
X90728000Y-58928000D01*
X82350000Y-48550000D02*
X82350000Y-50550000D01*
D31*
X82350000Y-50835002D02*
X82350000Y-50550000D01*
X77410001Y-55775001D02*
X82350000Y-50835002D01*
X63649999Y-55775001D02*
X77410001Y-55775001D01*
X63050000Y-56375000D02*
X63649999Y-55775001D01*
D33*
X80264000Y-28956000D02*
X80264000Y-35306000D01*
X80264000Y-35306000D02*
X84074000Y-39116000D01*
D31*
X65875000Y-53850000D02*
X72550000Y-53850000D01*
X72550000Y-53850000D02*
X74875000Y-51525000D01*
X74875000Y-51525000D02*
X74875000Y-49125000D01*
X76080000Y-47920000D02*
X77675000Y-47920000D01*
X74875000Y-49125000D02*
X76080000Y-47920000D01*
X27940000Y-58166000D02*
X46736000Y-58166000D01*
X26670000Y-59436000D02*
X27940000Y-58166000D01*
X60868001Y-54518001D02*
X61468000Y-55118000D01*
X46736000Y-58166000D02*
X50383999Y-54518001D01*
X50383999Y-54518001D02*
X60868001Y-54518001D01*
X27772528Y-56930010D02*
X26924000Y-56930010D01*
X63754000Y-53848000D02*
X48006000Y-53848000D01*
X48006000Y-53848000D02*
X44923990Y-56930010D01*
X44923990Y-56930010D02*
X27772528Y-56930010D01*
X63754000Y-52999472D02*
X65678472Y-51075000D01*
X63754000Y-53848000D02*
X63754000Y-52999472D01*
X65678472Y-51075000D02*
X71750000Y-51075000D01*
X71750000Y-51075000D02*
X72500000Y-51825000D01*
X28194000Y-54864000D02*
X28793999Y-55463999D01*
X28793999Y-55463999D02*
X44612001Y-55463999D01*
X57025045Y-52619374D02*
X57873573Y-52619374D01*
X44612001Y-55463999D02*
X47456626Y-52619374D01*
X47456626Y-52619374D02*
X57025045Y-52619374D01*
X45403264Y-51527990D02*
X58718364Y-51527990D01*
X30652011Y-54782011D02*
X42149243Y-54782011D01*
X42149243Y-54782011D02*
X45403264Y-51527990D01*
X29210000Y-53340000D02*
X30652011Y-54782011D01*
X58718364Y-51527990D02*
X59186384Y-51996010D01*
X41879999Y-54132001D02*
X45720000Y-50292000D01*
X45720000Y-50292000D02*
X56301472Y-50292000D01*
X39832641Y-54132001D02*
X41879999Y-54132001D01*
X25656792Y-39956152D02*
X39832641Y-54132001D01*
X56301472Y-50292000D02*
X57150000Y-50292000D01*
X24384000Y-39956152D02*
X25656792Y-39956152D01*
X29972000Y-42418000D02*
X52585002Y-42418000D01*
X58937516Y-48847973D02*
X59537515Y-49447972D01*
X52585002Y-42418000D02*
X58937516Y-48770514D01*
X24384000Y-36830000D02*
X29972000Y-42418000D01*
X24384000Y-33274000D02*
X24384000Y-36830000D01*
X58937516Y-48770514D02*
X58937516Y-48847973D01*
D34*
X35814000Y-71816000D02*
X39276000Y-75278000D01*
X35814000Y-65516000D02*
X35814000Y-69850000D01*
X35814000Y-69850000D02*
X35814000Y-71816000D01*
X39276000Y-75278000D02*
X44714000Y-80716000D01*
X44704000Y-93218000D02*
X44704000Y-97282000D01*
X44704000Y-86106000D02*
X44704000Y-93218000D01*
X44704000Y-97282000D02*
X41656000Y-100330000D01*
X44714000Y-80716000D02*
X44714000Y-82837320D01*
X44714000Y-82837320D02*
X44704000Y-82847320D01*
X44704000Y-82847320D02*
X44704000Y-86106000D01*
X26914000Y-83256000D02*
X29487000Y-85829000D01*
X36576000Y-92918000D02*
X36576000Y-95504000D01*
X29487000Y-85829000D02*
X34694000Y-91036000D01*
X34694000Y-91036000D02*
X36576000Y-92918000D01*
X36576000Y-95504000D02*
X36576000Y-100330000D01*
X74930000Y-96338000D02*
X76617000Y-94651000D01*
X74930000Y-100330000D02*
X74930000Y-96338000D01*
X81189000Y-90079000D02*
X83662000Y-87606000D01*
X76617000Y-94651000D02*
X81189000Y-90079000D01*
X80010000Y-98044000D02*
X80010000Y-100330000D01*
X89662000Y-73406000D02*
X89662000Y-77724000D01*
X89662000Y-88392000D02*
X82931000Y-95123000D01*
X89662000Y-77724000D02*
X89662000Y-84582000D01*
X89662000Y-84582000D02*
X89662000Y-88392000D01*
X82931000Y-95123000D02*
X80010000Y-98044000D01*
X86589999Y-98830001D02*
X86843999Y-98830001D01*
X85090000Y-100330000D02*
X86589999Y-98830001D01*
X95662000Y-90012000D02*
X95662000Y-87606000D01*
X86843999Y-98830001D02*
X95250000Y-90424000D01*
X95250000Y-90424000D02*
X95662000Y-90012000D01*
X60574000Y-98208680D02*
X60706000Y-98076680D01*
X60574000Y-100330000D02*
X60574000Y-98208680D01*
X60706000Y-94496000D02*
X63885000Y-91317000D01*
X60706000Y-98076680D02*
X60706000Y-97028000D01*
X65586000Y-71816000D02*
X69656000Y-75886000D01*
X65586000Y-65516000D02*
X65586000Y-69288000D01*
X65586000Y-69288000D02*
X65586000Y-71816000D01*
X69656000Y-75886000D02*
X74486000Y-80716000D01*
X69727000Y-85475000D02*
X74486000Y-80716000D01*
X63885000Y-91317000D02*
X69727000Y-85475000D01*
X60706000Y-97028000D02*
X60706000Y-94496000D01*
X56686000Y-83256000D02*
X54604000Y-85338000D01*
X51054000Y-95890000D02*
X51054000Y-95890000D01*
X51054000Y-88888000D02*
X51054000Y-90170000D01*
X54604000Y-85338000D02*
X51054000Y-88888000D01*
X51054000Y-90170000D02*
X51054000Y-95890000D01*
X51054000Y-95890000D02*
X55494000Y-100330000D01*
D32*
X49530000Y-35560000D02*
X52578000Y-32512000D01*
X52578000Y-32512000D02*
X57658000Y-32512000D01*
X61976000Y-34290000D02*
X68580000Y-34290000D01*
X68580000Y-34290000D02*
X70358000Y-32512000D01*
X26416000Y-35306000D02*
X32258000Y-35306000D01*
X32258000Y-35306000D02*
X33782000Y-33782000D01*
X37084000Y-36576000D02*
X39878000Y-33782000D01*
X39878000Y-33782000D02*
X45212000Y-33782000D01*
D31*
X55626000Y-61976000D02*
X55626000Y-60208003D01*
X55626000Y-60208003D02*
X53343006Y-57925009D01*
X53343006Y-57925009D02*
X52743007Y-57325010D01*
X88392000Y-58674000D02*
X87156010Y-57438010D01*
X87156010Y-57438010D02*
X61166682Y-57438010D01*
X61166682Y-57438010D02*
X60318154Y-57438010D01*
X55517852Y-57925009D02*
X54917853Y-57325010D01*
X56520843Y-58928000D02*
X55517852Y-57925009D01*
X81280000Y-58928000D02*
X56520843Y-58928000D01*
X60706000Y-41910000D02*
X61976000Y-43180000D01*
X59182000Y-41910000D02*
X60706000Y-41910000D01*
X73660000Y-37592000D02*
X66710001Y-44541999D01*
X56225999Y-44541999D02*
X55626000Y-43942000D01*
X66710001Y-44541999D02*
X56225999Y-44541999D01*
X32766000Y-44196000D02*
X33365999Y-43596001D01*
X33365999Y-43596001D02*
X43342001Y-43596001D01*
X46101991Y-46355991D02*
X49939911Y-46355991D01*
X49939911Y-46355991D02*
X50788439Y-46355991D01*
X43342001Y-43596001D02*
X46101991Y-46355991D01*
X50396730Y-43942000D02*
X52210722Y-45755992D01*
X46990000Y-43942000D02*
X50396730Y-43942000D01*
X52210722Y-45755992D02*
X52810721Y-46355991D01*
X72146767Y-50038000D02*
X73165000Y-50038000D01*
X62636528Y-50038000D02*
X72146767Y-50038000D01*
X60548528Y-47950000D02*
X62636528Y-50038000D01*
X59700000Y-47950000D02*
X60548528Y-47950000D01*
X77675000Y-45380000D02*
X67220000Y-45380000D01*
X67220000Y-45380000D02*
X64100000Y-48500000D01*
X64100000Y-48500000D02*
X63800000Y-48500000D01*
X63800000Y-48500000D02*
X63550000Y-48750000D01*
X59400000Y-50925000D02*
X57531001Y-49056001D01*
X63650000Y-51200000D02*
X63375000Y-50925000D01*
X57531001Y-49056001D02*
X55410013Y-49056001D01*
X55410013Y-49056001D02*
X55118000Y-48763988D01*
X63375000Y-50925000D02*
X59400000Y-50925000D01*
X55118000Y-48763988D02*
X51206790Y-48763988D01*
X51206790Y-48763988D02*
X51087622Y-48883156D01*
D35*
G36*
X60280460Y-55478236D02*
G01*
X60373557Y-55702992D01*
X60508713Y-55905267D01*
X60680733Y-56077287D01*
X60883008Y-56212443D01*
X61107764Y-56305540D01*
X61346363Y-56353000D01*
X61589637Y-56353000D01*
X61815000Y-56308173D01*
X61815000Y-56496637D01*
X61836159Y-56603010D01*
X61229708Y-56603010D01*
X61105421Y-56478723D01*
X60903146Y-56343567D01*
X60678390Y-56250470D01*
X60439791Y-56203010D01*
X60196517Y-56203010D01*
X59957918Y-56250470D01*
X59733162Y-56343567D01*
X59530887Y-56478723D01*
X59358867Y-56650743D01*
X59223711Y-56853018D01*
X59130614Y-57077774D01*
X59083154Y-57316373D01*
X59083154Y-57559647D01*
X59130614Y-57798246D01*
X59223711Y-58023002D01*
X59270482Y-58093000D01*
X56866711Y-58093000D01*
X56152853Y-57379143D01*
X56152853Y-57203373D01*
X56105393Y-56964774D01*
X56012296Y-56740018D01*
X55877140Y-56537743D01*
X55705120Y-56365723D01*
X55502845Y-56230567D01*
X55278089Y-56137470D01*
X55039490Y-56090010D01*
X54796216Y-56090010D01*
X54557617Y-56137470D01*
X54332861Y-56230567D01*
X54130586Y-56365723D01*
X53958566Y-56537743D01*
X53830430Y-56729512D01*
X53702294Y-56537743D01*
X53530274Y-56365723D01*
X53327999Y-56230567D01*
X53103243Y-56137470D01*
X52864644Y-56090010D01*
X52621370Y-56090010D01*
X52382771Y-56137470D01*
X52158015Y-56230567D01*
X51955740Y-56365723D01*
X51783720Y-56537743D01*
X51648564Y-56740018D01*
X51555467Y-56964774D01*
X51508007Y-57203373D01*
X51508007Y-57446647D01*
X51555467Y-57685246D01*
X51648564Y-57910002D01*
X51783720Y-58112277D01*
X51955740Y-58284297D01*
X52158015Y-58419453D01*
X52382771Y-58512550D01*
X52621370Y-58560010D01*
X52797140Y-58560010D01*
X54791001Y-60553872D01*
X54791001Y-61064445D01*
X54666713Y-61188733D01*
X54531557Y-61391008D01*
X54438460Y-61615764D01*
X54391000Y-61854363D01*
X54391000Y-62097637D01*
X54438460Y-62336236D01*
X54531557Y-62560992D01*
X54666713Y-62763267D01*
X54838733Y-62935287D01*
X55041008Y-63070443D01*
X55265764Y-63163540D01*
X55504363Y-63211000D01*
X55747637Y-63211000D01*
X55986236Y-63163540D01*
X56036119Y-63142878D01*
X55998688Y-69974034D01*
X47126298Y-70046957D01*
X47120392Y-68972000D01*
X48499928Y-68972000D01*
X48512188Y-69096482D01*
X48548498Y-69216180D01*
X48607463Y-69326494D01*
X48686815Y-69423185D01*
X48783506Y-69502537D01*
X48893820Y-69561502D01*
X49013518Y-69597812D01*
X49138000Y-69610072D01*
X49752250Y-69607000D01*
X49911000Y-69448250D01*
X49911000Y-68199000D01*
X50165000Y-68199000D01*
X50165000Y-69448250D01*
X50323750Y-69607000D01*
X50938000Y-69610072D01*
X51062482Y-69597812D01*
X51182180Y-69561502D01*
X51292494Y-69502537D01*
X51389185Y-69423185D01*
X51468537Y-69326494D01*
X51527502Y-69216180D01*
X51563812Y-69096482D01*
X51576072Y-68972000D01*
X51573000Y-68357750D01*
X51414250Y-68199000D01*
X50165000Y-68199000D01*
X49911000Y-68199000D01*
X48661750Y-68199000D01*
X48503000Y-68357750D01*
X48499928Y-68972000D01*
X47120392Y-68972000D01*
X47087535Y-62992000D01*
X48495573Y-62992000D01*
X48525210Y-63292913D01*
X48612983Y-63582261D01*
X48755519Y-63848927D01*
X48947339Y-64082661D01*
X49165865Y-64262000D01*
X48947339Y-64441339D01*
X48755519Y-64675073D01*
X48612983Y-64941739D01*
X48525210Y-65231087D01*
X48495573Y-65532000D01*
X48525210Y-65832913D01*
X48612983Y-66122261D01*
X48755519Y-66388927D01*
X48910280Y-66577505D01*
X48893820Y-66582498D01*
X48783506Y-66641463D01*
X48686815Y-66720815D01*
X48607463Y-66817506D01*
X48548498Y-66927820D01*
X48512188Y-67047518D01*
X48499928Y-67172000D01*
X48503000Y-67786250D01*
X48661750Y-67945000D01*
X49911000Y-67945000D01*
X49911000Y-67925000D01*
X50165000Y-67925000D01*
X50165000Y-67945000D01*
X51414250Y-67945000D01*
X51573000Y-67786250D01*
X51576072Y-67172000D01*
X51563812Y-67047518D01*
X51527502Y-66927820D01*
X51468537Y-66817506D01*
X51389185Y-66720815D01*
X51292494Y-66641463D01*
X51182180Y-66582498D01*
X51165720Y-66577505D01*
X51320481Y-66388927D01*
X51463017Y-66122261D01*
X51550790Y-65832913D01*
X51580427Y-65532000D01*
X51550790Y-65231087D01*
X51463017Y-64941739D01*
X51320481Y-64675073D01*
X51128661Y-64441339D01*
X50910135Y-64262000D01*
X51128661Y-64082661D01*
X51320481Y-63848927D01*
X51463017Y-63582261D01*
X51550790Y-63292913D01*
X51580427Y-62992000D01*
X51550790Y-62691087D01*
X51463017Y-62401739D01*
X51320481Y-62135073D01*
X51128661Y-61901339D01*
X50894927Y-61709519D01*
X50628261Y-61566983D01*
X50338913Y-61479210D01*
X50113408Y-61457000D01*
X49962592Y-61457000D01*
X49737087Y-61479210D01*
X49447739Y-61566983D01*
X49181073Y-61709519D01*
X48947339Y-61901339D01*
X48755519Y-62135073D01*
X48612983Y-62401739D01*
X48525210Y-62691087D01*
X48495573Y-62992000D01*
X47087535Y-62992000D01*
X47076998Y-61074302D01*
X47074422Y-61049540D01*
X47067064Y-61025755D01*
X47055207Y-61003863D01*
X47039308Y-60984705D01*
X47019976Y-60969017D01*
X46997955Y-60957402D01*
X46974092Y-60950306D01*
X46949526Y-60948001D01*
X26874526Y-61023001D01*
X26849758Y-61025534D01*
X26825961Y-61032850D01*
X26804049Y-61044668D01*
X26784863Y-61060534D01*
X26769140Y-61079838D01*
X26757487Y-61101838D01*
X26750349Y-61125689D01*
X26748005Y-61148849D01*
X26599146Y-77573000D01*
X20660000Y-77573000D01*
X20660000Y-74835129D01*
X20699820Y-74856414D01*
X20819518Y-74892724D01*
X20944000Y-74904984D01*
X22744000Y-74904984D01*
X22868482Y-74892724D01*
X22988180Y-74856414D01*
X23098494Y-74797449D01*
X23195185Y-74718097D01*
X23274537Y-74621406D01*
X23333502Y-74511092D01*
X23339056Y-74492785D01*
X23405495Y-74559224D01*
X23656905Y-74727211D01*
X23936257Y-74842923D01*
X24232816Y-74901912D01*
X24535184Y-74901912D01*
X24831743Y-74842923D01*
X25111095Y-74727211D01*
X25362505Y-74559224D01*
X25576312Y-74345417D01*
X25744299Y-74094007D01*
X25860011Y-73814655D01*
X25919000Y-73518096D01*
X25919000Y-73215728D01*
X25860011Y-72919169D01*
X25744299Y-72639817D01*
X25576312Y-72388407D01*
X25362505Y-72174600D01*
X25111095Y-72006613D01*
X24831743Y-71890901D01*
X24535184Y-71831912D01*
X24232816Y-71831912D01*
X23936257Y-71890901D01*
X23656905Y-72006613D01*
X23405495Y-72174600D01*
X23339056Y-72241039D01*
X23333502Y-72222732D01*
X23274537Y-72112418D01*
X23195185Y-72015727D01*
X23098494Y-71936375D01*
X22988180Y-71877410D01*
X22868482Y-71841100D01*
X22744000Y-71828840D01*
X20944000Y-71828840D01*
X20819518Y-71841100D01*
X20699820Y-71877410D01*
X20660000Y-71898695D01*
X20660000Y-68152977D01*
X20699820Y-68174262D01*
X20819518Y-68210572D01*
X20944000Y-68222832D01*
X22744000Y-68222832D01*
X22868482Y-68210572D01*
X22988180Y-68174262D01*
X23098494Y-68115297D01*
X23195185Y-68035945D01*
X23274537Y-67939254D01*
X23333502Y-67828940D01*
X23339056Y-67810633D01*
X23405495Y-67877072D01*
X23656905Y-68045059D01*
X23936257Y-68160771D01*
X24232816Y-68219760D01*
X24535184Y-68219760D01*
X24831743Y-68160771D01*
X25111095Y-68045059D01*
X25362505Y-67877072D01*
X25576312Y-67663265D01*
X25744299Y-67411855D01*
X25860011Y-67132503D01*
X25919000Y-66835944D01*
X25919000Y-66533576D01*
X25860011Y-66237017D01*
X25744299Y-65957665D01*
X25576312Y-65706255D01*
X25362505Y-65492448D01*
X25111095Y-65324461D01*
X24831743Y-65208749D01*
X24535184Y-65149760D01*
X24232816Y-65149760D01*
X23936257Y-65208749D01*
X23656905Y-65324461D01*
X23405495Y-65492448D01*
X23339056Y-65558887D01*
X23333502Y-65540580D01*
X23274537Y-65430266D01*
X23195185Y-65333575D01*
X23098494Y-65254223D01*
X22988180Y-65195258D01*
X22868482Y-65158948D01*
X22744000Y-65146688D01*
X20944000Y-65146688D01*
X20819518Y-65158948D01*
X20699820Y-65195258D01*
X20660000Y-65216543D01*
X20660000Y-61470825D01*
X20699820Y-61492110D01*
X20819518Y-61528420D01*
X20944000Y-61540680D01*
X22744000Y-61540680D01*
X22868482Y-61528420D01*
X22988180Y-61492110D01*
X23098494Y-61433145D01*
X23195185Y-61353793D01*
X23274537Y-61257102D01*
X23333502Y-61146788D01*
X23339056Y-61128481D01*
X23405495Y-61194920D01*
X23656905Y-61362907D01*
X23936257Y-61478619D01*
X24232816Y-61537608D01*
X24535184Y-61537608D01*
X24831743Y-61478619D01*
X25111095Y-61362907D01*
X25362505Y-61194920D01*
X25576312Y-60981113D01*
X25744299Y-60729703D01*
X25860011Y-60450351D01*
X25872916Y-60385470D01*
X25882733Y-60395287D01*
X26085008Y-60530443D01*
X26309764Y-60623540D01*
X26548363Y-60671000D01*
X26791637Y-60671000D01*
X27030236Y-60623540D01*
X27254992Y-60530443D01*
X27457267Y-60395287D01*
X27629287Y-60223267D01*
X27764443Y-60020992D01*
X27857540Y-59796236D01*
X27905000Y-59557637D01*
X27905000Y-59381868D01*
X28285868Y-59001000D01*
X46694982Y-59001000D01*
X46736000Y-59005040D01*
X46777018Y-59001000D01*
X46777019Y-59001000D01*
X46899689Y-58988918D01*
X47057087Y-58941172D01*
X47202146Y-58863636D01*
X47329291Y-58759291D01*
X47355446Y-58727421D01*
X50729868Y-55353001D01*
X60255549Y-55353001D01*
X60280460Y-55478236D01*
X60280460Y-55478236D01*
G37*
X60280460Y-55478236D02*
X60373557Y-55702992D01*
X60508713Y-55905267D01*
X60680733Y-56077287D01*
X60883008Y-56212443D01*
X61107764Y-56305540D01*
X61346363Y-56353000D01*
X61589637Y-56353000D01*
X61815000Y-56308173D01*
X61815000Y-56496637D01*
X61836159Y-56603010D01*
X61229708Y-56603010D01*
X61105421Y-56478723D01*
X60903146Y-56343567D01*
X60678390Y-56250470D01*
X60439791Y-56203010D01*
X60196517Y-56203010D01*
X59957918Y-56250470D01*
X59733162Y-56343567D01*
X59530887Y-56478723D01*
X59358867Y-56650743D01*
X59223711Y-56853018D01*
X59130614Y-57077774D01*
X59083154Y-57316373D01*
X59083154Y-57559647D01*
X59130614Y-57798246D01*
X59223711Y-58023002D01*
X59270482Y-58093000D01*
X56866711Y-58093000D01*
X56152853Y-57379143D01*
X56152853Y-57203373D01*
X56105393Y-56964774D01*
X56012296Y-56740018D01*
X55877140Y-56537743D01*
X55705120Y-56365723D01*
X55502845Y-56230567D01*
X55278089Y-56137470D01*
X55039490Y-56090010D01*
X54796216Y-56090010D01*
X54557617Y-56137470D01*
X54332861Y-56230567D01*
X54130586Y-56365723D01*
X53958566Y-56537743D01*
X53830430Y-56729512D01*
X53702294Y-56537743D01*
X53530274Y-56365723D01*
X53327999Y-56230567D01*
X53103243Y-56137470D01*
X52864644Y-56090010D01*
X52621370Y-56090010D01*
X52382771Y-56137470D01*
X52158015Y-56230567D01*
X51955740Y-56365723D01*
X51783720Y-56537743D01*
X51648564Y-56740018D01*
X51555467Y-56964774D01*
X51508007Y-57203373D01*
X51508007Y-57446647D01*
X51555467Y-57685246D01*
X51648564Y-57910002D01*
X51783720Y-58112277D01*
X51955740Y-58284297D01*
X52158015Y-58419453D01*
X52382771Y-58512550D01*
X52621370Y-58560010D01*
X52797140Y-58560010D01*
X54791001Y-60553872D01*
X54791001Y-61064445D01*
X54666713Y-61188733D01*
X54531557Y-61391008D01*
X54438460Y-61615764D01*
X54391000Y-61854363D01*
X54391000Y-62097637D01*
X54438460Y-62336236D01*
X54531557Y-62560992D01*
X54666713Y-62763267D01*
X54838733Y-62935287D01*
X55041008Y-63070443D01*
X55265764Y-63163540D01*
X55504363Y-63211000D01*
X55747637Y-63211000D01*
X55986236Y-63163540D01*
X56036119Y-63142878D01*
X55998688Y-69974034D01*
X47126298Y-70046957D01*
X47120392Y-68972000D01*
X48499928Y-68972000D01*
X48512188Y-69096482D01*
X48548498Y-69216180D01*
X48607463Y-69326494D01*
X48686815Y-69423185D01*
X48783506Y-69502537D01*
X48893820Y-69561502D01*
X49013518Y-69597812D01*
X49138000Y-69610072D01*
X49752250Y-69607000D01*
X49911000Y-69448250D01*
X49911000Y-68199000D01*
X50165000Y-68199000D01*
X50165000Y-69448250D01*
X50323750Y-69607000D01*
X50938000Y-69610072D01*
X51062482Y-69597812D01*
X51182180Y-69561502D01*
X51292494Y-69502537D01*
X51389185Y-69423185D01*
X51468537Y-69326494D01*
X51527502Y-69216180D01*
X51563812Y-69096482D01*
X51576072Y-68972000D01*
X51573000Y-68357750D01*
X51414250Y-68199000D01*
X50165000Y-68199000D01*
X49911000Y-68199000D01*
X48661750Y-68199000D01*
X48503000Y-68357750D01*
X48499928Y-68972000D01*
X47120392Y-68972000D01*
X47087535Y-62992000D01*
X48495573Y-62992000D01*
X48525210Y-63292913D01*
X48612983Y-63582261D01*
X48755519Y-63848927D01*
X48947339Y-64082661D01*
X49165865Y-64262000D01*
X48947339Y-64441339D01*
X48755519Y-64675073D01*
X48612983Y-64941739D01*
X48525210Y-65231087D01*
X48495573Y-65532000D01*
X48525210Y-65832913D01*
X48612983Y-66122261D01*
X48755519Y-66388927D01*
X48910280Y-66577505D01*
X48893820Y-66582498D01*
X48783506Y-66641463D01*
X48686815Y-66720815D01*
X48607463Y-66817506D01*
X48548498Y-66927820D01*
X48512188Y-67047518D01*
X48499928Y-67172000D01*
X48503000Y-67786250D01*
X48661750Y-67945000D01*
X49911000Y-67945000D01*
X49911000Y-67925000D01*
X50165000Y-67925000D01*
X50165000Y-67945000D01*
X51414250Y-67945000D01*
X51573000Y-67786250D01*
X51576072Y-67172000D01*
X51563812Y-67047518D01*
X51527502Y-66927820D01*
X51468537Y-66817506D01*
X51389185Y-66720815D01*
X51292494Y-66641463D01*
X51182180Y-66582498D01*
X51165720Y-66577505D01*
X51320481Y-66388927D01*
X51463017Y-66122261D01*
X51550790Y-65832913D01*
X51580427Y-65532000D01*
X51550790Y-65231087D01*
X51463017Y-64941739D01*
X51320481Y-64675073D01*
X51128661Y-64441339D01*
X50910135Y-64262000D01*
X51128661Y-64082661D01*
X51320481Y-63848927D01*
X51463017Y-63582261D01*
X51550790Y-63292913D01*
X51580427Y-62992000D01*
X51550790Y-62691087D01*
X51463017Y-62401739D01*
X51320481Y-62135073D01*
X51128661Y-61901339D01*
X50894927Y-61709519D01*
X50628261Y-61566983D01*
X50338913Y-61479210D01*
X50113408Y-61457000D01*
X49962592Y-61457000D01*
X49737087Y-61479210D01*
X49447739Y-61566983D01*
X49181073Y-61709519D01*
X48947339Y-61901339D01*
X48755519Y-62135073D01*
X48612983Y-62401739D01*
X48525210Y-62691087D01*
X48495573Y-62992000D01*
X47087535Y-62992000D01*
X47076998Y-61074302D01*
X47074422Y-61049540D01*
X47067064Y-61025755D01*
X47055207Y-61003863D01*
X47039308Y-60984705D01*
X47019976Y-60969017D01*
X46997955Y-60957402D01*
X46974092Y-60950306D01*
X46949526Y-60948001D01*
X26874526Y-61023001D01*
X26849758Y-61025534D01*
X26825961Y-61032850D01*
X26804049Y-61044668D01*
X26784863Y-61060534D01*
X26769140Y-61079838D01*
X26757487Y-61101838D01*
X26750349Y-61125689D01*
X26748005Y-61148849D01*
X26599146Y-77573000D01*
X20660000Y-77573000D01*
X20660000Y-74835129D01*
X20699820Y-74856414D01*
X20819518Y-74892724D01*
X20944000Y-74904984D01*
X22744000Y-74904984D01*
X22868482Y-74892724D01*
X22988180Y-74856414D01*
X23098494Y-74797449D01*
X23195185Y-74718097D01*
X23274537Y-74621406D01*
X23333502Y-74511092D01*
X23339056Y-74492785D01*
X23405495Y-74559224D01*
X23656905Y-74727211D01*
X23936257Y-74842923D01*
X24232816Y-74901912D01*
X24535184Y-74901912D01*
X24831743Y-74842923D01*
X25111095Y-74727211D01*
X25362505Y-74559224D01*
X25576312Y-74345417D01*
X25744299Y-74094007D01*
X25860011Y-73814655D01*
X25919000Y-73518096D01*
X25919000Y-73215728D01*
X25860011Y-72919169D01*
X25744299Y-72639817D01*
X25576312Y-72388407D01*
X25362505Y-72174600D01*
X25111095Y-72006613D01*
X24831743Y-71890901D01*
X24535184Y-71831912D01*
X24232816Y-71831912D01*
X23936257Y-71890901D01*
X23656905Y-72006613D01*
X23405495Y-72174600D01*
X23339056Y-72241039D01*
X23333502Y-72222732D01*
X23274537Y-72112418D01*
X23195185Y-72015727D01*
X23098494Y-71936375D01*
X22988180Y-71877410D01*
X22868482Y-71841100D01*
X22744000Y-71828840D01*
X20944000Y-71828840D01*
X20819518Y-71841100D01*
X20699820Y-71877410D01*
X20660000Y-71898695D01*
X20660000Y-68152977D01*
X20699820Y-68174262D01*
X20819518Y-68210572D01*
X20944000Y-68222832D01*
X22744000Y-68222832D01*
X22868482Y-68210572D01*
X22988180Y-68174262D01*
X23098494Y-68115297D01*
X23195185Y-68035945D01*
X23274537Y-67939254D01*
X23333502Y-67828940D01*
X23339056Y-67810633D01*
X23405495Y-67877072D01*
X23656905Y-68045059D01*
X23936257Y-68160771D01*
X24232816Y-68219760D01*
X24535184Y-68219760D01*
X24831743Y-68160771D01*
X25111095Y-68045059D01*
X25362505Y-67877072D01*
X25576312Y-67663265D01*
X25744299Y-67411855D01*
X25860011Y-67132503D01*
X25919000Y-66835944D01*
X25919000Y-66533576D01*
X25860011Y-66237017D01*
X25744299Y-65957665D01*
X25576312Y-65706255D01*
X25362505Y-65492448D01*
X25111095Y-65324461D01*
X24831743Y-65208749D01*
X24535184Y-65149760D01*
X24232816Y-65149760D01*
X23936257Y-65208749D01*
X23656905Y-65324461D01*
X23405495Y-65492448D01*
X23339056Y-65558887D01*
X23333502Y-65540580D01*
X23274537Y-65430266D01*
X23195185Y-65333575D01*
X23098494Y-65254223D01*
X22988180Y-65195258D01*
X22868482Y-65158948D01*
X22744000Y-65146688D01*
X20944000Y-65146688D01*
X20819518Y-65158948D01*
X20699820Y-65195258D01*
X20660000Y-65216543D01*
X20660000Y-61470825D01*
X20699820Y-61492110D01*
X20819518Y-61528420D01*
X20944000Y-61540680D01*
X22744000Y-61540680D01*
X22868482Y-61528420D01*
X22988180Y-61492110D01*
X23098494Y-61433145D01*
X23195185Y-61353793D01*
X23274537Y-61257102D01*
X23333502Y-61146788D01*
X23339056Y-61128481D01*
X23405495Y-61194920D01*
X23656905Y-61362907D01*
X23936257Y-61478619D01*
X24232816Y-61537608D01*
X24535184Y-61537608D01*
X24831743Y-61478619D01*
X25111095Y-61362907D01*
X25362505Y-61194920D01*
X25576312Y-60981113D01*
X25744299Y-60729703D01*
X25860011Y-60450351D01*
X25872916Y-60385470D01*
X25882733Y-60395287D01*
X26085008Y-60530443D01*
X26309764Y-60623540D01*
X26548363Y-60671000D01*
X26791637Y-60671000D01*
X27030236Y-60623540D01*
X27254992Y-60530443D01*
X27457267Y-60395287D01*
X27629287Y-60223267D01*
X27764443Y-60020992D01*
X27857540Y-59796236D01*
X27905000Y-59557637D01*
X27905000Y-59381868D01*
X28285868Y-59001000D01*
X46694982Y-59001000D01*
X46736000Y-59005040D01*
X46777018Y-59001000D01*
X46777019Y-59001000D01*
X46899689Y-58988918D01*
X47057087Y-58941172D01*
X47202146Y-58863636D01*
X47329291Y-58759291D01*
X47355446Y-58727421D01*
X50729868Y-55353001D01*
X60255549Y-55353001D01*
X60280460Y-55478236D01*
G36*
X99340001Y-69923000D02*
G01*
X76951647Y-69923000D01*
X76948999Y-68972000D01*
X77963928Y-68972000D01*
X77976188Y-69096482D01*
X78012498Y-69216180D01*
X78071463Y-69326494D01*
X78150815Y-69423185D01*
X78247506Y-69502537D01*
X78357820Y-69561502D01*
X78477518Y-69597812D01*
X78602000Y-69610072D01*
X79216250Y-69607000D01*
X79375000Y-69448250D01*
X79375000Y-68199000D01*
X79629000Y-68199000D01*
X79629000Y-69448250D01*
X79787750Y-69607000D01*
X80402000Y-69610072D01*
X80526482Y-69597812D01*
X80646180Y-69561502D01*
X80756494Y-69502537D01*
X80853185Y-69423185D01*
X80932537Y-69326494D01*
X80991502Y-69216180D01*
X81027812Y-69096482D01*
X81040072Y-68972000D01*
X82789928Y-68972000D01*
X82802188Y-69096482D01*
X82838498Y-69216180D01*
X82897463Y-69326494D01*
X82976815Y-69423185D01*
X83073506Y-69502537D01*
X83183820Y-69561502D01*
X83303518Y-69597812D01*
X83428000Y-69610072D01*
X84042250Y-69607000D01*
X84201000Y-69448250D01*
X84201000Y-68199000D01*
X84455000Y-68199000D01*
X84455000Y-69448250D01*
X84613750Y-69607000D01*
X85228000Y-69610072D01*
X85352482Y-69597812D01*
X85472180Y-69561502D01*
X85582494Y-69502537D01*
X85679185Y-69423185D01*
X85758537Y-69326494D01*
X85817502Y-69216180D01*
X85853812Y-69096482D01*
X85866072Y-68972000D01*
X85863000Y-68357750D01*
X85704250Y-68199000D01*
X84455000Y-68199000D01*
X84201000Y-68199000D01*
X82951750Y-68199000D01*
X82793000Y-68357750D01*
X82789928Y-68972000D01*
X81040072Y-68972000D01*
X81037000Y-68357750D01*
X80878250Y-68199000D01*
X79629000Y-68199000D01*
X79375000Y-68199000D01*
X78125750Y-68199000D01*
X77967000Y-68357750D01*
X77963928Y-68972000D01*
X76948999Y-68972000D01*
X76932341Y-62992000D01*
X77959573Y-62992000D01*
X77989210Y-63292913D01*
X78076983Y-63582261D01*
X78219519Y-63848927D01*
X78411339Y-64082661D01*
X78629865Y-64262000D01*
X78411339Y-64441339D01*
X78219519Y-64675073D01*
X78076983Y-64941739D01*
X77989210Y-65231087D01*
X77959573Y-65532000D01*
X77989210Y-65832913D01*
X78076983Y-66122261D01*
X78219519Y-66388927D01*
X78374280Y-66577505D01*
X78357820Y-66582498D01*
X78247506Y-66641463D01*
X78150815Y-66720815D01*
X78071463Y-66817506D01*
X78012498Y-66927820D01*
X77976188Y-67047518D01*
X77963928Y-67172000D01*
X77967000Y-67786250D01*
X78125750Y-67945000D01*
X79375000Y-67945000D01*
X79375000Y-67925000D01*
X79629000Y-67925000D01*
X79629000Y-67945000D01*
X80878250Y-67945000D01*
X81037000Y-67786250D01*
X81040072Y-67172000D01*
X81027812Y-67047518D01*
X80991502Y-66927820D01*
X80932537Y-66817506D01*
X80853185Y-66720815D01*
X80756494Y-66641463D01*
X80646180Y-66582498D01*
X80629720Y-66577505D01*
X80784481Y-66388927D01*
X80927017Y-66122261D01*
X81014790Y-65832913D01*
X81044427Y-65532000D01*
X81014790Y-65231087D01*
X80927017Y-64941739D01*
X80784481Y-64675073D01*
X80592661Y-64441339D01*
X80374135Y-64262000D01*
X80592661Y-64082661D01*
X80784481Y-63848927D01*
X80927017Y-63582261D01*
X81014790Y-63292913D01*
X81044427Y-62992000D01*
X82785573Y-62992000D01*
X82815210Y-63292913D01*
X82902983Y-63582261D01*
X83045519Y-63848927D01*
X83237339Y-64082661D01*
X83455865Y-64262000D01*
X83237339Y-64441339D01*
X83045519Y-64675073D01*
X82902983Y-64941739D01*
X82815210Y-65231087D01*
X82785573Y-65532000D01*
X82815210Y-65832913D01*
X82902983Y-66122261D01*
X83045519Y-66388927D01*
X83200280Y-66577505D01*
X83183820Y-66582498D01*
X83073506Y-66641463D01*
X82976815Y-66720815D01*
X82897463Y-66817506D01*
X82838498Y-66927820D01*
X82802188Y-67047518D01*
X82789928Y-67172000D01*
X82793000Y-67786250D01*
X82951750Y-67945000D01*
X84201000Y-67945000D01*
X84201000Y-67925000D01*
X84455000Y-67925000D01*
X84455000Y-67945000D01*
X85704250Y-67945000D01*
X85863000Y-67786250D01*
X85866072Y-67172000D01*
X85853812Y-67047518D01*
X85817502Y-66927820D01*
X85758537Y-66817506D01*
X85679185Y-66720815D01*
X85582494Y-66641463D01*
X85472180Y-66582498D01*
X85455720Y-66577505D01*
X85610481Y-66388927D01*
X85753017Y-66122261D01*
X85840790Y-65832913D01*
X85870427Y-65532000D01*
X85840790Y-65231087D01*
X85753017Y-64941739D01*
X85610481Y-64675073D01*
X85418661Y-64441339D01*
X85200135Y-64262000D01*
X85418661Y-64082661D01*
X85610481Y-63848927D01*
X85753017Y-63582261D01*
X85840790Y-63292913D01*
X85870427Y-62992000D01*
X85840790Y-62691087D01*
X85753017Y-62401739D01*
X85610481Y-62135073D01*
X85418661Y-61901339D01*
X85184927Y-61709519D01*
X84918261Y-61566983D01*
X84628913Y-61479210D01*
X84403408Y-61457000D01*
X84252592Y-61457000D01*
X84027087Y-61479210D01*
X83737739Y-61566983D01*
X83471073Y-61709519D01*
X83237339Y-61901339D01*
X83045519Y-62135073D01*
X82902983Y-62401739D01*
X82815210Y-62691087D01*
X82785573Y-62992000D01*
X81044427Y-62992000D01*
X81014790Y-62691087D01*
X80927017Y-62401739D01*
X80784481Y-62135073D01*
X80592661Y-61901339D01*
X80358927Y-61709519D01*
X80092261Y-61566983D01*
X79802913Y-61479210D01*
X79577408Y-61457000D01*
X79426592Y-61457000D01*
X79201087Y-61479210D01*
X78911739Y-61566983D01*
X78645073Y-61709519D01*
X78411339Y-61901339D01*
X78219519Y-62135073D01*
X78076983Y-62401739D01*
X77989210Y-62691087D01*
X77959573Y-62992000D01*
X76932341Y-62992000D01*
X76927000Y-61074646D01*
X76924490Y-61049877D01*
X76917197Y-61026073D01*
X76905400Y-61004149D01*
X76889552Y-60984948D01*
X76870263Y-60969207D01*
X76848274Y-60957532D01*
X76824429Y-60950372D01*
X76800616Y-60948001D01*
X56461000Y-60849385D01*
X56461000Y-60249021D01*
X56465040Y-60208002D01*
X56448918Y-60044314D01*
X56401172Y-59886916D01*
X56323636Y-59741857D01*
X56322427Y-59740384D01*
X56357154Y-59750918D01*
X56479824Y-59763000D01*
X56479834Y-59763000D01*
X56520842Y-59767039D01*
X56561850Y-59763000D01*
X80368446Y-59763000D01*
X80492733Y-59887287D01*
X80695008Y-60022443D01*
X80919764Y-60115540D01*
X81158363Y-60163000D01*
X81401637Y-60163000D01*
X81640236Y-60115540D01*
X81864992Y-60022443D01*
X82067267Y-59887287D01*
X82239287Y-59715267D01*
X82374443Y-59512992D01*
X82467540Y-59288236D01*
X82515000Y-59049637D01*
X82515000Y-58806363D01*
X82467540Y-58567764D01*
X82374443Y-58343008D01*
X82327672Y-58273010D01*
X86810143Y-58273010D01*
X87157000Y-58619868D01*
X87157000Y-58795637D01*
X87204460Y-59034236D01*
X87297557Y-59258992D01*
X87432713Y-59461267D01*
X87604733Y-59633287D01*
X87807008Y-59768443D01*
X88031764Y-59861540D01*
X88270363Y-59909000D01*
X88513637Y-59909000D01*
X88752236Y-59861540D01*
X88976992Y-59768443D01*
X89179267Y-59633287D01*
X89351287Y-59461267D01*
X89473392Y-59278524D01*
X89634886Y-59440018D01*
X89664745Y-59538449D01*
X89812155Y-59814235D01*
X90010537Y-60055963D01*
X90252265Y-60254345D01*
X90528051Y-60401755D01*
X90827296Y-60492530D01*
X91060514Y-60515500D01*
X91311486Y-60515500D01*
X91544704Y-60492530D01*
X91843949Y-60401755D01*
X92119735Y-60254345D01*
X92352888Y-60063000D01*
X93255869Y-60063000D01*
X96135017Y-62942149D01*
X96187557Y-63068992D01*
X96322713Y-63271267D01*
X96494733Y-63443287D01*
X96697008Y-63578443D01*
X96921764Y-63671540D01*
X97160363Y-63719000D01*
X97403637Y-63719000D01*
X97642236Y-63671540D01*
X97866992Y-63578443D01*
X98069267Y-63443287D01*
X98241287Y-63271267D01*
X98376443Y-63068992D01*
X98469540Y-62844236D01*
X98517000Y-62605637D01*
X98517000Y-62362363D01*
X98469540Y-62123764D01*
X98376443Y-61899008D01*
X98241287Y-61696733D01*
X98069267Y-61524713D01*
X97866992Y-61389557D01*
X97740149Y-61337017D01*
X94567996Y-58164865D01*
X94532449Y-58121551D01*
X94359623Y-57979716D01*
X94162447Y-57874324D01*
X93948499Y-57809423D01*
X93781752Y-57793000D01*
X93781751Y-57793000D01*
X93726000Y-57787509D01*
X93670249Y-57793000D01*
X92352888Y-57793000D01*
X92182101Y-57652837D01*
X92367315Y-57497437D01*
X92561969Y-57254923D01*
X92705571Y-56979094D01*
X92776563Y-56760980D01*
X92656594Y-56515000D01*
X91313000Y-56515000D01*
X91313000Y-56535000D01*
X91059000Y-56535000D01*
X91059000Y-56515000D01*
X91039000Y-56515000D01*
X91039000Y-56261000D01*
X91059000Y-56261000D01*
X91059000Y-56241000D01*
X91313000Y-56241000D01*
X91313000Y-56261000D01*
X92656594Y-56261000D01*
X92776563Y-56015020D01*
X92705571Y-55796906D01*
X92561969Y-55521077D01*
X92448781Y-55380059D01*
X92540494Y-55331037D01*
X92637185Y-55251685D01*
X92716537Y-55154994D01*
X92775502Y-55044680D01*
X92811812Y-54924982D01*
X92824072Y-54800500D01*
X92824072Y-52895500D01*
X92811812Y-52771018D01*
X92775502Y-52651320D01*
X92716537Y-52541006D01*
X92637185Y-52444315D01*
X92540494Y-52364963D01*
X92430180Y-52305998D01*
X92310482Y-52269688D01*
X92186000Y-52257428D01*
X90186000Y-52257428D01*
X90061518Y-52269688D01*
X89941820Y-52305998D01*
X89831506Y-52364963D01*
X89734815Y-52444315D01*
X89655463Y-52541006D01*
X89596498Y-52651320D01*
X89560188Y-52771018D01*
X89547928Y-52895500D01*
X89547928Y-54800500D01*
X89560188Y-54924982D01*
X89596498Y-55044680D01*
X89655463Y-55154994D01*
X89734815Y-55251685D01*
X89831506Y-55331037D01*
X89923219Y-55380059D01*
X89810031Y-55521077D01*
X89666429Y-55796906D01*
X89595437Y-56015020D01*
X89715405Y-56260998D01*
X89666130Y-56260998D01*
X83556165Y-50151034D01*
X83594180Y-50139502D01*
X83704494Y-50080537D01*
X83801185Y-50001185D01*
X83880537Y-49904494D01*
X83939502Y-49794180D01*
X83972496Y-49685413D01*
X86394192Y-49685413D01*
X86489956Y-49949814D01*
X86779571Y-50090704D01*
X87091108Y-50172384D01*
X87412595Y-50191718D01*
X87731675Y-50147961D01*
X88036088Y-50042795D01*
X88210044Y-49949814D01*
X88305808Y-49685413D01*
X87350000Y-48729605D01*
X86394192Y-49685413D01*
X83972496Y-49685413D01*
X83975812Y-49674482D01*
X83988072Y-49550000D01*
X83988072Y-48612595D01*
X85708282Y-48612595D01*
X85752039Y-48931675D01*
X85857205Y-49236088D01*
X85950186Y-49410044D01*
X86214587Y-49505808D01*
X87170395Y-48550000D01*
X87529605Y-48550000D01*
X88485413Y-49505808D01*
X88749814Y-49410044D01*
X88890704Y-49120429D01*
X88972384Y-48808892D01*
X88991718Y-48487405D01*
X88947961Y-48168325D01*
X88842795Y-47863912D01*
X88749814Y-47689956D01*
X88485413Y-47594192D01*
X87529605Y-48550000D01*
X87170395Y-48550000D01*
X86214587Y-47594192D01*
X85950186Y-47689956D01*
X85809296Y-47979571D01*
X85727616Y-48291108D01*
X85708282Y-48612595D01*
X83988072Y-48612595D01*
X83988072Y-47550000D01*
X83975812Y-47425518D01*
X83972497Y-47414587D01*
X86394192Y-47414587D01*
X87350000Y-48370395D01*
X88305808Y-47414587D01*
X88210044Y-47150186D01*
X87920429Y-47009296D01*
X87608892Y-46927616D01*
X87287405Y-46908282D01*
X86968325Y-46952039D01*
X86663912Y-47057205D01*
X86489956Y-47150186D01*
X86394192Y-47414587D01*
X83972497Y-47414587D01*
X83939502Y-47305820D01*
X83880537Y-47195506D01*
X83801185Y-47098815D01*
X83704494Y-47019463D01*
X83594180Y-46960498D01*
X83474482Y-46924188D01*
X83350000Y-46911928D01*
X81350000Y-46911928D01*
X81225518Y-46924188D01*
X81105820Y-46960498D01*
X80995506Y-47019463D01*
X80898815Y-47098815D01*
X80819463Y-47195506D01*
X80760498Y-47305820D01*
X80724188Y-47425518D01*
X80711928Y-47550000D01*
X80711928Y-49550000D01*
X80724188Y-49674482D01*
X80760498Y-49794180D01*
X80819463Y-49904494D01*
X80898815Y-50001185D01*
X80995506Y-50080537D01*
X81105820Y-50139502D01*
X81215001Y-50172622D01*
X81215001Y-50494239D01*
X81209509Y-50550000D01*
X81231423Y-50772498D01*
X81231472Y-50772661D01*
X79163072Y-52841062D01*
X79163072Y-52150000D01*
X79150812Y-52025518D01*
X79114502Y-51905820D01*
X79055537Y-51795506D01*
X78976185Y-51698815D01*
X78879494Y-51619463D01*
X78769180Y-51560498D01*
X78700313Y-51539607D01*
X78730134Y-51515134D01*
X78915706Y-51289014D01*
X79053599Y-51031034D01*
X79138513Y-50751111D01*
X79167185Y-50460000D01*
X79138513Y-50168889D01*
X79053599Y-49888966D01*
X78915706Y-49630986D01*
X78730134Y-49404866D01*
X78504014Y-49219294D01*
X78449209Y-49190000D01*
X78504014Y-49160706D01*
X78730134Y-48975134D01*
X78915706Y-48749014D01*
X79053599Y-48491034D01*
X79138513Y-48211111D01*
X79167185Y-47920000D01*
X79138513Y-47628889D01*
X79053599Y-47348966D01*
X78915706Y-47090986D01*
X78730134Y-46864866D01*
X78504014Y-46679294D01*
X78449209Y-46650000D01*
X78504014Y-46620706D01*
X78730134Y-46435134D01*
X78915706Y-46209014D01*
X79053599Y-45951034D01*
X79138513Y-45671111D01*
X79167185Y-45380000D01*
X79138513Y-45088889D01*
X79053599Y-44808966D01*
X78915706Y-44550986D01*
X78730134Y-44324866D01*
X78504014Y-44139294D01*
X78449209Y-44110000D01*
X78504014Y-44080706D01*
X78730134Y-43895134D01*
X78915706Y-43669014D01*
X79053599Y-43411034D01*
X79138513Y-43131111D01*
X79167185Y-42840000D01*
X79138513Y-42548889D01*
X79123683Y-42500000D01*
X90061928Y-42500000D01*
X90061928Y-44500000D01*
X90074188Y-44624482D01*
X90110498Y-44744180D01*
X90169463Y-44854494D01*
X90248815Y-44951185D01*
X90345506Y-45030537D01*
X90455820Y-45089502D01*
X90575518Y-45125812D01*
X90700000Y-45138072D01*
X92700000Y-45138072D01*
X92824482Y-45125812D01*
X92944180Y-45089502D01*
X93054494Y-45030537D01*
X93151185Y-44951185D01*
X93230537Y-44854494D01*
X93289502Y-44744180D01*
X93322496Y-44635413D01*
X95744192Y-44635413D01*
X95839956Y-44899814D01*
X96129571Y-45040704D01*
X96441108Y-45122384D01*
X96762595Y-45141718D01*
X97081675Y-45097961D01*
X97386088Y-44992795D01*
X97560044Y-44899814D01*
X97655808Y-44635413D01*
X96700000Y-43679605D01*
X95744192Y-44635413D01*
X93322496Y-44635413D01*
X93325812Y-44624482D01*
X93338072Y-44500000D01*
X93338072Y-43562595D01*
X95058282Y-43562595D01*
X95102039Y-43881675D01*
X95207205Y-44186088D01*
X95300186Y-44360044D01*
X95564587Y-44455808D01*
X96520395Y-43500000D01*
X96879605Y-43500000D01*
X97835413Y-44455808D01*
X98099814Y-44360044D01*
X98240704Y-44070429D01*
X98322384Y-43758892D01*
X98341718Y-43437405D01*
X98297961Y-43118325D01*
X98192795Y-42813912D01*
X98099814Y-42639956D01*
X97835413Y-42544192D01*
X96879605Y-43500000D01*
X96520395Y-43500000D01*
X95564587Y-42544192D01*
X95300186Y-42639956D01*
X95159296Y-42929571D01*
X95077616Y-43241108D01*
X95058282Y-43562595D01*
X93338072Y-43562595D01*
X93338072Y-42500000D01*
X93325812Y-42375518D01*
X93322497Y-42364587D01*
X95744192Y-42364587D01*
X96700000Y-43320395D01*
X97655808Y-42364587D01*
X97560044Y-42100186D01*
X97270429Y-41959296D01*
X96958892Y-41877616D01*
X96637405Y-41858282D01*
X96318325Y-41902039D01*
X96013912Y-42007205D01*
X95839956Y-42100186D01*
X95744192Y-42364587D01*
X93322497Y-42364587D01*
X93289502Y-42255820D01*
X93230537Y-42145506D01*
X93151185Y-42048815D01*
X93054494Y-41969463D01*
X92944180Y-41910498D01*
X92824482Y-41874188D01*
X92700000Y-41861928D01*
X90700000Y-41861928D01*
X90575518Y-41874188D01*
X90455820Y-41910498D01*
X90345506Y-41969463D01*
X90248815Y-42048815D01*
X90169463Y-42145506D01*
X90110498Y-42255820D01*
X90074188Y-42375518D01*
X90061928Y-42500000D01*
X79123683Y-42500000D01*
X79053599Y-42268966D01*
X78915706Y-42010986D01*
X78730134Y-41784866D01*
X78504014Y-41599294D01*
X78439477Y-41564799D01*
X78556355Y-41495178D01*
X78772588Y-41300269D01*
X78946641Y-41066920D01*
X79071825Y-40804099D01*
X79116476Y-40656890D01*
X78995155Y-40427000D01*
X77802000Y-40427000D01*
X77802000Y-40447000D01*
X77548000Y-40447000D01*
X77548000Y-40427000D01*
X76354845Y-40427000D01*
X76233524Y-40656890D01*
X76278175Y-40804099D01*
X76403359Y-41066920D01*
X76577412Y-41300269D01*
X76793645Y-41495178D01*
X76910523Y-41564799D01*
X76845986Y-41599294D01*
X76619866Y-41784866D01*
X76434294Y-42010986D01*
X76296401Y-42268966D01*
X76211487Y-42548889D01*
X76182815Y-42840000D01*
X76211487Y-43131111D01*
X76296401Y-43411034D01*
X76434294Y-43669014D01*
X76619866Y-43895134D01*
X76845986Y-44080706D01*
X76900791Y-44110000D01*
X76845986Y-44139294D01*
X76619866Y-44324866D01*
X76439207Y-44545000D01*
X67887867Y-44545000D01*
X72489758Y-39943110D01*
X76233524Y-39943110D01*
X76354845Y-40173000D01*
X77548000Y-40173000D01*
X77548000Y-38979186D01*
X77802000Y-38979186D01*
X77802000Y-40173000D01*
X78995155Y-40173000D01*
X79116476Y-39943110D01*
X79071825Y-39795901D01*
X78946641Y-39533080D01*
X78772588Y-39299731D01*
X78556355Y-39104822D01*
X78306252Y-38955843D01*
X78031891Y-38858519D01*
X77802000Y-38979186D01*
X77548000Y-38979186D01*
X77318109Y-38858519D01*
X77043748Y-38955843D01*
X76793645Y-39104822D01*
X76577412Y-39299731D01*
X76403359Y-39533080D01*
X76278175Y-39795901D01*
X76233524Y-39943110D01*
X72489758Y-39943110D01*
X73422334Y-39010535D01*
X73589508Y-39027000D01*
X73730492Y-39027000D01*
X73941309Y-39006236D01*
X74211808Y-38924182D01*
X74461101Y-38790932D01*
X74679608Y-38611608D01*
X74858932Y-38393101D01*
X74992182Y-38143808D01*
X75074236Y-37873309D01*
X75101943Y-37592000D01*
X75074236Y-37310691D01*
X74992182Y-37040192D01*
X74858932Y-36790899D01*
X74679608Y-36572392D01*
X74461101Y-36393068D01*
X74211808Y-36259818D01*
X73941309Y-36177764D01*
X73730492Y-36157000D01*
X73589508Y-36157000D01*
X73378691Y-36177764D01*
X73108192Y-36259818D01*
X72858899Y-36393068D01*
X72640392Y-36572392D01*
X72461068Y-36790899D01*
X72387421Y-36928682D01*
X72272385Y-36736869D01*
X72083414Y-36528481D01*
X71857420Y-36360963D01*
X71617939Y-36247774D01*
X72559713Y-35306000D01*
X78621089Y-35306000D01*
X78652658Y-35626516D01*
X78746148Y-35934714D01*
X78854699Y-36137797D01*
X78897970Y-36218752D01*
X79102287Y-36467714D01*
X79164682Y-36518920D01*
X82974676Y-40328916D01*
X83161247Y-40482030D01*
X83445285Y-40633852D01*
X83753483Y-40727343D01*
X84074000Y-40758911D01*
X84394516Y-40727343D01*
X84702715Y-40633852D01*
X84986752Y-40482030D01*
X85235713Y-40277713D01*
X85440030Y-40028752D01*
X85591852Y-39744715D01*
X85685343Y-39436516D01*
X85716911Y-39116000D01*
X85685343Y-38795483D01*
X85591852Y-38487285D01*
X85440030Y-38203247D01*
X85286916Y-38016676D01*
X81899000Y-34628762D01*
X81899000Y-28875678D01*
X81875343Y-28635484D01*
X81781852Y-28327285D01*
X81630031Y-28043248D01*
X81425714Y-27794286D01*
X81176751Y-27589969D01*
X80892714Y-27438148D01*
X80584515Y-27344657D01*
X80264000Y-27313089D01*
X79943484Y-27344657D01*
X79635285Y-27438148D01*
X79351248Y-27589969D01*
X79102286Y-27794286D01*
X78897969Y-28043249D01*
X78746148Y-28327286D01*
X78652657Y-28635485D01*
X78629000Y-28875679D01*
X78629001Y-35225671D01*
X78621089Y-35306000D01*
X72559713Y-35306000D01*
X76261987Y-31603726D01*
X76367764Y-31647540D01*
X76606363Y-31695000D01*
X76849637Y-31695000D01*
X77088236Y-31647540D01*
X77312992Y-31554443D01*
X77515267Y-31419287D01*
X77687287Y-31247267D01*
X77822443Y-31044992D01*
X77915540Y-30820236D01*
X77963000Y-30581637D01*
X77963000Y-30338363D01*
X77915540Y-30099764D01*
X77822443Y-29875008D01*
X77687287Y-29672733D01*
X77515267Y-29500713D01*
X77312992Y-29365557D01*
X77088236Y-29272460D01*
X76849637Y-29225000D01*
X76606363Y-29225000D01*
X76367764Y-29272460D01*
X76143008Y-29365557D01*
X76054045Y-29425000D01*
X75992829Y-29425000D01*
X75942001Y-29419994D01*
X75891173Y-29425000D01*
X75891164Y-29425000D01*
X75739107Y-29439976D01*
X75544009Y-29499159D01*
X75465745Y-29540992D01*
X75364204Y-29595266D01*
X75269811Y-29672733D01*
X75206606Y-29724604D01*
X75174199Y-29764092D01*
X75098072Y-29840219D01*
X75098072Y-29172000D01*
X75085812Y-29047518D01*
X75049502Y-28927820D01*
X74990537Y-28817506D01*
X74911185Y-28720815D01*
X74814494Y-28641463D01*
X74704180Y-28582498D01*
X74584482Y-28546188D01*
X74460000Y-28533928D01*
X72860000Y-28533928D01*
X72735518Y-28546188D01*
X72615820Y-28582498D01*
X72505506Y-28641463D01*
X72408815Y-28720815D01*
X72329463Y-28817506D01*
X72270498Y-28927820D01*
X72234188Y-29047518D01*
X72231769Y-29072080D01*
X72083414Y-28908481D01*
X71857420Y-28740963D01*
X71603087Y-28620754D01*
X71469039Y-28580096D01*
X71247000Y-28702085D01*
X71247000Y-29845000D01*
X71267000Y-29845000D01*
X71267000Y-30099000D01*
X71247000Y-30099000D01*
X71247000Y-31241915D01*
X71469039Y-31363904D01*
X71603087Y-31323246D01*
X71857420Y-31203037D01*
X72083414Y-31035519D01*
X72231769Y-30871920D01*
X72234188Y-30896482D01*
X72270498Y-31016180D01*
X72329463Y-31126494D01*
X72408815Y-31223185D01*
X72505506Y-31302537D01*
X72615820Y-31361502D01*
X72735518Y-31397812D01*
X72860000Y-31410072D01*
X73528219Y-31410072D01*
X68738092Y-36200200D01*
X68698604Y-36232607D01*
X68666197Y-36272095D01*
X68666196Y-36272096D01*
X68569265Y-36390206D01*
X68550810Y-36424734D01*
X68473158Y-36570010D01*
X68413975Y-36765108D01*
X68398999Y-36917165D01*
X68398999Y-36917175D01*
X68396303Y-36944545D01*
X68249008Y-37005557D01*
X68046733Y-37140713D01*
X67874713Y-37312733D01*
X67739557Y-37515008D01*
X67646460Y-37739764D01*
X67625587Y-37844703D01*
X66373290Y-39097000D01*
X58340711Y-39097000D01*
X58172067Y-38928356D01*
X58293000Y-38861915D01*
X58293000Y-37719000D01*
X58273000Y-37719000D01*
X58273000Y-37465000D01*
X58293000Y-37465000D01*
X58293000Y-36322085D01*
X58547000Y-36322085D01*
X58547000Y-37465000D01*
X58567000Y-37465000D01*
X58567000Y-37719000D01*
X58547000Y-37719000D01*
X58547000Y-38861915D01*
X58769039Y-38983904D01*
X58903087Y-38943246D01*
X59157420Y-38823037D01*
X59383414Y-38655519D01*
X59572385Y-38447131D01*
X59687421Y-38255318D01*
X59761068Y-38393101D01*
X59940392Y-38611608D01*
X60158899Y-38790932D01*
X60408192Y-38924182D01*
X60678691Y-39006236D01*
X60889508Y-39027000D01*
X61030492Y-39027000D01*
X61241309Y-39006236D01*
X61511808Y-38924182D01*
X61761101Y-38790932D01*
X61979608Y-38611608D01*
X62158932Y-38393101D01*
X62292182Y-38143808D01*
X62374236Y-37873309D01*
X62401943Y-37592000D01*
X62374236Y-37310691D01*
X62292182Y-37040192D01*
X62158932Y-36790899D01*
X61979608Y-36572392D01*
X61761101Y-36393068D01*
X61511808Y-36259818D01*
X61241309Y-36177764D01*
X61030492Y-36157000D01*
X60889508Y-36157000D01*
X60678691Y-36177764D01*
X60408192Y-36259818D01*
X60158899Y-36393068D01*
X59940392Y-36572392D01*
X59761068Y-36790899D01*
X59687421Y-36928682D01*
X59572385Y-36736869D01*
X59383414Y-36528481D01*
X59157420Y-36360963D01*
X58903087Y-36240754D01*
X58769039Y-36200096D01*
X58547000Y-36322085D01*
X58293000Y-36322085D01*
X58070961Y-36200096D01*
X57936913Y-36240754D01*
X57682580Y-36360963D01*
X57456586Y-36528481D01*
X57267615Y-36736869D01*
X57122930Y-36978119D01*
X57028091Y-37242960D01*
X57149375Y-37464998D01*
X56991552Y-37464998D01*
X56921267Y-37394713D01*
X56718992Y-37259557D01*
X56494236Y-37166460D01*
X56255637Y-37119000D01*
X56012363Y-37119000D01*
X55773764Y-37166460D01*
X55549008Y-37259557D01*
X55346733Y-37394713D01*
X55174713Y-37566733D01*
X55039557Y-37769008D01*
X54946460Y-37993764D01*
X54925586Y-38098704D01*
X54838099Y-38186191D01*
X54838093Y-38186196D01*
X53239289Y-39785001D01*
X50141681Y-39785001D01*
X50182236Y-39651309D01*
X50209943Y-39370000D01*
X50182236Y-39088691D01*
X50100182Y-38818192D01*
X49966932Y-38568899D01*
X49787608Y-38350392D01*
X49569101Y-38171068D01*
X49319808Y-38037818D01*
X49049309Y-37955764D01*
X48838492Y-37935000D01*
X48697508Y-37935000D01*
X48486691Y-37955764D01*
X48216192Y-38037818D01*
X47966899Y-38171068D01*
X47748392Y-38350392D01*
X47569068Y-38568899D01*
X47495421Y-38706682D01*
X47380385Y-38514869D01*
X47191414Y-38306481D01*
X46965420Y-38138963D01*
X46711087Y-38018754D01*
X46577039Y-37978096D01*
X46355000Y-38100085D01*
X46355000Y-39243000D01*
X46375000Y-39243000D01*
X46375000Y-39497000D01*
X46355000Y-39497000D01*
X46355000Y-39517000D01*
X46101000Y-39517000D01*
X46101000Y-39497000D01*
X46081000Y-39497000D01*
X46081000Y-39243000D01*
X46101000Y-39243000D01*
X46101000Y-38100085D01*
X45878961Y-37978096D01*
X45744913Y-38018754D01*
X45490580Y-38138963D01*
X45264586Y-38306481D01*
X45075615Y-38514869D01*
X44930930Y-38756119D01*
X44836091Y-39020960D01*
X44841601Y-39031047D01*
X44729267Y-38918713D01*
X44526992Y-38783557D01*
X44302236Y-38690460D01*
X44063637Y-38643000D01*
X43820363Y-38643000D01*
X43581764Y-38690460D01*
X43357008Y-38783557D01*
X43154733Y-38918713D01*
X42982713Y-39090733D01*
X42847557Y-39293008D01*
X42754460Y-39517764D01*
X42733586Y-39622703D01*
X42571289Y-39785001D01*
X37949681Y-39785001D01*
X37990236Y-39651309D01*
X38017943Y-39370000D01*
X37990236Y-39088691D01*
X37908182Y-38818192D01*
X37774932Y-38568899D01*
X37595608Y-38350392D01*
X37377101Y-38171068D01*
X37127808Y-38037818D01*
X36857309Y-37955764D01*
X36646492Y-37935000D01*
X36505508Y-37935000D01*
X36294691Y-37955764D01*
X36024192Y-38037818D01*
X35774899Y-38171068D01*
X35556392Y-38350392D01*
X35377068Y-38568899D01*
X35303421Y-38706682D01*
X35188385Y-38514869D01*
X34999414Y-38306481D01*
X34773420Y-38138963D01*
X34519087Y-38018754D01*
X34385039Y-37978096D01*
X34163000Y-38100085D01*
X34163000Y-39243000D01*
X34183000Y-39243000D01*
X34183000Y-39497000D01*
X34163000Y-39497000D01*
X34163000Y-39517000D01*
X33909000Y-39517000D01*
X33909000Y-39497000D01*
X33889000Y-39497000D01*
X33889000Y-39243000D01*
X33909000Y-39243000D01*
X33909000Y-38100085D01*
X33686961Y-37978096D01*
X33552913Y-38018754D01*
X33298580Y-38138963D01*
X33072586Y-38306481D01*
X32883615Y-38514869D01*
X32738930Y-38756119D01*
X32644091Y-39020960D01*
X32649601Y-39031047D01*
X32537267Y-38918713D01*
X32334992Y-38783557D01*
X32110236Y-38690460D01*
X31871637Y-38643000D01*
X31628363Y-38643000D01*
X31389764Y-38690460D01*
X31165008Y-38783557D01*
X30962733Y-38918713D01*
X30790713Y-39090733D01*
X30655557Y-39293008D01*
X30562460Y-39517764D01*
X30515000Y-39756363D01*
X30515000Y-39999637D01*
X30562460Y-40238236D01*
X30655557Y-40462992D01*
X30790713Y-40665267D01*
X30962733Y-40837287D01*
X31165008Y-40972443D01*
X31389764Y-41065540D01*
X31494703Y-41086414D01*
X31924198Y-41515909D01*
X31956605Y-41555397D01*
X31990239Y-41583000D01*
X30317868Y-41583000D01*
X25219000Y-36484133D01*
X25219000Y-35618677D01*
X25228460Y-35666236D01*
X25321557Y-35890992D01*
X25456713Y-36093267D01*
X25628733Y-36265287D01*
X25831008Y-36400443D01*
X26055764Y-36493540D01*
X26294363Y-36541000D01*
X26537637Y-36541000D01*
X26776236Y-36493540D01*
X26870817Y-36454363D01*
X35849000Y-36454363D01*
X35849000Y-36697637D01*
X35896460Y-36936236D01*
X35989557Y-37160992D01*
X36124713Y-37363267D01*
X36296733Y-37535287D01*
X36499008Y-37670443D01*
X36723764Y-37763540D01*
X36962363Y-37811000D01*
X37205637Y-37811000D01*
X37444236Y-37763540D01*
X37668992Y-37670443D01*
X37871267Y-37535287D01*
X38043287Y-37363267D01*
X38178443Y-37160992D01*
X38271540Y-36936236D01*
X38292414Y-36831297D01*
X39685348Y-35438363D01*
X48295000Y-35438363D01*
X48295000Y-35681637D01*
X48342460Y-35920236D01*
X48435557Y-36144992D01*
X48570713Y-36347267D01*
X48742733Y-36519287D01*
X48945008Y-36654443D01*
X49169764Y-36747540D01*
X49408363Y-36795000D01*
X49651637Y-36795000D01*
X49890236Y-36747540D01*
X50114992Y-36654443D01*
X50317267Y-36519287D01*
X50489287Y-36347267D01*
X50624443Y-36144992D01*
X50717540Y-35920236D01*
X50738414Y-35815297D01*
X52385348Y-34168363D01*
X60741000Y-34168363D01*
X60741000Y-34411637D01*
X60788460Y-34650236D01*
X60881557Y-34874992D01*
X61016713Y-35077267D01*
X61188733Y-35249287D01*
X61391008Y-35384443D01*
X61615764Y-35477540D01*
X61854363Y-35525000D01*
X62097637Y-35525000D01*
X62336236Y-35477540D01*
X62560992Y-35384443D01*
X62649955Y-35325000D01*
X68529172Y-35325000D01*
X68580000Y-35330006D01*
X68630828Y-35325000D01*
X68630838Y-35325000D01*
X68782895Y-35310024D01*
X68977993Y-35250841D01*
X69157797Y-35154734D01*
X69315396Y-35025396D01*
X69347807Y-34985903D01*
X70613297Y-33720413D01*
X70718236Y-33699540D01*
X70942992Y-33606443D01*
X71145267Y-33471287D01*
X71317287Y-33299267D01*
X71452443Y-33096992D01*
X71545540Y-32872236D01*
X71593000Y-32633637D01*
X71593000Y-32390363D01*
X71545540Y-32151764D01*
X71452443Y-31927008D01*
X71317287Y-31724733D01*
X71145267Y-31552713D01*
X70942992Y-31417557D01*
X70789230Y-31353867D01*
X70993000Y-31241915D01*
X70993000Y-30099000D01*
X69849376Y-30099000D01*
X69728091Y-30321040D01*
X69822930Y-30585881D01*
X69967615Y-30827131D01*
X70156586Y-31035519D01*
X70382580Y-31203037D01*
X70582254Y-31297412D01*
X70479637Y-31277000D01*
X70236363Y-31277000D01*
X69997764Y-31324460D01*
X69773008Y-31417557D01*
X69570733Y-31552713D01*
X69398713Y-31724733D01*
X69263557Y-31927008D01*
X69170460Y-32151764D01*
X69149587Y-32256703D01*
X68151290Y-33255000D01*
X62649955Y-33255000D01*
X62560992Y-33195557D01*
X62336236Y-33102460D01*
X62097637Y-33055000D01*
X61854363Y-33055000D01*
X61615764Y-33102460D01*
X61391008Y-33195557D01*
X61188733Y-33330713D01*
X61016713Y-33502733D01*
X60881557Y-33705008D01*
X60788460Y-33929764D01*
X60741000Y-34168363D01*
X52385348Y-34168363D01*
X53006711Y-33547000D01*
X56984045Y-33547000D01*
X57073008Y-33606443D01*
X57297764Y-33699540D01*
X57536363Y-33747000D01*
X57779637Y-33747000D01*
X58018236Y-33699540D01*
X58242992Y-33606443D01*
X58445267Y-33471287D01*
X58617287Y-33299267D01*
X58752443Y-33096992D01*
X58845540Y-32872236D01*
X58893000Y-32633637D01*
X58893000Y-32390363D01*
X58845540Y-32151764D01*
X58752443Y-31927008D01*
X58617287Y-31724733D01*
X58445267Y-31552713D01*
X58242992Y-31417557D01*
X58089230Y-31353867D01*
X58293000Y-31241915D01*
X58293000Y-30099000D01*
X57149376Y-30099000D01*
X57028091Y-30321040D01*
X57122930Y-30585881D01*
X57267615Y-30827131D01*
X57456586Y-31035519D01*
X57682580Y-31203037D01*
X57882254Y-31297412D01*
X57779637Y-31277000D01*
X57536363Y-31277000D01*
X57297764Y-31324460D01*
X57073008Y-31417557D01*
X56984045Y-31477000D01*
X52628835Y-31477000D01*
X52578000Y-31471993D01*
X52527164Y-31477000D01*
X52527162Y-31477000D01*
X52375105Y-31491976D01*
X52180007Y-31551159D01*
X52096309Y-31595896D01*
X52000202Y-31647266D01*
X51905809Y-31724733D01*
X51842604Y-31776604D01*
X51810197Y-31816092D01*
X49274703Y-34351586D01*
X49169764Y-34372460D01*
X48945008Y-34465557D01*
X48742733Y-34600713D01*
X48570713Y-34772733D01*
X48435557Y-34975008D01*
X48342460Y-35199764D01*
X48295000Y-35438363D01*
X39685348Y-35438363D01*
X40306711Y-34817000D01*
X44538045Y-34817000D01*
X44627008Y-34876443D01*
X44851764Y-34969540D01*
X45090363Y-35017000D01*
X45333637Y-35017000D01*
X45572236Y-34969540D01*
X45796992Y-34876443D01*
X45999267Y-34741287D01*
X46171287Y-34569267D01*
X46306443Y-34366992D01*
X46399540Y-34142236D01*
X46447000Y-33903637D01*
X46447000Y-33660363D01*
X46399540Y-33421764D01*
X46306443Y-33197008D01*
X46298420Y-33185000D01*
X46355002Y-33185000D01*
X46355002Y-33019916D01*
X46577039Y-33141904D01*
X46711087Y-33101246D01*
X46965420Y-32981037D01*
X47191414Y-32813519D01*
X47339769Y-32649920D01*
X47342188Y-32674482D01*
X47378498Y-32794180D01*
X47437463Y-32904494D01*
X47516815Y-33001185D01*
X47613506Y-33080537D01*
X47723820Y-33139502D01*
X47843518Y-33175812D01*
X47968000Y-33188072D01*
X49568000Y-33188072D01*
X49692482Y-33175812D01*
X49812180Y-33139502D01*
X49922494Y-33080537D01*
X50019185Y-33001185D01*
X50098537Y-32904494D01*
X50157502Y-32794180D01*
X50193812Y-32674482D01*
X50206072Y-32550000D01*
X50206072Y-30950000D01*
X50193812Y-30825518D01*
X50157502Y-30705820D01*
X50098537Y-30595506D01*
X50019185Y-30498815D01*
X49922494Y-30419463D01*
X49812180Y-30360498D01*
X49692482Y-30324188D01*
X49568000Y-30311928D01*
X47968000Y-30311928D01*
X47843518Y-30324188D01*
X47723820Y-30360498D01*
X47613506Y-30419463D01*
X47516815Y-30498815D01*
X47437463Y-30595506D01*
X47378498Y-30705820D01*
X47342188Y-30825518D01*
X47339769Y-30850080D01*
X47191414Y-30686481D01*
X46965420Y-30518963D01*
X46711087Y-30398754D01*
X46577039Y-30358096D01*
X46355000Y-30480085D01*
X46355000Y-31623000D01*
X46375000Y-31623000D01*
X46375000Y-31877000D01*
X46355000Y-31877000D01*
X46355000Y-31897000D01*
X46101000Y-31897000D01*
X46101000Y-31877000D01*
X44957376Y-31877000D01*
X44836091Y-32099040D01*
X44930930Y-32363881D01*
X45046040Y-32555816D01*
X44851764Y-32594460D01*
X44627008Y-32687557D01*
X44538045Y-32747000D01*
X39928835Y-32747000D01*
X39878000Y-32741993D01*
X39827165Y-32747000D01*
X39827162Y-32747000D01*
X39675105Y-32761976D01*
X39480007Y-32821159D01*
X39396309Y-32865896D01*
X39300202Y-32917266D01*
X39205809Y-32994733D01*
X39142604Y-33046604D01*
X39110197Y-33086092D01*
X36828703Y-35367586D01*
X36723764Y-35388460D01*
X36499008Y-35481557D01*
X36296733Y-35616713D01*
X36124713Y-35788733D01*
X35989557Y-35991008D01*
X35896460Y-36215764D01*
X35849000Y-36454363D01*
X26870817Y-36454363D01*
X27000992Y-36400443D01*
X27089955Y-36341000D01*
X32207172Y-36341000D01*
X32258000Y-36346006D01*
X32308828Y-36341000D01*
X32308838Y-36341000D01*
X32460895Y-36326024D01*
X32655993Y-36266841D01*
X32835797Y-36170734D01*
X32993396Y-36041396D01*
X33025807Y-36001903D01*
X34037297Y-34990414D01*
X34142236Y-34969540D01*
X34366992Y-34876443D01*
X34569267Y-34741287D01*
X34741287Y-34569267D01*
X34876443Y-34366992D01*
X34969540Y-34142236D01*
X35017000Y-33903637D01*
X35017000Y-33660363D01*
X34969540Y-33421764D01*
X34876443Y-33197008D01*
X34742044Y-32995867D01*
X34773420Y-32981037D01*
X34999414Y-32813519D01*
X35147769Y-32649920D01*
X35150188Y-32674482D01*
X35186498Y-32794180D01*
X35245463Y-32904494D01*
X35324815Y-33001185D01*
X35421506Y-33080537D01*
X35531820Y-33139502D01*
X35651518Y-33175812D01*
X35776000Y-33188072D01*
X37376000Y-33188072D01*
X37500482Y-33175812D01*
X37620180Y-33139502D01*
X37730494Y-33080537D01*
X37827185Y-33001185D01*
X37906537Y-32904494D01*
X37965502Y-32794180D01*
X38001812Y-32674482D01*
X38014072Y-32550000D01*
X38014072Y-31400960D01*
X44836091Y-31400960D01*
X44957376Y-31623000D01*
X46101000Y-31623000D01*
X46101000Y-30480085D01*
X45878961Y-30358096D01*
X45744913Y-30398754D01*
X45490580Y-30518963D01*
X45264586Y-30686481D01*
X45075615Y-30894869D01*
X44930930Y-31136119D01*
X44836091Y-31400960D01*
X38014072Y-31400960D01*
X38014072Y-30950000D01*
X38001812Y-30825518D01*
X37965502Y-30705820D01*
X37906537Y-30595506D01*
X37827185Y-30498815D01*
X37730494Y-30419463D01*
X37620180Y-30360498D01*
X37500482Y-30324188D01*
X37376000Y-30311928D01*
X35776000Y-30311928D01*
X35651518Y-30324188D01*
X35531820Y-30360498D01*
X35421506Y-30419463D01*
X35324815Y-30498815D01*
X35245463Y-30595506D01*
X35186498Y-30705820D01*
X35150188Y-30825518D01*
X35147769Y-30850080D01*
X34999414Y-30686481D01*
X34773420Y-30518963D01*
X34519087Y-30398754D01*
X34385039Y-30358096D01*
X34163000Y-30480085D01*
X34163000Y-31623000D01*
X34183000Y-31623000D01*
X34183000Y-31877000D01*
X34163000Y-31877000D01*
X34163000Y-31897000D01*
X33909000Y-31897000D01*
X33909000Y-31877000D01*
X32765376Y-31877000D01*
X32644091Y-32099040D01*
X32738930Y-32363881D01*
X32883615Y-32605131D01*
X33048403Y-32786852D01*
X32994733Y-32822713D01*
X32822713Y-32994733D01*
X32687557Y-33197008D01*
X32594460Y-33421764D01*
X32573586Y-33526703D01*
X31829290Y-34271000D01*
X27089955Y-34271000D01*
X27000992Y-34211557D01*
X26776236Y-34118460D01*
X26537637Y-34071000D01*
X26294363Y-34071000D01*
X26055764Y-34118460D01*
X25831008Y-34211557D01*
X25628733Y-34346713D01*
X25456713Y-34518733D01*
X25321557Y-34721008D01*
X25228460Y-34945764D01*
X25219000Y-34993323D01*
X25219000Y-34562199D01*
X25362505Y-34466312D01*
X25576312Y-34252505D01*
X25744299Y-34001095D01*
X25860011Y-33721743D01*
X25919000Y-33425184D01*
X25919000Y-33122816D01*
X25860011Y-32826257D01*
X25744299Y-32546905D01*
X25576312Y-32295495D01*
X25362505Y-32081688D01*
X25111095Y-31913701D01*
X24831743Y-31797989D01*
X24535184Y-31739000D01*
X24232816Y-31739000D01*
X23936257Y-31797989D01*
X23656905Y-31913701D01*
X23405495Y-32081688D01*
X23339056Y-32148127D01*
X23333502Y-32129820D01*
X23274537Y-32019506D01*
X23195185Y-31922815D01*
X23098494Y-31843463D01*
X22988180Y-31784498D01*
X22868482Y-31748188D01*
X22744000Y-31735928D01*
X20944000Y-31735928D01*
X20819518Y-31748188D01*
X20699820Y-31784498D01*
X20660000Y-31805783D01*
X20660000Y-31400960D01*
X32644091Y-31400960D01*
X32765376Y-31623000D01*
X33909000Y-31623000D01*
X33909000Y-30480085D01*
X33686961Y-30358096D01*
X33552913Y-30398754D01*
X33298580Y-30518963D01*
X33072586Y-30686481D01*
X32883615Y-30894869D01*
X32738930Y-31136119D01*
X32644091Y-31400960D01*
X20660000Y-31400960D01*
X20660000Y-29622960D01*
X57028091Y-29622960D01*
X57149376Y-29845000D01*
X58293000Y-29845000D01*
X58293000Y-28702085D01*
X58547000Y-28702085D01*
X58547000Y-29845000D01*
X58567000Y-29845000D01*
X58567000Y-30099000D01*
X58547000Y-30099000D01*
X58547000Y-31241915D01*
X58769039Y-31363904D01*
X58903087Y-31323246D01*
X59157420Y-31203037D01*
X59383414Y-31035519D01*
X59531769Y-30871920D01*
X59534188Y-30896482D01*
X59570498Y-31016180D01*
X59629463Y-31126494D01*
X59708815Y-31223185D01*
X59805506Y-31302537D01*
X59915820Y-31361502D01*
X60035518Y-31397812D01*
X60160000Y-31410072D01*
X61760000Y-31410072D01*
X61884482Y-31397812D01*
X62004180Y-31361502D01*
X62114494Y-31302537D01*
X62211185Y-31223185D01*
X62290537Y-31126494D01*
X62349502Y-31016180D01*
X62385812Y-30896482D01*
X62398072Y-30772000D01*
X62398072Y-29622960D01*
X69728091Y-29622960D01*
X69849376Y-29845000D01*
X70993000Y-29845000D01*
X70993000Y-28702085D01*
X70770961Y-28580096D01*
X70636913Y-28620754D01*
X70382580Y-28740963D01*
X70156586Y-28908481D01*
X69967615Y-29116869D01*
X69822930Y-29358119D01*
X69728091Y-29622960D01*
X62398072Y-29622960D01*
X62398072Y-29172000D01*
X62385812Y-29047518D01*
X62349502Y-28927820D01*
X62290537Y-28817506D01*
X62211185Y-28720815D01*
X62114494Y-28641463D01*
X62004180Y-28582498D01*
X61884482Y-28546188D01*
X61760000Y-28533928D01*
X60160000Y-28533928D01*
X60035518Y-28546188D01*
X59915820Y-28582498D01*
X59805506Y-28641463D01*
X59708815Y-28720815D01*
X59629463Y-28817506D01*
X59570498Y-28927820D01*
X59534188Y-29047518D01*
X59531769Y-29072080D01*
X59383414Y-28908481D01*
X59157420Y-28740963D01*
X58903087Y-28620754D01*
X58769039Y-28580096D01*
X58547000Y-28702085D01*
X58293000Y-28702085D01*
X58070961Y-28580096D01*
X57936913Y-28620754D01*
X57682580Y-28740963D01*
X57456586Y-28908481D01*
X57267615Y-29116869D01*
X57122930Y-29358119D01*
X57028091Y-29622960D01*
X20660000Y-29622960D01*
X20660000Y-25755249D01*
X23515000Y-25755249D01*
X23515000Y-26244751D01*
X23610497Y-26724848D01*
X23797821Y-27177089D01*
X24069774Y-27584095D01*
X24415905Y-27930226D01*
X24822911Y-28202179D01*
X25275152Y-28389503D01*
X25755249Y-28485000D01*
X26244751Y-28485000D01*
X26724848Y-28389503D01*
X27177089Y-28202179D01*
X27584095Y-27930226D01*
X27930226Y-27584095D01*
X28202179Y-27177089D01*
X28389503Y-26724848D01*
X28485000Y-26244751D01*
X28485000Y-25755249D01*
X28389503Y-25275152D01*
X28202179Y-24822911D01*
X27930226Y-24415905D01*
X27688042Y-24173721D01*
X33679000Y-24173721D01*
X33679000Y-24594279D01*
X33761047Y-25006756D01*
X33921988Y-25395302D01*
X34155637Y-25744983D01*
X34453017Y-26042363D01*
X34802698Y-26276012D01*
X35191244Y-26436953D01*
X35603721Y-26519000D01*
X36024279Y-26519000D01*
X36436756Y-26436953D01*
X36825302Y-26276012D01*
X37174983Y-26042363D01*
X37472363Y-25744983D01*
X37706012Y-25395302D01*
X37866953Y-25006756D01*
X37949000Y-24594279D01*
X37949000Y-24173721D01*
X38759000Y-24173721D01*
X38759000Y-24594279D01*
X38841047Y-25006756D01*
X39001988Y-25395302D01*
X39235637Y-25744983D01*
X39533017Y-26042363D01*
X39882698Y-26276012D01*
X40271244Y-26436953D01*
X40683721Y-26519000D01*
X41104279Y-26519000D01*
X41516756Y-26436953D01*
X41905302Y-26276012D01*
X42254983Y-26042363D01*
X42552363Y-25744983D01*
X42786012Y-25395302D01*
X42946953Y-25006756D01*
X43029000Y-24594279D01*
X43029000Y-24173721D01*
X42946953Y-23761244D01*
X42786012Y-23372698D01*
X42552363Y-23023017D01*
X42413346Y-22884000D01*
X43835928Y-22884000D01*
X43835928Y-25884000D01*
X43848188Y-26008482D01*
X43884498Y-26128180D01*
X43943463Y-26238494D01*
X44022815Y-26335185D01*
X44119506Y-26414537D01*
X44229820Y-26473502D01*
X44349518Y-26509812D01*
X44474000Y-26522072D01*
X47474000Y-26522072D01*
X47598482Y-26509812D01*
X47718180Y-26473502D01*
X47828494Y-26414537D01*
X47925185Y-26335185D01*
X48004537Y-26238494D01*
X48063502Y-26128180D01*
X48099812Y-26008482D01*
X48112072Y-25884000D01*
X48112072Y-24173721D01*
X50951000Y-24173721D01*
X50951000Y-24594279D01*
X51033047Y-25006756D01*
X51193988Y-25395302D01*
X51427637Y-25744983D01*
X51725017Y-26042363D01*
X52074698Y-26276012D01*
X52463244Y-26436953D01*
X52875721Y-26519000D01*
X53296279Y-26519000D01*
X53708756Y-26436953D01*
X54097302Y-26276012D01*
X54446983Y-26042363D01*
X54744363Y-25744983D01*
X54978012Y-25395302D01*
X55138953Y-25006756D01*
X55221000Y-24594279D01*
X55221000Y-24173721D01*
X56031000Y-24173721D01*
X56031000Y-24594279D01*
X56113047Y-25006756D01*
X56273988Y-25395302D01*
X56507637Y-25744983D01*
X56805017Y-26042363D01*
X57154698Y-26276012D01*
X57543244Y-26436953D01*
X57955721Y-26519000D01*
X58376279Y-26519000D01*
X58788756Y-26436953D01*
X59177302Y-26276012D01*
X59526983Y-26042363D01*
X59824363Y-25744983D01*
X60058012Y-25395302D01*
X60218953Y-25006756D01*
X60301000Y-24594279D01*
X60301000Y-24173721D01*
X60218953Y-23761244D01*
X60058012Y-23372698D01*
X59824363Y-23023017D01*
X59685346Y-22884000D01*
X61107928Y-22884000D01*
X61107928Y-25884000D01*
X61120188Y-26008482D01*
X61156498Y-26128180D01*
X61215463Y-26238494D01*
X61294815Y-26335185D01*
X61391506Y-26414537D01*
X61501820Y-26473502D01*
X61621518Y-26509812D01*
X61746000Y-26522072D01*
X64746000Y-26522072D01*
X64870482Y-26509812D01*
X64990180Y-26473502D01*
X65100494Y-26414537D01*
X65197185Y-26335185D01*
X65276537Y-26238494D01*
X65335502Y-26128180D01*
X65371812Y-26008482D01*
X65384072Y-25884000D01*
X65384072Y-23919721D01*
X76605000Y-23919721D01*
X76605000Y-24340279D01*
X76687047Y-24752756D01*
X76847988Y-25141302D01*
X77081637Y-25490983D01*
X77379017Y-25788363D01*
X77728698Y-26022012D01*
X78117244Y-26182953D01*
X78529721Y-26265000D01*
X78950279Y-26265000D01*
X79362756Y-26182953D01*
X79751302Y-26022012D01*
X80100983Y-25788363D01*
X80398363Y-25490983D01*
X80632012Y-25141302D01*
X80792953Y-24752756D01*
X80875000Y-24340279D01*
X80875000Y-23919721D01*
X80792953Y-23507244D01*
X80632012Y-23118698D01*
X80398363Y-22769017D01*
X80259346Y-22630000D01*
X81681928Y-22630000D01*
X81681928Y-25630000D01*
X81694188Y-25754482D01*
X81730498Y-25874180D01*
X81789463Y-25984494D01*
X81868815Y-26081185D01*
X81965506Y-26160537D01*
X82075820Y-26219502D01*
X82195518Y-26255812D01*
X82320000Y-26268072D01*
X85320000Y-26268072D01*
X85444482Y-26255812D01*
X85564180Y-26219502D01*
X85674494Y-26160537D01*
X85771185Y-26081185D01*
X85850537Y-25984494D01*
X85909502Y-25874180D01*
X85945579Y-25755249D01*
X91515000Y-25755249D01*
X91515000Y-26244751D01*
X91610497Y-26724848D01*
X91797821Y-27177089D01*
X92069774Y-27584095D01*
X92415905Y-27930226D01*
X92822911Y-28202179D01*
X93275152Y-28389503D01*
X93755249Y-28485000D01*
X94244751Y-28485000D01*
X94724848Y-28389503D01*
X95177089Y-28202179D01*
X95584095Y-27930226D01*
X95930226Y-27584095D01*
X96202179Y-27177089D01*
X96389503Y-26724848D01*
X96485000Y-26244751D01*
X96485000Y-25755249D01*
X96389503Y-25275152D01*
X96202179Y-24822911D01*
X95930226Y-24415905D01*
X95584095Y-24069774D01*
X95177089Y-23797821D01*
X94724848Y-23610497D01*
X94244751Y-23515000D01*
X93755249Y-23515000D01*
X93275152Y-23610497D01*
X92822911Y-23797821D01*
X92415905Y-24069774D01*
X92069774Y-24415905D01*
X91797821Y-24822911D01*
X91610497Y-25275152D01*
X91515000Y-25755249D01*
X85945579Y-25755249D01*
X85945812Y-25754482D01*
X85958072Y-25630000D01*
X85958072Y-22630000D01*
X85945812Y-22505518D01*
X85909502Y-22385820D01*
X85850537Y-22275506D01*
X85771185Y-22178815D01*
X85674494Y-22099463D01*
X85564180Y-22040498D01*
X85444482Y-22004188D01*
X85320000Y-21991928D01*
X82320000Y-21991928D01*
X82195518Y-22004188D01*
X82075820Y-22040498D01*
X81965506Y-22099463D01*
X81868815Y-22178815D01*
X81789463Y-22275506D01*
X81730498Y-22385820D01*
X81694188Y-22505518D01*
X81681928Y-22630000D01*
X80259346Y-22630000D01*
X80100983Y-22471637D01*
X79751302Y-22237988D01*
X79362756Y-22077047D01*
X78950279Y-21995000D01*
X78529721Y-21995000D01*
X78117244Y-22077047D01*
X77728698Y-22237988D01*
X77379017Y-22471637D01*
X77081637Y-22769017D01*
X76847988Y-23118698D01*
X76687047Y-23507244D01*
X76605000Y-23919721D01*
X65384072Y-23919721D01*
X65384072Y-22884000D01*
X65371812Y-22759518D01*
X65335502Y-22639820D01*
X65276537Y-22529506D01*
X65197185Y-22432815D01*
X65100494Y-22353463D01*
X64990180Y-22294498D01*
X64870482Y-22258188D01*
X64746000Y-22245928D01*
X61746000Y-22245928D01*
X61621518Y-22258188D01*
X61501820Y-22294498D01*
X61391506Y-22353463D01*
X61294815Y-22432815D01*
X61215463Y-22529506D01*
X61156498Y-22639820D01*
X61120188Y-22759518D01*
X61107928Y-22884000D01*
X59685346Y-22884000D01*
X59526983Y-22725637D01*
X59177302Y-22491988D01*
X58788756Y-22331047D01*
X58376279Y-22249000D01*
X57955721Y-22249000D01*
X57543244Y-22331047D01*
X57154698Y-22491988D01*
X56805017Y-22725637D01*
X56507637Y-23023017D01*
X56273988Y-23372698D01*
X56113047Y-23761244D01*
X56031000Y-24173721D01*
X55221000Y-24173721D01*
X55138953Y-23761244D01*
X54978012Y-23372698D01*
X54744363Y-23023017D01*
X54446983Y-22725637D01*
X54097302Y-22491988D01*
X53708756Y-22331047D01*
X53296279Y-22249000D01*
X52875721Y-22249000D01*
X52463244Y-22331047D01*
X52074698Y-22491988D01*
X51725017Y-22725637D01*
X51427637Y-23023017D01*
X51193988Y-23372698D01*
X51033047Y-23761244D01*
X50951000Y-24173721D01*
X48112072Y-24173721D01*
X48112072Y-22884000D01*
X48099812Y-22759518D01*
X48063502Y-22639820D01*
X48004537Y-22529506D01*
X47925185Y-22432815D01*
X47828494Y-22353463D01*
X47718180Y-22294498D01*
X47598482Y-22258188D01*
X47474000Y-22245928D01*
X44474000Y-22245928D01*
X44349518Y-22258188D01*
X44229820Y-22294498D01*
X44119506Y-22353463D01*
X44022815Y-22432815D01*
X43943463Y-22529506D01*
X43884498Y-22639820D01*
X43848188Y-22759518D01*
X43835928Y-22884000D01*
X42413346Y-22884000D01*
X42254983Y-22725637D01*
X41905302Y-22491988D01*
X41516756Y-22331047D01*
X41104279Y-22249000D01*
X40683721Y-22249000D01*
X40271244Y-22331047D01*
X39882698Y-22491988D01*
X39533017Y-22725637D01*
X39235637Y-23023017D01*
X39001988Y-23372698D01*
X38841047Y-23761244D01*
X38759000Y-24173721D01*
X37949000Y-24173721D01*
X37866953Y-23761244D01*
X37706012Y-23372698D01*
X37472363Y-23023017D01*
X37174983Y-22725637D01*
X36825302Y-22491988D01*
X36436756Y-22331047D01*
X36024279Y-22249000D01*
X35603721Y-22249000D01*
X35191244Y-22331047D01*
X34802698Y-22491988D01*
X34453017Y-22725637D01*
X34155637Y-23023017D01*
X33921988Y-23372698D01*
X33761047Y-23761244D01*
X33679000Y-24173721D01*
X27688042Y-24173721D01*
X27584095Y-24069774D01*
X27177089Y-23797821D01*
X26724848Y-23610497D01*
X26244751Y-23515000D01*
X25755249Y-23515000D01*
X25275152Y-23610497D01*
X24822911Y-23797821D01*
X24415905Y-24069774D01*
X24069774Y-24415905D01*
X23797821Y-24822911D01*
X23610497Y-25275152D01*
X23515000Y-25755249D01*
X20660000Y-25755249D01*
X20660000Y-20660000D01*
X99340000Y-20660000D01*
X99340001Y-69923000D01*
X99340001Y-69923000D01*
G37*
X99340001Y-69923000D02*
X76951647Y-69923000D01*
X76948999Y-68972000D01*
X77963928Y-68972000D01*
X77976188Y-69096482D01*
X78012498Y-69216180D01*
X78071463Y-69326494D01*
X78150815Y-69423185D01*
X78247506Y-69502537D01*
X78357820Y-69561502D01*
X78477518Y-69597812D01*
X78602000Y-69610072D01*
X79216250Y-69607000D01*
X79375000Y-69448250D01*
X79375000Y-68199000D01*
X79629000Y-68199000D01*
X79629000Y-69448250D01*
X79787750Y-69607000D01*
X80402000Y-69610072D01*
X80526482Y-69597812D01*
X80646180Y-69561502D01*
X80756494Y-69502537D01*
X80853185Y-69423185D01*
X80932537Y-69326494D01*
X80991502Y-69216180D01*
X81027812Y-69096482D01*
X81040072Y-68972000D01*
X82789928Y-68972000D01*
X82802188Y-69096482D01*
X82838498Y-69216180D01*
X82897463Y-69326494D01*
X82976815Y-69423185D01*
X83073506Y-69502537D01*
X83183820Y-69561502D01*
X83303518Y-69597812D01*
X83428000Y-69610072D01*
X84042250Y-69607000D01*
X84201000Y-69448250D01*
X84201000Y-68199000D01*
X84455000Y-68199000D01*
X84455000Y-69448250D01*
X84613750Y-69607000D01*
X85228000Y-69610072D01*
X85352482Y-69597812D01*
X85472180Y-69561502D01*
X85582494Y-69502537D01*
X85679185Y-69423185D01*
X85758537Y-69326494D01*
X85817502Y-69216180D01*
X85853812Y-69096482D01*
X85866072Y-68972000D01*
X85863000Y-68357750D01*
X85704250Y-68199000D01*
X84455000Y-68199000D01*
X84201000Y-68199000D01*
X82951750Y-68199000D01*
X82793000Y-68357750D01*
X82789928Y-68972000D01*
X81040072Y-68972000D01*
X81037000Y-68357750D01*
X80878250Y-68199000D01*
X79629000Y-68199000D01*
X79375000Y-68199000D01*
X78125750Y-68199000D01*
X77967000Y-68357750D01*
X77963928Y-68972000D01*
X76948999Y-68972000D01*
X76932341Y-62992000D01*
X77959573Y-62992000D01*
X77989210Y-63292913D01*
X78076983Y-63582261D01*
X78219519Y-63848927D01*
X78411339Y-64082661D01*
X78629865Y-64262000D01*
X78411339Y-64441339D01*
X78219519Y-64675073D01*
X78076983Y-64941739D01*
X77989210Y-65231087D01*
X77959573Y-65532000D01*
X77989210Y-65832913D01*
X78076983Y-66122261D01*
X78219519Y-66388927D01*
X78374280Y-66577505D01*
X78357820Y-66582498D01*
X78247506Y-66641463D01*
X78150815Y-66720815D01*
X78071463Y-66817506D01*
X78012498Y-66927820D01*
X77976188Y-67047518D01*
X77963928Y-67172000D01*
X77967000Y-67786250D01*
X78125750Y-67945000D01*
X79375000Y-67945000D01*
X79375000Y-67925000D01*
X79629000Y-67925000D01*
X79629000Y-67945000D01*
X80878250Y-67945000D01*
X81037000Y-67786250D01*
X81040072Y-67172000D01*
X81027812Y-67047518D01*
X80991502Y-66927820D01*
X80932537Y-66817506D01*
X80853185Y-66720815D01*
X80756494Y-66641463D01*
X80646180Y-66582498D01*
X80629720Y-66577505D01*
X80784481Y-66388927D01*
X80927017Y-66122261D01*
X81014790Y-65832913D01*
X81044427Y-65532000D01*
X81014790Y-65231087D01*
X80927017Y-64941739D01*
X80784481Y-64675073D01*
X80592661Y-64441339D01*
X80374135Y-64262000D01*
X80592661Y-64082661D01*
X80784481Y-63848927D01*
X80927017Y-63582261D01*
X81014790Y-63292913D01*
X81044427Y-62992000D01*
X82785573Y-62992000D01*
X82815210Y-63292913D01*
X82902983Y-63582261D01*
X83045519Y-63848927D01*
X83237339Y-64082661D01*
X83455865Y-64262000D01*
X83237339Y-64441339D01*
X83045519Y-64675073D01*
X82902983Y-64941739D01*
X82815210Y-65231087D01*
X82785573Y-65532000D01*
X82815210Y-65832913D01*
X82902983Y-66122261D01*
X83045519Y-66388927D01*
X83200280Y-66577505D01*
X83183820Y-66582498D01*
X83073506Y-66641463D01*
X82976815Y-66720815D01*
X82897463Y-66817506D01*
X82838498Y-66927820D01*
X82802188Y-67047518D01*
X82789928Y-67172000D01*
X82793000Y-67786250D01*
X82951750Y-67945000D01*
X84201000Y-67945000D01*
X84201000Y-67925000D01*
X84455000Y-67925000D01*
X84455000Y-67945000D01*
X85704250Y-67945000D01*
X85863000Y-67786250D01*
X85866072Y-67172000D01*
X85853812Y-67047518D01*
X85817502Y-66927820D01*
X85758537Y-66817506D01*
X85679185Y-66720815D01*
X85582494Y-66641463D01*
X85472180Y-66582498D01*
X85455720Y-66577505D01*
X85610481Y-66388927D01*
X85753017Y-66122261D01*
X85840790Y-65832913D01*
X85870427Y-65532000D01*
X85840790Y-65231087D01*
X85753017Y-64941739D01*
X85610481Y-64675073D01*
X85418661Y-64441339D01*
X85200135Y-64262000D01*
X85418661Y-64082661D01*
X85610481Y-63848927D01*
X85753017Y-63582261D01*
X85840790Y-63292913D01*
X85870427Y-62992000D01*
X85840790Y-62691087D01*
X85753017Y-62401739D01*
X85610481Y-62135073D01*
X85418661Y-61901339D01*
X85184927Y-61709519D01*
X84918261Y-61566983D01*
X84628913Y-61479210D01*
X84403408Y-61457000D01*
X84252592Y-61457000D01*
X84027087Y-61479210D01*
X83737739Y-61566983D01*
X83471073Y-61709519D01*
X83237339Y-61901339D01*
X83045519Y-62135073D01*
X82902983Y-62401739D01*
X82815210Y-62691087D01*
X82785573Y-62992000D01*
X81044427Y-62992000D01*
X81014790Y-62691087D01*
X80927017Y-62401739D01*
X80784481Y-62135073D01*
X80592661Y-61901339D01*
X80358927Y-61709519D01*
X80092261Y-61566983D01*
X79802913Y-61479210D01*
X79577408Y-61457000D01*
X79426592Y-61457000D01*
X79201087Y-61479210D01*
X78911739Y-61566983D01*
X78645073Y-61709519D01*
X78411339Y-61901339D01*
X78219519Y-62135073D01*
X78076983Y-62401739D01*
X77989210Y-62691087D01*
X77959573Y-62992000D01*
X76932341Y-62992000D01*
X76927000Y-61074646D01*
X76924490Y-61049877D01*
X76917197Y-61026073D01*
X76905400Y-61004149D01*
X76889552Y-60984948D01*
X76870263Y-60969207D01*
X76848274Y-60957532D01*
X76824429Y-60950372D01*
X76800616Y-60948001D01*
X56461000Y-60849385D01*
X56461000Y-60249021D01*
X56465040Y-60208002D01*
X56448918Y-60044314D01*
X56401172Y-59886916D01*
X56323636Y-59741857D01*
X56322427Y-59740384D01*
X56357154Y-59750918D01*
X56479824Y-59763000D01*
X56479834Y-59763000D01*
X56520842Y-59767039D01*
X56561850Y-59763000D01*
X80368446Y-59763000D01*
X80492733Y-59887287D01*
X80695008Y-60022443D01*
X80919764Y-60115540D01*
X81158363Y-60163000D01*
X81401637Y-60163000D01*
X81640236Y-60115540D01*
X81864992Y-60022443D01*
X82067267Y-59887287D01*
X82239287Y-59715267D01*
X82374443Y-59512992D01*
X82467540Y-59288236D01*
X82515000Y-59049637D01*
X82515000Y-58806363D01*
X82467540Y-58567764D01*
X82374443Y-58343008D01*
X82327672Y-58273010D01*
X86810143Y-58273010D01*
X87157000Y-58619868D01*
X87157000Y-58795637D01*
X87204460Y-59034236D01*
X87297557Y-59258992D01*
X87432713Y-59461267D01*
X87604733Y-59633287D01*
X87807008Y-59768443D01*
X88031764Y-59861540D01*
X88270363Y-59909000D01*
X88513637Y-59909000D01*
X88752236Y-59861540D01*
X88976992Y-59768443D01*
X89179267Y-59633287D01*
X89351287Y-59461267D01*
X89473392Y-59278524D01*
X89634886Y-59440018D01*
X89664745Y-59538449D01*
X89812155Y-59814235D01*
X90010537Y-60055963D01*
X90252265Y-60254345D01*
X90528051Y-60401755D01*
X90827296Y-60492530D01*
X91060514Y-60515500D01*
X91311486Y-60515500D01*
X91544704Y-60492530D01*
X91843949Y-60401755D01*
X92119735Y-60254345D01*
X92352888Y-60063000D01*
X93255869Y-60063000D01*
X96135017Y-62942149D01*
X96187557Y-63068992D01*
X96322713Y-63271267D01*
X96494733Y-63443287D01*
X96697008Y-63578443D01*
X96921764Y-63671540D01*
X97160363Y-63719000D01*
X97403637Y-63719000D01*
X97642236Y-63671540D01*
X97866992Y-63578443D01*
X98069267Y-63443287D01*
X98241287Y-63271267D01*
X98376443Y-63068992D01*
X98469540Y-62844236D01*
X98517000Y-62605637D01*
X98517000Y-62362363D01*
X98469540Y-62123764D01*
X98376443Y-61899008D01*
X98241287Y-61696733D01*
X98069267Y-61524713D01*
X97866992Y-61389557D01*
X97740149Y-61337017D01*
X94567996Y-58164865D01*
X94532449Y-58121551D01*
X94359623Y-57979716D01*
X94162447Y-57874324D01*
X93948499Y-57809423D01*
X93781752Y-57793000D01*
X93781751Y-57793000D01*
X93726000Y-57787509D01*
X93670249Y-57793000D01*
X92352888Y-57793000D01*
X92182101Y-57652837D01*
X92367315Y-57497437D01*
X92561969Y-57254923D01*
X92705571Y-56979094D01*
X92776563Y-56760980D01*
X92656594Y-56515000D01*
X91313000Y-56515000D01*
X91313000Y-56535000D01*
X91059000Y-56535000D01*
X91059000Y-56515000D01*
X91039000Y-56515000D01*
X91039000Y-56261000D01*
X91059000Y-56261000D01*
X91059000Y-56241000D01*
X91313000Y-56241000D01*
X91313000Y-56261000D01*
X92656594Y-56261000D01*
X92776563Y-56015020D01*
X92705571Y-55796906D01*
X92561969Y-55521077D01*
X92448781Y-55380059D01*
X92540494Y-55331037D01*
X92637185Y-55251685D01*
X92716537Y-55154994D01*
X92775502Y-55044680D01*
X92811812Y-54924982D01*
X92824072Y-54800500D01*
X92824072Y-52895500D01*
X92811812Y-52771018D01*
X92775502Y-52651320D01*
X92716537Y-52541006D01*
X92637185Y-52444315D01*
X92540494Y-52364963D01*
X92430180Y-52305998D01*
X92310482Y-52269688D01*
X92186000Y-52257428D01*
X90186000Y-52257428D01*
X90061518Y-52269688D01*
X89941820Y-52305998D01*
X89831506Y-52364963D01*
X89734815Y-52444315D01*
X89655463Y-52541006D01*
X89596498Y-52651320D01*
X89560188Y-52771018D01*
X89547928Y-52895500D01*
X89547928Y-54800500D01*
X89560188Y-54924982D01*
X89596498Y-55044680D01*
X89655463Y-55154994D01*
X89734815Y-55251685D01*
X89831506Y-55331037D01*
X89923219Y-55380059D01*
X89810031Y-55521077D01*
X89666429Y-55796906D01*
X89595437Y-56015020D01*
X89715405Y-56260998D01*
X89666130Y-56260998D01*
X83556165Y-50151034D01*
X83594180Y-50139502D01*
X83704494Y-50080537D01*
X83801185Y-50001185D01*
X83880537Y-49904494D01*
X83939502Y-49794180D01*
X83972496Y-49685413D01*
X86394192Y-49685413D01*
X86489956Y-49949814D01*
X86779571Y-50090704D01*
X87091108Y-50172384D01*
X87412595Y-50191718D01*
X87731675Y-50147961D01*
X88036088Y-50042795D01*
X88210044Y-49949814D01*
X88305808Y-49685413D01*
X87350000Y-48729605D01*
X86394192Y-49685413D01*
X83972496Y-49685413D01*
X83975812Y-49674482D01*
X83988072Y-49550000D01*
X83988072Y-48612595D01*
X85708282Y-48612595D01*
X85752039Y-48931675D01*
X85857205Y-49236088D01*
X85950186Y-49410044D01*
X86214587Y-49505808D01*
X87170395Y-48550000D01*
X87529605Y-48550000D01*
X88485413Y-49505808D01*
X88749814Y-49410044D01*
X88890704Y-49120429D01*
X88972384Y-48808892D01*
X88991718Y-48487405D01*
X88947961Y-48168325D01*
X88842795Y-47863912D01*
X88749814Y-47689956D01*
X88485413Y-47594192D01*
X87529605Y-48550000D01*
X87170395Y-48550000D01*
X86214587Y-47594192D01*
X85950186Y-47689956D01*
X85809296Y-47979571D01*
X85727616Y-48291108D01*
X85708282Y-48612595D01*
X83988072Y-48612595D01*
X83988072Y-47550000D01*
X83975812Y-47425518D01*
X83972497Y-47414587D01*
X86394192Y-47414587D01*
X87350000Y-48370395D01*
X88305808Y-47414587D01*
X88210044Y-47150186D01*
X87920429Y-47009296D01*
X87608892Y-46927616D01*
X87287405Y-46908282D01*
X86968325Y-46952039D01*
X86663912Y-47057205D01*
X86489956Y-47150186D01*
X86394192Y-47414587D01*
X83972497Y-47414587D01*
X83939502Y-47305820D01*
X83880537Y-47195506D01*
X83801185Y-47098815D01*
X83704494Y-47019463D01*
X83594180Y-46960498D01*
X83474482Y-46924188D01*
X83350000Y-46911928D01*
X81350000Y-46911928D01*
X81225518Y-46924188D01*
X81105820Y-46960498D01*
X80995506Y-47019463D01*
X80898815Y-47098815D01*
X80819463Y-47195506D01*
X80760498Y-47305820D01*
X80724188Y-47425518D01*
X80711928Y-47550000D01*
X80711928Y-49550000D01*
X80724188Y-49674482D01*
X80760498Y-49794180D01*
X80819463Y-49904494D01*
X80898815Y-50001185D01*
X80995506Y-50080537D01*
X81105820Y-50139502D01*
X81215001Y-50172622D01*
X81215001Y-50494239D01*
X81209509Y-50550000D01*
X81231423Y-50772498D01*
X81231472Y-50772661D01*
X79163072Y-52841062D01*
X79163072Y-52150000D01*
X79150812Y-52025518D01*
X79114502Y-51905820D01*
X79055537Y-51795506D01*
X78976185Y-51698815D01*
X78879494Y-51619463D01*
X78769180Y-51560498D01*
X78700313Y-51539607D01*
X78730134Y-51515134D01*
X78915706Y-51289014D01*
X79053599Y-51031034D01*
X79138513Y-50751111D01*
X79167185Y-50460000D01*
X79138513Y-50168889D01*
X79053599Y-49888966D01*
X78915706Y-49630986D01*
X78730134Y-49404866D01*
X78504014Y-49219294D01*
X78449209Y-49190000D01*
X78504014Y-49160706D01*
X78730134Y-48975134D01*
X78915706Y-48749014D01*
X79053599Y-48491034D01*
X79138513Y-48211111D01*
X79167185Y-47920000D01*
X79138513Y-47628889D01*
X79053599Y-47348966D01*
X78915706Y-47090986D01*
X78730134Y-46864866D01*
X78504014Y-46679294D01*
X78449209Y-46650000D01*
X78504014Y-46620706D01*
X78730134Y-46435134D01*
X78915706Y-46209014D01*
X79053599Y-45951034D01*
X79138513Y-45671111D01*
X79167185Y-45380000D01*
X79138513Y-45088889D01*
X79053599Y-44808966D01*
X78915706Y-44550986D01*
X78730134Y-44324866D01*
X78504014Y-44139294D01*
X78449209Y-44110000D01*
X78504014Y-44080706D01*
X78730134Y-43895134D01*
X78915706Y-43669014D01*
X79053599Y-43411034D01*
X79138513Y-43131111D01*
X79167185Y-42840000D01*
X79138513Y-42548889D01*
X79123683Y-42500000D01*
X90061928Y-42500000D01*
X90061928Y-44500000D01*
X90074188Y-44624482D01*
X90110498Y-44744180D01*
X90169463Y-44854494D01*
X90248815Y-44951185D01*
X90345506Y-45030537D01*
X90455820Y-45089502D01*
X90575518Y-45125812D01*
X90700000Y-45138072D01*
X92700000Y-45138072D01*
X92824482Y-45125812D01*
X92944180Y-45089502D01*
X93054494Y-45030537D01*
X93151185Y-44951185D01*
X93230537Y-44854494D01*
X93289502Y-44744180D01*
X93322496Y-44635413D01*
X95744192Y-44635413D01*
X95839956Y-44899814D01*
X96129571Y-45040704D01*
X96441108Y-45122384D01*
X96762595Y-45141718D01*
X97081675Y-45097961D01*
X97386088Y-44992795D01*
X97560044Y-44899814D01*
X97655808Y-44635413D01*
X96700000Y-43679605D01*
X95744192Y-44635413D01*
X93322496Y-44635413D01*
X93325812Y-44624482D01*
X93338072Y-44500000D01*
X93338072Y-43562595D01*
X95058282Y-43562595D01*
X95102039Y-43881675D01*
X95207205Y-44186088D01*
X95300186Y-44360044D01*
X95564587Y-44455808D01*
X96520395Y-43500000D01*
X96879605Y-43500000D01*
X97835413Y-44455808D01*
X98099814Y-44360044D01*
X98240704Y-44070429D01*
X98322384Y-43758892D01*
X98341718Y-43437405D01*
X98297961Y-43118325D01*
X98192795Y-42813912D01*
X98099814Y-42639956D01*
X97835413Y-42544192D01*
X96879605Y-43500000D01*
X96520395Y-43500000D01*
X95564587Y-42544192D01*
X95300186Y-42639956D01*
X95159296Y-42929571D01*
X95077616Y-43241108D01*
X95058282Y-43562595D01*
X93338072Y-43562595D01*
X93338072Y-42500000D01*
X93325812Y-42375518D01*
X93322497Y-42364587D01*
X95744192Y-42364587D01*
X96700000Y-43320395D01*
X97655808Y-42364587D01*
X97560044Y-42100186D01*
X97270429Y-41959296D01*
X96958892Y-41877616D01*
X96637405Y-41858282D01*
X96318325Y-41902039D01*
X96013912Y-42007205D01*
X95839956Y-42100186D01*
X95744192Y-42364587D01*
X93322497Y-42364587D01*
X93289502Y-42255820D01*
X93230537Y-42145506D01*
X93151185Y-42048815D01*
X93054494Y-41969463D01*
X92944180Y-41910498D01*
X92824482Y-41874188D01*
X92700000Y-41861928D01*
X90700000Y-41861928D01*
X90575518Y-41874188D01*
X90455820Y-41910498D01*
X90345506Y-41969463D01*
X90248815Y-42048815D01*
X90169463Y-42145506D01*
X90110498Y-42255820D01*
X90074188Y-42375518D01*
X90061928Y-42500000D01*
X79123683Y-42500000D01*
X79053599Y-42268966D01*
X78915706Y-42010986D01*
X78730134Y-41784866D01*
X78504014Y-41599294D01*
X78439477Y-41564799D01*
X78556355Y-41495178D01*
X78772588Y-41300269D01*
X78946641Y-41066920D01*
X79071825Y-40804099D01*
X79116476Y-40656890D01*
X78995155Y-40427000D01*
X77802000Y-40427000D01*
X77802000Y-40447000D01*
X77548000Y-40447000D01*
X77548000Y-40427000D01*
X76354845Y-40427000D01*
X76233524Y-40656890D01*
X76278175Y-40804099D01*
X76403359Y-41066920D01*
X76577412Y-41300269D01*
X76793645Y-41495178D01*
X76910523Y-41564799D01*
X76845986Y-41599294D01*
X76619866Y-41784866D01*
X76434294Y-42010986D01*
X76296401Y-42268966D01*
X76211487Y-42548889D01*
X76182815Y-42840000D01*
X76211487Y-43131111D01*
X76296401Y-43411034D01*
X76434294Y-43669014D01*
X76619866Y-43895134D01*
X76845986Y-44080706D01*
X76900791Y-44110000D01*
X76845986Y-44139294D01*
X76619866Y-44324866D01*
X76439207Y-44545000D01*
X67887867Y-44545000D01*
X72489758Y-39943110D01*
X76233524Y-39943110D01*
X76354845Y-40173000D01*
X77548000Y-40173000D01*
X77548000Y-38979186D01*
X77802000Y-38979186D01*
X77802000Y-40173000D01*
X78995155Y-40173000D01*
X79116476Y-39943110D01*
X79071825Y-39795901D01*
X78946641Y-39533080D01*
X78772588Y-39299731D01*
X78556355Y-39104822D01*
X78306252Y-38955843D01*
X78031891Y-38858519D01*
X77802000Y-38979186D01*
X77548000Y-38979186D01*
X77318109Y-38858519D01*
X77043748Y-38955843D01*
X76793645Y-39104822D01*
X76577412Y-39299731D01*
X76403359Y-39533080D01*
X76278175Y-39795901D01*
X76233524Y-39943110D01*
X72489758Y-39943110D01*
X73422334Y-39010535D01*
X73589508Y-39027000D01*
X73730492Y-39027000D01*
X73941309Y-39006236D01*
X74211808Y-38924182D01*
X74461101Y-38790932D01*
X74679608Y-38611608D01*
X74858932Y-38393101D01*
X74992182Y-38143808D01*
X75074236Y-37873309D01*
X75101943Y-37592000D01*
X75074236Y-37310691D01*
X74992182Y-37040192D01*
X74858932Y-36790899D01*
X74679608Y-36572392D01*
X74461101Y-36393068D01*
X74211808Y-36259818D01*
X73941309Y-36177764D01*
X73730492Y-36157000D01*
X73589508Y-36157000D01*
X73378691Y-36177764D01*
X73108192Y-36259818D01*
X72858899Y-36393068D01*
X72640392Y-36572392D01*
X72461068Y-36790899D01*
X72387421Y-36928682D01*
X72272385Y-36736869D01*
X72083414Y-36528481D01*
X71857420Y-36360963D01*
X71617939Y-36247774D01*
X72559713Y-35306000D01*
X78621089Y-35306000D01*
X78652658Y-35626516D01*
X78746148Y-35934714D01*
X78854699Y-36137797D01*
X78897970Y-36218752D01*
X79102287Y-36467714D01*
X79164682Y-36518920D01*
X82974676Y-40328916D01*
X83161247Y-40482030D01*
X83445285Y-40633852D01*
X83753483Y-40727343D01*
X84074000Y-40758911D01*
X84394516Y-40727343D01*
X84702715Y-40633852D01*
X84986752Y-40482030D01*
X85235713Y-40277713D01*
X85440030Y-40028752D01*
X85591852Y-39744715D01*
X85685343Y-39436516D01*
X85716911Y-39116000D01*
X85685343Y-38795483D01*
X85591852Y-38487285D01*
X85440030Y-38203247D01*
X85286916Y-38016676D01*
X81899000Y-34628762D01*
X81899000Y-28875678D01*
X81875343Y-28635484D01*
X81781852Y-28327285D01*
X81630031Y-28043248D01*
X81425714Y-27794286D01*
X81176751Y-27589969D01*
X80892714Y-27438148D01*
X80584515Y-27344657D01*
X80264000Y-27313089D01*
X79943484Y-27344657D01*
X79635285Y-27438148D01*
X79351248Y-27589969D01*
X79102286Y-27794286D01*
X78897969Y-28043249D01*
X78746148Y-28327286D01*
X78652657Y-28635485D01*
X78629000Y-28875679D01*
X78629001Y-35225671D01*
X78621089Y-35306000D01*
X72559713Y-35306000D01*
X76261987Y-31603726D01*
X76367764Y-31647540D01*
X76606363Y-31695000D01*
X76849637Y-31695000D01*
X77088236Y-31647540D01*
X77312992Y-31554443D01*
X77515267Y-31419287D01*
X77687287Y-31247267D01*
X77822443Y-31044992D01*
X77915540Y-30820236D01*
X77963000Y-30581637D01*
X77963000Y-30338363D01*
X77915540Y-30099764D01*
X77822443Y-29875008D01*
X77687287Y-29672733D01*
X77515267Y-29500713D01*
X77312992Y-29365557D01*
X77088236Y-29272460D01*
X76849637Y-29225000D01*
X76606363Y-29225000D01*
X76367764Y-29272460D01*
X76143008Y-29365557D01*
X76054045Y-29425000D01*
X75992829Y-29425000D01*
X75942001Y-29419994D01*
X75891173Y-29425000D01*
X75891164Y-29425000D01*
X75739107Y-29439976D01*
X75544009Y-29499159D01*
X75465745Y-29540992D01*
X75364204Y-29595266D01*
X75269811Y-29672733D01*
X75206606Y-29724604D01*
X75174199Y-29764092D01*
X75098072Y-29840219D01*
X75098072Y-29172000D01*
X75085812Y-29047518D01*
X75049502Y-28927820D01*
X74990537Y-28817506D01*
X74911185Y-28720815D01*
X74814494Y-28641463D01*
X74704180Y-28582498D01*
X74584482Y-28546188D01*
X74460000Y-28533928D01*
X72860000Y-28533928D01*
X72735518Y-28546188D01*
X72615820Y-28582498D01*
X72505506Y-28641463D01*
X72408815Y-28720815D01*
X72329463Y-28817506D01*
X72270498Y-28927820D01*
X72234188Y-29047518D01*
X72231769Y-29072080D01*
X72083414Y-28908481D01*
X71857420Y-28740963D01*
X71603087Y-28620754D01*
X71469039Y-28580096D01*
X71247000Y-28702085D01*
X71247000Y-29845000D01*
X71267000Y-29845000D01*
X71267000Y-30099000D01*
X71247000Y-30099000D01*
X71247000Y-31241915D01*
X71469039Y-31363904D01*
X71603087Y-31323246D01*
X71857420Y-31203037D01*
X72083414Y-31035519D01*
X72231769Y-30871920D01*
X72234188Y-30896482D01*
X72270498Y-31016180D01*
X72329463Y-31126494D01*
X72408815Y-31223185D01*
X72505506Y-31302537D01*
X72615820Y-31361502D01*
X72735518Y-31397812D01*
X72860000Y-31410072D01*
X73528219Y-31410072D01*
X68738092Y-36200200D01*
X68698604Y-36232607D01*
X68666197Y-36272095D01*
X68666196Y-36272096D01*
X68569265Y-36390206D01*
X68550810Y-36424734D01*
X68473158Y-36570010D01*
X68413975Y-36765108D01*
X68398999Y-36917165D01*
X68398999Y-36917175D01*
X68396303Y-36944545D01*
X68249008Y-37005557D01*
X68046733Y-37140713D01*
X67874713Y-37312733D01*
X67739557Y-37515008D01*
X67646460Y-37739764D01*
X67625587Y-37844703D01*
X66373290Y-39097000D01*
X58340711Y-39097000D01*
X58172067Y-38928356D01*
X58293000Y-38861915D01*
X58293000Y-37719000D01*
X58273000Y-37719000D01*
X58273000Y-37465000D01*
X58293000Y-37465000D01*
X58293000Y-36322085D01*
X58547000Y-36322085D01*
X58547000Y-37465000D01*
X58567000Y-37465000D01*
X58567000Y-37719000D01*
X58547000Y-37719000D01*
X58547000Y-38861915D01*
X58769039Y-38983904D01*
X58903087Y-38943246D01*
X59157420Y-38823037D01*
X59383414Y-38655519D01*
X59572385Y-38447131D01*
X59687421Y-38255318D01*
X59761068Y-38393101D01*
X59940392Y-38611608D01*
X60158899Y-38790932D01*
X60408192Y-38924182D01*
X60678691Y-39006236D01*
X60889508Y-39027000D01*
X61030492Y-39027000D01*
X61241309Y-39006236D01*
X61511808Y-38924182D01*
X61761101Y-38790932D01*
X61979608Y-38611608D01*
X62158932Y-38393101D01*
X62292182Y-38143808D01*
X62374236Y-37873309D01*
X62401943Y-37592000D01*
X62374236Y-37310691D01*
X62292182Y-37040192D01*
X62158932Y-36790899D01*
X61979608Y-36572392D01*
X61761101Y-36393068D01*
X61511808Y-36259818D01*
X61241309Y-36177764D01*
X61030492Y-36157000D01*
X60889508Y-36157000D01*
X60678691Y-36177764D01*
X60408192Y-36259818D01*
X60158899Y-36393068D01*
X59940392Y-36572392D01*
X59761068Y-36790899D01*
X59687421Y-36928682D01*
X59572385Y-36736869D01*
X59383414Y-36528481D01*
X59157420Y-36360963D01*
X58903087Y-36240754D01*
X58769039Y-36200096D01*
X58547000Y-36322085D01*
X58293000Y-36322085D01*
X58070961Y-36200096D01*
X57936913Y-36240754D01*
X57682580Y-36360963D01*
X57456586Y-36528481D01*
X57267615Y-36736869D01*
X57122930Y-36978119D01*
X57028091Y-37242960D01*
X57149375Y-37464998D01*
X56991552Y-37464998D01*
X56921267Y-37394713D01*
X56718992Y-37259557D01*
X56494236Y-37166460D01*
X56255637Y-37119000D01*
X56012363Y-37119000D01*
X55773764Y-37166460D01*
X55549008Y-37259557D01*
X55346733Y-37394713D01*
X55174713Y-37566733D01*
X55039557Y-37769008D01*
X54946460Y-37993764D01*
X54925586Y-38098704D01*
X54838099Y-38186191D01*
X54838093Y-38186196D01*
X53239289Y-39785001D01*
X50141681Y-39785001D01*
X50182236Y-39651309D01*
X50209943Y-39370000D01*
X50182236Y-39088691D01*
X50100182Y-38818192D01*
X49966932Y-38568899D01*
X49787608Y-38350392D01*
X49569101Y-38171068D01*
X49319808Y-38037818D01*
X49049309Y-37955764D01*
X48838492Y-37935000D01*
X48697508Y-37935000D01*
X48486691Y-37955764D01*
X48216192Y-38037818D01*
X47966899Y-38171068D01*
X47748392Y-38350392D01*
X47569068Y-38568899D01*
X47495421Y-38706682D01*
X47380385Y-38514869D01*
X47191414Y-38306481D01*
X46965420Y-38138963D01*
X46711087Y-38018754D01*
X46577039Y-37978096D01*
X46355000Y-38100085D01*
X46355000Y-39243000D01*
X46375000Y-39243000D01*
X46375000Y-39497000D01*
X46355000Y-39497000D01*
X46355000Y-39517000D01*
X46101000Y-39517000D01*
X46101000Y-39497000D01*
X46081000Y-39497000D01*
X46081000Y-39243000D01*
X46101000Y-39243000D01*
X46101000Y-38100085D01*
X45878961Y-37978096D01*
X45744913Y-38018754D01*
X45490580Y-38138963D01*
X45264586Y-38306481D01*
X45075615Y-38514869D01*
X44930930Y-38756119D01*
X44836091Y-39020960D01*
X44841601Y-39031047D01*
X44729267Y-38918713D01*
X44526992Y-38783557D01*
X44302236Y-38690460D01*
X44063637Y-38643000D01*
X43820363Y-38643000D01*
X43581764Y-38690460D01*
X43357008Y-38783557D01*
X43154733Y-38918713D01*
X42982713Y-39090733D01*
X42847557Y-39293008D01*
X42754460Y-39517764D01*
X42733586Y-39622703D01*
X42571289Y-39785001D01*
X37949681Y-39785001D01*
X37990236Y-39651309D01*
X38017943Y-39370000D01*
X37990236Y-39088691D01*
X37908182Y-38818192D01*
X37774932Y-38568899D01*
X37595608Y-38350392D01*
X37377101Y-38171068D01*
X37127808Y-38037818D01*
X36857309Y-37955764D01*
X36646492Y-37935000D01*
X36505508Y-37935000D01*
X36294691Y-37955764D01*
X36024192Y-38037818D01*
X35774899Y-38171068D01*
X35556392Y-38350392D01*
X35377068Y-38568899D01*
X35303421Y-38706682D01*
X35188385Y-38514869D01*
X34999414Y-38306481D01*
X34773420Y-38138963D01*
X34519087Y-38018754D01*
X34385039Y-37978096D01*
X34163000Y-38100085D01*
X34163000Y-39243000D01*
X34183000Y-39243000D01*
X34183000Y-39497000D01*
X34163000Y-39497000D01*
X34163000Y-39517000D01*
X33909000Y-39517000D01*
X33909000Y-39497000D01*
X33889000Y-39497000D01*
X33889000Y-39243000D01*
X33909000Y-39243000D01*
X33909000Y-38100085D01*
X33686961Y-37978096D01*
X33552913Y-38018754D01*
X33298580Y-38138963D01*
X33072586Y-38306481D01*
X32883615Y-38514869D01*
X32738930Y-38756119D01*
X32644091Y-39020960D01*
X32649601Y-39031047D01*
X32537267Y-38918713D01*
X32334992Y-38783557D01*
X32110236Y-38690460D01*
X31871637Y-38643000D01*
X31628363Y-38643000D01*
X31389764Y-38690460D01*
X31165008Y-38783557D01*
X30962733Y-38918713D01*
X30790713Y-39090733D01*
X30655557Y-39293008D01*
X30562460Y-39517764D01*
X30515000Y-39756363D01*
X30515000Y-39999637D01*
X30562460Y-40238236D01*
X30655557Y-40462992D01*
X30790713Y-40665267D01*
X30962733Y-40837287D01*
X31165008Y-40972443D01*
X31389764Y-41065540D01*
X31494703Y-41086414D01*
X31924198Y-41515909D01*
X31956605Y-41555397D01*
X31990239Y-41583000D01*
X30317868Y-41583000D01*
X25219000Y-36484133D01*
X25219000Y-35618677D01*
X25228460Y-35666236D01*
X25321557Y-35890992D01*
X25456713Y-36093267D01*
X25628733Y-36265287D01*
X25831008Y-36400443D01*
X26055764Y-36493540D01*
X26294363Y-36541000D01*
X26537637Y-36541000D01*
X26776236Y-36493540D01*
X26870817Y-36454363D01*
X35849000Y-36454363D01*
X35849000Y-36697637D01*
X35896460Y-36936236D01*
X35989557Y-37160992D01*
X36124713Y-37363267D01*
X36296733Y-37535287D01*
X36499008Y-37670443D01*
X36723764Y-37763540D01*
X36962363Y-37811000D01*
X37205637Y-37811000D01*
X37444236Y-37763540D01*
X37668992Y-37670443D01*
X37871267Y-37535287D01*
X38043287Y-37363267D01*
X38178443Y-37160992D01*
X38271540Y-36936236D01*
X38292414Y-36831297D01*
X39685348Y-35438363D01*
X48295000Y-35438363D01*
X48295000Y-35681637D01*
X48342460Y-35920236D01*
X48435557Y-36144992D01*
X48570713Y-36347267D01*
X48742733Y-36519287D01*
X48945008Y-36654443D01*
X49169764Y-36747540D01*
X49408363Y-36795000D01*
X49651637Y-36795000D01*
X49890236Y-36747540D01*
X50114992Y-36654443D01*
X50317267Y-36519287D01*
X50489287Y-36347267D01*
X50624443Y-36144992D01*
X50717540Y-35920236D01*
X50738414Y-35815297D01*
X52385348Y-34168363D01*
X60741000Y-34168363D01*
X60741000Y-34411637D01*
X60788460Y-34650236D01*
X60881557Y-34874992D01*
X61016713Y-35077267D01*
X61188733Y-35249287D01*
X61391008Y-35384443D01*
X61615764Y-35477540D01*
X61854363Y-35525000D01*
X62097637Y-35525000D01*
X62336236Y-35477540D01*
X62560992Y-35384443D01*
X62649955Y-35325000D01*
X68529172Y-35325000D01*
X68580000Y-35330006D01*
X68630828Y-35325000D01*
X68630838Y-35325000D01*
X68782895Y-35310024D01*
X68977993Y-35250841D01*
X69157797Y-35154734D01*
X69315396Y-35025396D01*
X69347807Y-34985903D01*
X70613297Y-33720413D01*
X70718236Y-33699540D01*
X70942992Y-33606443D01*
X71145267Y-33471287D01*
X71317287Y-33299267D01*
X71452443Y-33096992D01*
X71545540Y-32872236D01*
X71593000Y-32633637D01*
X71593000Y-32390363D01*
X71545540Y-32151764D01*
X71452443Y-31927008D01*
X71317287Y-31724733D01*
X71145267Y-31552713D01*
X70942992Y-31417557D01*
X70789230Y-31353867D01*
X70993000Y-31241915D01*
X70993000Y-30099000D01*
X69849376Y-30099000D01*
X69728091Y-30321040D01*
X69822930Y-30585881D01*
X69967615Y-30827131D01*
X70156586Y-31035519D01*
X70382580Y-31203037D01*
X70582254Y-31297412D01*
X70479637Y-31277000D01*
X70236363Y-31277000D01*
X69997764Y-31324460D01*
X69773008Y-31417557D01*
X69570733Y-31552713D01*
X69398713Y-31724733D01*
X69263557Y-31927008D01*
X69170460Y-32151764D01*
X69149587Y-32256703D01*
X68151290Y-33255000D01*
X62649955Y-33255000D01*
X62560992Y-33195557D01*
X62336236Y-33102460D01*
X62097637Y-33055000D01*
X61854363Y-33055000D01*
X61615764Y-33102460D01*
X61391008Y-33195557D01*
X61188733Y-33330713D01*
X61016713Y-33502733D01*
X60881557Y-33705008D01*
X60788460Y-33929764D01*
X60741000Y-34168363D01*
X52385348Y-34168363D01*
X53006711Y-33547000D01*
X56984045Y-33547000D01*
X57073008Y-33606443D01*
X57297764Y-33699540D01*
X57536363Y-33747000D01*
X57779637Y-33747000D01*
X58018236Y-33699540D01*
X58242992Y-33606443D01*
X58445267Y-33471287D01*
X58617287Y-33299267D01*
X58752443Y-33096992D01*
X58845540Y-32872236D01*
X58893000Y-32633637D01*
X58893000Y-32390363D01*
X58845540Y-32151764D01*
X58752443Y-31927008D01*
X58617287Y-31724733D01*
X58445267Y-31552713D01*
X58242992Y-31417557D01*
X58089230Y-31353867D01*
X58293000Y-31241915D01*
X58293000Y-30099000D01*
X57149376Y-30099000D01*
X57028091Y-30321040D01*
X57122930Y-30585881D01*
X57267615Y-30827131D01*
X57456586Y-31035519D01*
X57682580Y-31203037D01*
X57882254Y-31297412D01*
X57779637Y-31277000D01*
X57536363Y-31277000D01*
X57297764Y-31324460D01*
X57073008Y-31417557D01*
X56984045Y-31477000D01*
X52628835Y-31477000D01*
X52578000Y-31471993D01*
X52527164Y-31477000D01*
X52527162Y-31477000D01*
X52375105Y-31491976D01*
X52180007Y-31551159D01*
X52096309Y-31595896D01*
X52000202Y-31647266D01*
X51905809Y-31724733D01*
X51842604Y-31776604D01*
X51810197Y-31816092D01*
X49274703Y-34351586D01*
X49169764Y-34372460D01*
X48945008Y-34465557D01*
X48742733Y-34600713D01*
X48570713Y-34772733D01*
X48435557Y-34975008D01*
X48342460Y-35199764D01*
X48295000Y-35438363D01*
X39685348Y-35438363D01*
X40306711Y-34817000D01*
X44538045Y-34817000D01*
X44627008Y-34876443D01*
X44851764Y-34969540D01*
X45090363Y-35017000D01*
X45333637Y-35017000D01*
X45572236Y-34969540D01*
X45796992Y-34876443D01*
X45999267Y-34741287D01*
X46171287Y-34569267D01*
X46306443Y-34366992D01*
X46399540Y-34142236D01*
X46447000Y-33903637D01*
X46447000Y-33660363D01*
X46399540Y-33421764D01*
X46306443Y-33197008D01*
X46298420Y-33185000D01*
X46355002Y-33185000D01*
X46355002Y-33019916D01*
X46577039Y-33141904D01*
X46711087Y-33101246D01*
X46965420Y-32981037D01*
X47191414Y-32813519D01*
X47339769Y-32649920D01*
X47342188Y-32674482D01*
X47378498Y-32794180D01*
X47437463Y-32904494D01*
X47516815Y-33001185D01*
X47613506Y-33080537D01*
X47723820Y-33139502D01*
X47843518Y-33175812D01*
X47968000Y-33188072D01*
X49568000Y-33188072D01*
X49692482Y-33175812D01*
X49812180Y-33139502D01*
X49922494Y-33080537D01*
X50019185Y-33001185D01*
X50098537Y-32904494D01*
X50157502Y-32794180D01*
X50193812Y-32674482D01*
X50206072Y-32550000D01*
X50206072Y-30950000D01*
X50193812Y-30825518D01*
X50157502Y-30705820D01*
X50098537Y-30595506D01*
X50019185Y-30498815D01*
X49922494Y-30419463D01*
X49812180Y-30360498D01*
X49692482Y-30324188D01*
X49568000Y-30311928D01*
X47968000Y-30311928D01*
X47843518Y-30324188D01*
X47723820Y-30360498D01*
X47613506Y-30419463D01*
X47516815Y-30498815D01*
X47437463Y-30595506D01*
X47378498Y-30705820D01*
X47342188Y-30825518D01*
X47339769Y-30850080D01*
X47191414Y-30686481D01*
X46965420Y-30518963D01*
X46711087Y-30398754D01*
X46577039Y-30358096D01*
X46355000Y-30480085D01*
X46355000Y-31623000D01*
X46375000Y-31623000D01*
X46375000Y-31877000D01*
X46355000Y-31877000D01*
X46355000Y-31897000D01*
X46101000Y-31897000D01*
X46101000Y-31877000D01*
X44957376Y-31877000D01*
X44836091Y-32099040D01*
X44930930Y-32363881D01*
X45046040Y-32555816D01*
X44851764Y-32594460D01*
X44627008Y-32687557D01*
X44538045Y-32747000D01*
X39928835Y-32747000D01*
X39878000Y-32741993D01*
X39827165Y-32747000D01*
X39827162Y-32747000D01*
X39675105Y-32761976D01*
X39480007Y-32821159D01*
X39396309Y-32865896D01*
X39300202Y-32917266D01*
X39205809Y-32994733D01*
X39142604Y-33046604D01*
X39110197Y-33086092D01*
X36828703Y-35367586D01*
X36723764Y-35388460D01*
X36499008Y-35481557D01*
X36296733Y-35616713D01*
X36124713Y-35788733D01*
X35989557Y-35991008D01*
X35896460Y-36215764D01*
X35849000Y-36454363D01*
X26870817Y-36454363D01*
X27000992Y-36400443D01*
X27089955Y-36341000D01*
X32207172Y-36341000D01*
X32258000Y-36346006D01*
X32308828Y-36341000D01*
X32308838Y-36341000D01*
X32460895Y-36326024D01*
X32655993Y-36266841D01*
X32835797Y-36170734D01*
X32993396Y-36041396D01*
X33025807Y-36001903D01*
X34037297Y-34990414D01*
X34142236Y-34969540D01*
X34366992Y-34876443D01*
X34569267Y-34741287D01*
X34741287Y-34569267D01*
X34876443Y-34366992D01*
X34969540Y-34142236D01*
X35017000Y-33903637D01*
X35017000Y-33660363D01*
X34969540Y-33421764D01*
X34876443Y-33197008D01*
X34742044Y-32995867D01*
X34773420Y-32981037D01*
X34999414Y-32813519D01*
X35147769Y-32649920D01*
X35150188Y-32674482D01*
X35186498Y-32794180D01*
X35245463Y-32904494D01*
X35324815Y-33001185D01*
X35421506Y-33080537D01*
X35531820Y-33139502D01*
X35651518Y-33175812D01*
X35776000Y-33188072D01*
X37376000Y-33188072D01*
X37500482Y-33175812D01*
X37620180Y-33139502D01*
X37730494Y-33080537D01*
X37827185Y-33001185D01*
X37906537Y-32904494D01*
X37965502Y-32794180D01*
X38001812Y-32674482D01*
X38014072Y-32550000D01*
X38014072Y-31400960D01*
X44836091Y-31400960D01*
X44957376Y-31623000D01*
X46101000Y-31623000D01*
X46101000Y-30480085D01*
X45878961Y-30358096D01*
X45744913Y-30398754D01*
X45490580Y-30518963D01*
X45264586Y-30686481D01*
X45075615Y-30894869D01*
X44930930Y-31136119D01*
X44836091Y-31400960D01*
X38014072Y-31400960D01*
X38014072Y-30950000D01*
X38001812Y-30825518D01*
X37965502Y-30705820D01*
X37906537Y-30595506D01*
X37827185Y-30498815D01*
X37730494Y-30419463D01*
X37620180Y-30360498D01*
X37500482Y-30324188D01*
X37376000Y-30311928D01*
X35776000Y-30311928D01*
X35651518Y-30324188D01*
X35531820Y-30360498D01*
X35421506Y-30419463D01*
X35324815Y-30498815D01*
X35245463Y-30595506D01*
X35186498Y-30705820D01*
X35150188Y-30825518D01*
X35147769Y-30850080D01*
X34999414Y-30686481D01*
X34773420Y-30518963D01*
X34519087Y-30398754D01*
X34385039Y-30358096D01*
X34163000Y-30480085D01*
X34163000Y-31623000D01*
X34183000Y-31623000D01*
X34183000Y-31877000D01*
X34163000Y-31877000D01*
X34163000Y-31897000D01*
X33909000Y-31897000D01*
X33909000Y-31877000D01*
X32765376Y-31877000D01*
X32644091Y-32099040D01*
X32738930Y-32363881D01*
X32883615Y-32605131D01*
X33048403Y-32786852D01*
X32994733Y-32822713D01*
X32822713Y-32994733D01*
X32687557Y-33197008D01*
X32594460Y-33421764D01*
X32573586Y-33526703D01*
X31829290Y-34271000D01*
X27089955Y-34271000D01*
X27000992Y-34211557D01*
X26776236Y-34118460D01*
X26537637Y-34071000D01*
X26294363Y-34071000D01*
X26055764Y-34118460D01*
X25831008Y-34211557D01*
X25628733Y-34346713D01*
X25456713Y-34518733D01*
X25321557Y-34721008D01*
X25228460Y-34945764D01*
X25219000Y-34993323D01*
X25219000Y-34562199D01*
X25362505Y-34466312D01*
X25576312Y-34252505D01*
X25744299Y-34001095D01*
X25860011Y-33721743D01*
X25919000Y-33425184D01*
X25919000Y-33122816D01*
X25860011Y-32826257D01*
X25744299Y-32546905D01*
X25576312Y-32295495D01*
X25362505Y-32081688D01*
X25111095Y-31913701D01*
X24831743Y-31797989D01*
X24535184Y-31739000D01*
X24232816Y-31739000D01*
X23936257Y-31797989D01*
X23656905Y-31913701D01*
X23405495Y-32081688D01*
X23339056Y-32148127D01*
X23333502Y-32129820D01*
X23274537Y-32019506D01*
X23195185Y-31922815D01*
X23098494Y-31843463D01*
X22988180Y-31784498D01*
X22868482Y-31748188D01*
X22744000Y-31735928D01*
X20944000Y-31735928D01*
X20819518Y-31748188D01*
X20699820Y-31784498D01*
X20660000Y-31805783D01*
X20660000Y-31400960D01*
X32644091Y-31400960D01*
X32765376Y-31623000D01*
X33909000Y-31623000D01*
X33909000Y-30480085D01*
X33686961Y-30358096D01*
X33552913Y-30398754D01*
X33298580Y-30518963D01*
X33072586Y-30686481D01*
X32883615Y-30894869D01*
X32738930Y-31136119D01*
X32644091Y-31400960D01*
X20660000Y-31400960D01*
X20660000Y-29622960D01*
X57028091Y-29622960D01*
X57149376Y-29845000D01*
X58293000Y-29845000D01*
X58293000Y-28702085D01*
X58547000Y-28702085D01*
X58547000Y-29845000D01*
X58567000Y-29845000D01*
X58567000Y-30099000D01*
X58547000Y-30099000D01*
X58547000Y-31241915D01*
X58769039Y-31363904D01*
X58903087Y-31323246D01*
X59157420Y-31203037D01*
X59383414Y-31035519D01*
X59531769Y-30871920D01*
X59534188Y-30896482D01*
X59570498Y-31016180D01*
X59629463Y-31126494D01*
X59708815Y-31223185D01*
X59805506Y-31302537D01*
X59915820Y-31361502D01*
X60035518Y-31397812D01*
X60160000Y-31410072D01*
X61760000Y-31410072D01*
X61884482Y-31397812D01*
X62004180Y-31361502D01*
X62114494Y-31302537D01*
X62211185Y-31223185D01*
X62290537Y-31126494D01*
X62349502Y-31016180D01*
X62385812Y-30896482D01*
X62398072Y-30772000D01*
X62398072Y-29622960D01*
X69728091Y-29622960D01*
X69849376Y-29845000D01*
X70993000Y-29845000D01*
X70993000Y-28702085D01*
X70770961Y-28580096D01*
X70636913Y-28620754D01*
X70382580Y-28740963D01*
X70156586Y-28908481D01*
X69967615Y-29116869D01*
X69822930Y-29358119D01*
X69728091Y-29622960D01*
X62398072Y-29622960D01*
X62398072Y-29172000D01*
X62385812Y-29047518D01*
X62349502Y-28927820D01*
X62290537Y-28817506D01*
X62211185Y-28720815D01*
X62114494Y-28641463D01*
X62004180Y-28582498D01*
X61884482Y-28546188D01*
X61760000Y-28533928D01*
X60160000Y-28533928D01*
X60035518Y-28546188D01*
X59915820Y-28582498D01*
X59805506Y-28641463D01*
X59708815Y-28720815D01*
X59629463Y-28817506D01*
X59570498Y-28927820D01*
X59534188Y-29047518D01*
X59531769Y-29072080D01*
X59383414Y-28908481D01*
X59157420Y-28740963D01*
X58903087Y-28620754D01*
X58769039Y-28580096D01*
X58547000Y-28702085D01*
X58293000Y-28702085D01*
X58070961Y-28580096D01*
X57936913Y-28620754D01*
X57682580Y-28740963D01*
X57456586Y-28908481D01*
X57267615Y-29116869D01*
X57122930Y-29358119D01*
X57028091Y-29622960D01*
X20660000Y-29622960D01*
X20660000Y-25755249D01*
X23515000Y-25755249D01*
X23515000Y-26244751D01*
X23610497Y-26724848D01*
X23797821Y-27177089D01*
X24069774Y-27584095D01*
X24415905Y-27930226D01*
X24822911Y-28202179D01*
X25275152Y-28389503D01*
X25755249Y-28485000D01*
X26244751Y-28485000D01*
X26724848Y-28389503D01*
X27177089Y-28202179D01*
X27584095Y-27930226D01*
X27930226Y-27584095D01*
X28202179Y-27177089D01*
X28389503Y-26724848D01*
X28485000Y-26244751D01*
X28485000Y-25755249D01*
X28389503Y-25275152D01*
X28202179Y-24822911D01*
X27930226Y-24415905D01*
X27688042Y-24173721D01*
X33679000Y-24173721D01*
X33679000Y-24594279D01*
X33761047Y-25006756D01*
X33921988Y-25395302D01*
X34155637Y-25744983D01*
X34453017Y-26042363D01*
X34802698Y-26276012D01*
X35191244Y-26436953D01*
X35603721Y-26519000D01*
X36024279Y-26519000D01*
X36436756Y-26436953D01*
X36825302Y-26276012D01*
X37174983Y-26042363D01*
X37472363Y-25744983D01*
X37706012Y-25395302D01*
X37866953Y-25006756D01*
X37949000Y-24594279D01*
X37949000Y-24173721D01*
X38759000Y-24173721D01*
X38759000Y-24594279D01*
X38841047Y-25006756D01*
X39001988Y-25395302D01*
X39235637Y-25744983D01*
X39533017Y-26042363D01*
X39882698Y-26276012D01*
X40271244Y-26436953D01*
X40683721Y-26519000D01*
X41104279Y-26519000D01*
X41516756Y-26436953D01*
X41905302Y-26276012D01*
X42254983Y-26042363D01*
X42552363Y-25744983D01*
X42786012Y-25395302D01*
X42946953Y-25006756D01*
X43029000Y-24594279D01*
X43029000Y-24173721D01*
X42946953Y-23761244D01*
X42786012Y-23372698D01*
X42552363Y-23023017D01*
X42413346Y-22884000D01*
X43835928Y-22884000D01*
X43835928Y-25884000D01*
X43848188Y-26008482D01*
X43884498Y-26128180D01*
X43943463Y-26238494D01*
X44022815Y-26335185D01*
X44119506Y-26414537D01*
X44229820Y-26473502D01*
X44349518Y-26509812D01*
X44474000Y-26522072D01*
X47474000Y-26522072D01*
X47598482Y-26509812D01*
X47718180Y-26473502D01*
X47828494Y-26414537D01*
X47925185Y-26335185D01*
X48004537Y-26238494D01*
X48063502Y-26128180D01*
X48099812Y-26008482D01*
X48112072Y-25884000D01*
X48112072Y-24173721D01*
X50951000Y-24173721D01*
X50951000Y-24594279D01*
X51033047Y-25006756D01*
X51193988Y-25395302D01*
X51427637Y-25744983D01*
X51725017Y-26042363D01*
X52074698Y-26276012D01*
X52463244Y-26436953D01*
X52875721Y-26519000D01*
X53296279Y-26519000D01*
X53708756Y-26436953D01*
X54097302Y-26276012D01*
X54446983Y-26042363D01*
X54744363Y-25744983D01*
X54978012Y-25395302D01*
X55138953Y-25006756D01*
X55221000Y-24594279D01*
X55221000Y-24173721D01*
X56031000Y-24173721D01*
X56031000Y-24594279D01*
X56113047Y-25006756D01*
X56273988Y-25395302D01*
X56507637Y-25744983D01*
X56805017Y-26042363D01*
X57154698Y-26276012D01*
X57543244Y-26436953D01*
X57955721Y-26519000D01*
X58376279Y-26519000D01*
X58788756Y-26436953D01*
X59177302Y-26276012D01*
X59526983Y-26042363D01*
X59824363Y-25744983D01*
X60058012Y-25395302D01*
X60218953Y-25006756D01*
X60301000Y-24594279D01*
X60301000Y-24173721D01*
X60218953Y-23761244D01*
X60058012Y-23372698D01*
X59824363Y-23023017D01*
X59685346Y-22884000D01*
X61107928Y-22884000D01*
X61107928Y-25884000D01*
X61120188Y-26008482D01*
X61156498Y-26128180D01*
X61215463Y-26238494D01*
X61294815Y-26335185D01*
X61391506Y-26414537D01*
X61501820Y-26473502D01*
X61621518Y-26509812D01*
X61746000Y-26522072D01*
X64746000Y-26522072D01*
X64870482Y-26509812D01*
X64990180Y-26473502D01*
X65100494Y-26414537D01*
X65197185Y-26335185D01*
X65276537Y-26238494D01*
X65335502Y-26128180D01*
X65371812Y-26008482D01*
X65384072Y-25884000D01*
X65384072Y-23919721D01*
X76605000Y-23919721D01*
X76605000Y-24340279D01*
X76687047Y-24752756D01*
X76847988Y-25141302D01*
X77081637Y-25490983D01*
X77379017Y-25788363D01*
X77728698Y-26022012D01*
X78117244Y-26182953D01*
X78529721Y-26265000D01*
X78950279Y-26265000D01*
X79362756Y-26182953D01*
X79751302Y-26022012D01*
X80100983Y-25788363D01*
X80398363Y-25490983D01*
X80632012Y-25141302D01*
X80792953Y-24752756D01*
X80875000Y-24340279D01*
X80875000Y-23919721D01*
X80792953Y-23507244D01*
X80632012Y-23118698D01*
X80398363Y-22769017D01*
X80259346Y-22630000D01*
X81681928Y-22630000D01*
X81681928Y-25630000D01*
X81694188Y-25754482D01*
X81730498Y-25874180D01*
X81789463Y-25984494D01*
X81868815Y-26081185D01*
X81965506Y-26160537D01*
X82075820Y-26219502D01*
X82195518Y-26255812D01*
X82320000Y-26268072D01*
X85320000Y-26268072D01*
X85444482Y-26255812D01*
X85564180Y-26219502D01*
X85674494Y-26160537D01*
X85771185Y-26081185D01*
X85850537Y-25984494D01*
X85909502Y-25874180D01*
X85945579Y-25755249D01*
X91515000Y-25755249D01*
X91515000Y-26244751D01*
X91610497Y-26724848D01*
X91797821Y-27177089D01*
X92069774Y-27584095D01*
X92415905Y-27930226D01*
X92822911Y-28202179D01*
X93275152Y-28389503D01*
X93755249Y-28485000D01*
X94244751Y-28485000D01*
X94724848Y-28389503D01*
X95177089Y-28202179D01*
X95584095Y-27930226D01*
X95930226Y-27584095D01*
X96202179Y-27177089D01*
X96389503Y-26724848D01*
X96485000Y-26244751D01*
X96485000Y-25755249D01*
X96389503Y-25275152D01*
X96202179Y-24822911D01*
X95930226Y-24415905D01*
X95584095Y-24069774D01*
X95177089Y-23797821D01*
X94724848Y-23610497D01*
X94244751Y-23515000D01*
X93755249Y-23515000D01*
X93275152Y-23610497D01*
X92822911Y-23797821D01*
X92415905Y-24069774D01*
X92069774Y-24415905D01*
X91797821Y-24822911D01*
X91610497Y-25275152D01*
X91515000Y-25755249D01*
X85945579Y-25755249D01*
X85945812Y-25754482D01*
X85958072Y-25630000D01*
X85958072Y-22630000D01*
X85945812Y-22505518D01*
X85909502Y-22385820D01*
X85850537Y-22275506D01*
X85771185Y-22178815D01*
X85674494Y-22099463D01*
X85564180Y-22040498D01*
X85444482Y-22004188D01*
X85320000Y-21991928D01*
X82320000Y-21991928D01*
X82195518Y-22004188D01*
X82075820Y-22040498D01*
X81965506Y-22099463D01*
X81868815Y-22178815D01*
X81789463Y-22275506D01*
X81730498Y-22385820D01*
X81694188Y-22505518D01*
X81681928Y-22630000D01*
X80259346Y-22630000D01*
X80100983Y-22471637D01*
X79751302Y-22237988D01*
X79362756Y-22077047D01*
X78950279Y-21995000D01*
X78529721Y-21995000D01*
X78117244Y-22077047D01*
X77728698Y-22237988D01*
X77379017Y-22471637D01*
X77081637Y-22769017D01*
X76847988Y-23118698D01*
X76687047Y-23507244D01*
X76605000Y-23919721D01*
X65384072Y-23919721D01*
X65384072Y-22884000D01*
X65371812Y-22759518D01*
X65335502Y-22639820D01*
X65276537Y-22529506D01*
X65197185Y-22432815D01*
X65100494Y-22353463D01*
X64990180Y-22294498D01*
X64870482Y-22258188D01*
X64746000Y-22245928D01*
X61746000Y-22245928D01*
X61621518Y-22258188D01*
X61501820Y-22294498D01*
X61391506Y-22353463D01*
X61294815Y-22432815D01*
X61215463Y-22529506D01*
X61156498Y-22639820D01*
X61120188Y-22759518D01*
X61107928Y-22884000D01*
X59685346Y-22884000D01*
X59526983Y-22725637D01*
X59177302Y-22491988D01*
X58788756Y-22331047D01*
X58376279Y-22249000D01*
X57955721Y-22249000D01*
X57543244Y-22331047D01*
X57154698Y-22491988D01*
X56805017Y-22725637D01*
X56507637Y-23023017D01*
X56273988Y-23372698D01*
X56113047Y-23761244D01*
X56031000Y-24173721D01*
X55221000Y-24173721D01*
X55138953Y-23761244D01*
X54978012Y-23372698D01*
X54744363Y-23023017D01*
X54446983Y-22725637D01*
X54097302Y-22491988D01*
X53708756Y-22331047D01*
X53296279Y-22249000D01*
X52875721Y-22249000D01*
X52463244Y-22331047D01*
X52074698Y-22491988D01*
X51725017Y-22725637D01*
X51427637Y-23023017D01*
X51193988Y-23372698D01*
X51033047Y-23761244D01*
X50951000Y-24173721D01*
X48112072Y-24173721D01*
X48112072Y-22884000D01*
X48099812Y-22759518D01*
X48063502Y-22639820D01*
X48004537Y-22529506D01*
X47925185Y-22432815D01*
X47828494Y-22353463D01*
X47718180Y-22294498D01*
X47598482Y-22258188D01*
X47474000Y-22245928D01*
X44474000Y-22245928D01*
X44349518Y-22258188D01*
X44229820Y-22294498D01*
X44119506Y-22353463D01*
X44022815Y-22432815D01*
X43943463Y-22529506D01*
X43884498Y-22639820D01*
X43848188Y-22759518D01*
X43835928Y-22884000D01*
X42413346Y-22884000D01*
X42254983Y-22725637D01*
X41905302Y-22491988D01*
X41516756Y-22331047D01*
X41104279Y-22249000D01*
X40683721Y-22249000D01*
X40271244Y-22331047D01*
X39882698Y-22491988D01*
X39533017Y-22725637D01*
X39235637Y-23023017D01*
X39001988Y-23372698D01*
X38841047Y-23761244D01*
X38759000Y-24173721D01*
X37949000Y-24173721D01*
X37866953Y-23761244D01*
X37706012Y-23372698D01*
X37472363Y-23023017D01*
X37174983Y-22725637D01*
X36825302Y-22491988D01*
X36436756Y-22331047D01*
X36024279Y-22249000D01*
X35603721Y-22249000D01*
X35191244Y-22331047D01*
X34802698Y-22491988D01*
X34453017Y-22725637D01*
X34155637Y-23023017D01*
X33921988Y-23372698D01*
X33761047Y-23761244D01*
X33679000Y-24173721D01*
X27688042Y-24173721D01*
X27584095Y-24069774D01*
X27177089Y-23797821D01*
X26724848Y-23610497D01*
X26244751Y-23515000D01*
X25755249Y-23515000D01*
X25275152Y-23610497D01*
X24822911Y-23797821D01*
X24415905Y-24069774D01*
X24069774Y-24415905D01*
X23797821Y-24822911D01*
X23610497Y-25275152D01*
X23515000Y-25755249D01*
X20660000Y-25755249D01*
X20660000Y-20660000D01*
X99340000Y-20660000D01*
X99340001Y-69923000D01*
G36*
X38466782Y-53947011D02*
G01*
X30997880Y-53947011D01*
X30445000Y-53394132D01*
X30445000Y-53218363D01*
X30397540Y-52979764D01*
X30304443Y-52755008D01*
X30169287Y-52552733D01*
X29997267Y-52380713D01*
X29794992Y-52245557D01*
X29570236Y-52152460D01*
X29331637Y-52105000D01*
X29088363Y-52105000D01*
X28849764Y-52152460D01*
X28625008Y-52245557D01*
X28422733Y-52380713D01*
X28250713Y-52552733D01*
X28115557Y-52755008D01*
X28022460Y-52979764D01*
X27975000Y-53218363D01*
X27975000Y-53461637D01*
X28010729Y-53641260D01*
X27833764Y-53676460D01*
X27609008Y-53769557D01*
X27406733Y-53904713D01*
X27234713Y-54076733D01*
X27099557Y-54279008D01*
X27006460Y-54503764D01*
X26959000Y-54742363D01*
X26959000Y-54985637D01*
X27006460Y-55224236D01*
X27099557Y-55448992D01*
X27234713Y-55651267D01*
X27355388Y-55771942D01*
X27284236Y-55742470D01*
X27045637Y-55695010D01*
X26802363Y-55695010D01*
X26563764Y-55742470D01*
X26339008Y-55835567D01*
X26136733Y-55970723D01*
X25964713Y-56142743D01*
X25829557Y-56345018D01*
X25736460Y-56569774D01*
X25689000Y-56808373D01*
X25689000Y-57051647D01*
X25736460Y-57290246D01*
X25829557Y-57515002D01*
X25964713Y-57717277D01*
X26136733Y-57889297D01*
X26339008Y-58024453D01*
X26563764Y-58117550D01*
X26767131Y-58158002D01*
X26724132Y-58201000D01*
X26548363Y-58201000D01*
X26309764Y-58248460D01*
X26085008Y-58341557D01*
X25882733Y-58476713D01*
X25710713Y-58648733D01*
X25575557Y-58851008D01*
X25525080Y-58972871D01*
X25362505Y-58810296D01*
X25111095Y-58642309D01*
X24831743Y-58526597D01*
X24535184Y-58467608D01*
X24232816Y-58467608D01*
X23936257Y-58526597D01*
X23656905Y-58642309D01*
X23405495Y-58810296D01*
X23339056Y-58876735D01*
X23333502Y-58858428D01*
X23274537Y-58748114D01*
X23195185Y-58651423D01*
X23098494Y-58572071D01*
X22988180Y-58513106D01*
X22868482Y-58476796D01*
X22744000Y-58464536D01*
X20944000Y-58464536D01*
X20819518Y-58476796D01*
X20699820Y-58513106D01*
X20660000Y-58534391D01*
X20660000Y-54788673D01*
X20699820Y-54809958D01*
X20819518Y-54846268D01*
X20944000Y-54858528D01*
X22744000Y-54858528D01*
X22868482Y-54846268D01*
X22988180Y-54809958D01*
X23098494Y-54750993D01*
X23195185Y-54671641D01*
X23274537Y-54574950D01*
X23333502Y-54464636D01*
X23339056Y-54446329D01*
X23405495Y-54512768D01*
X23656905Y-54680755D01*
X23936257Y-54796467D01*
X24232816Y-54855456D01*
X24535184Y-54855456D01*
X24831743Y-54796467D01*
X25111095Y-54680755D01*
X25362505Y-54512768D01*
X25576312Y-54298961D01*
X25744299Y-54047551D01*
X25860011Y-53768199D01*
X25919000Y-53471640D01*
X25919000Y-53169272D01*
X25860011Y-52872713D01*
X25744299Y-52593361D01*
X25576312Y-52341951D01*
X25362505Y-52128144D01*
X25111095Y-51960157D01*
X24831743Y-51844445D01*
X24535184Y-51785456D01*
X24232816Y-51785456D01*
X23936257Y-51844445D01*
X23656905Y-51960157D01*
X23405495Y-52128144D01*
X23339056Y-52194583D01*
X23333502Y-52176276D01*
X23274537Y-52065962D01*
X23195185Y-51969271D01*
X23098494Y-51889919D01*
X22988180Y-51830954D01*
X22868482Y-51794644D01*
X22744000Y-51782384D01*
X20944000Y-51782384D01*
X20819518Y-51794644D01*
X20699820Y-51830954D01*
X20660000Y-51852239D01*
X20660000Y-48106521D01*
X20699820Y-48127806D01*
X20819518Y-48164116D01*
X20944000Y-48176376D01*
X22744000Y-48176376D01*
X22868482Y-48164116D01*
X22988180Y-48127806D01*
X23098494Y-48068841D01*
X23195185Y-47989489D01*
X23274537Y-47892798D01*
X23333502Y-47782484D01*
X23339056Y-47764177D01*
X23405495Y-47830616D01*
X23656905Y-47998603D01*
X23936257Y-48114315D01*
X24232816Y-48173304D01*
X24535184Y-48173304D01*
X24831743Y-48114315D01*
X25111095Y-47998603D01*
X25362505Y-47830616D01*
X25576312Y-47616809D01*
X25744299Y-47365399D01*
X25860011Y-47086047D01*
X25919000Y-46789488D01*
X25919000Y-46487120D01*
X25860011Y-46190561D01*
X25744299Y-45911209D01*
X25576312Y-45659799D01*
X25362505Y-45445992D01*
X25111095Y-45278005D01*
X24831743Y-45162293D01*
X24535184Y-45103304D01*
X24232816Y-45103304D01*
X23936257Y-45162293D01*
X23656905Y-45278005D01*
X23405495Y-45445992D01*
X23339056Y-45512431D01*
X23333502Y-45494124D01*
X23274537Y-45383810D01*
X23195185Y-45287119D01*
X23098494Y-45207767D01*
X22988180Y-45148802D01*
X22868482Y-45112492D01*
X22744000Y-45100232D01*
X20944000Y-45100232D01*
X20819518Y-45112492D01*
X20699820Y-45148802D01*
X20660000Y-45170087D01*
X20660000Y-41424369D01*
X20699820Y-41445654D01*
X20819518Y-41481964D01*
X20944000Y-41494224D01*
X22744000Y-41494224D01*
X22868482Y-41481964D01*
X22988180Y-41445654D01*
X23098494Y-41386689D01*
X23195185Y-41307337D01*
X23274537Y-41210646D01*
X23333502Y-41100332D01*
X23339056Y-41082025D01*
X23405495Y-41148464D01*
X23656905Y-41316451D01*
X23936257Y-41432163D01*
X24232816Y-41491152D01*
X24535184Y-41491152D01*
X24831743Y-41432163D01*
X25111095Y-41316451D01*
X25362505Y-41148464D01*
X25515371Y-40995598D01*
X38466782Y-53947011D01*
X38466782Y-53947011D01*
G37*
X38466782Y-53947011D02*
X30997880Y-53947011D01*
X30445000Y-53394132D01*
X30445000Y-53218363D01*
X30397540Y-52979764D01*
X30304443Y-52755008D01*
X30169287Y-52552733D01*
X29997267Y-52380713D01*
X29794992Y-52245557D01*
X29570236Y-52152460D01*
X29331637Y-52105000D01*
X29088363Y-52105000D01*
X28849764Y-52152460D01*
X28625008Y-52245557D01*
X28422733Y-52380713D01*
X28250713Y-52552733D01*
X28115557Y-52755008D01*
X28022460Y-52979764D01*
X27975000Y-53218363D01*
X27975000Y-53461637D01*
X28010729Y-53641260D01*
X27833764Y-53676460D01*
X27609008Y-53769557D01*
X27406733Y-53904713D01*
X27234713Y-54076733D01*
X27099557Y-54279008D01*
X27006460Y-54503764D01*
X26959000Y-54742363D01*
X26959000Y-54985637D01*
X27006460Y-55224236D01*
X27099557Y-55448992D01*
X27234713Y-55651267D01*
X27355388Y-55771942D01*
X27284236Y-55742470D01*
X27045637Y-55695010D01*
X26802363Y-55695010D01*
X26563764Y-55742470D01*
X26339008Y-55835567D01*
X26136733Y-55970723D01*
X25964713Y-56142743D01*
X25829557Y-56345018D01*
X25736460Y-56569774D01*
X25689000Y-56808373D01*
X25689000Y-57051647D01*
X25736460Y-57290246D01*
X25829557Y-57515002D01*
X25964713Y-57717277D01*
X26136733Y-57889297D01*
X26339008Y-58024453D01*
X26563764Y-58117550D01*
X26767131Y-58158002D01*
X26724132Y-58201000D01*
X26548363Y-58201000D01*
X26309764Y-58248460D01*
X26085008Y-58341557D01*
X25882733Y-58476713D01*
X25710713Y-58648733D01*
X25575557Y-58851008D01*
X25525080Y-58972871D01*
X25362505Y-58810296D01*
X25111095Y-58642309D01*
X24831743Y-58526597D01*
X24535184Y-58467608D01*
X24232816Y-58467608D01*
X23936257Y-58526597D01*
X23656905Y-58642309D01*
X23405495Y-58810296D01*
X23339056Y-58876735D01*
X23333502Y-58858428D01*
X23274537Y-58748114D01*
X23195185Y-58651423D01*
X23098494Y-58572071D01*
X22988180Y-58513106D01*
X22868482Y-58476796D01*
X22744000Y-58464536D01*
X20944000Y-58464536D01*
X20819518Y-58476796D01*
X20699820Y-58513106D01*
X20660000Y-58534391D01*
X20660000Y-54788673D01*
X20699820Y-54809958D01*
X20819518Y-54846268D01*
X20944000Y-54858528D01*
X22744000Y-54858528D01*
X22868482Y-54846268D01*
X22988180Y-54809958D01*
X23098494Y-54750993D01*
X23195185Y-54671641D01*
X23274537Y-54574950D01*
X23333502Y-54464636D01*
X23339056Y-54446329D01*
X23405495Y-54512768D01*
X23656905Y-54680755D01*
X23936257Y-54796467D01*
X24232816Y-54855456D01*
X24535184Y-54855456D01*
X24831743Y-54796467D01*
X25111095Y-54680755D01*
X25362505Y-54512768D01*
X25576312Y-54298961D01*
X25744299Y-54047551D01*
X25860011Y-53768199D01*
X25919000Y-53471640D01*
X25919000Y-53169272D01*
X25860011Y-52872713D01*
X25744299Y-52593361D01*
X25576312Y-52341951D01*
X25362505Y-52128144D01*
X25111095Y-51960157D01*
X24831743Y-51844445D01*
X24535184Y-51785456D01*
X24232816Y-51785456D01*
X23936257Y-51844445D01*
X23656905Y-51960157D01*
X23405495Y-52128144D01*
X23339056Y-52194583D01*
X23333502Y-52176276D01*
X23274537Y-52065962D01*
X23195185Y-51969271D01*
X23098494Y-51889919D01*
X22988180Y-51830954D01*
X22868482Y-51794644D01*
X22744000Y-51782384D01*
X20944000Y-51782384D01*
X20819518Y-51794644D01*
X20699820Y-51830954D01*
X20660000Y-51852239D01*
X20660000Y-48106521D01*
X20699820Y-48127806D01*
X20819518Y-48164116D01*
X20944000Y-48176376D01*
X22744000Y-48176376D01*
X22868482Y-48164116D01*
X22988180Y-48127806D01*
X23098494Y-48068841D01*
X23195185Y-47989489D01*
X23274537Y-47892798D01*
X23333502Y-47782484D01*
X23339056Y-47764177D01*
X23405495Y-47830616D01*
X23656905Y-47998603D01*
X23936257Y-48114315D01*
X24232816Y-48173304D01*
X24535184Y-48173304D01*
X24831743Y-48114315D01*
X25111095Y-47998603D01*
X25362505Y-47830616D01*
X25576312Y-47616809D01*
X25744299Y-47365399D01*
X25860011Y-47086047D01*
X25919000Y-46789488D01*
X25919000Y-46487120D01*
X25860011Y-46190561D01*
X25744299Y-45911209D01*
X25576312Y-45659799D01*
X25362505Y-45445992D01*
X25111095Y-45278005D01*
X24831743Y-45162293D01*
X24535184Y-45103304D01*
X24232816Y-45103304D01*
X23936257Y-45162293D01*
X23656905Y-45278005D01*
X23405495Y-45445992D01*
X23339056Y-45512431D01*
X23333502Y-45494124D01*
X23274537Y-45383810D01*
X23195185Y-45287119D01*
X23098494Y-45207767D01*
X22988180Y-45148802D01*
X22868482Y-45112492D01*
X22744000Y-45100232D01*
X20944000Y-45100232D01*
X20819518Y-45112492D01*
X20699820Y-45148802D01*
X20660000Y-45170087D01*
X20660000Y-41424369D01*
X20699820Y-41445654D01*
X20819518Y-41481964D01*
X20944000Y-41494224D01*
X22744000Y-41494224D01*
X22868482Y-41481964D01*
X22988180Y-41445654D01*
X23098494Y-41386689D01*
X23195185Y-41307337D01*
X23274537Y-41210646D01*
X23333502Y-41100332D01*
X23339056Y-41082025D01*
X23405495Y-41148464D01*
X23656905Y-41316451D01*
X23936257Y-41432163D01*
X24232816Y-41491152D01*
X24535184Y-41491152D01*
X24831743Y-41432163D01*
X25111095Y-41316451D01*
X25362505Y-41148464D01*
X25515371Y-40995598D01*
X38466782Y-53947011D01*
G36*
X57207135Y-48221001D02*
G01*
X56229842Y-48221001D01*
X56212443Y-48178996D01*
X56077287Y-47976721D01*
X55905267Y-47804701D01*
X55702992Y-47669545D01*
X55478236Y-47576448D01*
X55239637Y-47528988D01*
X54996363Y-47528988D01*
X54757764Y-47576448D01*
X54533008Y-47669545D01*
X54330733Y-47804701D01*
X54206446Y-47928988D01*
X51880008Y-47928988D01*
X51874889Y-47923869D01*
X51672614Y-47788713D01*
X51447858Y-47695616D01*
X51209259Y-47648156D01*
X50965985Y-47648156D01*
X50727386Y-47695616D01*
X50502630Y-47788713D01*
X50300355Y-47923869D01*
X50128335Y-48095889D01*
X49993179Y-48298164D01*
X49900082Y-48522920D01*
X49852622Y-48761519D01*
X49852622Y-49004793D01*
X49900082Y-49243392D01*
X49988561Y-49457000D01*
X45761007Y-49457000D01*
X45719999Y-49452961D01*
X45678991Y-49457000D01*
X45678981Y-49457000D01*
X45556311Y-49469082D01*
X45398913Y-49516828D01*
X45253854Y-49594364D01*
X45126709Y-49698709D01*
X45100559Y-49730573D01*
X41864971Y-52966162D01*
X41878185Y-52832000D01*
X41849513Y-52540889D01*
X41764599Y-52260966D01*
X41626706Y-52002986D01*
X41441134Y-51776866D01*
X41215014Y-51591294D01*
X41160209Y-51562000D01*
X41215014Y-51532706D01*
X41441134Y-51347134D01*
X41626706Y-51121014D01*
X41764599Y-50863034D01*
X41849513Y-50583111D01*
X41878185Y-50292000D01*
X41849513Y-50000889D01*
X41764599Y-49720966D01*
X41626706Y-49462986D01*
X41441134Y-49236866D01*
X41215014Y-49051294D01*
X41160209Y-49022000D01*
X41215014Y-48992706D01*
X41441134Y-48807134D01*
X41626706Y-48581014D01*
X41764599Y-48323034D01*
X41849513Y-48043111D01*
X41878185Y-47752000D01*
X41849513Y-47460889D01*
X41764599Y-47180966D01*
X41626706Y-46922986D01*
X41441134Y-46696866D01*
X41411313Y-46672393D01*
X41480180Y-46651502D01*
X41590494Y-46592537D01*
X41687185Y-46513185D01*
X41766537Y-46416494D01*
X41825502Y-46306180D01*
X41861812Y-46186482D01*
X41874072Y-46062000D01*
X41871000Y-45497750D01*
X41712250Y-45339000D01*
X40513000Y-45339000D01*
X40513000Y-45359000D01*
X40259000Y-45359000D01*
X40259000Y-45339000D01*
X39059750Y-45339000D01*
X38901000Y-45497750D01*
X38897928Y-46062000D01*
X38910188Y-46186482D01*
X38946498Y-46306180D01*
X39005463Y-46416494D01*
X39084815Y-46513185D01*
X39181506Y-46592537D01*
X39291820Y-46651502D01*
X39360687Y-46672393D01*
X39330866Y-46696866D01*
X39145294Y-46922986D01*
X39007401Y-47180966D01*
X38922487Y-47460889D01*
X38893815Y-47752000D01*
X38922487Y-48043111D01*
X39007401Y-48323034D01*
X39145294Y-48581014D01*
X39330866Y-48807134D01*
X39556986Y-48992706D01*
X39611791Y-49022000D01*
X39556986Y-49051294D01*
X39330866Y-49236866D01*
X39145294Y-49462986D01*
X39007401Y-49720966D01*
X38922487Y-50000889D01*
X38893815Y-50292000D01*
X38922487Y-50583111D01*
X39007401Y-50863034D01*
X39145294Y-51121014D01*
X39330866Y-51347134D01*
X39556986Y-51532706D01*
X39611791Y-51562000D01*
X39556986Y-51591294D01*
X39330866Y-51776866D01*
X39145294Y-52002986D01*
X39054451Y-52172942D01*
X32153713Y-45272205D01*
X32181008Y-45290443D01*
X32405764Y-45383540D01*
X32644363Y-45431000D01*
X32887637Y-45431000D01*
X33126236Y-45383540D01*
X33350992Y-45290443D01*
X33553267Y-45155287D01*
X33725287Y-44983267D01*
X33860443Y-44780992D01*
X33953540Y-44556236D01*
X33978451Y-44431001D01*
X38898304Y-44431001D01*
X38901000Y-44926250D01*
X39059750Y-45085000D01*
X40259000Y-45085000D01*
X40259000Y-45065000D01*
X40513000Y-45065000D01*
X40513000Y-45085000D01*
X41712250Y-45085000D01*
X41871000Y-44926250D01*
X41873696Y-44431001D01*
X42996134Y-44431001D01*
X45482550Y-46917418D01*
X45508700Y-46949282D01*
X45635845Y-47053627D01*
X45780904Y-47131163D01*
X45938302Y-47178909D01*
X46060972Y-47190991D01*
X46060982Y-47190991D01*
X46101990Y-47195030D01*
X46142998Y-47190991D01*
X49876885Y-47190991D01*
X50001172Y-47315278D01*
X50203447Y-47450434D01*
X50428203Y-47543531D01*
X50666802Y-47590991D01*
X50910076Y-47590991D01*
X51148675Y-47543531D01*
X51373431Y-47450434D01*
X51575706Y-47315278D01*
X51747726Y-47143258D01*
X51799580Y-47065653D01*
X51851434Y-47143258D01*
X52023454Y-47315278D01*
X52225729Y-47450434D01*
X52450485Y-47543531D01*
X52689084Y-47590991D01*
X52932358Y-47590991D01*
X53170957Y-47543531D01*
X53395713Y-47450434D01*
X53597988Y-47315278D01*
X53770008Y-47143258D01*
X53905164Y-46940983D01*
X53998261Y-46716227D01*
X54045721Y-46477628D01*
X54045721Y-46234354D01*
X53998261Y-45995755D01*
X53905164Y-45770999D01*
X53770008Y-45568724D01*
X53597988Y-45396704D01*
X53395713Y-45261548D01*
X53170957Y-45168451D01*
X52932358Y-45120991D01*
X52756589Y-45120991D01*
X51016176Y-43380579D01*
X50990021Y-43348709D01*
X50873399Y-43253000D01*
X52239135Y-43253000D01*
X57207135Y-48221001D01*
X57207135Y-48221001D01*
G37*
X57207135Y-48221001D02*
X56229842Y-48221001D01*
X56212443Y-48178996D01*
X56077287Y-47976721D01*
X55905267Y-47804701D01*
X55702992Y-47669545D01*
X55478236Y-47576448D01*
X55239637Y-47528988D01*
X54996363Y-47528988D01*
X54757764Y-47576448D01*
X54533008Y-47669545D01*
X54330733Y-47804701D01*
X54206446Y-47928988D01*
X51880008Y-47928988D01*
X51874889Y-47923869D01*
X51672614Y-47788713D01*
X51447858Y-47695616D01*
X51209259Y-47648156D01*
X50965985Y-47648156D01*
X50727386Y-47695616D01*
X50502630Y-47788713D01*
X50300355Y-47923869D01*
X50128335Y-48095889D01*
X49993179Y-48298164D01*
X49900082Y-48522920D01*
X49852622Y-48761519D01*
X49852622Y-49004793D01*
X49900082Y-49243392D01*
X49988561Y-49457000D01*
X45761007Y-49457000D01*
X45719999Y-49452961D01*
X45678991Y-49457000D01*
X45678981Y-49457000D01*
X45556311Y-49469082D01*
X45398913Y-49516828D01*
X45253854Y-49594364D01*
X45126709Y-49698709D01*
X45100559Y-49730573D01*
X41864971Y-52966162D01*
X41878185Y-52832000D01*
X41849513Y-52540889D01*
X41764599Y-52260966D01*
X41626706Y-52002986D01*
X41441134Y-51776866D01*
X41215014Y-51591294D01*
X41160209Y-51562000D01*
X41215014Y-51532706D01*
X41441134Y-51347134D01*
X41626706Y-51121014D01*
X41764599Y-50863034D01*
X41849513Y-50583111D01*
X41878185Y-50292000D01*
X41849513Y-50000889D01*
X41764599Y-49720966D01*
X41626706Y-49462986D01*
X41441134Y-49236866D01*
X41215014Y-49051294D01*
X41160209Y-49022000D01*
X41215014Y-48992706D01*
X41441134Y-48807134D01*
X41626706Y-48581014D01*
X41764599Y-48323034D01*
X41849513Y-48043111D01*
X41878185Y-47752000D01*
X41849513Y-47460889D01*
X41764599Y-47180966D01*
X41626706Y-46922986D01*
X41441134Y-46696866D01*
X41411313Y-46672393D01*
X41480180Y-46651502D01*
X41590494Y-46592537D01*
X41687185Y-46513185D01*
X41766537Y-46416494D01*
X41825502Y-46306180D01*
X41861812Y-46186482D01*
X41874072Y-46062000D01*
X41871000Y-45497750D01*
X41712250Y-45339000D01*
X40513000Y-45339000D01*
X40513000Y-45359000D01*
X40259000Y-45359000D01*
X40259000Y-45339000D01*
X39059750Y-45339000D01*
X38901000Y-45497750D01*
X38897928Y-46062000D01*
X38910188Y-46186482D01*
X38946498Y-46306180D01*
X39005463Y-46416494D01*
X39084815Y-46513185D01*
X39181506Y-46592537D01*
X39291820Y-46651502D01*
X39360687Y-46672393D01*
X39330866Y-46696866D01*
X39145294Y-46922986D01*
X39007401Y-47180966D01*
X38922487Y-47460889D01*
X38893815Y-47752000D01*
X38922487Y-48043111D01*
X39007401Y-48323034D01*
X39145294Y-48581014D01*
X39330866Y-48807134D01*
X39556986Y-48992706D01*
X39611791Y-49022000D01*
X39556986Y-49051294D01*
X39330866Y-49236866D01*
X39145294Y-49462986D01*
X39007401Y-49720966D01*
X38922487Y-50000889D01*
X38893815Y-50292000D01*
X38922487Y-50583111D01*
X39007401Y-50863034D01*
X39145294Y-51121014D01*
X39330866Y-51347134D01*
X39556986Y-51532706D01*
X39611791Y-51562000D01*
X39556986Y-51591294D01*
X39330866Y-51776866D01*
X39145294Y-52002986D01*
X39054451Y-52172942D01*
X32153713Y-45272205D01*
X32181008Y-45290443D01*
X32405764Y-45383540D01*
X32644363Y-45431000D01*
X32887637Y-45431000D01*
X33126236Y-45383540D01*
X33350992Y-45290443D01*
X33553267Y-45155287D01*
X33725287Y-44983267D01*
X33860443Y-44780992D01*
X33953540Y-44556236D01*
X33978451Y-44431001D01*
X38898304Y-44431001D01*
X38901000Y-44926250D01*
X39059750Y-45085000D01*
X40259000Y-45085000D01*
X40259000Y-45065000D01*
X40513000Y-45065000D01*
X40513000Y-45085000D01*
X41712250Y-45085000D01*
X41871000Y-44926250D01*
X41873696Y-44431001D01*
X42996134Y-44431001D01*
X45482550Y-46917418D01*
X45508700Y-46949282D01*
X45635845Y-47053627D01*
X45780904Y-47131163D01*
X45938302Y-47178909D01*
X46060972Y-47190991D01*
X46060982Y-47190991D01*
X46101990Y-47195030D01*
X46142998Y-47190991D01*
X49876885Y-47190991D01*
X50001172Y-47315278D01*
X50203447Y-47450434D01*
X50428203Y-47543531D01*
X50666802Y-47590991D01*
X50910076Y-47590991D01*
X51148675Y-47543531D01*
X51373431Y-47450434D01*
X51575706Y-47315278D01*
X51747726Y-47143258D01*
X51799580Y-47065653D01*
X51851434Y-47143258D01*
X52023454Y-47315278D01*
X52225729Y-47450434D01*
X52450485Y-47543531D01*
X52689084Y-47590991D01*
X52932358Y-47590991D01*
X53170957Y-47543531D01*
X53395713Y-47450434D01*
X53597988Y-47315278D01*
X53770008Y-47143258D01*
X53905164Y-46940983D01*
X53998261Y-46716227D01*
X54045721Y-46477628D01*
X54045721Y-46234354D01*
X53998261Y-45995755D01*
X53905164Y-45770999D01*
X53770008Y-45568724D01*
X53597988Y-45396704D01*
X53395713Y-45261548D01*
X53170957Y-45168451D01*
X52932358Y-45120991D01*
X52756589Y-45120991D01*
X51016176Y-43380579D01*
X50990021Y-43348709D01*
X50873399Y-43253000D01*
X52239135Y-43253000D01*
X57207135Y-48221001D01*
G36*
X70036647Y-46270125D02*
G01*
X69930932Y-46326632D01*
X69869045Y-46562440D01*
X70625000Y-47318395D01*
X71380955Y-46562440D01*
X71319068Y-46326632D01*
X71079922Y-46215000D01*
X76439207Y-46215000D01*
X76619866Y-46435134D01*
X76845986Y-46620706D01*
X76900791Y-46650000D01*
X76845986Y-46679294D01*
X76619866Y-46864866D01*
X76439207Y-47085000D01*
X76121007Y-47085000D01*
X76079999Y-47080961D01*
X76038991Y-47085000D01*
X76038981Y-47085000D01*
X75916311Y-47097082D01*
X75758913Y-47144828D01*
X75613854Y-47222364D01*
X75486709Y-47326709D01*
X75460558Y-47358574D01*
X74313574Y-48505559D01*
X74281710Y-48531709D01*
X74255562Y-48563571D01*
X74177364Y-48658855D01*
X74099828Y-48803914D01*
X74052082Y-48961312D01*
X74047822Y-49004563D01*
X74028762Y-48985503D01*
X73806833Y-48837215D01*
X73560239Y-48735072D01*
X73298456Y-48683000D01*
X73031544Y-48683000D01*
X72769761Y-48735072D01*
X72523167Y-48837215D01*
X72301238Y-48985503D01*
X72112503Y-49174238D01*
X72093285Y-49203000D01*
X64699116Y-49203000D01*
X64737540Y-49110236D01*
X64754154Y-49026713D01*
X65347307Y-48433560D01*
X69869045Y-48433560D01*
X69930932Y-48669368D01*
X70172790Y-48782266D01*
X70432027Y-48845811D01*
X70698680Y-48857561D01*
X70962501Y-48817063D01*
X71213353Y-48725875D01*
X71319068Y-48669368D01*
X71380955Y-48433560D01*
X70625000Y-47677605D01*
X69869045Y-48433560D01*
X65347307Y-48433560D01*
X66209187Y-47571680D01*
X69265439Y-47571680D01*
X69305937Y-47835501D01*
X69397125Y-48086353D01*
X69453632Y-48192068D01*
X69689440Y-48253955D01*
X70445395Y-47498000D01*
X70804605Y-47498000D01*
X71560560Y-48253955D01*
X71796368Y-48192068D01*
X71909266Y-47950210D01*
X71972811Y-47690973D01*
X71984561Y-47424320D01*
X71944063Y-47160499D01*
X71852875Y-46909647D01*
X71796368Y-46803932D01*
X71560560Y-46742045D01*
X70804605Y-47498000D01*
X70445395Y-47498000D01*
X69689440Y-46742045D01*
X69453632Y-46803932D01*
X69340734Y-47045790D01*
X69277189Y-47305027D01*
X69265439Y-47571680D01*
X66209187Y-47571680D01*
X67565868Y-46215000D01*
X70188292Y-46215000D01*
X70036647Y-46270125D01*
X70036647Y-46270125D01*
G37*
X70036647Y-46270125D02*
X69930932Y-46326632D01*
X69869045Y-46562440D01*
X70625000Y-47318395D01*
X71380955Y-46562440D01*
X71319068Y-46326632D01*
X71079922Y-46215000D01*
X76439207Y-46215000D01*
X76619866Y-46435134D01*
X76845986Y-46620706D01*
X76900791Y-46650000D01*
X76845986Y-46679294D01*
X76619866Y-46864866D01*
X76439207Y-47085000D01*
X76121007Y-47085000D01*
X76079999Y-47080961D01*
X76038991Y-47085000D01*
X76038981Y-47085000D01*
X75916311Y-47097082D01*
X75758913Y-47144828D01*
X75613854Y-47222364D01*
X75486709Y-47326709D01*
X75460558Y-47358574D01*
X74313574Y-48505559D01*
X74281710Y-48531709D01*
X74255562Y-48563571D01*
X74177364Y-48658855D01*
X74099828Y-48803914D01*
X74052082Y-48961312D01*
X74047822Y-49004563D01*
X74028762Y-48985503D01*
X73806833Y-48837215D01*
X73560239Y-48735072D01*
X73298456Y-48683000D01*
X73031544Y-48683000D01*
X72769761Y-48735072D01*
X72523167Y-48837215D01*
X72301238Y-48985503D01*
X72112503Y-49174238D01*
X72093285Y-49203000D01*
X64699116Y-49203000D01*
X64737540Y-49110236D01*
X64754154Y-49026713D01*
X65347307Y-48433560D01*
X69869045Y-48433560D01*
X69930932Y-48669368D01*
X70172790Y-48782266D01*
X70432027Y-48845811D01*
X70698680Y-48857561D01*
X70962501Y-48817063D01*
X71213353Y-48725875D01*
X71319068Y-48669368D01*
X71380955Y-48433560D01*
X70625000Y-47677605D01*
X69869045Y-48433560D01*
X65347307Y-48433560D01*
X66209187Y-47571680D01*
X69265439Y-47571680D01*
X69305937Y-47835501D01*
X69397125Y-48086353D01*
X69453632Y-48192068D01*
X69689440Y-48253955D01*
X70445395Y-47498000D01*
X70804605Y-47498000D01*
X71560560Y-48253955D01*
X71796368Y-48192068D01*
X71909266Y-47950210D01*
X71972811Y-47690973D01*
X71984561Y-47424320D01*
X71944063Y-47160499D01*
X71852875Y-46909647D01*
X71796368Y-46803932D01*
X71560560Y-46742045D01*
X70804605Y-47498000D01*
X70445395Y-47498000D01*
X69689440Y-46742045D01*
X69453632Y-46803932D01*
X69340734Y-47045790D01*
X69277189Y-47305027D01*
X69265439Y-47571680D01*
X66209187Y-47571680D01*
X67565868Y-46215000D01*
X70188292Y-46215000D01*
X70036647Y-46270125D01*
G36*
X71247000Y-37465000D02*
G01*
X71267000Y-37465000D01*
X71267000Y-37719000D01*
X71247000Y-37719000D01*
X71247000Y-37739000D01*
X70993000Y-37739000D01*
X70993000Y-37719000D01*
X70973000Y-37719000D01*
X70973000Y-37465000D01*
X70993000Y-37465000D01*
X70993000Y-37445000D01*
X71247000Y-37445000D01*
X71247000Y-37465000D01*
X71247000Y-37465000D01*
G37*
X71247000Y-37465000D02*
X71267000Y-37465000D01*
X71267000Y-37719000D01*
X71247000Y-37719000D01*
X71247000Y-37739000D01*
X70993000Y-37739000D01*
X70993000Y-37719000D01*
X70973000Y-37719000D01*
X70973000Y-37465000D01*
X70993000Y-37465000D01*
X70993000Y-37445000D01*
X71247000Y-37445000D01*
X71247000Y-37465000D01*
M02*
