  0
SECTION
  2
ENTITIES
  0
POLYLINE
  8
0
 66
1
 70
1
  0
VERTEX
  8
0
 10
40.00
 20
100.00
 30
0.0
  0
VERTEX
  8
0
 10
40.00
 20
110.00
 30
0.0
  0
VERTEX
  8
0
 10
50.00
 20
110.00
 30
0.0
  0
VERTEX
  8
0
 10
60.00
 20
110.00
 30
0.0
  0
VERTEX
  8
0
 10
70.00
 20
110.00
 30
0.0
  0
VERTEX
  8
0
 10
80.00
 20
110.00
 30
0.0
  0
VERTEX
  8
0
 10
90.00
 20
110.00
 30
0.0
  0
VERTEX
  8
0
 10
100.00
 20
110.00
 30
0.0
  0
VERTEX
  8
0
 10
110.00
 20
110.00
 30
0.0
  0
VERTEX
  8
0
 10
110.00
 20
100.00
 30
0.0
  0
VERTEX
  8
0
 10
110.00
 20
90.00
 30
0.0
  0
VERTEX
  8
0
 10
110.00
 20
80.00
 30
0.0
  0
VERTEX
  8
0
 10
110.00
 20
70.00
 30
0.0
  0
VERTEX
  8
0
 10
110.00
 20
60.00
 30
0.0
  0
VERTEX
  8
0
 10
110.00
 20
50.00
 30
0.0
  0
VERTEX
  8
0
 10
110.00
 20
40.00
 30
0.0
  0
VERTEX
  8
0
 10
100.00
 20
40.00
 30
0.0
  0
VERTEX
  8
0
 10
90.00
 20
40.00
 30
0.0
  0
VERTEX
  8
0
 10
80.00
 20
40.00
 30
0.0
  0
VERTEX
  8
0
 10
70.00
 20
40.00
 30
0.0
  0
VERTEX
  8
0
 10
60.00
 20
40.00
 30
0.0
  0
VERTEX
  8
0
 10
50.00
 20
40.00
 30
0.0
  0
VERTEX
  8
0
 10
40.00
 20
40.00
 30
0.0
  0
VERTEX
  8
0
 10
40.00
 20
50.00
 30
0.0
  0
VERTEX
  8
0
 10
40.00
 20
60.00
 30
0.0
  0
VERTEX
  8
0
 10
40.00
 20
70.00
 30
0.0
  0
VERTEX
  8
0
 10
40.00
 20
80.00
 30
0.0
  0
VERTEX
  8
0
 10
40.00
 20
90.00
 30
0.0
  0
SEQEND
  8
0
  0
POLYLINE
  8
0
 66
1
 70
1
  0
VERTEX
  8
0
 10
60.00
 20
100.00
 30
0.0
  0
VERTEX
  8
0
 10
50.00
 20
100.00
 30
0.0
  0
VERTEX
  8
0
 10
50.00
 20
90.00
 30
0.0
  0
VERTEX
  8
0
 10
50.00
 20
80.00
 30
0.0
  0
VERTEX
  8
0
 10
50.00
 20
70.00
 30
0.0
  0
VERTEX
  8
0
 10
50.00
 20
60.00
 30
0.0
  0
VERTEX
  8
0
 10
50.00
 20
50.00
 30
0.0
  0
VERTEX
  8
0
 10
60.00
 20
50.00
 30
0.0
  0
VERTEX
  8
0
 10
70.00
 20
50.00
 30
0.0
  0
VERTEX
  8
0
 10
80.00
 20
50.00
 30
0.0
  0
VERTEX
  8
0
 10
90.00
 20
50.00
 30
0.0
  0
VERTEX
  8
0
 10
100.00
 20
50.00
 30
0.0
  0
VERTEX
  8
0
 10
100.00
 20
60.00
 30
0.0
  0
VERTEX
  8
0
 10
100.00
 20
70.00
 30
0.0
  0
VERTEX
  8
0
 10
100.00
 20
80.00
 30
0.0
  0
VERTEX
  8
0
 10
100.00
 20
90.00
 30
0.0
  0
VERTEX
  8
0
 10
100.00
 20
100.00
 30
0.0
  0
VERTEX
  8
0
 10
90.00
 20
100.00
 30
0.0
  0
VERTEX
  8
0
 10
80.00
 20
100.00
 30
0.0
  0
VERTEX
  8
0
 10
70.00
 20
100.00
 30
0.0
  0
SEQEND
  8
0
  0
POLYLINE
  8
0
 66
1
 70
1
  0
VERTEX
  8
0
 10
70.00
 20
90.00
 30
0.0
  0
VERTEX
  8
0
 10
80.00
 20
90.00
 30
0.0
  0
VERTEX
  8
0
 10
90.00
 20
90.00
 30
0.0
  0
VERTEX
  8
0
 10
90.00
 20
80.00
 30
0.0
  0
VERTEX
  8
0
 10
90.00
 20
70.00
 30
0.0
  0
VERTEX
  8
0
 10
90.00
 20
60.00
 30
0.0
  0
VERTEX
  8
0
 10
80.00
 20
60.00
 30
0.0
  0
VERTEX
  8
0
 10
70.00
 20
60.00
 30
0.0
  0
VERTEX
  8
0
 10
60.00
 20
60.00
 30
0.0
  0
VERTEX
  8
0
 10
60.00
 20
70.00
 30
0.0
  0
VERTEX
  8
0
 10
60.00
 20
80.00
 30
0.0
  0
VERTEX
  8
0
 10
60.00
 20
90.00
 30
0.0
  0
SEQEND
  8
0
  0
POLYLINE
  8
0
 66
1
 70
1
  0
VERTEX
  8
0
 10
60.00
 20
120.00
 30
0.0
  0
VERTEX
  8
0
 10
60.00
 20
130.00
 30
0.0
  0
VERTEX
  8
0
 10
70.00
 20
130.00
 30
0.0
  0
VERTEX
  8
0
 10
70.00
 20
120.00
 30
0.0
  0
SEQEND
  8
0
  0
POLYLINE
  8
0
 66
1
 70
1
  0
VERTEX
  8
0
 10
40.00
 20
120.00
 30
0.0
  0
VERTEX
  8
0
 10
40.00
 20
130.00
 30
0.0
  0
VERTEX
  8
0
 10
50.00
 20
130.00
 30
0.0
  0
VERTEX
  8
0
 10
50.00
 20
120.00
 30
0.0
  0
SEQEND
  8
0
  0
POLYLINE
  8
0
 66
1
 70
1
  0
VERTEX
  8
0
 10
70.00
 20
140.00
 30
0.0
  0
VERTEX
  8
0
 10
80.00
 20
140.00
 30
0.0
  0
VERTEX
  8
0
 10
90.00
 20
140.00
 30
0.0
  0
VERTEX
  8
0
 10
100.00
 20
140.00
 30
0.0
  0
VERTEX
  8
0
 10
100.00
 20
130.00
 30
0.0
  0
VERTEX
  8
0
 10
90.00
 20
130.00
 30
0.0
  0
VERTEX
  8
0
 10
90.00
 20
120.00
 30
0.0
  0
VERTEX
  8
0
 10
80.00
 20
120.00
 30
0.0
  0
VERTEX
  8
0
 10
80.00
 20
130.00
 30
0.0
  0
VERTEX
  8
0
 10
70.00
 20
130.00
 30
0.0
  0
SEQEND
  8
0
  0
POLYLINE
  8
0
 66
1
 70
1
  0
VERTEX
  8
0
 10
50.00
 20
140.00
 30
0.0
  0
VERTEX
  8
0
 10
40.00
 20
140.00
 30
0.0
  0
VERTEX
  8
0
 10
40.00
 20
150.00
 30
0.0
  0
VERTEX
  8
0
 10
50.00
 20
150.00
 30
0.0
  0
SEQEND
  8
0
  0
POLYLINE
  8
0
 66
1
 70
1
  0
VERTEX
  8
0
 10
80.00
 20
160.00
 30
0.0
  0
VERTEX
  8
0
 10
80.00
 20
170.00
 30
0.0
  0
VERTEX
  8
0
 10
90.00
 20
170.00
 30
0.0
  0
VERTEX
  8
0
 10
90.00
 20
160.00
 30
0.0
  0
VERTEX
  8
0
 10
100.00
 20
160.00
 30
0.0
  0
VERTEX
  8
0
 10
100.00
 20
150.00
 30
0.0
  0
VERTEX
  8
0
 10
90.00
 20
150.00
 30
0.0
  0
VERTEX
  8
0
 10
80.00
 20
150.00
 30
0.0
  0
VERTEX
  8
0
 10
70.00
 20
150.00
 30
0.0
  0
VERTEX
  8
0
 10
70.00
 20
140.00
 30
0.0
  0
VERTEX
  8
0
 10
60.00
 20
140.00
 30
0.0
  0
VERTEX
  8
0
 10
60.00
 20
150.00
 30
0.0
  0
VERTEX
  8
0
 10
60.00
 20
160.00
 30
0.0
  0
VERTEX
  8
0
 10
60.00
 20
170.00
 30
0.0
  0
VERTEX
  8
0
 10
70.00
 20
170.00
 30
0.0
  0
VERTEX
  8
0
 10
70.00
 20
160.00
 30
0.0
  0
SEQEND
  8
0
  0
POLYLINE
  8
0
 66
1
 70
1
  0
VERTEX
  8
0
 10
40.00
 20
160.00
 30
0.0
  0
VERTEX
  8
0
 10
40.00
 20
170.00
 30
0.0
  0
VERTEX
  8
0
 10
50.00
 20
170.00
 30
0.0
  0
VERTEX
  8
0
 10
50.00
 20
160.00
 30
0.0
  0
SEQEND
  8
0
  0
POLYLINE
  8
0
 66
1
 70
1
  0
VERTEX
  8
0
 10
60.00
 20
180.00
 30
0.0
  0
VERTEX
  8
0
 10
50.00
 20
180.00
 30
0.0
  0
VERTEX
  8
0
 10
40.00
 20
180.00
 30
0.0
  0
VERTEX
  8
0
 10
40.00
 20
190.00
 30
0.0
  0
VERTEX
  8
0
 10
40.00
 20
200.00
 30
0.0
  0
VERTEX
  8
0
 10
40.00
 20
210.00
 30
0.0
  0
VERTEX
  8
0
 10
40.00
 20
220.00
 30
0.0
  0
VERTEX
  8
0
 10
40.00
 20
230.00
 30
0.0
  0
VERTEX
  8
0
 10
40.00
 20
240.00
 30
0.0
  0
VERTEX
  8
0
 10
40.00
 20
250.00
 30
0.0
  0
VERTEX
  8
0
 10
50.00
 20
250.00
 30
0.0
  0
VERTEX
  8
0
 10
60.00
 20
250.00
 30
0.0
  0
VERTEX
  8
0
 10
70.00
 20
250.00
 30
0.0
  0
VERTEX
  8
0
 10
80.00
 20
250.00
 30
0.0
  0
VERTEX
  8
0
 10
90.00
 20
250.00
 30
0.0
  0
VERTEX
  8
0
 10
100.00
 20
250.00
 30
0.0
  0
VERTEX
  8
0
 10
110.00
 20
250.00
 30
0.0
  0
VERTEX
  8
0
 10
110.00
 20
240.00
 30
0.0
  0
VERTEX
  8
0
 10
110.00
 20
230.00
 30
0.0
  0
VERTEX
  8
0
 10
110.00
 20
220.00
 30
0.0
  0
VERTEX
  8
0
 10
110.00
 20
210.00
 30
0.0
  0
VERTEX
  8
0
 10
110.00
 20
200.00
 30
0.0
  0
VERTEX
  8
0
 10
110.00
 20
190.00
 30
0.0
  0
VERTEX
  8
0
 10
110.00
 20
180.00
 30
0.0
  0
VERTEX
  8
0
 10
100.00
 20
180.00
 30
0.0
  0
VERTEX
  8
0
 10
90.00
 20
180.00
 30
0.0
  0
VERTEX
  8
0
 10
80.00
 20
180.00
 30
0.0
  0
VERTEX
  8
0
 10
70.00
 20
180.00
 30
0.0
  0
SEQEND
  8
0
  0
POLYLINE
  8
0
 66
1
 70
1
  0
VERTEX
  8
0
 10
60.00
 20
240.00
 30
0.0
  0
VERTEX
  8
0
 10
50.00
 20
240.00
 30
0.0
  0
VERTEX
  8
0
 10
50.00
 20
230.00
 30
0.0
  0
VERTEX
  8
0
 10
50.00
 20
220.00
 30
0.0
  0
VERTEX
  8
0
 10
50.00
 20
210.00
 30
0.0
  0
VERTEX
  8
0
 10
50.00
 20
200.00
 30
0.0
  0
VERTEX
  8
0
 10
50.00
 20
190.00
 30
0.0
  0
VERTEX
  8
0
 10
60.00
 20
190.00
 30
0.0
  0
VERTEX
  8
0
 10
70.00
 20
190.00
 30
0.0
  0
VERTEX
  8
0
 10
80.00
 20
190.00
 30
0.0
  0
VERTEX
  8
0
 10
90.00
 20
190.00
 30
0.0
  0
VERTEX
  8
0
 10
100.00
 20
190.00
 30
0.0
  0
VERTEX
  8
0
 10
100.00
 20
200.00
 30
0.0
  0
VERTEX
  8
0
 10
100.00
 20
210.00
 30
0.0
  0
VERTEX
  8
0
 10
100.00
 20
220.00
 30
0.0
  0
VERTEX
  8
0
 10
100.00
 20
230.00
 30
0.0
  0
VERTEX
  8
0
 10
100.00
 20
240.00
 30
0.0
  0
VERTEX
  8
0
 10
90.00
 20
240.00
 30
0.0
  0
VERTEX
  8
0
 10
80.00
 20
240.00
 30
0.0
  0
VERTEX
  8
0
 10
70.00
 20
240.00
 30
0.0
  0
SEQEND
  8
0
  0
POLYLINE
  8
0
 66
1
 70
1
  0
VERTEX
  8
0
 10
60.00
 20
220.00
 30
0.0
  0
VERTEX
  8
0
 10
60.00
 20
230.00
 30
0.0
  0
VERTEX
  8
0
 10
70.00
 20
230.00
 30
0.0
  0
VERTEX
  8
0
 10
80.00
 20
230.00
 30
0.0
  0
VERTEX
  8
0
 10
90.00
 20
230.00
 30
0.0
  0
VERTEX
  8
0
 10
90.00
 20
220.00
 30
0.0
  0
VERTEX
  8
0
 10
90.00
 20
210.00
 30
0.0
  0
VERTEX
  8
0
 10
90.00
 20
200.00
 30
0.0
  0
VERTEX
  8
0
 10
80.00
 20
200.00
 30
0.0
  0
VERTEX
  8
0
 10
70.00
 20
200.00
 30
0.0
  0
VERTEX
  8
0
 10
60.00
 20
200.00
 30
0.0
  0
VERTEX
  8
0
 10
60.00
 20
210.00
 30
0.0
  0
SEQEND
  8
0
  0
POLYLINE
  8
0
 66
1
 70
1
  0
VERTEX
  8
0
 10
120.00
 20
90.00
 30
0.0
  0
VERTEX
  8
0
 10
130.00
 20
90.00
 30
0.0
  0
VERTEX
  8
0
 10
140.00
 20
90.00
 30
0.0
  0
VERTEX
  8
0
 10
140.00
 20
100.00
 30
0.0
  0
VERTEX
  8
0
 10
150.00
 20
100.00
 30
0.0
  0
VERTEX
  8
0
 10
150.00
 20
90.00
 30
0.0
  0
VERTEX
  8
0
 10
150.00
 20
80.00
 30
0.0
  0
VERTEX
  8
0
 10
160.00
 20
80.00
 30
0.0
  0
VERTEX
  8
0
 10
160.00
 20
70.00
 30
0.0
  0
VERTEX
  8
0
 10
160.00
 20
60.00
 30
0.0
  0
VERTEX
  8
0
 10
170.00
 20
60.00
 30
0.0
  0
VERTEX
  8
0
 10
170.00
 20
70.00
 30
0.0
  0
VERTEX
  8
0
 10
170.00
 20
80.00
 30
0.0
  0
VERTEX
  8
0
 10
180.00
 20
80.00
 30
0.0
  0
VERTEX
  8
0
 10
180.00
 20
70.00
 30
0.0
  0
VERTEX
  8
0
 10
190.00
 20
70.00
 30
0.0
  0
VERTEX
  8
0
 10
190.00
 20
80.00
 30
0.0
  0
VERTEX
  8
0
 10
200.00
 20
80.00
 30
0.0
  0
VERTEX
  8
0
 10
200.00
 20
70.00
 30
0.0
  0
VERTEX
  8
0
 10
200.00
 20
60.00
 30
0.0
  0
VERTEX
  8
0
 10
210.00
 20
60.00
 30
0.0
  0
VERTEX
  8
0
 10
220.00
 20
60.00
 30
0.0
  0
VERTEX
  8
0
 10
220.00
 20
50.00
 30
0.0
  0
VERTEX
  8
0
 10
210.00
 20
50.00
 30
0.0
  0
VERTEX
  8
0
 10
200.00
 20
50.00
 30
0.0
  0
VERTEX
  8
0
 10
200.00
 20
40.00
 30
0.0
  0
VERTEX
  8
0
 10
190.00
 20
40.00
 30
0.0
  0
VERTEX
  8
0
 10
180.00
 20
40.00
 30
0.0
  0
VERTEX
  8
0
 10
170.00
 20
40.00
 30
0.0
  0
VERTEX
  8
0
 10
170.00
 20
50.00
 30
0.0
  0
VERTEX
  8
0
 10
160.00
 20
50.00
 30
0.0
  0
VERTEX
  8
0
 10
160.00
 20
40.00
 30
0.0
  0
VERTEX
  8
0
 10
150.00
 20
40.00
 30
0.0
  0
VERTEX
  8
0
 10
140.00
 20
40.00
 30
0.0
  0
VERTEX
  8
0
 10
130.00
 20
40.00
 30
0.0
  0
VERTEX
  8
0
 10
120.00
 20
40.00
 30
0.0
  0
VERTEX
  8
0
 10
120.00
 20
50.00
 30
0.0
  0
VERTEX
  8
0
 10
130.00
 20
50.00
 30
0.0
  0
VERTEX
  8
0
 10
140.00
 20
50.00
 30
0.0
  0
VERTEX
  8
0
 10
140.00
 20
60.00
 30
0.0
  0
VERTEX
  8
0
 10
130.00
 20
60.00
 30
0.0
  0
VERTEX
  8
0
 10
120.00
 20
60.00
 30
0.0
  0
VERTEX
  8
0
 10
120.00
 20
70.00
 30
0.0
  0
VERTEX
  8
0
 10
130.00
 20
70.00
 30
0.0
  0
VERTEX
  8
0
 10
140.00
 20
70.00
 30
0.0
  0
VERTEX
  8
0
 10
140.00
 20
80.00
 30
0.0
  0
VERTEX
  8
0
 10
130.00
 20
80.00
 30
0.0
  0
VERTEX
  8
0
 10
120.00
 20
80.00
 30
0.0
  0
SEQEND
  8
0
  0
POLYLINE
  8
0
 66
1
 70
1
  0
VERTEX
  8
0
 10
190.00
 20
60.00
 30
0.0
  0
VERTEX
  8
0
 10
180.00
 20
60.00
 30
0.0
  0
VERTEX
  8
0
 10
180.00
 20
50.00
 30
0.0
  0
VERTEX
  8
0
 10
190.00
 20
50.00
 30
0.0
  0
SEQEND
  8
0
  0
POLYLINE
  8
0
 66
1
 70
1
  0
VERTEX
  8
0
 10
120.00
 20
110.00
 30
0.0
  0
VERTEX
  8
0
 10
120.00
 20
120.00
 30
0.0
  0
VERTEX
  8
0
 10
130.00
 20
120.00
 30
0.0
  0
VERTEX
  8
0
 10
130.00
 20
110.00
 30
0.0
  0
SEQEND
  8
0
  0
POLYLINE
  8
0
 66
1
 70
1
  0
VERTEX
  8
0
 10
100.00
 20
120.00
 30
0.0
  0
VERTEX
  8
0
 10
100.00
 20
130.00
 30
0.0
  0
VERTEX
  8
0
 10
110.00
 20
130.00
 30
0.0
  0
VERTEX
  8
0
 10
110.00
 20
120.00
 30
0.0
  0
SEQEND
  8
0
  0
POLYLINE
  8
0
 66
1
 70
1
  0
VERTEX
  8
0
 10
110.00
 20
150.00
 30
0.0
  0
VERTEX
  8
0
 10
110.00
 20
160.00
 30
0.0
  0
VERTEX
  8
0
 10
120.00
 20
160.00
 30
0.0
  0
VERTEX
  8
0
 10
120.00
 20
150.00
 30
0.0
  0
VERTEX
  8
0
 10
130.00
 20
150.00
 30
0.0
  0
VERTEX
  8
0
 10
140.00
 20
150.00
 30
0.0
  0
VERTEX
  8
0
 10
140.00
 20
160.00
 30
0.0
  0
VERTEX
  8
0
 10
140.00
 20
170.00
 30
0.0
  0
VERTEX
  8
0
 10
130.00
 20
170.00
 30
0.0
  0
VERTEX
  8
0
 10
130.00
 20
180.00
 30
0.0
  0
VERTEX
  8
0
 10
140.00
 20
180.00
 30
0.0
  0
VERTEX
  8
0
 10
140.00
 20
190.00
 30
0.0
  0
VERTEX
  8
0
 10
150.00
 20
190.00
 30
0.0
  0
VERTEX
  8
0
 10
150.00
 20
180.00
 30
0.0
  0
VERTEX
  8
0
 10
150.00
 20
170.00
 30
0.0
  0
VERTEX
  8
0
 10
150.00
 20
160.00
 30
0.0
  0
VERTEX
  8
0
 10
160.00
 20
160.00
 30
0.0
  0
VERTEX
  8
0
 10
160.00
 20
150.00
 30
0.0
  0
VERTEX
  8
0
 10
160.00
 20
140.00
 30
0.0
  0
VERTEX
  8
0
 10
170.00
 20
140.00
 30
0.0
  0
VERTEX
  8
0
 10
170.00
 20
150.00
 30
0.0
  0
VERTEX
  8
0
 10
170.00
 20
160.00
 30
0.0
  0
VERTEX
  8
0
 10
180.00
 20
160.00
 30
0.0
  0
VERTEX
  8
0
 10
180.00
 20
150.00
 30
0.0
  0
VERTEX
  8
0
 10
190.00
 20
150.00
 30
0.0
  0
VERTEX
  8
0
 10
190.00
 20
160.00
 30
0.0
  0
VERTEX
  8
0
 10
200.00
 20
160.00
 30
0.0
  0
VERTEX
  8
0
 10
200.00
 20
150.00
 30
0.0
  0
VERTEX
  8
0
 10
200.00
 20
140.00
 30
0.0
  0
VERTEX
  8
0
 10
210.00
 20
140.00
 30
0.0
  0
VERTEX
  8
0
 10
210.00
 20
130.00
 30
0.0
  0
VERTEX
  8
0
 10
200.00
 20
130.00
 30
0.0
  0
VERTEX
  8
0
 10
200.00
 20
120.00
 30
0.0
  0
VERTEX
  8
0
 10
190.00
 20
120.00
 30
0.0
  0
VERTEX
  8
0
 10
190.00
 20
110.00
 30
0.0
  0
VERTEX
  8
0
 10
180.00
 20
110.00
 30
0.0
  0
VERTEX
  8
0
 10
180.00
 20
120.00
 30
0.0
  0
VERTEX
  8
0
 10
170.00
 20
120.00
 30
0.0
  0
VERTEX
  8
0
 10
170.00
 20
130.00
 30
0.0
  0
VERTEX
  8
0
 10
160.00
 20
130.00
 30
0.0
  0
VERTEX
  8
0
 10
160.00
 20
120.00
 30
0.0
  0
VERTEX
  8
0
 10
150.00
 20
120.00
 30
0.0
  0
VERTEX
  8
0
 10
140.00
 20
120.00
 30
0.0
  0
VERTEX
  8
0
 10
130.00
 20
120.00
 30
0.0
  0
VERTEX
  8
0
 10
130.00
 20
130.00
 30
0.0
  0
VERTEX
  8
0
 10
120.00
 20
130.00
 30
0.0
  0
VERTEX
  8
0
 10
120.00
 20
140.00
 30
0.0
  0
VERTEX
  8
0
 10
110.00
 20
140.00
 30
0.0
  0
VERTEX
  8
0
 10
100.00
 20
140.00
 30
0.0
  0
VERTEX
  8
0
 10
100.00
 20
150.00
 30
0.0
  0
SEQEND
  8
0
  0
POLYLINE
  8
0
 66
1
 70
1
  0
VERTEX
  8
0
 10
180.00
 20
130.00
 30
0.0
  0
VERTEX
  8
0
 10
190.00
 20
130.00
 30
0.0
  0
VERTEX
  8
0
 10
190.00
 20
140.00
 30
0.0
  0
VERTEX
  8
0
 10
180.00
 20
140.00
 30
0.0
  0
SEQEND
  8
0
  0
POLYLINE
  8
0
 66
1
 70
1
  0
VERTEX
  8
0
 10
100.00
 20
160.00
 30
0.0
  0
VERTEX
  8
0
 10
100.00
 20
170.00
 30
0.0
  0
VERTEX
  8
0
 10
110.00
 20
170.00
 30
0.0
  0
VERTEX
  8
0
 10
110.00
 20
160.00
 30
0.0
  0
SEQEND
  8
0
  0
POLYLINE
  8
0
 66
1
 70
1
  0
VERTEX
  8
0
 10
120.00
 20
200.00
 30
0.0
  0
VERTEX
  8
0
 10
120.00
 20
210.00
 30
0.0
  0
VERTEX
  8
0
 10
130.00
 20
210.00
 30
0.0
  0
VERTEX
  8
0
 10
130.00
 20
220.00
 30
0.0
  0
VERTEX
  8
0
 10
140.00
 20
220.00
 30
0.0
  0
VERTEX
  8
0
 10
150.00
 20
220.00
 30
0.0
  0
VERTEX
  8
0
 10
150.00
 20
210.00
 30
0.0
  0
VERTEX
  8
0
 10
140.00
 20
210.00
 30
0.0
  0
VERTEX
  8
0
 10
140.00
 20
200.00
 30
0.0
  0
VERTEX
  8
0
 10
140.00
 20
190.00
 30
0.0
  0
VERTEX
  8
0
 10
130.00
 20
190.00
 30
0.0
  0
VERTEX
  8
0
 10
130.00
 20
200.00
 30
0.0
  0
SEQEND
  8
0
  0
POLYLINE
  8
0
 66
1
 70
1
  0
VERTEX
  8
0
 10
120.00
 20
230.00
 30
0.0
  0
VERTEX
  8
0
 10
120.00
 20
240.00
 30
0.0
  0
VERTEX
  8
0
 10
130.00
 20
240.00
 30
0.0
  0
VERTEX
  8
0
 10
130.00
 20
230.00
 30
0.0
  0
SEQEND
  8
0
  0
POLYLINE
  8
0
 66
1
 70
1
  0
VERTEX
  8
0
 10
160.00
 20
100.00
 30
0.0
  0
VERTEX
  8
0
 10
160.00
 20
110.00
 30
0.0
  0
VERTEX
  8
0
 10
170.00
 20
110.00
 30
0.0
  0
VERTEX
  8
0
 10
170.00
 20
100.00
 30
0.0
  0
SEQEND
  8
0
  0
POLYLINE
  8
0
 66
1
 70
1
  0
VERTEX
  8
0
 10
130.00
 20
100.00
 30
0.0
  0
VERTEX
  8
0
 10
130.00
 20
110.00
 30
0.0
  0
VERTEX
  8
0
 10
140.00
 20
110.00
 30
0.0
  0
VERTEX
  8
0
 10
140.00
 20
100.00
 30
0.0
  0
SEQEND
  8
0
  0
POLYLINE
  8
0
 66
1
 70
1
  0
VERTEX
  8
0
 10
170.00
 20
160.00
 30
0.0
  0
VERTEX
  8
0
 10
160.00
 20
160.00
 30
0.0
  0
VERTEX
  8
0
 10
160.00
 20
170.00
 30
0.0
  0
VERTEX
  8
0
 10
170.00
 20
170.00
 30
0.0
  0
SEQEND
  8
0
  0
POLYLINE
  8
0
 66
1
 70
1
  0
VERTEX
  8
0
 10
120.00
 20
180.00
 30
0.0
  0
VERTEX
  8
0
 10
120.00
 20
190.00
 30
0.0
  0
VERTEX
  8
0
 10
130.00
 20
190.00
 30
0.0
  0
VERTEX
  8
0
 10
130.00
 20
180.00
 30
0.0
  0
SEQEND
  8
0
  0
POLYLINE
  8
0
 66
1
 70
1
  0
VERTEX
  8
0
 10
160.00
 20
180.00
 30
0.0
  0
VERTEX
  8
0
 10
160.00
 20
190.00
 30
0.0
  0
VERTEX
  8
0
 10
170.00
 20
190.00
 30
0.0
  0
VERTEX
  8
0
 10
170.00
 20
180.00
 30
0.0
  0
SEQEND
  8
0
  0
POLYLINE
  8
0
 66
1
 70
1
  0
VERTEX
  8
0
 10
170.00
 20
200.00
 30
0.0
  0
VERTEX
  8
0
 10
160.00
 20
200.00
 30
0.0
  0
VERTEX
  8
0
 10
160.00
 20
190.00
 30
0.0
  0
VERTEX
  8
0
 10
150.00
 20
190.00
 30
0.0
  0
VERTEX
  8
0
 10
150.00
 20
200.00
 30
0.0
  0
VERTEX
  8
0
 10
150.00
 20
210.00
 30
0.0
  0
VERTEX
  8
0
 10
160.00
 20
210.00
 30
0.0
  0
VERTEX
  8
0
 10
170.00
 20
210.00
 30
0.0
  0
SEQEND
  8
0
  0
POLYLINE
  8
0
 66
1
 70
1
  0
VERTEX
  8
0
 10
150.00
 20
220.00
 30
0.0
  0
VERTEX
  8
0
 10
150.00
 20
230.00
 30
0.0
  0
VERTEX
  8
0
 10
160.00
 20
230.00
 30
0.0
  0
VERTEX
  8
0
 10
160.00
 20
220.00
 30
0.0
  0
SEQEND
  8
0
  0
POLYLINE
  8
0
 66
1
 70
1
  0
VERTEX
  8
0
 10
150.00
 20
230.00
 30
0.0
  0
VERTEX
  8
0
 10
140.00
 20
230.00
 30
0.0
  0
VERTEX
  8
0
 10
140.00
 20
240.00
 30
0.0
  0
VERTEX
  8
0
 10
140.00
 20
250.00
 30
0.0
  0
VERTEX
  8
0
 10
150.00
 20
250.00
 30
0.0
  0
VERTEX
  8
0
 10
150.00
 20
240.00
 30
0.0
  0
SEQEND
  8
0
  0
POLYLINE
  8
0
 66
1
 70
1
  0
VERTEX
  8
0
 10
160.00
 20
80.00
 30
0.0
  0
VERTEX
  8
0
 10
160.00
 20
90.00
 30
0.0
  0
VERTEX
  8
0
 10
170.00
 20
90.00
 30
0.0
  0
VERTEX
  8
0
 10
170.00
 20
80.00
 30
0.0
  0
SEQEND
  8
0
  0
POLYLINE
  8
0
 66
1
 70
1
  0
VERTEX
  8
0
 10
190.00
 20
80.00
 30
0.0
  0
VERTEX
  8
0
 10
180.00
 20
80.00
 30
0.0
  0
VERTEX
  8
0
 10
180.00
 20
90.00
 30
0.0
  0
VERTEX
  8
0
 10
180.00
 20
100.00
 30
0.0
  0
VERTEX
  8
0
 10
190.00
 20
100.00
 30
0.0
  0
VERTEX
  8
0
 10
190.00
 20
90.00
 30
0.0
  0
SEQEND
  8
0
  0
POLYLINE
  8
0
 66
1
 70
1
  0
VERTEX
  8
0
 10
200.00
 20
90.00
 30
0.0
  0
VERTEX
  8
0
 10
210.00
 20
90.00
 30
0.0
  0
VERTEX
  8
0
 10
220.00
 20
90.00
 30
0.0
  0
VERTEX
  8
0
 10
220.00
 20
80.00
 30
0.0
  0
VERTEX
  8
0
 10
210.00
 20
80.00
 30
0.0
  0
VERTEX
  8
0
 10
200.00
 20
80.00
 30
0.0
  0
SEQEND
  8
0
  0
POLYLINE
  8
0
 66
1
 70
1
  0
VERTEX
  8
0
 10
200.00
 20
110.00
 30
0.0
  0
VERTEX
  8
0
 10
210.00
 20
110.00
 30
0.0
  0
VERTEX
  8
0
 10
210.00
 20
120.00
 30
0.0
  0
VERTEX
  8
0
 10
210.00
 20
130.00
 30
0.0
  0
VERTEX
  8
0
 10
220.00
 20
130.00
 30
0.0
  0
VERTEX
  8
0
 10
220.00
 20
120.00
 30
0.0
  0
VERTEX
  8
0
 10
220.00
 20
110.00
 30
0.0
  0
VERTEX
  8
0
 10
220.00
 20
100.00
 30
0.0
  0
VERTEX
  8
0
 10
210.00
 20
100.00
 30
0.0
  0
VERTEX
  8
0
 10
200.00
 20
100.00
 30
0.0
  0
SEQEND
  8
0
  0
POLYLINE
  8
0
 66
1
 70
1
  0
VERTEX
  8
0
 10
200.00
 20
160.00
 30
0.0
  0
VERTEX
  8
0
 10
200.00
 20
170.00
 30
0.0
  0
VERTEX
  8
0
 10
210.00
 20
170.00
 30
0.0
  0
VERTEX
  8
0
 10
210.00
 20
160.00
 30
0.0
  0
SEQEND
  8
0
  0
POLYLINE
  8
0
 66
1
 70
1
  0
VERTEX
  8
0
 10
200.00
 20
180.00
 30
0.0
  0
VERTEX
  8
0
 10
190.00
 20
180.00
 30
0.0
  0
VERTEX
  8
0
 10
180.00
 20
180.00
 30
0.0
  0
VERTEX
  8
0
 10
180.00
 20
190.00
 30
0.0
  0
VERTEX
  8
0
 10
180.00
 20
200.00
 30
0.0
  0
VERTEX
  8
0
 10
180.00
 20
210.00
 30
0.0
  0
VERTEX
  8
0
 10
180.00
 20
220.00
 30
0.0
  0
VERTEX
  8
0
 10
180.00
 20
230.00
 30
0.0
  0
VERTEX
  8
0
 10
180.00
 20
240.00
 30
0.0
  0
VERTEX
  8
0
 10
180.00
 20
250.00
 30
0.0
  0
VERTEX
  8
0
 10
190.00
 20
250.00
 30
0.0
  0
VERTEX
  8
0
 10
200.00
 20
250.00
 30
0.0
  0
VERTEX
  8
0
 10
210.00
 20
250.00
 30
0.0
  0
VERTEX
  8
0
 10
220.00
 20
250.00
 30
0.0
  0
VERTEX
  8
0
 10
230.00
 20
250.00
 30
0.0
  0
VERTEX
  8
0
 10
240.00
 20
250.00
 30
0.0
  0
VERTEX
  8
0
 10
250.00
 20
250.00
 30
0.0
  0
VERTEX
  8
0
 10
250.00
 20
240.00
 30
0.0
  0
VERTEX
  8
0
 10
250.00
 20
230.00
 30
0.0
  0
VERTEX
  8
0
 10
250.00
 20
220.00
 30
0.0
  0
VERTEX
  8
0
 10
250.00
 20
210.00
 30
0.0
  0
VERTEX
  8
0
 10
250.00
 20
200.00
 30
0.0
  0
VERTEX
  8
0
 10
250.00
 20
190.00
 30
0.0
  0
VERTEX
  8
0
 10
250.00
 20
180.00
 30
0.0
  0
VERTEX
  8
0
 10
240.00
 20
180.00
 30
0.0
  0
VERTEX
  8
0
 10
230.00
 20
180.00
 30
0.0
  0
VERTEX
  8
0
 10
220.00
 20
180.00
 30
0.0
  0
VERTEX
  8
0
 10
210.00
 20
180.00
 30
0.0
  0
SEQEND
  8
0
  0
POLYLINE
  8
0
 66
1
 70
1
  0
VERTEX
  8
0
 10
220.00
 20
190.00
 30
0.0
  0
VERTEX
  8
0
 10
230.00
 20
190.00
 30
0.0
  0
VERTEX
  8
0
 10
240.00
 20
190.00
 30
0.0
  0
VERTEX
  8
0
 10
240.00
 20
200.00
 30
0.0
  0
VERTEX
  8
0
 10
240.00
 20
210.00
 30
0.0
  0
VERTEX
  8
0
 10
240.00
 20
220.00
 30
0.0
  0
VERTEX
  8
0
 10
240.00
 20
230.00
 30
0.0
  0
VERTEX
  8
0
 10
240.00
 20
240.00
 30
0.0
  0
VERTEX
  8
0
 10
230.00
 20
240.00
 30
0.0
  0
VERTEX
  8
0
 10
220.00
 20
240.00
 30
0.0
  0
VERTEX
  8
0
 10
210.00
 20
240.00
 30
0.0
  0
VERTEX
  8
0
 10
200.00
 20
240.00
 30
0.0
  0
VERTEX
  8
0
 10
190.00
 20
240.00
 30
0.0
  0
VERTEX
  8
0
 10
190.00
 20
230.00
 30
0.0
  0
VERTEX
  8
0
 10
190.00
 20
220.00
 30
0.0
  0
VERTEX
  8
0
 10
190.00
 20
210.00
 30
0.0
  0
VERTEX
  8
0
 10
190.00
 20
200.00
 30
0.0
  0
VERTEX
  8
0
 10
190.00
 20
190.00
 30
0.0
  0
VERTEX
  8
0
 10
200.00
 20
190.00
 30
0.0
  0
VERTEX
  8
0
 10
210.00
 20
190.00
 30
0.0
  0
SEQEND
  8
0
  0
POLYLINE
  8
0
 66
1
 70
1
  0
VERTEX
  8
0
 10
210.00
 20
230.00
 30
0.0
  0
VERTEX
  8
0
 10
220.00
 20
230.00
 30
0.0
  0
VERTEX
  8
0
 10
230.00
 20
230.00
 30
0.0
  0
VERTEX
  8
0
 10
230.00
 20
220.00
 30
0.0
  0
VERTEX
  8
0
 10
230.00
 20
210.00
 30
0.0
  0
VERTEX
  8
0
 10
230.00
 20
200.00
 30
0.0
  0
VERTEX
  8
0
 10
220.00
 20
200.00
 30
0.0
  0
VERTEX
  8
0
 10
210.00
 20
200.00
 30
0.0
  0
VERTEX
  8
0
 10
200.00
 20
200.00
 30
0.0
  0
VERTEX
  8
0
 10
200.00
 20
210.00
 30
0.0
  0
VERTEX
  8
0
 10
200.00
 20
220.00
 30
0.0
  0
VERTEX
  8
0
 10
200.00
 20
230.00
 30
0.0
  0
SEQEND
  8
0
  0
POLYLINE
  8
0
 66
1
 70
1
  0
VERTEX
  8
0
 10
170.00
 20
230.00
 30
0.0
  0
VERTEX
  8
0
 10
160.00
 20
230.00
 30
0.0
  0
VERTEX
  8
0
 10
160.00
 20
240.00
 30
0.0
  0
VERTEX
  8
0
 10
170.00
 20
240.00
 30
0.0
  0
SEQEND
  8
0
  0
POLYLINE
  8
0
 66
1
 70
1
  0
VERTEX
  8
0
 10
230.00
 20
40.00
 30
0.0
  0
VERTEX
  8
0
 10
220.00
 20
40.00
 30
0.0
  0
VERTEX
  8
0
 10
220.00
 20
50.00
 30
0.0
  0
VERTEX
  8
0
 10
230.00
 20
50.00
 30
0.0
  0
VERTEX
  8
0
 10
230.00
 20
60.00
 30
0.0
  0
VERTEX
  8
0
 10
240.00
 20
60.00
 30
0.0
  0
VERTEX
  8
0
 10
240.00
 20
50.00
 30
0.0
  0
VERTEX
  8
0
 10
250.00
 20
50.00
 30
0.0
  0
VERTEX
  8
0
 10
250.00
 20
40.00
 30
0.0
  0
VERTEX
  8
0
 10
240.00
 20
40.00
 30
0.0
  0
SEQEND
  8
0
  0
POLYLINE
  8
0
 66
1
 70
1
  0
VERTEX
  8
0
 10
220.00
 20
60.00
 30
0.0
  0
VERTEX
  8
0
 10
220.00
 20
70.00
 30
0.0
  0
VERTEX
  8
0
 10
230.00
 20
70.00
 30
0.0
  0
VERTEX
  8
0
 10
230.00
 20
60.00
 30
0.0
  0
SEQEND
  8
0
  0
POLYLINE
  8
0
 66
1
 70
1
  0
VERTEX
  8
0
 10
240.00
 20
60.00
 30
0.0
  0
VERTEX
  8
0
 10
240.00
 20
70.00
 30
0.0
  0
VERTEX
  8
0
 10
250.00
 20
70.00
 30
0.0
  0
VERTEX
  8
0
 10
250.00
 20
60.00
 30
0.0
  0
SEQEND
  8
0
  0
POLYLINE
  8
0
 66
1
 70
1
  0
VERTEX
  8
0
 10
230.00
 20
110.00
 30
0.0
  0
VERTEX
  8
0
 10
240.00
 20
110.00
 30
0.0
  0
VERTEX
  8
0
 10
240.00
 20
120.00
 30
0.0
  0
VERTEX
  8
0
 10
230.00
 20
120.00
 30
0.0
  0
VERTEX
  8
0
 10
230.00
 20
130.00
 30
0.0
  0
VERTEX
  8
0
 10
230.00
 20
140.00
 30
0.0
  0
VERTEX
  8
0
 10
220.00
 20
140.00
 30
0.0
  0
VERTEX
  8
0
 10
210.00
 20
140.00
 30
0.0
  0
VERTEX
  8
0
 10
210.00
 20
150.00
 30
0.0
  0
VERTEX
  8
0
 10
220.00
 20
150.00
 30
0.0
  0
VERTEX
  8
0
 10
230.00
 20
150.00
 30
0.0
  0
VERTEX
  8
0
 10
230.00
 20
160.00
 30
0.0
  0
VERTEX
  8
0
 10
230.00
 20
170.00
 30
0.0
  0
VERTEX
  8
0
 10
240.00
 20
170.00
 30
0.0
  0
VERTEX
  8
0
 10
240.00
 20
160.00
 30
0.0
  0
VERTEX
  8
0
 10
250.00
 20
160.00
 30
0.0
  0
VERTEX
  8
0
 10
250.00
 20
150.00
 30
0.0
  0
VERTEX
  8
0
 10
250.00
 20
140.00
 30
0.0
  0
VERTEX
  8
0
 10
240.00
 20
140.00
 30
0.0
  0
VERTEX
  8
0
 10
240.00
 20
130.00
 30
0.0
  0
VERTEX
  8
0
 10
250.00
 20
130.00
 30
0.0
  0
VERTEX
  8
0
 10
250.00
 20
120.00
 30
0.0
  0
VERTEX
  8
0
 10
250.00
 20
110.00
 30
0.0
  0
VERTEX
  8
0
 10
250.00
 20
100.00
 30
0.0
  0
VERTEX
  8
0
 10
240.00
 20
100.00
 30
0.0
  0
VERTEX
  8
0
 10
240.00
 20
90.00
 30
0.0
  0
VERTEX
  8
0
 10
250.00
 20
90.00
 30
0.0
  0
VERTEX
  8
0
 10
250.00
 20
80.00
 30
0.0
  0
VERTEX
  8
0
 10
240.00
 20
80.00
 30
0.0
  0
VERTEX
  8
0
 10
240.00
 20
70.00
 30
0.0
  0
VERTEX
  8
0
 10
230.00
 20
70.00
 30
0.0
  0
VERTEX
  8
0
 10
230.00
 20
80.00
 30
0.0
  0
VERTEX
  8
0
 10
230.00
 20
90.00
 30
0.0
  0
VERTEX
  8
0
 10
230.00
 20
100.00
 30
0.0
  0
SEQEND
  8
0
  0
ENDSEC
  0
EOF
