%TF.GenerationSoftware,KiCad,Pcbnew,(5.1.9)-1*%
%TF.CreationDate,2023-01-30T15:23:52+05:30*%
%TF.ProjectId,SequencialRelay,53657175-656e-4636-9961-6c52656c6179,rev?*%
%TF.SameCoordinates,Original*%
%TF.FileFunction,Copper,L1,Top*%
%TF.FilePolarity,Positive*%
%FSLAX46Y46*%
G04 Gerber Fmt 4.6, Leading zero omitted, Abs format (unit mm)*
G04 Created by KiCad (PCBNEW (5.1.9)-1) date 2023-01-30 15:23:52*
%MOMM*%
%LPD*%
G01*
G04 APERTURE LIST*
%TA.AperFunction,NonConductor*%
%ADD10C,0.300000*%
%TD*%
%TA.AperFunction,Profile*%
%ADD11C,0.050000*%
%TD*%
%TA.AperFunction,ComponentPad*%
%ADD12R,1.600000X1.600000*%
%TD*%
%TA.AperFunction,ComponentPad*%
%ADD13C,1.600000*%
%TD*%
%TA.AperFunction,ComponentPad*%
%ADD14R,1.800000X1.800000*%
%TD*%
%TA.AperFunction,ComponentPad*%
%ADD15C,1.800000*%
%TD*%
%TA.AperFunction,ComponentPad*%
%ADD16R,3.000000X3.000000*%
%TD*%
%TA.AperFunction,ComponentPad*%
%ADD17C,3.000000*%
%TD*%
%TA.AperFunction,ComponentPad*%
%ADD18R,1.700000X1.700000*%
%TD*%
%TA.AperFunction,ComponentPad*%
%ADD19O,1.700000X1.700000*%
%TD*%
%TA.AperFunction,ComponentPad*%
%ADD20C,2.500000*%
%TD*%
%TA.AperFunction,ComponentPad*%
%ADD21C,1.440000*%
%TD*%
%TA.AperFunction,ComponentPad*%
%ADD22O,1.600000X1.600000*%
%TD*%
%TA.AperFunction,ComponentPad*%
%ADD23R,1.905000X2.000000*%
%TD*%
%TA.AperFunction,ComponentPad*%
%ADD24O,1.905000X2.000000*%
%TD*%
%TA.AperFunction,ComponentPad*%
%ADD25R,2.000000X2.000000*%
%TD*%
%TA.AperFunction,ComponentPad*%
%ADD26C,2.000000*%
%TD*%
%TA.AperFunction,ViaPad*%
%ADD27C,1.600000*%
%TD*%
%TA.AperFunction,Conductor*%
%ADD28C,1.000000*%
%TD*%
%TA.AperFunction,Conductor*%
%ADD29C,0.800000*%
%TD*%
%TA.AperFunction,Conductor*%
%ADD30C,0.400000*%
%TD*%
%TA.AperFunction,Conductor*%
%ADD31C,3.000000*%
%TD*%
G04 APERTURE END LIST*
D10*
X80514285Y-22778571D02*
X79657142Y-22778571D01*
X80085714Y-22778571D02*
X80085714Y-21278571D01*
X79942857Y-21492857D01*
X79800000Y-21635714D01*
X79657142Y-21707142D01*
X81942857Y-22778571D02*
X81085714Y-22778571D01*
X81514285Y-22778571D02*
X81514285Y-21278571D01*
X81371428Y-21492857D01*
X81228571Y-21635714D01*
X81085714Y-21707142D01*
X84585714Y-22635714D02*
X84514285Y-22707142D01*
X84300000Y-22778571D01*
X84157142Y-22778571D01*
X83942857Y-22707142D01*
X83800000Y-22564285D01*
X83728571Y-22421428D01*
X83657142Y-22135714D01*
X83657142Y-21921428D01*
X83728571Y-21635714D01*
X83800000Y-21492857D01*
X83942857Y-21350000D01*
X84157142Y-21278571D01*
X84300000Y-21278571D01*
X84514285Y-21350000D01*
X84585714Y-21421428D01*
X85228571Y-22778571D02*
X85228571Y-21278571D01*
X85871428Y-22778571D02*
X85871428Y-21992857D01*
X85800000Y-21850000D01*
X85657142Y-21778571D01*
X85442857Y-21778571D01*
X85300000Y-21850000D01*
X85228571Y-21921428D01*
X87657142Y-22707142D02*
X87871428Y-22778571D01*
X88228571Y-22778571D01*
X88371428Y-22707142D01*
X88442857Y-22635714D01*
X88514285Y-22492857D01*
X88514285Y-22350000D01*
X88442857Y-22207142D01*
X88371428Y-22135714D01*
X88228571Y-22064285D01*
X87942857Y-21992857D01*
X87800000Y-21921428D01*
X87728571Y-21850000D01*
X87657142Y-21707142D01*
X87657142Y-21564285D01*
X87728571Y-21421428D01*
X87800000Y-21350000D01*
X87942857Y-21278571D01*
X88300000Y-21278571D01*
X88514285Y-21350000D01*
X89728571Y-22707142D02*
X89585714Y-22778571D01*
X89300000Y-22778571D01*
X89157142Y-22707142D01*
X89085714Y-22564285D01*
X89085714Y-21992857D01*
X89157142Y-21850000D01*
X89300000Y-21778571D01*
X89585714Y-21778571D01*
X89728571Y-21850000D01*
X89800000Y-21992857D01*
X89800000Y-22135714D01*
X89085714Y-22278571D01*
X91085714Y-21778571D02*
X91085714Y-23278571D01*
X91085714Y-22707142D02*
X90942857Y-22778571D01*
X90657142Y-22778571D01*
X90514285Y-22707142D01*
X90442857Y-22635714D01*
X90371428Y-22492857D01*
X90371428Y-22064285D01*
X90442857Y-21921428D01*
X90514285Y-21850000D01*
X90657142Y-21778571D01*
X90942857Y-21778571D01*
X91085714Y-21850000D01*
X92442857Y-21778571D02*
X92442857Y-22778571D01*
X91800000Y-21778571D02*
X91800000Y-22564285D01*
X91871428Y-22707142D01*
X92014285Y-22778571D01*
X92228571Y-22778571D01*
X92371428Y-22707142D01*
X92442857Y-22635714D01*
X93728571Y-22707142D02*
X93585714Y-22778571D01*
X93300000Y-22778571D01*
X93157142Y-22707142D01*
X93085714Y-22564285D01*
X93085714Y-21992857D01*
X93157142Y-21850000D01*
X93300000Y-21778571D01*
X93585714Y-21778571D01*
X93728571Y-21850000D01*
X93800000Y-21992857D01*
X93800000Y-22135714D01*
X93085714Y-22278571D01*
X94442857Y-21778571D02*
X94442857Y-22778571D01*
X94442857Y-21921428D02*
X94514285Y-21850000D01*
X94657142Y-21778571D01*
X94871428Y-21778571D01*
X95014285Y-21850000D01*
X95085714Y-21992857D01*
X95085714Y-22778571D01*
X96442857Y-22707142D02*
X96300000Y-22778571D01*
X96014285Y-22778571D01*
X95871428Y-22707142D01*
X95800000Y-22635714D01*
X95728571Y-22492857D01*
X95728571Y-22064285D01*
X95800000Y-21921428D01*
X95871428Y-21850000D01*
X96014285Y-21778571D01*
X96300000Y-21778571D01*
X96442857Y-21850000D01*
X97657142Y-22707142D02*
X97514285Y-22778571D01*
X97228571Y-22778571D01*
X97085714Y-22707142D01*
X97014285Y-22564285D01*
X97014285Y-21992857D01*
X97085714Y-21850000D01*
X97228571Y-21778571D01*
X97514285Y-21778571D01*
X97657142Y-21850000D01*
X97728571Y-21992857D01*
X97728571Y-22135714D01*
X97014285Y-22278571D01*
X100371428Y-22778571D02*
X99871428Y-22064285D01*
X99514285Y-22778571D02*
X99514285Y-21278571D01*
X100085714Y-21278571D01*
X100228571Y-21350000D01*
X100300000Y-21421428D01*
X100371428Y-21564285D01*
X100371428Y-21778571D01*
X100300000Y-21921428D01*
X100228571Y-21992857D01*
X100085714Y-22064285D01*
X99514285Y-22064285D01*
X101585714Y-22707142D02*
X101442857Y-22778571D01*
X101157142Y-22778571D01*
X101014285Y-22707142D01*
X100942857Y-22564285D01*
X100942857Y-21992857D01*
X101014285Y-21850000D01*
X101157142Y-21778571D01*
X101442857Y-21778571D01*
X101585714Y-21850000D01*
X101657142Y-21992857D01*
X101657142Y-22135714D01*
X100942857Y-22278571D01*
X102514285Y-22778571D02*
X102371428Y-22707142D01*
X102300000Y-22564285D01*
X102300000Y-21278571D01*
X103728571Y-22778571D02*
X103728571Y-21992857D01*
X103657142Y-21850000D01*
X103514285Y-21778571D01*
X103228571Y-21778571D01*
X103085714Y-21850000D01*
X103728571Y-22707142D02*
X103585714Y-22778571D01*
X103228571Y-22778571D01*
X103085714Y-22707142D01*
X103014285Y-22564285D01*
X103014285Y-22421428D01*
X103085714Y-22278571D01*
X103228571Y-22207142D01*
X103585714Y-22207142D01*
X103728571Y-22135714D01*
X104300000Y-21778571D02*
X104657142Y-22778571D01*
X105014285Y-21778571D02*
X104657142Y-22778571D01*
X104514285Y-23135714D01*
X104442857Y-23207142D01*
X104300000Y-23278571D01*
X107535714Y-23978571D02*
X108392857Y-23978571D01*
X107964285Y-25478571D02*
X107964285Y-23978571D01*
X109178571Y-23978571D02*
X109464285Y-23978571D01*
X109607142Y-24050000D01*
X109750000Y-24192857D01*
X109821428Y-24478571D01*
X109821428Y-24978571D01*
X109750000Y-25264285D01*
X109607142Y-25407142D01*
X109464285Y-25478571D01*
X109178571Y-25478571D01*
X109035714Y-25407142D01*
X108892857Y-25264285D01*
X108821428Y-24978571D01*
X108821428Y-24478571D01*
X108892857Y-24192857D01*
X109035714Y-24050000D01*
X109178571Y-23978571D01*
X110464285Y-25478571D02*
X110464285Y-23978571D01*
X111035714Y-23978571D01*
X111178571Y-24050000D01*
X111250000Y-24121428D01*
X111321428Y-24264285D01*
X111321428Y-24478571D01*
X111250000Y-24621428D01*
X111178571Y-24692857D01*
X111035714Y-24764285D01*
X110464285Y-24764285D01*
D11*
X20000000Y-130000000D02*
X20000000Y-20000000D01*
X120000000Y-130000000D02*
X20000000Y-130000000D01*
X120000000Y-20000000D02*
X120000000Y-130000000D01*
X20000000Y-20000000D02*
X120000000Y-20000000D01*
D12*
%TO.P,C4,1*%
%TO.N,+5v*%
X68500000Y-101000000D03*
D13*
%TO.P,C4,2*%
%TO.N,GND*%
X71000000Y-101000000D03*
%TD*%
D14*
%TO.P,D6,1*%
%TO.N,Net-(D6-Pad1)*%
X60500000Y-118000000D03*
D15*
%TO.P,D6,2*%
%TO.N,+5v*%
X63040000Y-118000000D03*
%TD*%
%TO.P,D7,2*%
%TO.N,+12v*%
X56000000Y-111460000D03*
D14*
%TO.P,D7,1*%
%TO.N,Net-(D7-Pad1)*%
X56000000Y-114000000D03*
%TD*%
%TO.P,D8,1*%
%TO.N,Net-(D8-Pad1)*%
X56000000Y-43000000D03*
D15*
%TO.P,D8,2*%
%TO.N,+12v*%
X56000000Y-40460000D03*
%TD*%
D14*
%TO.P,D9,1*%
%TO.N,Net-(D9-Pad1)*%
X84000000Y-48000000D03*
D15*
%TO.P,D9,2*%
%TO.N,+12v*%
X84000000Y-50540000D03*
%TD*%
%TO.P,D13,2*%
%TO.N,+12v*%
X56000000Y-93460000D03*
D14*
%TO.P,D13,1*%
%TO.N,Net-(D13-Pad1)*%
X56000000Y-96000000D03*
%TD*%
%TO.P,D14,1*%
%TO.N,Net-(D14-Pad1)*%
X84000000Y-102000000D03*
D15*
%TO.P,D14,2*%
%TO.N,+12v*%
X84000000Y-104540000D03*
%TD*%
D14*
%TO.P,D15,1*%
%TO.N,Net-(D15-Pad1)*%
X84000000Y-30000000D03*
D15*
%TO.P,D15,2*%
%TO.N,+12v*%
X84000000Y-32540000D03*
%TD*%
%TO.P,D19,2*%
%TO.N,+12v*%
X56000000Y-75460000D03*
D14*
%TO.P,D19,1*%
%TO.N,Net-(D19-Pad1)*%
X56000000Y-78000000D03*
%TD*%
D15*
%TO.P,D20,2*%
%TO.N,+12v*%
X84000000Y-86540000D03*
D14*
%TO.P,D20,1*%
%TO.N,Net-(D20-Pad1)*%
X84000000Y-84000000D03*
%TD*%
%TO.P,D21,1*%
%TO.N,Net-(D21-Pad1)*%
X65500000Y-57000000D03*
D15*
%TO.P,D21,2*%
%TO.N,+12v*%
X65500000Y-54460000D03*
%TD*%
%TO.P,D25,2*%
%TO.N,+12v*%
X56000000Y-57460000D03*
D14*
%TO.P,D25,1*%
%TO.N,Net-(D25-Pad1)*%
X56000000Y-60000000D03*
%TD*%
D15*
%TO.P,D26,2*%
%TO.N,+12v*%
X84000000Y-68540000D03*
D14*
%TO.P,D26,1*%
%TO.N,Net-(D26-Pad1)*%
X84000000Y-66000000D03*
%TD*%
D16*
%TO.P,J1,1*%
%TO.N,Net-(D1-Pad2)*%
X66920000Y-125500000D03*
D17*
%TO.P,J1,2*%
%TO.N,Net-(D2-Pad2)*%
X72000000Y-125500000D03*
%TD*%
D18*
%TO.P,J2,1*%
%TO.N,Mosi*%
X77000000Y-87500000D03*
D19*
%TO.P,J2,2*%
%TO.N,Miso*%
X77000000Y-84960000D03*
%TO.P,J2,3*%
%TO.N,SCK*%
X77000000Y-82420000D03*
%TO.P,J2,4*%
%TO.N,rst*%
X77000000Y-79880000D03*
%TO.P,J2,5*%
%TO.N,+5v*%
X77000000Y-77340000D03*
%TO.P,J2,6*%
%TO.N,GND*%
X77000000Y-74800000D03*
%TD*%
D16*
%TO.P,J3,1*%
%TO.N,Net-(J3-Pad1)*%
X25000000Y-113000000D03*
D17*
%TO.P,J3,2*%
%TO.N,Net-(J3-Pad2)*%
X25000000Y-107920000D03*
%TO.P,J3,3*%
%TO.N,Net-(J3-Pad3)*%
X25000000Y-102840000D03*
%TD*%
D16*
%TO.P,J4,1*%
%TO.N,Net-(J4-Pad1)*%
X25000000Y-42000000D03*
D17*
%TO.P,J4,2*%
%TO.N,Net-(J4-Pad2)*%
X25000000Y-36920000D03*
%TO.P,J4,3*%
%TO.N,Net-(J4-Pad3)*%
X25000000Y-31840000D03*
%TD*%
%TO.P,J5,3*%
%TO.N,Net-(J5-Pad3)*%
X115000000Y-59160000D03*
%TO.P,J5,2*%
%TO.N,Net-(J5-Pad2)*%
X115000000Y-54080000D03*
D16*
%TO.P,J5,1*%
%TO.N,Net-(J5-Pad1)*%
X115000000Y-49000000D03*
%TD*%
D17*
%TO.P,J6,3*%
%TO.N,Net-(J6-Pad3)*%
X25000000Y-84840000D03*
%TO.P,J6,2*%
%TO.N,Net-(J6-Pad2)*%
X25000000Y-89920000D03*
D16*
%TO.P,J6,1*%
%TO.N,Net-(J6-Pad1)*%
X25000000Y-95000000D03*
%TD*%
%TO.P,J7,1*%
%TO.N,Net-(J7-Pad1)*%
X115000000Y-103000000D03*
D17*
%TO.P,J7,2*%
%TO.N,Net-(J7-Pad2)*%
X115000000Y-108080000D03*
%TO.P,J7,3*%
%TO.N,Net-(J7-Pad3)*%
X115000000Y-113160000D03*
%TD*%
D16*
%TO.P,J8,1*%
%TO.N,Net-(J8-Pad1)*%
X115000000Y-31000000D03*
D17*
%TO.P,J8,2*%
%TO.N,Net-(J8-Pad2)*%
X115000000Y-36080000D03*
%TO.P,J8,3*%
%TO.N,Net-(J8-Pad3)*%
X115000000Y-41160000D03*
%TD*%
D16*
%TO.P,J9,1*%
%TO.N,Net-(J9-Pad1)*%
X25000000Y-77000000D03*
D17*
%TO.P,J9,2*%
%TO.N,Net-(J9-Pad2)*%
X25000000Y-71920000D03*
%TO.P,J9,3*%
%TO.N,Net-(J9-Pad3)*%
X25000000Y-66840000D03*
%TD*%
%TO.P,J10,3*%
%TO.N,Net-(J10-Pad3)*%
X115000000Y-95160000D03*
%TO.P,J10,2*%
%TO.N,Net-(J10-Pad2)*%
X115000000Y-90080000D03*
D16*
%TO.P,J10,1*%
%TO.N,Net-(J10-Pad1)*%
X115000000Y-85000000D03*
%TD*%
%TO.P,J11,1*%
%TO.N,Net-(J11-Pad1)*%
X65000000Y-25000000D03*
D17*
%TO.P,J11,2*%
%TO.N,Net-(J11-Pad2)*%
X70080000Y-25000000D03*
%TO.P,J11,3*%
%TO.N,Net-(J11-Pad3)*%
X75160000Y-25000000D03*
%TD*%
%TO.P,J12,3*%
%TO.N,Net-(J12-Pad3)*%
X25000000Y-48840000D03*
%TO.P,J12,2*%
%TO.N,Net-(J12-Pad2)*%
X25000000Y-53920000D03*
D16*
%TO.P,J12,1*%
%TO.N,Net-(J12-Pad1)*%
X25000000Y-59000000D03*
%TD*%
D17*
%TO.P,J13,3*%
%TO.N,Net-(J13-Pad3)*%
X115000000Y-77160000D03*
%TO.P,J13,2*%
%TO.N,Net-(J13-Pad2)*%
X115000000Y-72080000D03*
D16*
%TO.P,J13,1*%
%TO.N,Net-(J13-Pad1)*%
X115000000Y-67000000D03*
%TD*%
D20*
%TO.P,K1,2*%
%TO.N,Net-(D10-Pad2)*%
X49050000Y-101950000D03*
D17*
%TO.P,K1,3*%
%TO.N,Net-(J3-Pad3)*%
X36850000Y-101950000D03*
%TO.P,K1,4*%
%TO.N,Net-(J3-Pad1)*%
X36800000Y-114000000D03*
D20*
%TO.P,K1,5*%
%TO.N,+12v*%
X49050000Y-113950000D03*
D17*
%TO.P,K1,1*%
%TO.N,Net-(J3-Pad2)*%
X51000000Y-108000000D03*
%TD*%
D20*
%TO.P,K2,2*%
%TO.N,Net-(D11-Pad2)*%
X49050000Y-30950000D03*
D17*
%TO.P,K2,3*%
%TO.N,Net-(J4-Pad3)*%
X36850000Y-30950000D03*
%TO.P,K2,4*%
%TO.N,Net-(J4-Pad1)*%
X36800000Y-43000000D03*
D20*
%TO.P,K2,5*%
%TO.N,+12v*%
X49050000Y-42950000D03*
D17*
%TO.P,K2,1*%
%TO.N,Net-(J4-Pad2)*%
X51000000Y-37000000D03*
%TD*%
%TO.P,K3,1*%
%TO.N,Net-(J5-Pad2)*%
X89000000Y-54000000D03*
D20*
%TO.P,K3,5*%
%TO.N,+12v*%
X90950000Y-48050000D03*
D17*
%TO.P,K3,4*%
%TO.N,Net-(J5-Pad1)*%
X103200000Y-48000000D03*
%TO.P,K3,3*%
%TO.N,Net-(J5-Pad3)*%
X103150000Y-60050000D03*
D20*
%TO.P,K3,2*%
%TO.N,Net-(D12-Pad2)*%
X90950000Y-60050000D03*
%TD*%
D17*
%TO.P,K4,1*%
%TO.N,Net-(J6-Pad2)*%
X51000000Y-90000000D03*
D20*
%TO.P,K4,5*%
%TO.N,+12v*%
X49050000Y-95950000D03*
D17*
%TO.P,K4,4*%
%TO.N,Net-(J6-Pad1)*%
X36800000Y-96000000D03*
%TO.P,K4,3*%
%TO.N,Net-(J6-Pad3)*%
X36850000Y-83950000D03*
D20*
%TO.P,K4,2*%
%TO.N,Net-(D16-Pad2)*%
X49050000Y-83950000D03*
%TD*%
%TO.P,K5,2*%
%TO.N,Net-(D17-Pad2)*%
X90950000Y-114050000D03*
D17*
%TO.P,K5,3*%
%TO.N,Net-(J7-Pad3)*%
X103150000Y-114050000D03*
%TO.P,K5,4*%
%TO.N,Net-(J7-Pad1)*%
X103200000Y-102000000D03*
D20*
%TO.P,K5,5*%
%TO.N,+12v*%
X90950000Y-102050000D03*
D17*
%TO.P,K5,1*%
%TO.N,Net-(J7-Pad2)*%
X89000000Y-108000000D03*
%TD*%
D20*
%TO.P,K6,2*%
%TO.N,Net-(D18-Pad2)*%
X90950000Y-42050000D03*
D17*
%TO.P,K6,3*%
%TO.N,Net-(J8-Pad3)*%
X103150000Y-42050000D03*
%TO.P,K6,4*%
%TO.N,Net-(J8-Pad1)*%
X103200000Y-30000000D03*
D20*
%TO.P,K6,5*%
%TO.N,+12v*%
X90950000Y-30050000D03*
D17*
%TO.P,K6,1*%
%TO.N,Net-(J8-Pad2)*%
X89000000Y-36000000D03*
%TD*%
%TO.P,K7,1*%
%TO.N,Net-(J9-Pad2)*%
X51000000Y-72000000D03*
D20*
%TO.P,K7,5*%
%TO.N,+12v*%
X49050000Y-77950000D03*
D17*
%TO.P,K7,4*%
%TO.N,Net-(J9-Pad1)*%
X36800000Y-78000000D03*
%TO.P,K7,3*%
%TO.N,Net-(J9-Pad3)*%
X36850000Y-65950000D03*
D20*
%TO.P,K7,2*%
%TO.N,Net-(D22-Pad2)*%
X49050000Y-65950000D03*
%TD*%
D17*
%TO.P,K8,1*%
%TO.N,Net-(J10-Pad2)*%
X89000000Y-90000000D03*
D20*
%TO.P,K8,5*%
%TO.N,+12v*%
X90950000Y-84050000D03*
D17*
%TO.P,K8,4*%
%TO.N,Net-(J10-Pad1)*%
X103200000Y-84000000D03*
%TO.P,K8,3*%
%TO.N,Net-(J10-Pad3)*%
X103150000Y-96050000D03*
D20*
%TO.P,K8,2*%
%TO.N,Net-(D23-Pad2)*%
X90950000Y-96050000D03*
%TD*%
%TO.P,K9,2*%
%TO.N,Net-(D24-Pad2)*%
X76050000Y-49050000D03*
D17*
%TO.P,K9,3*%
%TO.N,Net-(J11-Pad3)*%
X76050000Y-36850000D03*
%TO.P,K9,4*%
%TO.N,Net-(J11-Pad1)*%
X64000000Y-36800000D03*
D20*
%TO.P,K9,5*%
%TO.N,+12v*%
X64050000Y-49050000D03*
D17*
%TO.P,K9,1*%
%TO.N,Net-(J11-Pad2)*%
X70000000Y-51000000D03*
%TD*%
D20*
%TO.P,K10,2*%
%TO.N,Net-(D27-Pad2)*%
X49050000Y-47950000D03*
D17*
%TO.P,K10,3*%
%TO.N,Net-(J12-Pad3)*%
X36850000Y-47950000D03*
%TO.P,K10,4*%
%TO.N,Net-(J12-Pad1)*%
X36800000Y-60000000D03*
D20*
%TO.P,K10,5*%
%TO.N,+12v*%
X49050000Y-59950000D03*
D17*
%TO.P,K10,1*%
%TO.N,Net-(J12-Pad2)*%
X51000000Y-54000000D03*
%TD*%
%TO.P,K11,1*%
%TO.N,Net-(J13-Pad2)*%
X89000000Y-72000000D03*
D20*
%TO.P,K11,5*%
%TO.N,+12v*%
X90950000Y-66050000D03*
D17*
%TO.P,K11,4*%
%TO.N,Net-(J13-Pad1)*%
X103200000Y-66000000D03*
%TO.P,K11,3*%
%TO.N,Net-(J13-Pad3)*%
X103150000Y-78050000D03*
D20*
%TO.P,K11,2*%
%TO.N,Net-(D28-Pad2)*%
X90950000Y-78050000D03*
%TD*%
D21*
%TO.P,RV1,1*%
%TO.N,+5v*%
X78000000Y-110000000D03*
%TO.P,RV1,2*%
%TO.N,ADC2*%
X75460000Y-107460000D03*
%TO.P,RV1,3*%
%TO.N,GND*%
X72920000Y-110000000D03*
%TD*%
%TO.P,RV2,3*%
%TO.N,GND*%
X61920000Y-110000000D03*
%TO.P,RV2,2*%
%TO.N,ADC1*%
X64460000Y-107460000D03*
%TO.P,RV2,1*%
%TO.N,+5v*%
X67000000Y-110000000D03*
%TD*%
D12*
%TO.P,SW1,1*%
%TO.N,S1*%
X102000000Y-120000000D03*
D22*
%TO.P,SW1,7*%
%TO.N,GND*%
X89300000Y-127620000D03*
%TO.P,SW1,2*%
%TO.N,S2*%
X99460000Y-120000000D03*
%TO.P,SW1,8*%
%TO.N,GND*%
X91840000Y-127620000D03*
%TO.P,SW1,3*%
%TO.N,S3*%
X96920000Y-120000000D03*
%TO.P,SW1,9*%
%TO.N,GND*%
X94380000Y-127620000D03*
%TO.P,SW1,4*%
%TO.N,S4*%
X94380000Y-120000000D03*
%TO.P,SW1,10*%
%TO.N,GND*%
X96920000Y-127620000D03*
%TO.P,SW1,5*%
%TO.N,S5*%
X91840000Y-120000000D03*
%TO.P,SW1,11*%
%TO.N,GND*%
X99460000Y-127620000D03*
%TO.P,SW1,6*%
%TO.N,S6*%
X89300000Y-120000000D03*
%TO.P,SW1,12*%
%TO.N,GND*%
X102000000Y-127620000D03*
%TD*%
D12*
%TO.P,U1,1*%
%TO.N,rst*%
X66000000Y-60000000D03*
D22*
%TO.P,U1,15*%
%TO.N,R7*%
X73620000Y-93020000D03*
%TO.P,U1,2*%
%TO.N,R1*%
X66000000Y-62540000D03*
%TO.P,U1,16*%
%TO.N,R8*%
X73620000Y-90480000D03*
%TO.P,U1,3*%
%TO.N,R2*%
X66000000Y-65080000D03*
%TO.P,U1,17*%
%TO.N,Mosi*%
X73620000Y-87940000D03*
%TO.P,U1,4*%
%TO.N,R3*%
X66000000Y-67620000D03*
%TO.P,U1,18*%
%TO.N,Miso*%
X73620000Y-85400000D03*
%TO.P,U1,5*%
%TO.N,R4*%
X66000000Y-70160000D03*
%TO.P,U1,19*%
%TO.N,SCK*%
X73620000Y-82860000D03*
%TO.P,U1,6*%
%TO.N,R5*%
X66000000Y-72700000D03*
%TO.P,U1,20*%
%TO.N,+5v*%
X73620000Y-80320000D03*
%TO.P,U1,7*%
X66000000Y-75240000D03*
%TO.P,U1,21*%
X73620000Y-77780000D03*
%TO.P,U1,8*%
%TO.N,GND*%
X66000000Y-77780000D03*
%TO.P,U1,22*%
X73620000Y-75240000D03*
%TO.P,U1,9*%
%TO.N,S1*%
X66000000Y-80320000D03*
%TO.P,U1,23*%
%TO.N,ADC2*%
X73620000Y-72700000D03*
%TO.P,U1,10*%
%TO.N,S2*%
X66000000Y-82860000D03*
%TO.P,U1,24*%
%TO.N,ADC1*%
X73620000Y-70160000D03*
%TO.P,U1,11*%
%TO.N,S3*%
X66000000Y-85400000D03*
%TO.P,U1,25*%
%TO.N,R9*%
X73620000Y-67620000D03*
%TO.P,U1,12*%
%TO.N,S6*%
X66000000Y-87940000D03*
%TO.P,U1,26*%
%TO.N,R10*%
X73620000Y-65080000D03*
%TO.P,U1,13*%
%TO.N,S5*%
X66000000Y-90480000D03*
%TO.P,U1,27*%
%TO.N,R11*%
X73620000Y-62540000D03*
%TO.P,U1,14*%
%TO.N,R6*%
X66000000Y-93020000D03*
%TO.P,U1,28*%
%TO.N,S4*%
X73620000Y-60000000D03*
%TD*%
D23*
%TO.P,U2,1*%
%TO.N,+12v*%
X67500000Y-119000000D03*
D24*
%TO.P,U2,2*%
%TO.N,GND*%
X70040000Y-119000000D03*
%TO.P,U2,3*%
%TO.N,+5v*%
X72580000Y-119000000D03*
%TD*%
D25*
%TO.P,C2,1*%
%TO.N,+12v*%
X33000000Y-126000000D03*
D26*
%TO.P,C2,2*%
%TO.N,GND*%
X33000000Y-121000000D03*
%TD*%
D27*
%TO.N,GND*%
X51000000Y-118000000D03*
X74500000Y-116500000D03*
X58000000Y-51500000D03*
X80000000Y-99500000D03*
X80000000Y-94500000D03*
X61473393Y-69811886D03*
X83500000Y-53500000D03*
X79131378Y-41631378D03*
X59699990Y-33049988D03*
X78500000Y-69500000D03*
X81500000Y-66000000D03*
%TO.N,+5v*%
X109170683Y-121778112D03*
X86300010Y-122000000D03*
X64300023Y-66500000D03*
%TO.N,+12v*%
X52000000Y-124500000D03*
X49000000Y-124500000D03*
X76000000Y-41500000D03*
%TO.N,Net-(D2-Pad2)*%
X37000000Y-123000000D03*
X64000000Y-122000000D03*
X60500000Y-122000000D03*
%TO.N,rst*%
X73000000Y-56500000D03*
X77000000Y-60000000D03*
X79500000Y-66500000D03*
X75500000Y-72000000D03*
%TO.N,R1*%
X60500000Y-91000000D03*
%TO.N,R5*%
X60000000Y-26500000D03*
X60521004Y-66812143D03*
%TO.N,S5*%
X85000000Y-125500000D03*
%TO.N,S4*%
X88500000Y-118000000D03*
X75000000Y-103500000D03*
X83500000Y-99500000D03*
%TO.N,R2*%
X59500000Y-60000000D03*
X60500000Y-76500000D03*
%TO.N,R6*%
X66500000Y-103500000D03*
X80000000Y-115500000D03*
%TO.N,R10*%
X79500000Y-61000000D03*
X79000000Y-45000000D03*
%TO.N,R11*%
X79000000Y-54000000D03*
%TO.N,R4*%
X66000000Y-51500000D03*
X61000000Y-51500000D03*
%TO.N,ADC2*%
X79000000Y-72000000D03*
X81000000Y-102500000D03*
%TO.N,ADC1*%
X64000000Y-94500000D03*
X67500000Y-97000000D03*
X68500000Y-81000000D03*
%TD*%
D28*
%TO.N,GND*%
X33000000Y-121000000D02*
X35500000Y-118500000D01*
X35500000Y-118500000D02*
X36000000Y-118000000D01*
X36000000Y-118000000D02*
X51000000Y-118000000D01*
X70040000Y-112880000D02*
X72920000Y-110000000D01*
X70040000Y-119000000D02*
X70040000Y-112880000D01*
X61920000Y-110000000D02*
X64000000Y-110000000D01*
X64000000Y-110000000D02*
X66000000Y-112000000D01*
X69160000Y-112000000D02*
X70040000Y-112880000D01*
X66000000Y-112000000D02*
X69160000Y-112000000D01*
X72920000Y-110000000D02*
X74000000Y-110000000D01*
X74500000Y-110500000D02*
X74500000Y-116500000D01*
X74000000Y-110000000D02*
X74500000Y-110500000D01*
D29*
X74500000Y-116500000D02*
X77000000Y-119000000D01*
X77000000Y-119000000D02*
X77000000Y-125500000D01*
X79120000Y-127620000D02*
X89300000Y-127620000D01*
X77000000Y-125500000D02*
X79120000Y-127620000D01*
X80000000Y-99500000D02*
X80000000Y-94500000D01*
X80000000Y-94500000D02*
X80000000Y-89000000D01*
X80000000Y-89000000D02*
X80500000Y-88500000D01*
X80500000Y-88500000D02*
X80500000Y-84500000D01*
X80500000Y-84500000D02*
X79500000Y-83500000D01*
X79500000Y-83500000D02*
X79500000Y-76000000D01*
X78300000Y-74800000D02*
X77000000Y-74800000D01*
X79500000Y-76000000D02*
X78300000Y-74800000D01*
D30*
X81500000Y-44000000D02*
X79131378Y-41631378D01*
X83500000Y-53500000D02*
X81500000Y-51500000D01*
X81500000Y-51500000D02*
X81500000Y-44000000D01*
D29*
X58000000Y-34749978D02*
X59699990Y-33049988D01*
X58000000Y-51500000D02*
X58000000Y-34749978D01*
X60342023Y-69811886D02*
X61473393Y-69811886D01*
X58000000Y-51500000D02*
X53599989Y-55900011D01*
X53599989Y-55900011D02*
X53599989Y-63069852D01*
X53599989Y-63069852D02*
X60342023Y-69811886D01*
D30*
X77000000Y-74800000D02*
X77000000Y-71000000D01*
X77000000Y-71000000D02*
X78500000Y-69500000D01*
X81500000Y-66000000D02*
X81500000Y-60500000D01*
X81500000Y-60500000D02*
X82500000Y-59500000D01*
X82500000Y-54500000D02*
X83500000Y-53500000D01*
X82500000Y-59500000D02*
X82500000Y-54500000D01*
%TO.N,+5v*%
X86521898Y-121778112D02*
X86300010Y-122000000D01*
X109170683Y-121778112D02*
X86521898Y-121778112D01*
X66000000Y-75240000D02*
X64699999Y-73939999D01*
X64699999Y-66899976D02*
X64300023Y-66500000D01*
X64699999Y-73939999D02*
X64699999Y-66899976D01*
D28*
%TO.N,+12v*%
X33000000Y-126000000D02*
X39000000Y-126000000D01*
X40500000Y-124500000D02*
X52000000Y-124500000D01*
X39000000Y-126000000D02*
X40500000Y-124500000D01*
X67500000Y-116000000D02*
X67500000Y-119000000D01*
X59500000Y-113000000D02*
X64500000Y-113000000D01*
X57960000Y-111460000D02*
X59500000Y-113000000D01*
X64500000Y-113000000D02*
X67500000Y-116000000D01*
X56000000Y-111460000D02*
X57960000Y-111460000D01*
D29*
X56000000Y-57460000D02*
X59540000Y-57460000D01*
X62540000Y-54460000D02*
X65500000Y-54460000D01*
X59540000Y-57460000D02*
X62540000Y-54460000D01*
D28*
X76000000Y-41500000D02*
X78500000Y-39000000D01*
X78500000Y-39000000D02*
X80000000Y-39000000D01*
X84000000Y-35000000D02*
X84000000Y-32540000D01*
X80000000Y-39000000D02*
X84000000Y-35000000D01*
%TO.N,Net-(D2-Pad2)*%
X37000000Y-123000000D02*
X38000000Y-122000000D01*
X38000000Y-122000000D02*
X64000000Y-122000000D01*
D30*
%TO.N,rst*%
X69500000Y-60000000D02*
X73000000Y-56500000D01*
X66000000Y-60000000D02*
X69500000Y-60000000D01*
X77000000Y-60000000D02*
X77000000Y-64000000D01*
X77000000Y-64000000D02*
X79500000Y-66500000D01*
X75500000Y-72000000D02*
X75500000Y-79500000D01*
X75880000Y-79880000D02*
X77000000Y-79880000D01*
X75500000Y-79500000D02*
X75880000Y-79880000D01*
D31*
%TO.N,Net-(J3-Pad1)*%
X35800000Y-113000000D02*
X36800000Y-114000000D01*
X25000000Y-113000000D02*
X35800000Y-113000000D01*
%TO.N,Net-(J3-Pad2)*%
X50920000Y-107920000D02*
X51000000Y-108000000D01*
X25000000Y-107920000D02*
X50920000Y-107920000D01*
%TO.N,Net-(J3-Pad3)*%
X35960000Y-102840000D02*
X36850000Y-101950000D01*
X25000000Y-102840000D02*
X35960000Y-102840000D01*
%TO.N,Net-(J4-Pad1)*%
X35800000Y-42000000D02*
X36800000Y-43000000D01*
X25000000Y-42000000D02*
X35800000Y-42000000D01*
%TO.N,Net-(J4-Pad2)*%
X50920000Y-36920000D02*
X51000000Y-37000000D01*
X25000000Y-36920000D02*
X50920000Y-36920000D01*
%TO.N,Net-(J4-Pad3)*%
X35960000Y-31840000D02*
X36850000Y-30950000D01*
X25000000Y-31840000D02*
X35960000Y-31840000D01*
%TO.N,Net-(J5-Pad3)*%
X114110000Y-60050000D02*
X115000000Y-59160000D01*
X103150000Y-60050000D02*
X114110000Y-60050000D01*
%TO.N,Net-(J5-Pad2)*%
X114920000Y-54000000D02*
X115000000Y-54080000D01*
X89000000Y-54000000D02*
X114920000Y-54000000D01*
%TO.N,Net-(J5-Pad1)*%
X104200000Y-49000000D02*
X103200000Y-48000000D01*
X115000000Y-49000000D02*
X104200000Y-49000000D01*
%TO.N,Net-(J6-Pad3)*%
X35960000Y-84840000D02*
X36850000Y-83950000D01*
X25000000Y-84840000D02*
X35960000Y-84840000D01*
%TO.N,Net-(J6-Pad2)*%
X50920000Y-89920000D02*
X51000000Y-90000000D01*
X25000000Y-89920000D02*
X50920000Y-89920000D01*
%TO.N,Net-(J6-Pad1)*%
X35800000Y-95000000D02*
X36800000Y-96000000D01*
X25000000Y-95000000D02*
X35800000Y-95000000D01*
%TO.N,Net-(J7-Pad1)*%
X104200000Y-103000000D02*
X103200000Y-102000000D01*
X115000000Y-103000000D02*
X104200000Y-103000000D01*
%TO.N,Net-(J7-Pad2)*%
X114920000Y-108000000D02*
X115000000Y-108080000D01*
X89000000Y-108000000D02*
X114920000Y-108000000D01*
%TO.N,Net-(J7-Pad3)*%
X114110000Y-114050000D02*
X115000000Y-113160000D01*
X103150000Y-114050000D02*
X114110000Y-114050000D01*
%TO.N,Net-(J8-Pad1)*%
X104200000Y-31000000D02*
X103200000Y-30000000D01*
X115000000Y-31000000D02*
X104200000Y-31000000D01*
%TO.N,Net-(J8-Pad2)*%
X114920000Y-36000000D02*
X115000000Y-36080000D01*
X89000000Y-36000000D02*
X114920000Y-36000000D01*
%TO.N,Net-(J8-Pad3)*%
X114110000Y-42050000D02*
X115000000Y-41160000D01*
X103150000Y-42050000D02*
X114110000Y-42050000D01*
%TO.N,Net-(J9-Pad1)*%
X35800000Y-77000000D02*
X36800000Y-78000000D01*
X25000000Y-77000000D02*
X35800000Y-77000000D01*
%TO.N,Net-(J9-Pad2)*%
X50920000Y-71920000D02*
X51000000Y-72000000D01*
X25000000Y-71920000D02*
X50920000Y-71920000D01*
%TO.N,Net-(J9-Pad3)*%
X35960000Y-66840000D02*
X36850000Y-65950000D01*
X25000000Y-66840000D02*
X35960000Y-66840000D01*
%TO.N,Net-(J10-Pad3)*%
X114110000Y-96050000D02*
X115000000Y-95160000D01*
X103150000Y-96050000D02*
X114110000Y-96050000D01*
%TO.N,Net-(J10-Pad2)*%
X114920000Y-90000000D02*
X115000000Y-90080000D01*
X89000000Y-90000000D02*
X114920000Y-90000000D01*
%TO.N,Net-(J10-Pad1)*%
X104200000Y-85000000D02*
X103200000Y-84000000D01*
X115000000Y-85000000D02*
X104200000Y-85000000D01*
%TO.N,Net-(J11-Pad1)*%
X65000000Y-35800000D02*
X64000000Y-36800000D01*
X65000000Y-25000000D02*
X65000000Y-35800000D01*
%TO.N,Net-(J11-Pad2)*%
X70080000Y-50920000D02*
X70000000Y-51000000D01*
X70080000Y-25000000D02*
X70080000Y-50920000D01*
%TO.N,Net-(J11-Pad3)*%
X75160000Y-35960000D02*
X76050000Y-36850000D01*
X75160000Y-25000000D02*
X75160000Y-35960000D01*
%TO.N,Net-(J12-Pad3)*%
X35960000Y-48840000D02*
X36850000Y-47950000D01*
X25000000Y-48840000D02*
X35960000Y-48840000D01*
%TO.N,Net-(J12-Pad2)*%
X50920000Y-53920000D02*
X51000000Y-54000000D01*
X25000000Y-53920000D02*
X50920000Y-53920000D01*
%TO.N,Net-(J12-Pad1)*%
X35800000Y-59000000D02*
X36800000Y-60000000D01*
X25000000Y-59000000D02*
X35800000Y-59000000D01*
%TO.N,Net-(J13-Pad3)*%
X114110000Y-78050000D02*
X115000000Y-77160000D01*
X103150000Y-78050000D02*
X114110000Y-78050000D01*
%TO.N,Net-(J13-Pad2)*%
X114920000Y-72000000D02*
X115000000Y-72080000D01*
X89000000Y-72000000D02*
X114920000Y-72000000D01*
%TO.N,Net-(J13-Pad1)*%
X104200000Y-67000000D02*
X103200000Y-66000000D01*
X115000000Y-67000000D02*
X104200000Y-67000000D01*
D30*
%TO.N,R1*%
X63999988Y-68913931D02*
X63000013Y-67913956D01*
X63999988Y-87500012D02*
X63999988Y-68913931D01*
X63000013Y-67913956D02*
X63000013Y-65539987D01*
X60500000Y-91000000D02*
X63999988Y-87500012D01*
X63000013Y-65539987D02*
X66000000Y-62540000D01*
%TO.N,R5*%
X61000000Y-27500000D02*
X61000000Y-36500000D01*
X61000000Y-36500000D02*
X59500000Y-38000000D01*
X59500000Y-38000000D02*
X59500000Y-51887998D01*
X54500000Y-61922509D02*
X59389634Y-66812143D01*
X59500000Y-51887998D02*
X54500000Y-56887998D01*
X59389634Y-66812143D02*
X60521004Y-66812143D01*
X54500000Y-56887998D02*
X54500000Y-61922509D01*
X60000000Y-26500000D02*
X61000000Y-27500000D01*
%TO.N,S6*%
X88168630Y-120000000D02*
X89300000Y-120000000D01*
X74375998Y-104800002D02*
X75595570Y-104800002D01*
X75595570Y-104800002D02*
X80700011Y-109904443D01*
X73699998Y-104124002D02*
X74375998Y-104800002D01*
X73699998Y-101210034D02*
X73699998Y-104124002D01*
X68000000Y-89940000D02*
X68000000Y-95510036D01*
X66000000Y-87940000D02*
X68000000Y-89940000D01*
X68000000Y-95510036D02*
X73699998Y-101210034D01*
X80700011Y-109904443D02*
X80700011Y-112531381D01*
X80700011Y-112531381D02*
X88168630Y-120000000D01*
%TO.N,S5*%
X62699999Y-101699999D02*
X69000000Y-108000000D01*
X78699998Y-113199998D02*
X78699998Y-119199998D01*
X73500000Y-108000000D02*
X78699998Y-113199998D01*
X62699999Y-93780001D02*
X62699999Y-101699999D01*
X66000000Y-90480000D02*
X62699999Y-93780001D01*
X69000000Y-108000000D02*
X73500000Y-108000000D01*
X78699998Y-119199998D02*
X85000000Y-125500000D01*
%TO.N,S4*%
X75285532Y-103500000D02*
X75000000Y-103500000D01*
X88500000Y-118000000D02*
X88500000Y-116714468D01*
X88500000Y-116714468D02*
X75285532Y-103500000D01*
X76299989Y-62679989D02*
X73620000Y-60000000D01*
X83500000Y-99500000D02*
X82210046Y-98210046D01*
X82210046Y-98210046D02*
X82210046Y-71134050D01*
X82210046Y-71134050D02*
X76299989Y-65223993D01*
X76299989Y-65223993D02*
X76299989Y-62679989D01*
%TO.N,S3*%
X81400022Y-107920092D02*
X81400022Y-108420093D01*
X90979929Y-118000000D02*
X94920000Y-118000000D01*
X69000000Y-95520071D02*
X81400022Y-107920092D01*
X66000000Y-85400000D02*
X69000000Y-88400000D01*
X81400022Y-108420093D02*
X90979929Y-118000000D01*
X69000000Y-88400000D02*
X69000000Y-95520071D01*
X94920000Y-118000000D02*
X96920000Y-120000000D01*
%TO.N,S2*%
X96460000Y-117000000D02*
X99460000Y-120000000D01*
X82100033Y-108130139D02*
X90969894Y-117000000D01*
X66000000Y-82860000D02*
X70200010Y-87060010D01*
X82100033Y-107630138D02*
X82100033Y-108130139D01*
X70200010Y-95730116D02*
X82100033Y-107630138D01*
X70200010Y-87060010D02*
X70200010Y-95730116D01*
X90969894Y-117000000D02*
X96460000Y-117000000D01*
%TO.N,S1*%
X66000000Y-80320000D02*
X66000000Y-80424002D01*
X66000000Y-80424002D02*
X72079908Y-86503910D01*
X72079908Y-86503910D02*
X72079908Y-96099978D01*
X72079908Y-96099978D02*
X86979930Y-111000000D01*
X86979930Y-111000000D02*
X93000000Y-111000000D01*
X93000000Y-111000000D02*
X102000000Y-120000000D01*
%TO.N,R2*%
X63299977Y-69299978D02*
X63299977Y-73700023D01*
X62300002Y-62800002D02*
X62300002Y-68300003D01*
X59500000Y-60000000D02*
X62300002Y-62800002D01*
X63299977Y-73700023D02*
X60500000Y-76500000D01*
X62300002Y-68300003D02*
X63299977Y-69299978D01*
%TO.N,R6*%
X68500013Y-105500013D02*
X75305617Y-105500013D01*
X66500000Y-103500000D02*
X68500013Y-105500013D01*
X80000000Y-110194396D02*
X80000000Y-115500000D01*
X75305617Y-105500013D02*
X80000000Y-110194396D01*
%TO.N,R10*%
X79500000Y-61000000D02*
X80300002Y-60199998D01*
X80300002Y-60199998D02*
X80300002Y-46300002D01*
X80300002Y-46300002D02*
X79000000Y-45000000D01*
%TO.N,R11*%
X71500000Y-60420000D02*
X71500000Y-58989964D01*
X72689962Y-57800002D02*
X75199998Y-57800002D01*
X73620000Y-62540000D02*
X71500000Y-60420000D01*
X71500000Y-58989964D02*
X72689962Y-57800002D01*
X75199998Y-57800002D02*
X79000000Y-54000000D01*
%TO.N,R4*%
X66000000Y-51500000D02*
X61000000Y-51500000D01*
%TO.N,ADC2*%
X79000000Y-72000000D02*
X81000000Y-74000000D01*
X81000000Y-74000000D02*
X81000000Y-83000000D01*
X81000000Y-83000000D02*
X81500000Y-83500000D01*
X81500000Y-83500000D02*
X81500000Y-98500000D01*
X81500000Y-102000000D02*
X81000000Y-102500000D01*
X81500000Y-98500000D02*
X81500000Y-102000000D01*
%TO.N,ADC1*%
X64000000Y-94500000D02*
X66500000Y-97000000D01*
X66500000Y-97000000D02*
X67500000Y-97000000D01*
X68500000Y-81000000D02*
X68500000Y-72500000D01*
X70840000Y-70160000D02*
X73620000Y-70160000D01*
X68500000Y-72500000D02*
X70840000Y-70160000D01*
%TD*%
M02*
