0
SECTION
2
HEADER
9
$ACADVER
1
AC1009
0
ENDSEC
0
SECTION
2
ENTITIES
0
LINE
8
0
10
-25.0
20
-25.0
11
25.0
21
-25.0
0
LINE
8
0
10
25.0
20
-25.0
11
25.0
21
25.0
0
LINE
8
0
10
25.0
20
25.0
11
-25.0
21
25.0
0
LINE
8
0
10
-25.0
20
25.0
11
-25.0
21
-25.0
0
LINE
8
0
10
-27.5
20
0.0
11
27.5
21
0.0
0
LINE
8
0
10
0.0
20
-27.5
11
0.0
21
27.5
0
LINE
8
0
10
2.5
20
-2.0
11
2.5
21
3.0
0
LINE
8
0
10
-23.5
20
21.5
11
-21.5
21
21.5
0
LINE
8
0
10
-21.5
20
21.5
11
-21.5
21
23.5
0
LINE
8
0
10
-21.5
20
23.5
11
-23.5
21
23.5
0
LINE
8
0
10
-23.5
20
23.5
11
-23.5
21
21.5
0
LINE
8
0
10
22.5
20
-21.0
11
24.0
21
-22.5
0
LINE
8
0
10
24.0
20
-22.5
11
22.5
21
-24.0
0
LINE
8
0
10
22.5
20
-24.0
11
21.0
21
-22.5
0
LINE
8
0
10
21.0
20
-22.5
11
22.5
21
-21.0
0
TEXT
8
0
10
-27.0
20
25.5
40
2.0
1
1
0
TEXT
8
0
10
1.0
20
25.5
40
2.0
1
2
0
TEXT
8
0
10
25.0
20
25.5
40
2.0
1
3
0
TEXT
8
0
10
-27.0
20
1.0
40
2.0
1
4
0
TEXT
8
0
10
-2.5
20
1.0
40
2.0
1
5
0
TEXT
8
0
10
25.5
20
1.0
40
2.0
1
6
0
TEXT
8
0
10
-27.0
20
-27.5
40
2.0
1
7
0
TEXT
8
0
10
1.0
20
-27.5
40
2.0
1
8
0
TEXT
8
0
10
25.5
20
-27.5
40
2.0
1
9
0
ENDSEC
0
EOF