<?xml version="1.0" encoding="UTF-8" standalone="no"?>
<svg
   viewBox="0 0 793.7007874015749 1122.5196850393702"
   width="793.7007874015749"
   height="1122.5196850393702"
   version="1.1"
   id="svg243"
   sodipodi:docname="wafer_grid_30mm_250um.svg"
   inkscape:version="1.3.2 (091e20e, 2023-11-25, custom)"
   xmlns:inkscape="http://www.inkscape.org/namespaces/inkscape"
   xmlns:sodipodi="http://sodipodi.sourceforge.net/DTD/sodipodi-0.dtd"
   xmlns="http://www.w3.org/2000/svg"
   xmlns:svg="http://www.w3.org/2000/svg">
  <sodipodi:namedview
     id="namedview243"
     pagecolor="#ffffff"
     bordercolor="#000000"
     borderopacity="0.25"
     inkscape:showpageshadow="2"
     inkscape:pageopacity="0.0"
     inkscape:pagecheckerboard="0"
     inkscape:deskcolor="#d1d1d1"
     inkscape:zoom="5.6568543"
     inkscape:cx="68.942911"
     inkscape:cy="1070.6481"
     inkscape:window-width="1920"
     inkscape:window-height="1009"
     inkscape:window-x="-8"
     inkscape:window-y="-8"
     inkscape:window-maximized="1"
     inkscape:current-layer="g243" />
  <desc
     id="desc1">wafer_grid_30mm_250um.dxf - scale = 1.000000, origin = (0.000000, 0.000000), method = auto</desc>
  <defs
     id="defs4">
    <marker
       id="DistanceX"
       orient="auto"
       refX="0.0"
       refY="0.0"
       style="overflow:visible">
      <path
         d="M 3,-3 L -3,3 M 0,-5 L  0,5"
         style="stroke:#000000; stroke-width:0.5"
         id="path1" />
    </marker>
    <pattern
       id="Hatch"
       patternUnits="userSpaceOnUse"
       width="8"
       height="8"
       x="0"
       y="0">
      <path
         d="M8 4 l-4,4"
         stroke="#000000"
         stroke-width="0.25"
         linecap="square"
         id="path2" />
      <path
         d="M6 2 l-4,4"
         stroke="#000000"
         stroke-width="0.25"
         linecap="square"
         id="path3" />
      <path
         d="M4 0 l-4,4"
         stroke="#000000"
         stroke-width="0.25"
         linecap="square"
         id="path4" />
    </pattern>
  </defs>
  <g
     inkscape:groupmode="layer"
     inkscape:label="0"
     id="g243">
    <path
       d="M 113.385827,1065.826772 A 56.692913,56.692913 -0.000000 0, 0 0.000000,1065.826772 A 56.692913,56.692913 -0.000000 0, 0 113.385827,1065.826772 z"
       style="fill:none;stroke:#000000"
       id="path5" />
    <path
       style="fill:none;stroke:#000000"
       d="M 0.944882 1076.13 L 0.944882 1055.52"
       id="path6" />
    <path
       style="fill:none;stroke:#000000"
       d="M 46.3854 1121.57 L 67.0004 1121.57"
       id="path7" />
    <path
       style="fill:none;stroke:#000000"
       d="M 1.88976 1080.34 L 1.88976 1051.31"
       id="path8" />
    <path
       style="fill:none;stroke:#000000"
       d="M 42.1773 1120.63 L 71.2086 1120.63"
       id="path9" />
    <path
       style="fill:none;stroke:#000000"
       d="M 2.83465 1083.53 L 2.83465 1048.12"
       id="path10" />
    <path
       style="fill:none;stroke:#000000"
       d="M 38.9907 1119.69 L 74.3951 1119.69"
       id="path11" />
    <path
       style="fill:none;stroke:#000000"
       d="M 3.77953 1086.18 L 3.77953 1045.47"
       id="path12" />
    <path
       style="fill:none;stroke:#000000"
       d="M 36.3394 1118.74 L 77.0464 1118.74"
       id="path13" />
    <path
       style="fill:none;stroke:#000000"
       d="M 4.72441 1088.48 L 4.72441 1043.17"
       id="path14" />
    <path
       style="fill:none;stroke:#000000"
       d="M 34.0354 1117.8 L 79.3504 1117.8"
       id="path15" />
    <path
       style="fill:none;stroke:#000000"
       d="M 5.66929 1090.54 L 5.66929 1041.12"
       id="path16" />
    <path
       style="fill:none;stroke:#000000"
       d="M 31.9812 1116.85 L 81.4046 1116.85"
       id="path17" />
    <path
       style="fill:none;stroke:#000000"
       d="M 6.61417 1092.4 L 6.61417 1039.25"
       id="path18" />
    <path
       style="fill:none;stroke:#000000"
       d="M 30.1183 1115.91 L 83.2675 1115.91"
       id="path19" />
    <path
       style="fill:none;stroke:#000000"
       d="M 7.55905 1094.11 L 7.55905 1037.54"
       id="path20" />
    <path
       style="fill:none;stroke:#000000"
       d="M 28.4096 1114.96 L 84.9763 1114.96"
       id="path21" />
    <path
       style="fill:none;stroke:#000000"
       d="M 8.50394 1095.69 L 8.50394 1035.96"
       id="path22" />
    <path
       style="fill:none;stroke:#000000"
       d="M 26.8282 1114.02 L 86.5576 1114.02"
       id="path23" />
    <path
       style="fill:none;stroke:#000000"
       d="M 9.44882 1097.17 L 9.44882 1034.49"
       id="path24" />
    <path
       style="fill:none;stroke:#000000"
       d="M 25.3546 1113.07 L 88.0312 1113.07"
       id="path25" />
    <path
       style="fill:none;stroke:#000000"
       d="M 10.3937 1098.54 L 10.3937 1033.11"
       id="path26" />
    <path
       style="fill:none;stroke:#000000"
       d="M 23.9751 1112.13 L 89.4108 1112.13"
       id="path27" />
    <path
       style="fill:none;stroke:#000000"
       d="M 11.3386 1099.84 L 11.3386 1031.81"
       id="path28" />
    <path
       style="fill:none;stroke:#000000"
       d="M 22.6772 1111.18 L 90.7087 1111.18"
       id="path29" />
    <path
       style="fill:none;stroke:#000000"
       d="M 12.2835 1101.07 L 12.2835 1030.59"
       id="path30" />
    <path
       style="fill:none;stroke:#000000"
       d="M 21.4526 1110.24 L 91.9332 1110.24"
       id="path31" />
    <path
       style="fill:none;stroke:#000000"
       d="M 13.2283 1102.23 L 13.2283 1029.43"
       id="path32" />
    <path
       style="fill:none;stroke:#000000"
       d="M 20.2934 1109.29 L 93.0924 1109.29"
       id="path33" />
    <path
       style="fill:none;stroke:#000000"
       d="M 14.1732 1103.33 L 14.1732 1028.33"
       id="path34" />
    <path
       style="fill:none;stroke:#000000"
       d="M 19.194 1108.35 L 94.1919 1108.35"
       id="path35" />
    <path
       style="fill:none;stroke:#000000"
       d="M 15.1181 1104.37 L 15.1181 1027.28"
       id="path36" />
    <path
       style="fill:none;stroke:#000000"
       d="M 18.1493 1107.4 L 95.2365 1107.4"
       id="path37" />
    <path
       style="fill:none;stroke:#000000"
       d="M 16.063 1105.37 L 16.063 1026.29"
       id="path38" />
    <path
       style="fill:none;stroke:#000000"
       d="M 17.1545 1106.46 L 96.2313 1106.46"
       id="path39" />
    <path
       style="fill:none;stroke:#000000"
       d="M 17.0079 1106.31 L 17.0079 1025.34"
       id="path40" />
    <path
       style="fill:none;stroke:#000000"
       d="M 16.2062 1105.51 L 97.1796 1105.51"
       id="path41" />
    <path
       style="fill:none;stroke:#000000"
       d="M 17.9528 1107.22 L 17.9528 1024.43"
       id="path42" />
    <path
       style="fill:none;stroke:#000000"
       d="M 15.301 1104.57 L 98.0848 1104.57"
       id="path43" />
    <path
       style="fill:none;stroke:#000000"
       d="M 18.8976 1108.08 L 18.8976 1023.57"
       id="path44" />
    <path
       style="fill:none;stroke:#000000"
       d="M 14.4367 1103.62 L 98.9492 1103.62"
       id="path45" />
    <path
       style="fill:none;stroke:#000000"
       d="M 19.8425 1108.91 L 19.8425 1022.74"
       id="path46" />
    <path
       style="fill:none;stroke:#000000"
       d="M 13.6101 1102.68 L 99.7757 1102.68"
       id="path47" />
    <path
       style="fill:none;stroke:#000000"
       d="M 20.7874 1109.7 L 20.7874 1021.95"
       id="path48" />
    <path
       style="fill:none;stroke:#000000"
       d="M 12.8194 1101.73 L 100.566 1101.73"
       id="path49" />
    <path
       style="fill:none;stroke:#000000"
       d="M 21.7323 1110.46 L 21.7323 1021.2"
       id="path50" />
    <path
       style="fill:none;stroke:#000000"
       d="M 12.0627 1100.79 L 101.323 1100.79"
       id="path51" />
    <path
       style="fill:none;stroke:#000000"
       d="M 22.6772 1111.18 L 22.6772 1020.47"
       id="path52" />
    <path
       style="fill:none;stroke:#000000"
       d="M 11.3386 1099.84 L 102.047 1099.84"
       id="path53" />
    <path
       style="fill:none;stroke:#000000"
       d="M 23.622 1111.87 L 23.622 1019.78"
       id="path54" />
    <path
       style="fill:none;stroke:#000000"
       d="M 10.645 1098.9 L 102.741 1098.9"
       id="path55" />
    <path
       style="fill:none;stroke:#000000"
       d="M 24.5669 1112.54 L 24.5669 1019.11"
       id="path56" />
    <path
       style="fill:none;stroke:#000000"
       d="M 9.98098 1097.95 L 103.405 1097.95"
       id="path57" />
    <path
       style="fill:none;stroke:#000000"
       d="M 25.5118 1113.17 L 25.5118 1018.48"
       id="path58" />
    <path
       style="fill:none;stroke:#000000"
       d="M 9.34488 1097.01 L 104.041 1097.01"
       id="path59" />
    <path
       style="fill:none;stroke:#000000"
       d="M 26.4567 1113.78 L 26.4567 1017.87"
       id="path60" />
    <path
       style="fill:none;stroke:#000000"
       d="M 8.736 1096.06 L 104.65 1096.06"
       id="path61" />
    <path
       style="fill:none;stroke:#000000"
       d="M 27.4016 1114.37 L 27.4016 1017.29"
       id="path62" />
    <path
       style="fill:none;stroke:#000000"
       d="M 8.1532 1095.12 L 105.233 1095.12"
       id="path63" />
    <path
       style="fill:none;stroke:#000000"
       d="M 28.3465 1114.92 L 28.3465 1016.73"
       id="path64" />
    <path
       style="fill:none;stroke:#000000"
       d="M 7.59534 1094.17 L 105.79 1094.17"
       id="path65" />
    <path
       style="fill:none;stroke:#000000"
       d="M 29.2913 1115.46 L 29.2913 1016.2"
       id="path66" />
    <path
       style="fill:none;stroke:#000000"
       d="M 7.06205 1093.23 L 106.324 1093.23"
       id="path67" />
    <path
       style="fill:none;stroke:#000000"
       d="M 30.2362 1115.97 L 30.2362 1015.69"
       id="path68" />
    <path
       style="fill:none;stroke:#000000"
       d="M 6.55181 1092.28 L 106.834 1092.28"
       id="path69" />
    <path
       style="fill:none;stroke:#000000"
       d="M 31.1811 1116.46 L 31.1811 1015.2"
       id="path70" />
    <path
       style="fill:none;stroke:#000000"
       d="M 6.06463 1091.34 L 107.321 1091.34"
       id="path71" />
    <path
       style="fill:none;stroke:#000000"
       d="M 32.126 1116.92 L 32.126 1014.73"
       id="path72" />
    <path
       style="fill:none;stroke:#000000"
       d="M 5.59937 1090.39 L 107.786 1090.39"
       id="path73" />
    <path
       style="fill:none;stroke:#000000"
       d="M 33.0709 1117.36 L 33.0709 1014.29"
       id="path74" />
    <path
       style="fill:none;stroke:#000000"
       d="M 5.15565 1089.45 L 108.23 1089.45"
       id="path75" />
    <path
       style="fill:none;stroke:#000000"
       d="M 34.0157 1117.79 L 34.0157 1013.87"
       id="path76" />
    <path
       style="fill:none;stroke:#000000"
       d="M 4.7331 1088.5 L 108.653 1088.5"
       id="path77" />
    <path
       style="fill:none;stroke:#000000"
       d="M 34.9606 1118.19 L 34.9606 1013.46"
       id="path78" />
    <path
       style="fill:none;stroke:#000000"
       d="M 4.33058 1087.56 L 109.055 1087.56"
       id="path79" />
    <path
       style="fill:none;stroke:#000000"
       d="M 35.9055 1118.57 L 35.9055 1013.08"
       id="path80" />
    <path
       style="fill:none;stroke:#000000"
       d="M 3.94847 1086.61 L 109.437 1086.61"
       id="path81" />
    <path
       style="fill:none;stroke:#000000"
       d="M 36.8504 1118.93 L 36.8504 1012.72"
       id="path82" />
    <path
       style="fill:none;stroke:#000000"
       d="M 3.58602 1085.67 L 109.8 1085.67"
       id="path83" />
    <path
       style="fill:none;stroke:#000000"
       d="M 37.7953 1119.28 L 37.7953 1012.38"
       id="path84" />
    <path
       style="fill:none;stroke:#000000"
       d="M 3.24246 1084.72 L 110.143 1084.72"
       id="path85" />
    <path
       style="fill:none;stroke:#000000"
       d="M 38.7402 1119.6 L 38.7402 1012.05"
       id="path86" />
    <path
       style="fill:none;stroke:#000000"
       d="M 2.91742 1083.78 L 110.468 1083.78"
       id="path87" />
    <path
       style="fill:none;stroke:#000000"
       d="M 39.685 1119.91 L 39.685 1011.75"
       id="path88" />
    <path
       style="fill:none;stroke:#000000"
       d="M 2.61128 1082.83 L 110.775 1082.83"
       id="path89" />
    <path
       style="fill:none;stroke:#000000"
       d="M 40.6299 1120.2 L 40.6299 1011.46"
       id="path90" />
    <path
       style="fill:none;stroke:#000000"
       d="M 2.32328 1081.89 L 111.063 1081.89"
       id="path91" />
    <path
       style="fill:none;stroke:#000000"
       d="M 41.5748 1120.47 L 41.5748 1011.19"
       id="path92" />
    <path
       style="fill:none;stroke:#000000"
       d="M 2.05304 1080.94 L 111.333 1080.94"
       id="path93" />
    <path
       style="fill:none;stroke:#000000"
       d="M 42.5197 1120.72 L 42.5197 1010.93"
       id="path94" />
    <path
       style="fill:none;stroke:#000000"
       d="M 1.80019 1080 L 111.586 1080"
       id="path95" />
    <path
       style="fill:none;stroke:#000000"
       d="M 43.4646 1120.95 L 43.4646 1010.7"
       id="path96" />
    <path
       style="fill:none;stroke:#000000"
       d="M 1.56472 1079.06 L 111.821 1079.06"
       id="path97" />
    <path
       style="fill:none;stroke:#000000"
       d="M 44.4094 1121.17 L 44.4094 1010.48"
       id="path98" />
    <path
       style="fill:none;stroke:#000000"
       d="M 1.34665 1078.11 L 112.039 1078.11"
       id="path99" />
    <path
       style="fill:none;stroke:#000000"
       d="M 45.3543 1121.37 L 45.3543 1010.28"
       id="path100" />
    <path
       style="fill:none;stroke:#000000"
       d="M 1.14558 1077.17 L 112.24 1077.17"
       id="path101" />
    <path
       style="fill:none;stroke:#000000"
       d="M 46.2992 1121.56 L 46.2992 1010.09"
       id="path102" />
    <path
       style="fill:none;stroke:#000000"
       d="M 0.960756 1076.22 L 112.425 1076.22"
       id="path103" />
    <path
       style="fill:none;stroke:#000000"
       d="M 47.2441 1121.73 L 47.2441 1009.93"
       id="path104" />
    <path
       style="fill:none;stroke:#000000"
       d="M 0.792945 1075.28 L 112.593 1075.28"
       id="path105" />
    <path
       style="fill:none;stroke:#000000"
       d="M 48.189 1121.88 L 48.189 1009.78"
       id="path106" />
    <path
       style="fill:none;stroke:#000000"
       d="M 0.641386 1074.33 L 112.744 1074.33"
       id="path107" />
    <path
       style="fill:none;stroke:#000000"
       d="M 49.1339 1122.01 L 49.1339 1009.64"
       id="path108" />
    <path
       style="fill:none;stroke:#000000"
       d="M 0.506079 1073.39 L 112.88 1073.39"
       id="path109" />
    <path
       style="fill:none;stroke:#000000"
       d="M 50.0787 1122.13 L 50.0787 1009.52"
       id="path110" />
    <path
       style="fill:none;stroke:#000000"
       d="M 0.387024 1072.44 L 112.999 1072.44"
       id="path111" />
    <path
       style="fill:none;stroke:#000000"
       d="M 51.0236 1122.24 L 51.0236 1009.42"
       id="path112" />
    <path
       style="fill:none;stroke:#000000"
       d="M 0.28422 1071.5 L 113.102 1071.5"
       id="path113" />
    <path
       style="fill:none;stroke:#000000"
       d="M 51.9685 1122.32 L 51.9685 1009.33"
       id="path114" />
    <path
       style="fill:none;stroke:#000000"
       d="M 0.197291 1070.55 L 113.189 1070.55"
       id="path115" />
    <path
       style="fill:none;stroke:#000000"
       d="M 52.9134 1122.39 L 52.9134 1009.26"
       id="path116" />
    <path
       style="fill:none;stroke:#000000"
       d="M 0.126236 1069.61 L 113.26 1069.61"
       id="path117" />
    <path
       style="fill:none;stroke:#000000"
       d="M 53.8583 1122.45 L 53.8583 1009.2"
       id="path118" />
    <path
       style="fill:none;stroke:#000000"
       d="M 0.071055 1068.66 L 113.315 1068.66"
       id="path119" />
    <path
       style="fill:none;stroke:#000000"
       d="M 54.8032 1122.49 L 54.8032 1009.17"
       id="path120" />
    <path
       style="fill:none;stroke:#000000"
       d="M 0.03137 1067.72 L 113.354 1067.72"
       id="path121" />
    <path
       style="fill:none;stroke:#000000"
       d="M 55.748 1122.51 L 55.748 1009.14"
       id="path122" />
    <path
       style="fill:none;stroke:#000000"
       d="M 0.007937 1066.77 L 113.378 1066.77"
       id="path123" />
    <path
       style="fill:none;stroke:#000000"
       d="M 56.6929 1122.52 L 56.6929 1009.13"
       id="path124" />
    <path
       style="fill:none;stroke:#000000"
       d="M 0 1065.83 L 113.386 1065.83"
       id="path125" />
    <path
       style="fill:none;stroke:#000000"
       d="M 57.6378 1122.51 L 57.6378 1009.14"
       id="path126" />
    <path
       style="fill:none;stroke:#000000"
       d="M 0.007937 1064.88 L 113.378 1064.88"
       id="path127" />
    <path
       style="fill:none;stroke:#000000"
       d="M 58.5827 1122.49 L 58.5827 1009.17"
       id="path128" />
    <path
       style="fill:none;stroke:#000000"
       d="M 0.03137 1063.94 L 113.354 1063.94"
       id="path129" />
    <path
       style="fill:none;stroke:#000000"
       d="M 59.5276 1122.45 L 59.5276 1009.2"
       id="path130" />
    <path
       style="fill:none;stroke:#000000"
       d="M 0.071055 1062.99 L 113.315 1062.99"
       id="path131" />
    <path
       style="fill:none;stroke:#000000"
       d="M 60.4724 1122.39 L 60.4724 1009.26"
       id="path132" />
    <path
       style="fill:none;stroke:#000000"
       d="M 0.126236 1062.05 L 113.26 1062.05"
       id="path133" />
    <path
       style="fill:none;stroke:#000000"
       d="M 61.4173 1122.32 L 61.4173 1009.33"
       id="path134" />
    <path
       style="fill:none;stroke:#000000"
       d="M 0.197291 1061.1 L 113.189 1061.1"
       id="path135" />
    <path
       style="fill:none;stroke:#000000"
       d="M 62.3622 1122.24 L 62.3622 1009.42"
       id="path136" />
    <path
       style="fill:none;stroke:#000000"
       d="M 0.28422 1060.16 L 113.102 1060.16"
       id="path137" />
    <path
       style="fill:none;stroke:#000000"
       d="M 63.3071 1122.13 L 63.3071 1009.52"
       id="path138" />
    <path
       style="fill:none;stroke:#000000"
       d="M 0.387024 1059.21 L 112.999 1059.21"
       id="path139" />
    <path
       style="fill:none;stroke:#000000"
       d="M 64.252 1122.01 L 64.252 1009.64"
       id="path140" />
    <path
       style="fill:none;stroke:#000000"
       d="M 0.506079 1058.27 L 112.88 1058.27"
       id="path141" />
    <path
       style="fill:none;stroke:#000000"
       d="M 65.1968 1121.88 L 65.1968 1009.78"
       id="path142" />
    <path
       style="fill:none;stroke:#000000"
       d="M 0.641386 1057.32 L 112.744 1057.32"
       id="path143" />
    <path
       style="fill:none;stroke:#000000"
       d="M 66.1417 1121.73 L 66.1417 1009.93"
       id="path144" />
    <path
       style="fill:none;stroke:#000000"
       d="M 0.792945 1056.38 L 112.593 1056.38"
       id="path145" />
    <path
       style="fill:none;stroke:#000000"
       d="M 67.0866 1121.56 L 67.0866 1010.09"
       id="path146" />
    <path
       style="fill:none;stroke:#000000"
       d="M 0.960756 1055.43 L 112.425 1055.43"
       id="path147" />
    <path
       style="fill:none;stroke:#000000"
       d="M 68.0315 1121.37 L 68.0315 1010.28"
       id="path148" />
    <path
       style="fill:none;stroke:#000000"
       d="M 1.14558 1054.49 L 112.24 1054.49"
       id="path149" />
    <path
       style="fill:none;stroke:#000000"
       d="M 68.9764 1121.17 L 68.9764 1010.48"
       id="path150" />
    <path
       style="fill:none;stroke:#000000"
       d="M 1.34665 1053.54 L 112.039 1053.54"
       id="path151" />
    <path
       style="fill:none;stroke:#000000"
       d="M 69.9213 1120.95 L 69.9213 1010.7"
       id="path152" />
    <path
       style="fill:none;stroke:#000000"
       d="M 1.56472 1052.6 L 111.821 1052.6"
       id="path153" />
    <path
       style="fill:none;stroke:#000000"
       d="M 70.8661 1120.72 L 70.8661 1010.93"
       id="path154" />
    <path
       style="fill:none;stroke:#000000"
       d="M 1.80019 1051.65 L 111.586 1051.65"
       id="path155" />
    <path
       style="fill:none;stroke:#000000"
       d="M 71.811 1120.47 L 71.811 1011.19"
       id="path156" />
    <path
       style="fill:none;stroke:#000000"
       d="M 2.05304 1050.71 L 111.333 1050.71"
       id="path157" />
    <path
       style="fill:none;stroke:#000000"
       d="M 72.7559 1120.2 L 72.7559 1011.46"
       id="path158" />
    <path
       style="fill:none;stroke:#000000"
       d="M 2.32328 1049.76 L 111.063 1049.76"
       id="path159" />
    <path
       style="fill:none;stroke:#000000"
       d="M 73.7008 1119.91 L 73.7008 1011.75"
       id="path160" />
    <path
       style="fill:none;stroke:#000000"
       d="M 2.61128 1048.82 L 110.775 1048.82"
       id="path161" />
    <path
       style="fill:none;stroke:#000000"
       d="M 74.6457 1119.6 L 74.6457 1012.05"
       id="path162" />
    <path
       style="fill:none;stroke:#000000"
       d="M 2.91742 1047.87 L 110.468 1047.87"
       id="path163" />
    <path
       style="fill:none;stroke:#000000"
       d="M 75.5906 1119.28 L 75.5906 1012.38"
       id="path164" />
    <path
       style="fill:none;stroke:#000000"
       d="M 3.24246 1046.93 L 110.143 1046.93"
       id="path165" />
    <path
       style="fill:none;stroke:#000000"
       d="M 76.5354 1118.93 L 76.5354 1012.72"
       id="path166" />
    <path
       style="fill:none;stroke:#000000"
       d="M 3.58602 1045.98 L 109.8 1045.98"
       id="path167" />
    <path
       style="fill:none;stroke:#000000"
       d="M 77.4803 1118.57 L 77.4803 1013.08"
       id="path168" />
    <path
       style="fill:none;stroke:#000000"
       d="M 3.94847 1045.04 L 109.437 1045.04"
       id="path169" />
    <path
       style="fill:none;stroke:#000000"
       d="M 78.4252 1118.19 L 78.4252 1013.46"
       id="path170" />
    <path
       style="fill:none;stroke:#000000"
       d="M 4.33058 1044.09 L 109.055 1044.09"
       id="path171" />
    <path
       style="fill:none;stroke:#000000"
       d="M 79.3701 1117.79 L 79.3701 1013.87"
       id="path172" />
    <path
       style="fill:none;stroke:#000000"
       d="M 4.7331 1043.15 L 108.653 1043.15"
       id="path173" />
    <path
       style="fill:none;stroke:#000000"
       d="M 80.315 1117.36 L 80.315 1014.29"
       id="path174" />
    <path
       style="fill:none;stroke:#000000"
       d="M 5.15565 1042.2 L 108.23 1042.2"
       id="path175" />
    <path
       style="fill:none;stroke:#000000"
       d="M 81.2598 1116.92 L 81.2598 1014.73"
       id="path176" />
    <path
       style="fill:none;stroke:#000000"
       d="M 5.59937 1041.26 L 107.786 1041.26"
       id="path177" />
    <path
       style="fill:none;stroke:#000000"
       d="M 82.2047 1116.46 L 82.2047 1015.2"
       id="path178" />
    <path
       style="fill:none;stroke:#000000"
       d="M 6.06463 1040.31 L 107.321 1040.31"
       id="path179" />
    <path
       style="fill:none;stroke:#000000"
       d="M 83.1496 1115.97 L 83.1496 1015.69"
       id="path180" />
    <path
       style="fill:none;stroke:#000000"
       d="M 6.55181 1039.37 L 106.834 1039.37"
       id="path181" />
    <path
       style="fill:none;stroke:#000000"
       d="M 84.0945 1115.46 L 84.0945 1016.2"
       id="path182" />
    <path
       style="fill:none;stroke:#000000"
       d="M 7.06205 1038.43 L 106.324 1038.43"
       id="path183" />
    <path
       style="fill:none;stroke:#000000"
       d="M 85.0394 1114.92 L 85.0394 1016.73"
       id="path184" />
    <path
       style="fill:none;stroke:#000000"
       d="M 7.59534 1037.48 L 105.79 1037.48"
       id="path185" />
    <path
       style="fill:none;stroke:#000000"
       d="M 85.9843 1114.37 L 85.9843 1017.29"
       id="path186" />
    <path
       style="fill:none;stroke:#000000"
       d="M 8.1532 1036.54 L 105.233 1036.54"
       id="path187" />
    <path
       style="fill:none;stroke:#000000"
       d="M 86.9291 1113.78 L 86.9291 1017.87"
       id="path188" />
    <path
       style="fill:none;stroke:#000000"
       d="M 8.736 1035.59 L 104.65 1035.59"
       id="path189" />
    <path
       style="fill:none;stroke:#000000"
       d="M 87.874 1113.17 L 87.874 1018.48"
       id="path190" />
    <path
       style="fill:none;stroke:#000000"
       d="M 9.34488 1034.65 L 104.041 1034.65"
       id="path191" />
    <path
       style="fill:none;stroke:#000000"
       d="M 88.8189 1112.54 L 88.8189 1019.11"
       id="path192" />
    <path
       style="fill:none;stroke:#000000"
       d="M 9.98098 1033.7 L 103.405 1033.7"
       id="path193" />
    <path
       style="fill:none;stroke:#000000"
       d="M 89.7638 1111.87 L 89.7638 1019.78"
       id="path194" />
    <path
       style="fill:none;stroke:#000000"
       d="M 10.645 1032.76 L 102.741 1032.76"
       id="path195" />
    <path
       style="fill:none;stroke:#000000"
       d="M 90.7087 1111.18 L 90.7087 1020.47"
       id="path196" />
    <path
       style="fill:none;stroke:#000000"
       d="M 11.3386 1031.81 L 102.047 1031.81"
       id="path197" />
    <path
       style="fill:none;stroke:#000000"
       d="M 91.6535 1110.46 L 91.6535 1021.2"
       id="path198" />
    <path
       style="fill:none;stroke:#000000"
       d="M 12.0627 1030.87 L 101.323 1030.87"
       id="path199" />
    <path
       style="fill:none;stroke:#000000"
       d="M 92.5984 1109.7 L 92.5984 1021.95"
       id="path200" />
    <path
       style="fill:none;stroke:#000000"
       d="M 12.8194 1029.92 L 100.566 1029.92"
       id="path201" />
    <path
       style="fill:none;stroke:#000000"
       d="M 93.5433 1108.91 L 93.5433 1022.74"
       id="path202" />
    <path
       style="fill:none;stroke:#000000"
       d="M 13.6101 1028.98 L 99.7757 1028.98"
       id="path203" />
    <path
       style="fill:none;stroke:#000000"
       d="M 94.4882 1108.08 L 94.4882 1023.57"
       id="path204" />
    <path
       style="fill:none;stroke:#000000"
       d="M 14.4367 1028.03 L 98.9492 1028.03"
       id="path205" />
    <path
       style="fill:none;stroke:#000000"
       d="M 95.4331 1107.22 L 95.4331 1024.43"
       id="path206" />
    <path
       style="fill:none;stroke:#000000"
       d="M 15.301 1027.09 L 98.0848 1027.09"
       id="path207" />
    <path
       style="fill:none;stroke:#000000"
       d="M 96.378 1106.31 L 96.378 1025.34"
       id="path208" />
    <path
       style="fill:none;stroke:#000000"
       d="M 16.2062 1026.14 L 97.1796 1026.14"
       id="path209" />
    <path
       style="fill:none;stroke:#000000"
       d="M 97.3228 1105.37 L 97.3228 1026.29"
       id="path210" />
    <path
       style="fill:none;stroke:#000000"
       d="M 17.1545 1025.2 L 96.2313 1025.2"
       id="path211" />
    <path
       style="fill:none;stroke:#000000"
       d="M 98.2677 1104.37 L 98.2677 1027.28"
       id="path212" />
    <path
       style="fill:none;stroke:#000000"
       d="M 18.1493 1024.25 L 95.2365 1024.25"
       id="path213" />
    <path
       style="fill:none;stroke:#000000"
       d="M 99.2126 1103.33 L 99.2126 1028.33"
       id="path214" />
    <path
       style="fill:none;stroke:#000000"
       d="M 19.194 1023.31 L 94.1919 1023.31"
       id="path215" />
    <path
       style="fill:none;stroke:#000000"
       d="M 100.157 1102.23 L 100.157 1029.43"
       id="path216" />
    <path
       style="fill:none;stroke:#000000"
       d="M 20.2934 1022.36 L 93.0924 1022.36"
       id="path217" />
    <path
       style="fill:none;stroke:#000000"
       d="M 101.102 1101.07 L 101.102 1030.59"
       id="path218" />
    <path
       style="fill:none;stroke:#000000"
       d="M 21.4526 1021.42 L 91.9332 1021.42"
       id="path219" />
    <path
       style="fill:none;stroke:#000000"
       d="M 102.047 1099.84 L 102.047 1031.81"
       id="path220" />
    <path
       style="fill:none;stroke:#000000"
       d="M 22.6772 1020.47 L 90.7087 1020.47"
       id="path221" />
    <path
       style="fill:none;stroke:#000000"
       d="M 102.992 1098.54 L 102.992 1033.11"
       id="path222" />
    <path
       style="fill:none;stroke:#000000"
       d="M 23.9751 1019.53 L 89.4108 1019.53"
       id="path223" />
    <path
       style="fill:none;stroke:#000000"
       d="M 103.937 1097.17 L 103.937 1034.49"
       id="path224" />
    <path
       style="fill:none;stroke:#000000"
       d="M 25.3546 1018.58 L 88.0312 1018.58"
       id="path225" />
    <path
       style="fill:none;stroke:#000000"
       d="M 104.882 1095.69 L 104.882 1035.96"
       id="path226" />
    <path
       style="fill:none;stroke:#000000"
       d="M 26.8282 1017.64 L 86.5576 1017.64"
       id="path227" />
    <path
       style="fill:none;stroke:#000000"
       d="M 105.827 1094.11 L 105.827 1037.54"
       id="path228" />
    <path
       style="fill:none;stroke:#000000"
       d="M 28.4096 1016.69 L 84.9763 1016.69"
       id="path229" />
    <path
       style="fill:none;stroke:#000000"
       d="M 106.772 1092.4 L 106.772 1039.25"
       id="path230" />
    <path
       style="fill:none;stroke:#000000"
       d="M 30.1183 1015.75 L 83.2675 1015.75"
       id="path231" />
    <path
       style="fill:none;stroke:#000000"
       d="M 107.717 1090.54 L 107.717 1041.12"
       id="path232" />
    <path
       style="fill:none;stroke:#000000"
       d="M 31.9812 1014.8 L 81.4046 1014.8"
       id="path233" />
    <path
       style="fill:none;stroke:#000000"
       d="M 108.661 1088.48 L 108.661 1043.17"
       id="path234" />
    <path
       style="fill:none;stroke:#000000"
       d="M 34.0354 1013.86 L 79.3504 1013.86"
       id="path235" />
    <path
       style="fill:none;stroke:#000000"
       d="M 109.606 1086.18 L 109.606 1045.47"
       id="path236" />
    <path
       style="fill:none;stroke:#000000"
       d="M 36.3394 1012.91 L 77.0464 1012.91"
       id="path237" />
    <path
       style="fill:none;stroke:#000000"
       d="M 110.551 1083.53 L 110.551 1048.12"
       id="path238" />
    <path
       style="fill:none;stroke:#000000"
       d="M 38.9907 1011.97 L 74.3951 1011.97"
       id="path239" />
    <path
       style="fill:none;stroke:#000000"
       d="M 111.496 1080.34 L 111.496 1051.31"
       id="path240" />
    <path
       style="fill:none;stroke:#000000"
       d="M 42.1773 1011.02 L 71.2086 1011.02"
       id="path241" />
    <path
       style="fill:none;stroke:#000000"
       d="M 112.441 1076.13 L 112.441 1055.52"
       id="path242" />
    <path
       style="fill:none;stroke:#000000"
       d="M 46.3854 1010.08 L 67.0004 1010.08"
       id="path243" />
  </g>
</svg>
