<?xml version="1.0" encoding="UTF-8" standalone="no"?>
<svg
   viewBox="0 0 790 400"
   width="790"
   height="400"
   version="1.1"
   id="svg22"
   sodipodi:docname="barcodetest1.svg"
   inkscape:version="1.3.2 (091e20e, 2023-11-25, custom)"
   xmlns:inkscape="http://www.inkscape.org/namespaces/inkscape"
   xmlns:sodipodi="http://sodipodi.sourceforge.net/DTD/sodipodi-0.dtd"
   xmlns="http://www.w3.org/2000/svg"
   xmlns:svg="http://www.w3.org/2000/svg">
  <defs
     id="defs22" />
  <sodipodi:namedview
     id="namedview22"
     pagecolor="#ffffff"
     bordercolor="#000000"
     borderopacity="0.25"
     inkscape:showpageshadow="2"
     inkscape:pageopacity="0.0"
     inkscape:pagecheckerboard="0"
     inkscape:deskcolor="#d1d1d1"
     inkscape:zoom="1.8205762"
     inkscape:cx="211.74615"
     inkscape:cy="183.18376"
     inkscape:window-width="1920"
     inkscape:window-height="1009"
     inkscape:window-x="-8"
     inkscape:window-y="-8"
     inkscape:window-maximized="1"
     inkscape:current-layer="svg22" />
  <g
     fill="#000000"
     id="g22"
     transform="scale(0.28705273,0.18897638)">
    <rect
       x="0"
       y="0"
       width="20"
       height="400"
       id="rect1" />
    <rect
       x="30"
       y="0"
       width="10"
       height="400"
       id="rect2" />
    <rect
       x="60"
       y="0"
       width="10"
       height="400"
       id="rect3" />
    <rect
       x="110"
       y="0"
       width="20"
       height="400"
       id="rect4" />
    <rect
       x="140"
       y="0"
       width="30"
       height="400"
       id="rect5" />
    <rect
       x="180"
       y="0"
       width="10"
       height="400"
       id="rect6" />
    <rect
       x="220"
       y="0"
       width="30"
       height="400"
       id="rect7" />
    <rect
       x="260"
       y="0"
       width="30"
       height="400"
       id="rect8" />
    <rect
       x="300"
       y="0"
       width="20"
       height="400"
       id="rect9" />
    <rect
       x="330"
       y="0"
       width="30"
       height="400"
       id="rect10" />
    <rect
       x="370"
       y="0"
       width="30"
       height="400"
       id="rect11" />
    <rect
       x="410"
       y="0"
       width="20"
       height="400"
       id="rect12" />
    <rect
       x="440"
       y="0"
       width="10"
       height="400"
       id="rect13" />
    <rect
       x="480"
       y="0"
       width="20"
       height="400"
       id="rect14" />
    <rect
       x="510"
       y="0"
       width="30"
       height="400"
       id="rect15" />
    <rect
       x="550"
       y="0"
       width="30"
       height="400"
       id="rect16" />
    <rect
       x="610"
       y="0"
       width="10"
       height="400"
       id="rect17" />
    <rect
       x="630"
       y="0"
       width="20"
       height="400"
       id="rect18" />
    <rect
       x="660"
       y="0"
       width="20"
       height="400"
       id="rect19" />
    <rect
       x="710"
       y="0"
       width="30"
       height="400"
       id="rect20" />
    <rect
       x="750"
       y="0"
       width="10"
       height="400"
       id="rect21" />
    <rect
       x="770"
       y="0"
       width="20"
       height="400"
       id="rect22" />
  </g>
</svg>
