999
"DXF R12 Output" (www.mydxf.blogspot.com)
 0 
SECTION
 2 
HEADER
 9 
$ACADVER
 1 
AC1009
 9 
$EXTMIN
 10 
 0 
 20 
 0 
 9 
$EXTMAX
 10 
 8.5 
 20 
 11 
 0 
ENDSEC
 0 
SECTION
 2 
ENTITIES
0
LINE
8
Layer 1
10
0.793749
20
297.793749
11
-0.793749
21
296.206251
0
LINE
8
Layer 1
10
0.000000
20
298.322915
11
0.000000
21
295.677085
0
LINE
8
Layer 1
10
2.116664
20
295.941668
11
1.058332
21
294.883336
0
LINE
8
Layer 1
10
1.587498
20
296.470834
11
0.529166
21
295.412502
0
LINE
8
Layer 1
10
1.058332
20
297.000000
11
0.000000
21
295.941668
0
LINE
8
0
10
39.886533
20
227.285123
11
39.886533
21
228.711895
0
LINE
8
0
10
39.886533
20
228.711895
11
39.886533
21
230.138669
0
LINE
8
0
10
39.886533
20
230.138669
11
41.313305
21
230.138669
0
LINE
8
0
10
41.313305
20
230.138669
11
42.740076
21
230.138669
0
LINE
8
0
10
42.740076
20
230.138669
11
44.166848
21
230.138669
0
LINE
8
0
10
44.166848
20
230.138669
11
45.593620
21
230.138669
0
LINE
8
0
10
45.593620
20
230.138669
11
47.020392
21
230.138669
0
LINE
8
0
10
47.020392
20
230.138669
11
48.447163
21
230.138669
0
LINE
8
0
10
48.447163
20
230.138669
11
49.873935
21
230.138669
0
LINE
8
0
10
49.873935
20
230.138669
11
49.873935
21
228.711895
0
LINE
8
0
10
49.873935
20
228.711895
11
49.873935
21
227.285123
0
LINE
8
0
10
49.873935
20
227.285123
11
49.873935
21
225.858351
0
LINE
8
0
10
49.873935
20
225.858351
11
49.873935
21
224.431580
0
LINE
8
0
10
49.873935
20
224.431580
11
49.873935
21
223.004808
0
LINE
8
0
10
49.873935
20
223.004808
11
49.873935
21
221.578036
0
LINE
8
0
10
49.873935
20
221.578036
11
49.873935
21
220.151264
0
LINE
8
0
10
49.873935
20
220.151264
11
48.447163
21
220.151264
0
LINE
8
0
10
48.447163
20
220.151264
11
47.020392
21
220.151264
0
LINE
8
0
10
47.020392
20
220.151264
11
45.593620
21
220.151264
0
LINE
8
0
10
45.593620
20
220.151264
11
44.166848
21
220.151264
0
LINE
8
0
10
44.166848
20
220.151264
11
42.740076
21
220.151264
0
LINE
8
0
10
42.740076
20
220.151264
11
41.313305
21
220.151264
0
LINE
8
0
10
41.313305
20
220.151264
11
39.886533
21
220.151264
0
LINE
8
0
10
39.886533
20
220.151264
11
39.886533
21
221.578036
0
LINE
8
0
10
39.886533
20
221.578036
11
39.886533
21
223.004808
0
LINE
8
0
10
39.886533
20
223.004808
11
39.886533
21
224.431580
0
LINE
8
0
10
39.886533
20
224.431580
11
39.886533
21
225.858351
0
LINE
8
0
10
39.886533
20
225.858351
11
39.886533
21
227.285123
0
LINE
8
0
10
42.740076
20
228.711895
11
41.313305
21
228.711895
0
LINE
8
0
10
41.313305
20
228.711895
11
41.313305
21
227.285123
0
LINE
8
0
10
41.313305
20
227.285123
11
41.313305
21
225.858351
0
LINE
8
0
10
41.313305
20
225.858351
11
41.313305
21
224.431580
0
LINE
8
0
10
41.313305
20
224.431580
11
41.313305
21
223.004808
0
LINE
8
0
10
41.313305
20
223.004808
11
41.313305
21
221.578036
0
LINE
8
0
10
41.313305
20
221.578036
11
42.740076
21
221.578036
0
LINE
8
0
10
42.740076
20
221.578036
11
44.166848
21
221.578036
0
LINE
8
0
10
44.166848
20
221.578036
11
45.593620
21
221.578036
0
LINE
8
0
10
45.593620
20
221.578036
11
47.020392
21
221.578036
0
LINE
8
0
10
47.020392
20
221.578036
11
48.447163
21
221.578036
0
LINE
8
0
10
48.447163
20
221.578036
11
48.447163
21
223.004808
0
LINE
8
0
10
48.447163
20
223.004808
11
48.447163
21
224.431580
0
LINE
8
0
10
48.447163
20
224.431580
11
48.447163
21
225.858351
0
LINE
8
0
10
48.447163
20
225.858351
11
48.447163
21
227.285123
0
LINE
8
0
10
48.447163
20
227.285123
11
48.447163
21
228.711895
0
LINE
8
0
10
48.447163
20
228.711895
11
47.020392
21
228.711895
0
LINE
8
0
10
47.020392
20
228.711895
11
45.593620
21
228.711895
0
LINE
8
0
10
45.593620
20
228.711895
11
44.166848
21
228.711895
0
LINE
8
0
10
44.166848
20
228.711895
11
42.740076
21
228.711895
0
LINE
8
0
10
44.166848
20
227.285123
11
45.593620
21
227.285123
0
LINE
8
0
10
45.593620
20
227.285123
11
47.020392
21
227.285123
0
LINE
8
0
10
47.020392
20
227.285123
11
47.020392
21
225.858351
0
LINE
8
0
10
47.020392
20
225.858351
11
47.020392
21
224.431580
0
LINE
8
0
10
47.020392
20
224.431580
11
47.020392
21
223.004808
0
LINE
8
0
10
47.020392
20
223.004808
11
45.593620
21
223.004808
0
LINE
8
0
10
45.593620
20
223.004808
11
44.166848
21
223.004808
0
LINE
8
0
10
44.166848
20
223.004808
11
42.740076
21
223.004808
0
LINE
8
0
10
42.740076
20
223.004808
11
42.740076
21
224.431580
0
LINE
8
0
10
42.740076
20
224.431580
11
42.740076
21
225.858351
0
LINE
8
0
10
42.740076
20
225.858351
11
42.740076
21
227.285123
0
LINE
8
0
10
42.740076
20
227.285123
11
44.166848
21
227.285123
0
LINE
8
0
10
41.313305
20
234.418985
11
42.740076
21
234.418985
0
LINE
8
0
10
42.740076
20
234.418985
11
42.740076
21
232.992213
0
LINE
8
0
10
42.740076
20
232.992213
11
44.166848
21
232.992213
0
LINE
8
0
10
44.166848
20
232.992213
11
44.166848
21
231.565441
0
LINE
8
0
10
44.166848
20
231.565441
11
42.740076
21
231.565441
0
LINE
8
0
10
42.740076
20
231.565441
11
41.313305
21
231.565441
0
LINE
8
0
10
41.313305
20
231.565441
11
41.313305
21
232.992213
0
LINE
8
0
10
41.313305
20
232.992213
11
39.886533
21
232.992213
0
LINE
8
0
10
39.886533
20
232.992213
11
39.886533
21
234.418985
0
LINE
8
0
10
39.886533
20
234.418985
11
41.313305
21
234.418985
0
LINE
8
0
10
42.740076
20
234.418985
11
42.740076
21
235.845756
0
LINE
8
0
10
42.740076
20
235.845756
11
44.166848
21
235.845756
0
LINE
8
0
10
44.166848
20
235.845756
11
44.166848
21
237.272528
0
LINE
8
0
10
44.166848
20
237.272528
11
45.593620
21
237.272528
0
LINE
8
0
10
45.593620
20
237.272528
11
45.593620
21
238.699300
0
LINE
8
0
10
45.593620
20
238.699300
11
47.020392
21
238.699300
0
LINE
8
0
10
47.020392
20
238.699300
11
47.020392
21
237.272528
0
LINE
8
0
10
47.020392
20
237.272528
11
47.020392
21
235.845756
0
LINE
8
0
10
47.020392
20
235.845756
11
47.020392
21
234.418985
0
LINE
8
0
10
47.020392
20
234.418985
11
45.593620
21
234.418985
0
LINE
8
0
10
45.593620
20
234.418985
11
44.166848
21
234.418985
0
LINE
8
0
10
44.166848
20
234.418985
11
42.740076
21
234.418985
0
LINE
8
0
10
41.313305
20
237.272528
11
41.313305
21
235.845756
0
LINE
8
0
10
41.313305
20
235.845756
11
39.886533
21
235.845756
0
LINE
8
0
10
39.886533
20
235.845756
11
39.886533
21
237.272528
0
LINE
8
0
10
39.886533
20
237.272528
11
39.886533
21
238.699300
0
LINE
8
0
10
39.886533
20
238.699300
11
41.313305
21
238.699300
0
LINE
8
0
10
41.313305
20
238.699300
11
41.313305
21
237.272528
0
LINE
8
0
10
39.886533
20
241.552846
11
39.886533
21
242.979618
0
LINE
8
0
10
39.886533
20
242.979618
11
39.886533
21
244.406387
0
LINE
8
0
10
39.886533
20
244.406387
11
39.886533
21
245.833159
0
LINE
8
0
10
39.886533
20
245.833159
11
39.886533
21
247.259931
0
LINE
8
0
10
39.886533
20
247.259931
11
39.886533
21
248.686702
0
LINE
8
0
10
39.886533
20
248.686702
11
39.886533
21
250.113474
0
LINE
8
0
10
39.886533
20
250.113474
11
41.313305
21
250.113474
0
LINE
8
0
10
41.313305
20
250.113474
11
42.740076
21
250.113474
0
LINE
8
0
10
42.740076
20
250.113474
11
44.166848
21
250.113474
0
LINE
8
0
10
44.166848
20
250.113474
11
45.593620
21
250.113474
0
LINE
8
0
10
45.593620
20
250.113474
11
47.020392
21
250.113474
0
LINE
8
0
10
47.020392
20
250.113474
11
48.447163
21
250.113474
0
LINE
8
0
10
48.447163
20
250.113474
11
49.873935
21
250.113474
0
LINE
8
0
10
49.873935
20
250.113474
11
49.873935
21
248.686702
0
LINE
8
0
10
49.873935
20
248.686702
11
49.873935
21
247.259931
0
LINE
8
0
10
49.873935
20
247.259931
11
49.873935
21
245.833159
0
LINE
8
0
10
49.873935
20
245.833159
11
49.873935
21
244.406387
0
LINE
8
0
10
49.873935
20
244.406387
11
49.873935
21
242.979618
0
LINE
8
0
10
49.873935
20
242.979618
11
49.873935
21
241.552846
0
LINE
8
0
10
49.873935
20
241.552846
11
49.873935
21
240.126072
0
LINE
8
0
10
49.873935
20
240.126072
11
48.447163
21
240.126072
0
LINE
8
0
10
48.447163
20
240.126072
11
47.020392
21
240.126072
0
LINE
8
0
10
47.020392
20
240.126072
11
45.593620
21
240.126072
0
LINE
8
0
10
45.593620
20
240.126072
11
44.166848
21
240.126072
0
LINE
8
0
10
44.166848
20
240.126072
11
42.740076
21
240.126072
0
LINE
8
0
10
42.740076
20
240.126072
11
41.313305
21
240.126072
0
LINE
8
0
10
41.313305
20
240.126072
11
39.886533
21
240.126072
0
LINE
8
0
10
39.886533
20
240.126072
11
39.886533
21
241.552846
0
LINE
8
0
10
42.740076
20
248.686702
11
41.313305
21
248.686702
0
LINE
8
0
10
41.313305
20
248.686702
11
41.313305
21
247.259931
0
LINE
8
0
10
41.313305
20
247.259931
11
41.313305
21
245.833159
0
LINE
8
0
10
41.313305
20
245.833159
11
41.313305
21
244.406387
0
LINE
8
0
10
41.313305
20
244.406387
11
41.313305
21
242.979618
0
LINE
8
0
10
41.313305
20
242.979618
11
41.313305
21
241.552846
0
LINE
8
0
10
41.313305
20
241.552846
11
42.740076
21
241.552846
0
LINE
8
0
10
42.740076
20
241.552846
11
44.166848
21
241.552846
0
LINE
8
0
10
44.166848
20
241.552846
11
45.593620
21
241.552846
0
LINE
8
0
10
45.593620
20
241.552846
11
47.020392
21
241.552846
0
LINE
8
0
10
47.020392
20
241.552846
11
48.447163
21
241.552846
0
LINE
8
0
10
48.447163
20
241.552846
11
48.447163
21
242.979618
0
LINE
8
0
10
48.447163
20
242.979618
11
48.447163
21
244.406387
0
LINE
8
0
10
48.447163
20
244.406387
11
48.447163
21
245.833159
0
LINE
8
0
10
48.447163
20
245.833159
11
48.447163
21
247.259931
0
LINE
8
0
10
48.447163
20
247.259931
11
48.447163
21
248.686702
0
LINE
8
0
10
48.447163
20
248.686702
11
47.020392
21
248.686702
0
LINE
8
0
10
47.020392
20
248.686702
11
45.593620
21
248.686702
0
LINE
8
0
10
45.593620
20
248.686702
11
44.166848
21
248.686702
0
LINE
8
0
10
44.166848
20
248.686702
11
42.740076
21
248.686702
0
LINE
8
0
10
42.740076
20
245.833159
11
42.740076
21
247.259931
0
LINE
8
0
10
42.740076
20
247.259931
11
44.166848
21
247.259931
0
LINE
8
0
10
44.166848
20
247.259931
11
45.593620
21
247.259931
0
LINE
8
0
10
45.593620
20
247.259931
11
47.020392
21
247.259931
0
LINE
8
0
10
47.020392
20
247.259931
11
47.020392
21
245.833159
0
LINE
8
0
10
47.020392
20
245.833159
11
47.020392
21
244.406387
0
LINE
8
0
10
47.020392
20
244.406387
11
47.020392
21
242.979618
0
LINE
8
0
10
47.020392
20
242.979618
11
45.593620
21
242.979618
0
LINE
8
0
10
45.593620
20
242.979618
11
44.166848
21
242.979618
0
LINE
8
0
10
44.166848
20
242.979618
11
42.740076
21
242.979618
0
LINE
8
0
10
42.740076
20
242.979618
11
42.740076
21
244.406387
0
LINE
8
0
10
42.740076
20
244.406387
11
42.740076
21
245.833159
0
LINE
8
0
10
54.154253
20
230.138669
11
54.154253
21
228.711895
0
LINE
8
0
10
54.154253
20
228.711895
11
52.727481
21
228.711895
0
LINE
8
0
10
52.727481
20
228.711895
11
51.300710
21
228.711895
0
LINE
8
0
10
51.300710
20
228.711895
11
51.300710
21
230.138669
0
LINE
8
0
10
51.300710
20
230.138669
11
51.300710
21
231.565441
0
LINE
8
0
10
51.300710
20
231.565441
11
52.727481
21
231.565441
0
LINE
8
0
10
52.727481
20
231.565441
11
52.727481
21
230.138669
0
LINE
8
0
10
52.727481
20
230.138669
11
54.154253
21
230.138669
0
LINE
8
0
10
45.593620
20
231.565441
11
45.593620
21
232.992213
0
LINE
8
0
10
45.593620
20
232.992213
11
47.020392
21
232.992213
0
LINE
8
0
10
47.020392
20
232.992213
11
47.020392
21
231.565441
0
LINE
8
0
10
47.020392
20
231.565441
11
45.593620
21
231.565441
0
LINE
8
0
10
48.447163
20
232.992213
11
49.873935
21
232.992213
0
LINE
8
0
10
49.873935
20
232.992213
11
49.873935
21
231.565441
0
LINE
8
0
10
49.873935
20
231.565441
11
48.447163
21
231.565441
0
LINE
8
0
10
48.447163
20
231.565441
11
48.447163
21
232.992213
0
LINE
8
0
10
49.873935
20
234.418985
11
51.300710
21
234.418985
0
LINE
8
0
10
51.300710
20
234.418985
11
51.300710
21
235.845756
0
LINE
8
0
10
51.300710
20
235.845756
11
49.873935
21
235.845756
0
LINE
8
0
10
49.873935
20
235.845756
11
49.873935
21
237.272528
0
LINE
8
0
10
49.873935
20
237.272528
11
48.447163
21
237.272528
0
LINE
8
0
10
48.447163
20
237.272528
11
48.447163
21
238.699300
0
LINE
8
0
10
48.447163
20
238.699300
11
49.873935
21
238.699300
0
LINE
8
0
10
49.873935
20
238.699300
11
51.300710
21
238.699300
0
LINE
8
0
10
51.300710
20
238.699300
11
51.300710
21
240.126072
0
LINE
8
0
10
51.300710
20
240.126072
11
51.300710
21
241.552846
0
LINE
8
0
10
51.300710
20
241.552846
11
51.300710
21
242.979618
0
LINE
8
0
10
51.300710
20
242.979618
11
51.300710
21
244.406387
0
LINE
8
0
10
51.300710
20
244.406387
11
51.300710
21
245.833159
0
LINE
8
0
10
51.300710
20
245.833159
11
52.727481
21
245.833159
0
LINE
8
0
10
52.727481
20
245.833159
11
52.727481
21
247.259931
0
LINE
8
0
10
52.727481
20
247.259931
11
54.154253
21
247.259931
0
LINE
8
0
10
54.154253
20
247.259931
11
55.581025
21
247.259931
0
LINE
8
0
10
55.581025
20
247.259931
11
55.581025
21
245.833159
0
LINE
8
0
10
55.581025
20
245.833159
11
54.154253
21
245.833159
0
LINE
8
0
10
54.154253
20
245.833159
11
54.154253
21
244.406387
0
LINE
8
0
10
54.154253
20
244.406387
11
54.154253
21
242.979618
0
LINE
8
0
10
54.154253
20
242.979618
11
55.581025
21
242.979618
0
LINE
8
0
10
55.581025
20
242.979618
11
57.007797
21
242.979618
0
LINE
8
0
10
57.007797
20
242.979618
11
57.007797
21
241.552846
0
LINE
8
0
10
57.007797
20
241.552846
11
58.434568
21
241.552846
0
LINE
8
0
10
58.434568
20
241.552846
11
58.434568
21
240.126072
0
LINE
8
0
10
58.434568
20
240.126072
11
58.434568
21
238.699300
0
LINE
8
0
10
58.434568
20
238.699300
11
57.007797
21
238.699300
0
LINE
8
0
10
57.007797
20
238.699300
11
57.007797
21
237.272528
0
LINE
8
0
10
57.007797
20
237.272528
11
58.434568
21
237.272528
0
LINE
8
0
10
58.434568
20
237.272528
11
58.434568
21
235.845756
0
LINE
8
0
10
58.434568
20
235.845756
11
57.007797
21
235.845756
0
LINE
8
0
10
57.007797
20
235.845756
11
57.007797
21
234.418985
0
LINE
8
0
10
57.007797
20
234.418985
11
55.581025
21
234.418985
0
LINE
8
0
10
55.581025
20
234.418985
11
55.581025
21
232.992213
0
LINE
8
0
10
55.581025
20
232.992213
11
54.154253
21
232.992213
0
LINE
8
0
10
54.154253
20
232.992213
11
52.727481
21
232.992213
0
LINE
8
0
10
52.727481
20
232.992213
11
51.300710
21
232.992213
0
LINE
8
0
10
51.300710
20
232.992213
11
49.873935
21
232.992213
0
LINE
8
0
10
49.873935
20
232.992213
11
49.873935
21
234.418985
0
LINE
8
0
10
52.727481
20
242.979618
11
52.727481
21
241.552846
0
LINE
8
0
10
52.727481
20
241.552846
11
52.727481
21
240.126072
0
LINE
8
0
10
52.727481
20
240.126072
11
52.727481
21
238.699300
0
LINE
8
0
10
52.727481
20
238.699300
11
54.154253
21
238.699300
0
LINE
8
0
10
54.154253
20
238.699300
11
54.154253
21
240.126072
0
LINE
8
0
10
54.154253
20
240.126072
11
54.154253
21
241.552846
0
LINE
8
0
10
54.154253
20
241.552846
11
54.154253
21
242.979618
0
LINE
8
0
10
54.154253
20
242.979618
11
52.727481
21
242.979618
0
LINE
8
0
10
55.581025
20
241.552846
11
55.581025
21
240.126072
0
LINE
8
0
10
55.581025
20
240.126072
11
57.007797
21
240.126072
0
LINE
8
0
10
57.007797
20
240.126072
11
57.007797
21
241.552846
0
LINE
8
0
10
57.007797
20
241.552846
11
55.581025
21
241.552846
0
LINE
8
0
10
55.581025
20
235.845756
11
55.581025
21
237.272528
0
LINE
8
0
10
55.581025
20
237.272528
11
54.154253
21
237.272528
0
LINE
8
0
10
54.154253
20
237.272528
11
52.727481
21
237.272528
0
LINE
8
0
10
52.727481
20
237.272528
11
52.727481
21
235.845756
0
LINE
8
0
10
52.727481
20
235.845756
11
54.154253
21
235.845756
0
LINE
8
0
10
54.154253
20
235.845756
11
54.154253
21
234.418985
0
LINE
8
0
10
54.154253
20
234.418985
11
55.581025
21
234.418985
0
LINE
8
0
10
55.581025
20
234.418985
11
55.581025
21
235.845756
0
LINE
8
0
10
48.447163
20
234.418985
11
48.447163
21
235.845756
0
LINE
8
0
10
48.447163
20
235.845756
11
49.873935
21
235.845756
0
LINE
8
0
10
49.873935
20
235.845756
11
49.873935
21
234.418985
0
LINE
8
0
10
49.873935
20
234.418985
11
48.447163
21
234.418985
0
LINE
8
0
10
51.300710
20
220.151264
11
51.300710
21
221.578036
0
LINE
8
0
10
51.300710
20
221.578036
11
52.727481
21
221.578036
0
LINE
8
0
10
52.727481
20
221.578036
11
52.727481
21
220.151264
0
LINE
8
0
10
52.727481
20
220.151264
11
51.300710
21
220.151264
0
LINE
8
0
10
52.727481
20
227.285123
11
54.154253
21
227.285123
0
LINE
8
0
10
54.154253
20
227.285123
11
55.581025
21
227.285123
0
LINE
8
0
10
55.581025
20
227.285123
11
55.581025
21
228.711895
0
LINE
8
0
10
55.581025
20
228.711895
11
57.007797
21
228.711895
0
LINE
8
0
10
57.007797
20
228.711895
11
57.007797
21
230.138669
0
LINE
8
0
10
57.007797
20
230.138669
11
57.007797
21
231.565441
0
LINE
8
0
10
57.007797
20
231.565441
11
57.007797
21
232.992213
0
LINE
8
0
10
57.007797
20
232.992213
11
58.434568
21
232.992213
0
LINE
8
0
10
58.434568
20
232.992213
11
58.434568
21
234.418985
0
LINE
8
0
10
58.434568
20
234.418985
11
59.861340
21
234.418985
0
LINE
8
0
10
59.861340
20
234.418985
11
59.861340
21
235.845756
0
LINE
8
0
10
59.861340
20
235.845756
11
61.288112
21
235.845756
0
LINE
8
0
10
61.288112
20
235.845756
11
61.288112
21
237.272528
0
LINE
8
0
10
61.288112
20
237.272528
11
59.861340
21
237.272528
0
LINE
8
0
10
59.861340
20
237.272528
11
58.434568
21
237.272528
0
LINE
8
0
10
58.434568
20
237.272528
11
58.434568
21
238.699300
0
LINE
8
0
10
58.434568
20
238.699300
11
59.861340
21
238.699300
0
LINE
8
0
10
59.861340
20
238.699300
11
61.288112
21
238.699300
0
LINE
8
0
10
61.288112
20
238.699300
11
62.714884
21
238.699300
0
LINE
8
0
10
62.714884
20
238.699300
11
64.141655
21
238.699300
0
LINE
8
0
10
64.141655
20
238.699300
11
65.568427
21
238.699300
0
LINE
8
0
10
65.568427
20
238.699300
11
65.568427
21
237.272528
0
LINE
8
0
10
65.568427
20
237.272528
11
66.995199
21
237.272528
0
LINE
8
0
10
66.995199
20
237.272528
11
68.421973
21
237.272528
0
LINE
8
0
10
68.421973
20
237.272528
11
68.421973
21
235.845756
0
LINE
8
0
10
68.421973
20
235.845756
11
68.421973
21
234.418985
0
LINE
8
0
10
68.421973
20
234.418985
11
66.995199
21
234.418985
0
LINE
8
0
10
66.995199
20
234.418985
11
66.995199
21
235.845756
0
LINE
8
0
10
66.995199
20
235.845756
11
65.568427
21
235.845756
0
LINE
8
0
10
65.568427
20
235.845756
11
64.141655
21
235.845756
0
LINE
8
0
10
64.141655
20
235.845756
11
64.141655
21
234.418985
0
LINE
8
0
10
64.141655
20
234.418985
11
64.141655
21
232.992213
0
LINE
8
0
10
64.141655
20
232.992213
11
62.714884
21
232.992213
0
LINE
8
0
10
62.714884
20
232.992213
11
62.714884
21
234.418985
0
LINE
8
0
10
62.714884
20
234.418985
11
61.288112
21
234.418985
0
LINE
8
0
10
61.288112
20
234.418985
11
61.288112
21
232.992213
0
LINE
8
0
10
61.288112
20
232.992213
11
61.288112
21
231.565441
0
LINE
8
0
10
61.288112
20
231.565441
11
61.288112
21
230.138669
0
LINE
8
0
10
61.288112
20
230.138669
11
59.861340
21
230.138669
0
LINE
8
0
10
59.861340
20
230.138669
11
59.861340
21
228.711895
0
LINE
8
0
10
59.861340
20
228.711895
11
58.434568
21
228.711895
0
LINE
8
0
10
58.434568
20
228.711895
11
58.434568
21
227.285123
0
LINE
8
0
10
58.434568
20
227.285123
11
57.007797
21
227.285123
0
LINE
8
0
10
57.007797
20
227.285123
11
57.007797
21
225.858351
0
LINE
8
0
10
57.007797
20
225.858351
11
58.434568
21
225.858351
0
LINE
8
0
10
58.434568
20
225.858351
11
58.434568
21
224.431580
0
LINE
8
0
10
58.434568
20
224.431580
11
57.007797
21
224.431580
0
LINE
8
0
10
57.007797
20
224.431580
11
57.007797
21
223.004808
0
LINE
8
0
10
57.007797
20
223.004808
11
55.581025
21
223.004808
0
LINE
8
0
10
55.581025
20
223.004808
11
54.154253
21
223.004808
0
LINE
8
0
10
54.154253
20
223.004808
11
54.154253
21
224.431580
0
LINE
8
0
10
54.154253
20
224.431580
11
54.154253
21
225.858351
0
LINE
8
0
10
54.154253
20
225.858351
11
52.727481
21
225.858351
0
LINE
8
0
10
52.727481
20
225.858351
11
51.300710
21
225.858351
0
LINE
8
0
10
51.300710
20
225.858351
11
51.300710
21
227.285123
0
LINE
8
0
10
51.300710
20
227.285123
11
52.727481
21
227.285123
0
LINE
8
0
10
64.141655
20
237.272528
11
62.714884
21
237.272528
0
LINE
8
0
10
62.714884
20
237.272528
11
62.714884
21
235.845756
0
LINE
8
0
10
62.714884
20
235.845756
11
64.141655
21
235.845756
0
LINE
8
0
10
64.141655
20
235.845756
11
64.141655
21
237.272528
0
LINE
8
0
10
54.154253
20
230.138669
11
54.154253
21
231.565441
0
LINE
8
0
10
54.154253
20
231.565441
11
55.581025
21
231.565441
0
LINE
8
0
10
55.581025
20
231.565441
11
55.581025
21
230.138669
0
LINE
8
0
10
55.581025
20
230.138669
11
54.154253
21
230.138669
0
LINE
8
0
10
55.581025
20
248.686702
11
55.581025
21
250.113474
0
LINE
8
0
10
55.581025
20
250.113474
11
57.007797
21
250.113474
0
LINE
8
0
10
57.007797
20
250.113474
11
57.007797
21
248.686702
0
LINE
8
0
10
57.007797
20
248.686702
11
58.434568
21
248.686702
0
LINE
8
0
10
58.434568
20
248.686702
11
58.434568
21
247.259931
0
LINE
8
0
10
58.434568
20
247.259931
11
58.434568
21
245.833159
0
LINE
8
0
10
58.434568
20
245.833159
11
58.434568
21
244.406387
0
LINE
8
0
10
58.434568
20
244.406387
11
58.434568
21
242.979618
0
LINE
8
0
10
58.434568
20
242.979618
11
57.007797
21
242.979618
0
LINE
8
0
10
57.007797
20
242.979618
11
57.007797
21
244.406387
0
LINE
8
0
10
57.007797
20
244.406387
11
57.007797
21
245.833159
0
LINE
8
0
10
57.007797
20
245.833159
11
57.007797
21
247.259931
0
LINE
8
0
10
57.007797
20
247.259931
11
55.581025
21
247.259931
0
LINE
8
0
10
55.581025
20
247.259931
11
55.581025
21
248.686702
0
LINE
8
0
10
52.727481
20
248.686702
11
51.300710
21
248.686702
0
LINE
8
0
10
51.300710
20
248.686702
11
51.300710
21
250.113474
0
LINE
8
0
10
51.300710
20
250.113474
11
52.727481
21
250.113474
0
LINE
8
0
10
52.727481
20
250.113474
11
52.727481
21
248.686702
0
LINE
8
0
10
59.861340
20
224.431580
11
61.288112
21
224.431580
0
LINE
8
0
10
61.288112
20
224.431580
11
62.714884
21
224.431580
0
LINE
8
0
10
62.714884
20
224.431580
11
64.141655
21
224.431580
0
LINE
8
0
10
64.141655
20
224.431580
11
64.141655
21
225.858351
0
LINE
8
0
10
64.141655
20
225.858351
11
62.714884
21
225.858351
0
LINE
8
0
10
62.714884
20
225.858351
11
61.288112
21
225.858351
0
LINE
8
0
10
61.288112
20
225.858351
11
59.861340
21
225.858351
0
LINE
8
0
10
59.861340
20
225.858351
11
59.861340
21
227.285123
0
LINE
8
0
10
59.861340
20
227.285123
11
61.288112
21
227.285123
0
LINE
8
0
10
61.288112
20
227.285123
11
61.288112
21
228.711895
0
LINE
8
0
10
61.288112
20
228.711895
11
62.714884
21
228.711895
0
LINE
8
0
10
62.714884
20
228.711895
11
62.714884
21
227.285123
0
LINE
8
0
10
62.714884
20
227.285123
11
64.141655
21
227.285123
0
LINE
8
0
10
64.141655
20
227.285123
11
65.568427
21
227.285123
0
LINE
8
0
10
65.568427
20
227.285123
11
65.568427
21
225.858351
0
LINE
8
0
10
65.568427
20
225.858351
11
66.995199
21
225.858351
0
LINE
8
0
10
66.995199
20
225.858351
11
68.421973
21
225.858351
0
LINE
8
0
10
68.421973
20
225.858351
11
68.421973
21
227.285123
0
LINE
8
0
10
68.421973
20
227.285123
11
69.848745
21
227.285123
0
LINE
8
0
10
69.848745
20
227.285123
11
69.848745
21
225.858351
0
LINE
8
0
10
69.848745
20
225.858351
11
69.848745
21
224.431580
0
LINE
8
0
10
69.848745
20
224.431580
11
68.421973
21
224.431580
0
LINE
8
0
10
68.421973
20
224.431580
11
66.995199
21
224.431580
0
LINE
8
0
10
66.995199
20
224.431580
11
65.568427
21
224.431580
0
LINE
8
0
10
65.568427
20
224.431580
11
65.568427
21
223.004808
0
LINE
8
0
10
65.568427
20
223.004808
11
65.568427
21
221.578036
0
LINE
8
0
10
65.568427
20
221.578036
11
65.568427
21
220.151264
0
LINE
8
0
10
65.568427
20
220.151264
11
64.141655
21
220.151264
0
LINE
8
0
10
64.141655
20
220.151264
11
64.141655
21
221.578036
0
LINE
8
0
10
64.141655
20
221.578036
11
64.141655
21
223.004808
0
LINE
8
0
10
64.141655
20
223.004808
11
62.714884
21
223.004808
0
LINE
8
0
10
62.714884
20
223.004808
11
62.714884
21
221.578036
0
LINE
8
0
10
62.714884
20
221.578036
11
61.288112
21
221.578036
0
LINE
8
0
10
61.288112
20
221.578036
11
61.288112
21
220.151264
0
LINE
8
0
10
61.288112
20
220.151264
11
59.861340
21
220.151264
0
LINE
8
0
10
59.861340
20
220.151264
11
58.434568
21
220.151264
0
LINE
8
0
10
58.434568
20
220.151264
11
57.007797
21
220.151264
0
LINE
8
0
10
57.007797
20
220.151264
11
57.007797
21
221.578036
0
LINE
8
0
10
57.007797
20
221.578036
11
58.434568
21
221.578036
0
LINE
8
0
10
58.434568
20
221.578036
11
58.434568
21
223.004808
0
LINE
8
0
10
58.434568
20
223.004808
11
59.861340
21
223.004808
0
LINE
8
0
10
59.861340
20
223.004808
11
59.861340
21
224.431580
0
LINE
8
0
10
59.861340
20
240.126072
11
59.861340
21
241.552846
0
LINE
8
0
10
59.861340
20
241.552846
11
59.861340
21
242.979618
0
LINE
8
0
10
59.861340
20
242.979618
11
59.861340
21
244.406387
0
LINE
8
0
10
59.861340
20
244.406387
11
59.861340
21
245.833159
0
LINE
8
0
10
59.861340
20
245.833159
11
59.861340
21
247.259931
0
LINE
8
0
10
59.861340
20
247.259931
11
59.861340
21
248.686702
0
LINE
8
0
10
59.861340
20
248.686702
11
59.861340
21
250.113474
0
LINE
8
0
10
59.861340
20
250.113474
11
61.288112
21
250.113474
0
LINE
8
0
10
61.288112
20
250.113474
11
62.714884
21
250.113474
0
LINE
8
0
10
62.714884
20
250.113474
11
64.141655
21
250.113474
0
LINE
8
0
10
64.141655
20
250.113474
11
65.568427
21
250.113474
0
LINE
8
0
10
65.568427
20
250.113474
11
66.995199
21
250.113474
0
LINE
8
0
10
66.995199
20
250.113474
11
68.421973
21
250.113474
0
LINE
8
0
10
68.421973
20
250.113474
11
69.848745
21
250.113474
0
LINE
8
0
10
69.848745
20
250.113474
11
69.848745
21
248.686702
0
LINE
8
0
10
69.848745
20
248.686702
11
69.848745
21
247.259931
0
LINE
8
0
10
69.848745
20
247.259931
11
69.848745
21
245.833159
0
LINE
8
0
10
69.848745
20
245.833159
11
69.848745
21
244.406387
0
LINE
8
0
10
69.848745
20
244.406387
11
69.848745
21
242.979618
0
LINE
8
0
10
69.848745
20
242.979618
11
69.848745
21
241.552846
0
LINE
8
0
10
69.848745
20
241.552846
11
69.848745
21
240.126072
0
LINE
8
0
10
69.848745
20
240.126072
11
68.421973
21
240.126072
0
LINE
8
0
10
68.421973
20
240.126072
11
66.995199
21
240.126072
0
LINE
8
0
10
66.995199
20
240.126072
11
65.568427
21
240.126072
0
LINE
8
0
10
65.568427
20
240.126072
11
64.141655
21
240.126072
0
LINE
8
0
10
64.141655
20
240.126072
11
62.714884
21
240.126072
0
LINE
8
0
10
62.714884
20
240.126072
11
61.288112
21
240.126072
0
LINE
8
0
10
61.288112
20
240.126072
11
59.861340
21
240.126072
0
LINE
8
0
10
62.714884
20
241.552846
11
64.141655
21
241.552846
0
LINE
8
0
10
64.141655
20
241.552846
11
65.568427
21
241.552846
0
LINE
8
0
10
65.568427
20
241.552846
11
66.995199
21
241.552846
0
LINE
8
0
10
66.995199
20
241.552846
11
68.421973
21
241.552846
0
LINE
8
0
10
68.421973
20
241.552846
11
68.421973
21
242.979618
0
LINE
8
0
10
68.421973
20
242.979618
11
68.421973
21
244.406387
0
LINE
8
0
10
68.421973
20
244.406387
11
68.421973
21
245.833159
0
LINE
8
0
10
68.421973
20
245.833159
11
68.421973
21
247.259931
0
LINE
8
0
10
68.421973
20
247.259931
11
68.421973
21
248.686702
0
LINE
8
0
10
68.421973
20
248.686702
11
66.995199
21
248.686702
0
LINE
8
0
10
66.995199
20
248.686702
11
65.568427
21
248.686702
0
LINE
8
0
10
65.568427
20
248.686702
11
64.141655
21
248.686702
0
LINE
8
0
10
64.141655
20
248.686702
11
62.714884
21
248.686702
0
LINE
8
0
10
62.714884
20
248.686702
11
61.288112
21
248.686702
0
LINE
8
0
10
61.288112
20
248.686702
11
61.288112
21
247.259931
0
LINE
8
0
10
61.288112
20
247.259931
11
61.288112
21
245.833159
0
LINE
8
0
10
61.288112
20
245.833159
11
61.288112
21
244.406387
0
LINE
8
0
10
61.288112
20
244.406387
11
61.288112
21
242.979618
0
LINE
8
0
10
61.288112
20
242.979618
11
61.288112
21
241.552846
0
LINE
8
0
10
61.288112
20
241.552846
11
62.714884
21
241.552846
0
LINE
8
0
10
62.714884
20
244.406387
11
62.714884
21
245.833159
0
LINE
8
0
10
62.714884
20
245.833159
11
62.714884
21
247.259931
0
LINE
8
0
10
62.714884
20
247.259931
11
64.141655
21
247.259931
0
LINE
8
0
10
64.141655
20
247.259931
11
65.568427
21
247.259931
0
LINE
8
0
10
65.568427
20
247.259931
11
66.995199
21
247.259931
0
LINE
8
0
10
66.995199
20
247.259931
11
66.995199
21
245.833159
0
LINE
8
0
10
66.995199
20
245.833159
11
66.995199
21
244.406387
0
LINE
8
0
10
66.995199
20
244.406387
11
66.995199
21
242.979618
0
LINE
8
0
10
66.995199
20
242.979618
11
65.568427
21
242.979618
0
LINE
8
0
10
65.568427
20
242.979618
11
64.141655
21
242.979618
0
LINE
8
0
10
64.141655
20
242.979618
11
62.714884
21
242.979618
0
LINE
8
0
10
62.714884
20
242.979618
11
62.714884
21
244.406387
0
LINE
8
0
10
68.421973
20
220.151264
11
68.421973
21
221.578036
0
LINE
8
0
10
68.421973
20
221.578036
11
69.848745
21
221.578036
0
LINE
8
0
10
69.848745
20
221.578036
11
69.848745
21
220.151264
0
LINE
8
0
10
69.848745
20
220.151264
11
68.421973
21
220.151264
0
LINE
8
0
10
65.568427
20
231.565441
11
66.995199
21
231.565441
0
LINE
8
0
10
66.995199
20
231.565441
11
66.995199
21
230.138669
0
LINE
8
0
10
66.995199
20
230.138669
11
68.421973
21
230.138669
0
LINE
8
0
10
68.421973
20
230.138669
11
68.421973
21
228.711895
0
LINE
8
0
10
68.421973
20
228.711895
11
68.421973
21
227.285123
0
LINE
8
0
10
68.421973
20
227.285123
11
66.995199
21
227.285123
0
LINE
8
0
10
66.995199
20
227.285123
11
66.995199
21
228.711895
0
LINE
8
0
10
66.995199
20
228.711895
11
65.568427
21
228.711895
0
LINE
8
0
10
65.568427
20
228.711895
11
65.568427
21
230.138669
0
LINE
8
0
10
65.568427
20
230.138669
11
65.568427
21
231.565441
0
LINE
8
0
10
65.568427
20
231.565441
11
64.141655
21
231.565441
0
LINE
8
0
10
64.141655
20
231.565441
11
64.141655
21
232.992213
0
LINE
8
0
10
64.141655
20
232.992213
11
65.568427
21
232.992213
0
LINE
8
0
10
65.568427
20
232.992213
11
65.568427
21
231.565441
0
LINE
8
0
10
69.848745
20
231.565441
11
68.421973
21
231.565441
0
LINE
8
0
10
68.421973
20
231.565441
11
68.421973
21
232.992213
0
LINE
8
0
10
68.421973
20
232.992213
11
69.848745
21
232.992213
0
LINE
8
0
10
69.848745
20
232.992213
11
69.848745
21
231.565441
0
LINE
8
0
10
69.848745
20
237.272528
11
68.421973
21
237.272528
0
LINE
8
0
10
68.421973
20
237.272528
11
68.421973
21
238.699300
0
LINE
8
0
10
68.421973
20
238.699300
11
69.848745
21
238.699300
0
LINE
8
0
10
69.848745
20
238.699300
11
69.848745
21
237.272528
 0 
ENDSEC
 0 
EOF