999
"DXF R12 Output" (www.mydxf.blogspot.com)
 0 
SECTION
 2 
HEADER
 9 
$ACADVER
 1 
AC1009
 9 
$EXTMIN
 10 
 0 
 20 
 0 
 9 
$EXTMAX
 10 
 8.5 
 20 
 11 
 0 
ENDSEC
 0 
SECTION
 2 
ENTITIES
0
LINE
8
Layer 1
10
0.793749
20
297.793749
11
-0.793749
21
296.206251
0
LINE
8
Layer 1
10
0.000000
20
298.322915
11
0.000000
21
295.677085
0
LINE
8
Layer 1
10
2.116664
20
295.941668
11
1.058332
21
294.883336
0
LINE
8
Layer 1
10
1.587498
20
296.470834
11
0.529166
21
295.412502
0
LINE
8
Layer 1
10
1.058332
20
297.000000
11
0.000000
21
295.941668
0
LINE
8
0
10
39.906535
20
248.672134
11
49.890133
21
248.672134
0
LINE
8
0
10
49.890133
20
248.672134
11
49.890133
21
250.093472
0
LINE
8
0
10
49.890133
20
250.093472
11
39.906535
21
250.093472
0
LINE
8
0
10
39.906535
20
250.093472
11
39.906535
21
248.672134
0
LINE
8
0
10
52.749929
20
248.672134
11
58.452393
21
248.672134
0
LINE
8
0
10
58.452393
20
248.672134
11
58.452393
21
250.093472
0
LINE
8
0
10
58.452393
20
250.093472
11
52.749929
21
250.093472
0
LINE
8
0
10
52.749929
20
250.093472
11
52.749929
21
248.672134
0
LINE
8
0
10
59.885147
20
248.672134
11
69.868742
21
248.672134
0
LINE
8
0
10
69.868742
20
248.672134
11
69.868742
21
250.093472
0
LINE
8
0
10
69.868742
20
250.093472
11
59.885147
21
250.093472
0
LINE
8
0
10
59.885147
20
250.093472
11
59.885147
21
248.672134
0
LINE
8
0
10
39.906535
20
240.109874
11
41.327873
21
240.109874
0
LINE
8
0
10
41.327873
20
240.109874
11
41.327873
21
248.666427
0
LINE
8
0
10
41.327873
20
248.666427
11
39.906535
21
248.666427
0
LINE
8
0
10
39.906535
20
248.666427
11
39.906535
21
240.109874
0
LINE
8
0
10
48.468798
20
240.109874
11
49.890133
21
240.109874
0
LINE
8
0
10
49.890133
20
240.109874
11
49.890133
21
248.666427
0
LINE
8
0
10
49.890133
20
248.666427
11
48.468798
21
248.666427
0
LINE
8
0
10
48.468798
20
248.666427
11
48.468798
21
240.109874
0
LINE
8
0
10
51.322884
20
244.391004
11
52.744219
21
244.391004
0
LINE
8
0
10
52.744219
20
244.391004
11
52.744219
21
248.666427
0
LINE
8
0
10
52.744219
20
248.666427
11
51.322884
21
248.666427
0
LINE
8
0
10
51.322884
20
248.666427
11
51.322884
21
244.391004
0
LINE
8
0
10
55.604015
20
245.818048
11
58.452393
21
245.818048
0
LINE
8
0
10
58.452393
20
245.818048
11
58.452393
21
248.666427
0
LINE
8
0
10
58.452393
20
248.666427
11
55.604015
21
248.666427
0
LINE
8
0
10
55.604015
20
248.666427
11
55.604015
21
245.818048
0
LINE
8
0
10
59.885147
20
240.109874
11
61.306479
21
240.109874
0
LINE
8
0
10
61.306479
20
240.109874
11
61.306479
21
248.666427
0
LINE
8
0
10
61.306479
20
248.666427
11
59.885147
21
248.666427
0
LINE
8
0
10
59.885147
20
248.666427
11
59.885147
21
240.109874
0
LINE
8
0
10
68.447408
20
240.109874
11
69.868742
21
240.109874
0
LINE
8
0
10
69.868742
20
240.109874
11
69.868742
21
248.666427
0
LINE
8
0
10
69.868742
20
248.666427
11
68.447408
21
248.666427
0
LINE
8
0
10
68.447408
20
248.666427
11
68.447408
21
240.109874
0
LINE
8
0
10
42.760624
20
242.963963
11
47.036047
21
242.963963
0
LINE
8
0
10
47.036047
20
242.963963
11
47.036047
21
247.239383
0
LINE
8
0
10
47.036047
20
247.239383
11
42.760624
21
247.239383
0
LINE
8
0
10
42.760624
20
247.239383
11
42.760624
21
242.963963
0
LINE
8
0
10
52.749929
20
242.963963
11
54.171266
21
242.963963
0
LINE
8
0
10
54.171266
20
242.963963
11
54.171266
21
247.239383
0
LINE
8
0
10
54.171266
20
247.239383
11
52.749929
21
247.239383
0
LINE
8
0
10
52.749929
20
247.239383
11
52.749929
21
242.963963
0
LINE
8
0
10
62.739231
20
242.963963
11
67.014654
21
242.963963
0
LINE
8
0
10
67.014654
20
242.963963
11
67.014654
21
247.239383
0
LINE
8
0
10
67.014654
20
247.239383
11
62.739231
21
247.239383
0
LINE
8
0
10
62.739231
20
247.239383
11
62.739231
21
242.963963
0
LINE
8
0
10
55.604015
20
242.963963
11
57.025349
21
242.963963
0
LINE
8
0
10
57.025349
20
242.963963
11
57.025349
21
245.812341
0
LINE
8
0
10
57.025349
20
245.812341
11
55.604015
21
245.812341
0
LINE
8
0
10
55.604015
20
245.812341
11
55.604015
21
242.963963
0
LINE
8
0
10
57.031059
20
235.828744
11
58.452393
21
235.828744
0
LINE
8
0
10
58.452393
20
235.828744
11
58.452393
21
244.385297
0
LINE
8
0
10
58.452393
20
244.385297
11
57.031059
21
244.385297
0
LINE
8
0
10
57.031059
20
244.385297
11
57.031059
21
235.828744
0
LINE
8
0
10
41.333582
20
240.109874
11
48.463089
21
240.109874
0
LINE
8
0
10
48.463089
20
240.109874
11
48.463089
21
241.531211
0
LINE
8
0
10
48.463089
20
241.531211
11
41.333582
21
241.531211
0
LINE
8
0
10
41.333582
20
241.531211
11
41.333582
21
240.109874
0
LINE
8
0
10
51.322884
20
235.828744
11
52.744219
21
235.828744
0
LINE
8
0
10
52.744219
20
235.828744
11
52.744219
21
241.531211
0
LINE
8
0
10
52.744219
20
241.531211
11
51.322884
21
241.531211
0
LINE
8
0
10
51.322884
20
241.531211
11
51.322884
21
235.828744
0
LINE
8
0
10
54.176970
20
228.693528
11
55.598307
21
228.693528
0
LINE
8
0
10
55.598307
20
228.693528
11
55.598307
21
241.531211
0
LINE
8
0
10
55.598307
20
241.531211
11
54.176970
21
241.531211
0
LINE
8
0
10
54.176970
20
241.531211
11
54.176970
21
228.693528
0
LINE
8
0
10
61.312189
20
240.109874
11
68.441698
21
240.109874
0
LINE
8
0
10
68.441698
20
240.109874
11
68.441698
21
241.531211
0
LINE
8
0
10
68.441698
20
241.531211
11
61.312189
21
241.531211
0
LINE
8
0
10
61.312189
20
241.531211
11
61.312189
21
240.109874
0
LINE
8
0
10
52.749929
20
235.828744
11
54.171266
21
235.828744
0
LINE
8
0
10
54.171266
20
235.828744
11
54.171266
21
240.104167
0
LINE
8
0
10
54.171266
20
240.104167
11
52.749929
21
240.104167
0
LINE
8
0
10
52.749929
20
240.104167
11
52.749929
21
235.828744
0
LINE
8
0
10
55.604015
20
238.682832
11
57.025349
21
238.682832
0
LINE
8
0
10
57.025349
20
238.682832
11
57.025349
21
240.104167
0
LINE
8
0
10
57.025349
20
240.104167
11
55.604015
21
240.104167
0
LINE
8
0
10
55.604015
20
240.104167
11
55.604015
21
238.682832
0
LINE
8
0
10
39.906535
20
235.828744
11
41.327873
21
235.828744
0
LINE
8
0
10
41.327873
20
235.828744
11
41.327873
21
238.677123
0
LINE
8
0
10
41.327873
20
238.677123
11
39.906535
21
238.677123
0
LINE
8
0
10
39.906535
20
238.677123
11
39.906535
21
235.828744
0
LINE
8
0
10
48.468798
20
237.255788
11
49.890133
21
237.255788
0
LINE
8
0
10
49.890133
20
237.255788
11
49.890133
21
238.677123
0
LINE
8
0
10
49.890133
20
238.677123
11
48.468798
21
238.677123
0
LINE
8
0
10
48.468798
20
238.677123
11
48.468798
21
237.255788
0
LINE
8
0
10
58.458100
20
237.255788
11
61.306479
21
237.255788
0
LINE
8
0
10
61.306479
20
237.255788
11
61.306479
21
238.677123
0
LINE
8
0
10
61.306479
20
238.677123
11
58.458100
21
238.677123
0
LINE
8
0
10
58.458100
20
238.677123
11
58.458100
21
237.255788
0
LINE
8
0
10
64.166278
20
237.255788
11
68.441698
21
237.255788
0
LINE
8
0
10
68.441698
20
237.255788
11
68.441698
21
238.677123
0
LINE
8
0
10
68.441698
20
238.677123
11
64.166278
21
238.677123
0
LINE
8
0
10
64.166278
20
238.677123
11
64.166278
21
237.255788
0
LINE
8
0
10
41.333582
20
235.828744
11
42.754917
21
235.828744
0
LINE
8
0
10
42.754917
20
235.828744
11
42.754917
21
237.250081
0
LINE
8
0
10
42.754917
20
237.250081
11
41.333582
21
237.250081
0
LINE
8
0
10
41.333582
20
237.250081
11
41.333582
21
235.828744
0
LINE
8
0
10
44.187666
20
235.828744
11
47.036047
21
235.828744
0
LINE
8
0
10
47.036047
20
235.828744
11
47.036047
21
237.250081
0
LINE
8
0
10
47.036047
20
237.250081
11
44.187666
21
237.250081
0
LINE
8
0
10
44.187666
20
237.250081
11
44.187666
21
235.828744
0
LINE
8
0
10
49.895840
20
234.401699
11
51.317177
21
234.401699
0
LINE
8
0
10
51.317177
20
234.401699
11
51.317177
21
237.250081
0
LINE
8
0
10
51.317177
20
237.250081
11
49.895840
21
237.250081
0
LINE
8
0
10
49.895840
20
237.250081
11
49.895840
21
234.401699
0
LINE
8
0
10
59.885147
20
235.828744
11
61.306479
21
235.828744
0
LINE
8
0
10
61.306479
20
235.828744
11
61.306479
21
237.250081
0
LINE
8
0
10
61.306479
20
237.250081
11
59.885147
21
237.250081
0
LINE
8
0
10
59.885147
20
237.250081
11
59.885147
21
235.828744
0
LINE
8
0
10
62.739231
20
232.974658
11
67.014654
21
232.974658
0
LINE
8
0
10
67.014654
20
232.974658
11
67.014654
21
237.250081
0
LINE
8
0
10
67.014654
20
237.250081
11
62.739231
21
237.250081
0
LINE
8
0
10
62.739231
20
237.250081
11
62.739231
21
232.974658
0
LINE
8
0
10
42.760624
20
231.547614
11
44.181958
21
231.547614
0
LINE
8
0
10
44.181958
20
231.547614
11
44.181958
21
235.823037
0
LINE
8
0
10
44.181958
20
235.823037
11
42.760624
21
235.823037
0
LINE
8
0
10
42.760624
20
235.823037
11
42.760624
21
231.547614
0
LINE
8
0
10
48.468798
20
234.401699
11
49.890133
21
234.401699
0
LINE
8
0
10
49.890133
20
234.401699
11
49.890133
21
235.823037
0
LINE
8
0
10
49.890133
20
235.823037
11
48.468798
21
235.823037
0
LINE
8
0
10
48.468798
20
235.823037
11
48.468798
21
234.401699
0
LINE
8
0
10
55.604015
20
234.401699
11
57.025349
21
234.401699
0
LINE
8
0
10
57.025349
20
234.401699
11
57.025349
21
235.823037
0
LINE
8
0
10
57.025349
20
235.823037
11
55.604015
21
235.823037
0
LINE
8
0
10
55.604015
20
235.823037
11
55.604015
21
234.401699
0
LINE
8
0
10
58.458100
20
234.401699
11
59.879438
21
234.401699
0
LINE
8
0
10
59.879438
20
234.401699
11
59.879438
21
235.823037
0
LINE
8
0
10
59.879438
20
235.823037
11
58.458100
21
235.823037
0
LINE
8
0
10
58.458100
20
235.823037
11
58.458100
21
234.401699
0
LINE
8
0
10
67.020361
20
234.401699
11
68.441698
21
234.401699
0
LINE
8
0
10
68.441698
20
234.401699
11
68.441698
21
235.823037
0
LINE
8
0
10
68.441698
20
235.823037
11
67.020361
21
235.823037
0
LINE
8
0
10
67.020361
20
235.823037
11
67.020361
21
234.401699
0
LINE
8
0
10
39.906535
20
232.974658
11
42.754917
21
232.974658
0
LINE
8
0
10
42.754917
20
232.974658
11
42.754917
21
234.395992
0
LINE
8
0
10
42.754917
20
234.395992
11
39.906535
21
234.395992
0
LINE
8
0
10
39.906535
20
234.395992
11
39.906535
21
232.974658
0
LINE
8
0
10
45.614712
20
231.547614
11
47.036047
21
231.547614
0
LINE
8
0
10
47.036047
20
231.547614
11
47.036047
21
234.395992
0
LINE
8
0
10
47.036047
20
234.395992
11
45.614712
21
234.395992
0
LINE
8
0
10
45.614712
20
234.395992
11
45.614712
21
231.547614
0
LINE
8
0
10
51.322884
20
232.974658
11
54.171266
21
232.974658
0
LINE
8
0
10
54.171266
20
232.974658
11
54.171266
21
234.395992
0
LINE
8
0
10
54.171266
20
234.395992
11
51.322884
21
234.395992
0
LINE
8
0
10
51.322884
20
234.395992
11
51.322884
21
232.974658
0
LINE
8
0
10
39.906535
20
231.547614
11
41.327873
21
231.547614
0
LINE
8
0
10
41.327873
20
231.547614
11
41.327873
21
232.968948
0
LINE
8
0
10
41.327873
20
232.968948
11
39.906535
21
232.968948
0
LINE
8
0
10
39.906535
20
232.968948
11
39.906535
21
231.547614
0
LINE
8
0
10
44.187666
20
231.547614
11
45.609003
21
231.547614
0
LINE
8
0
10
45.609003
20
231.547614
11
45.609003
21
232.968948
0
LINE
8
0
10
45.609003
20
232.968948
11
44.187666
21
232.968948
0
LINE
8
0
10
44.187666
20
232.968948
11
44.187666
21
231.547614
0
LINE
8
0
10
48.468798
20
231.547614
11
51.317177
21
231.547614
0
LINE
8
0
10
51.317177
20
231.547614
11
51.317177
21
232.968948
0
LINE
8
0
10
51.317177
20
232.968948
11
48.468798
21
232.968948
0
LINE
8
0
10
48.468798
20
232.968948
11
48.468798
21
231.547614
0
LINE
8
0
10
52.749929
20
228.693528
11
54.171266
21
228.693528
0
LINE
8
0
10
54.171266
20
228.693528
11
54.171266
21
232.968948
0
LINE
8
0
10
54.171266
20
232.968948
11
52.749929
21
232.968948
0
LINE
8
0
10
52.749929
20
232.968948
11
52.749929
21
228.693528
0
LINE
8
0
10
59.885147
20
228.693528
11
61.306479
21
228.693528
0
LINE
8
0
10
61.306479
20
228.693528
11
61.306479
21
232.968948
0
LINE
8
0
10
61.306479
20
232.968948
11
59.885147
21
232.968948
0
LINE
8
0
10
59.885147
20
232.968948
11
59.885147
21
228.693528
0
LINE
8
0
10
68.447408
20
230.120569
11
69.868742
21
230.120569
0
LINE
8
0
10
69.868742
20
230.120569
11
69.868742
21
232.968948
0
LINE
8
0
10
69.868742
20
232.968948
11
68.447408
21
232.968948
0
LINE
8
0
10
68.447408
20
232.968948
11
68.447408
21
230.120569
0
LINE
8
0
10
51.322884
20
230.120569
11
52.744219
21
230.120569
0
LINE
8
0
10
52.744219
20
230.120569
11
52.744219
21
231.541907
0
LINE
8
0
10
52.744219
20
231.541907
11
51.322884
21
231.541907
0
LINE
8
0
10
51.322884
20
231.541907
11
51.322884
21
230.120569
0
LINE
8
0
10
55.604015
20
230.120569
11
59.879438
21
230.120569
0
LINE
8
0
10
59.879438
20
230.120569
11
59.879438
21
231.541907
0
LINE
8
0
10
59.879438
20
231.541907
11
55.604015
21
231.541907
0
LINE
8
0
10
55.604015
20
231.541907
11
55.604015
21
230.120569
0
LINE
8
0
10
65.593319
20
230.120569
11
68.441698
21
230.120569
0
LINE
8
0
10
68.441698
20
230.120569
11
68.441698
21
231.541907
0
LINE
8
0
10
68.441698
20
231.541907
11
65.593319
21
231.541907
0
LINE
8
0
10
65.593319
20
231.541907
11
65.593319
21
230.120569
0
LINE
8
0
10
39.906535
20
228.693528
11
49.890133
21
228.693528
0
LINE
8
0
10
49.890133
20
228.693528
11
49.890133
21
230.114862
0
LINE
8
0
10
49.890133
20
230.114862
11
39.906535
21
230.114862
0
LINE
8
0
10
39.906535
20
230.114862
11
39.906535
21
228.693528
0
LINE
8
0
10
57.031059
20
224.412397
11
58.452393
21
224.412397
0
LINE
8
0
10
58.452393
20
224.412397
11
58.452393
21
230.114862
0
LINE
8
0
10
58.452393
20
230.114862
11
57.031059
21
230.114862
0
LINE
8
0
10
57.031059
20
230.114862
11
57.031059
21
224.412397
0
LINE
8
0
10
61.312189
20
228.693528
11
62.733524
21
228.693528
0
LINE
8
0
10
62.733524
20
228.693528
11
62.733524
21
230.114862
0
LINE
8
0
10
62.733524
20
230.114862
11
61.312189
21
230.114862
0
LINE
8
0
10
61.312189
20
230.114862
11
61.312189
21
228.693528
0
LINE
8
0
10
64.166278
20
222.985353
11
65.587612
21
222.985353
0
LINE
8
0
10
65.587612
20
222.985353
11
65.587612
21
230.114862
0
LINE
8
0
10
65.587612
20
230.114862
11
64.166278
21
230.114862
0
LINE
8
0
10
64.166278
20
230.114862
11
64.166278
21
222.985353
0
LINE
8
0
10
67.020361
20
228.693528
11
68.441698
21
228.693528
0
LINE
8
0
10
68.441698
20
228.693528
11
68.441698
21
230.114862
0
LINE
8
0
10
68.441698
20
230.114862
11
67.020361
21
230.114862
0
LINE
8
0
10
67.020361
20
230.114862
11
67.020361
21
228.693528
0
LINE
8
0
10
39.906535
20
220.131267
11
41.327873
21
220.131267
0
LINE
8
0
10
41.327873
20
220.131267
11
41.327873
21
228.687818
0
LINE
8
0
10
41.327873
20
228.687818
11
39.906535
21
228.687818
0
LINE
8
0
10
39.906535
20
228.687818
11
39.906535
21
220.131267
0
LINE
8
0
10
48.468798
20
220.131267
11
49.890133
21
220.131267
0
LINE
8
0
10
49.890133
20
220.131267
11
49.890133
21
228.687818
0
LINE
8
0
10
49.890133
20
228.687818
11
48.468798
21
228.687818
0
LINE
8
0
10
48.468798
20
228.687818
11
48.468798
21
220.131267
0
LINE
8
0
10
55.604015
20
227.266483
11
57.025349
21
227.266483
0
LINE
8
0
10
57.025349
20
227.266483
11
57.025349
21
228.687818
0
LINE
8
0
10
57.025349
20
228.687818
11
55.604015
21
228.687818
0
LINE
8
0
10
55.604015
20
228.687818
11
55.604015
21
227.266483
0
LINE
8
0
10
58.458100
20
227.266483
11
59.879438
21
227.266483
0
LINE
8
0
10
59.879438
20
227.266483
11
59.879438
21
228.687818
0
LINE
8
0
10
59.879438
20
228.687818
11
58.458100
21
228.687818
0
LINE
8
0
10
58.458100
20
228.687818
11
58.458100
21
227.266483
0
LINE
8
0
10
62.739231
20
227.266483
11
64.160568
21
227.266483
0
LINE
8
0
10
64.160568
20
227.266483
11
64.160568
21
228.687818
0
LINE
8
0
10
64.160568
20
228.687818
11
62.739231
21
228.687818
0
LINE
8
0
10
62.739231
20
228.687818
11
62.739231
21
227.266483
0
LINE
8
0
10
65.593319
20
227.266483
11
67.014654
21
227.266483
0
LINE
8
0
10
67.014654
20
227.266483
11
67.014654
21
228.687818
0
LINE
8
0
10
67.014654
20
228.687818
11
65.593319
21
228.687818
0
LINE
8
0
10
65.593319
20
228.687818
11
65.593319
21
227.266483
0
LINE
8
0
10
42.760624
20
222.985353
11
47.036047
21
222.985353
0
LINE
8
0
10
47.036047
20
222.985353
11
47.036047
21
227.260776
0
LINE
8
0
10
47.036047
20
227.260776
11
42.760624
21
227.260776
0
LINE
8
0
10
42.760624
20
227.260776
11
42.760624
21
222.985353
0
LINE
8
0
10
52.749929
20
225.839439
11
55.598307
21
225.839439
0
LINE
8
0
10
55.598307
20
225.839439
11
55.598307
21
227.260776
0
LINE
8
0
10
55.598307
20
227.260776
11
52.749929
21
227.260776
0
LINE
8
0
10
52.749929
20
227.260776
11
52.749929
21
225.839439
0
LINE
8
0
10
67.020361
20
225.839439
11
68.441698
21
225.839439
0
LINE
8
0
10
68.441698
20
225.839439
11
68.441698
21
227.260776
0
LINE
8
0
10
68.441698
20
227.260776
11
67.020361
21
227.260776
0
LINE
8
0
10
67.020361
20
227.260776
11
67.020361
21
225.839439
0
LINE
8
0
10
52.749929
20
224.412397
11
54.171266
21
224.412397
0
LINE
8
0
10
54.171266
20
224.412397
11
54.171266
21
225.833732
0
LINE
8
0
10
54.171266
20
225.833732
11
52.749929
21
225.833732
0
LINE
8
0
10
52.749929
20
225.833732
11
52.749929
21
224.412397
0
LINE
8
0
10
61.312189
20
224.412397
11
64.160568
21
224.412397
0
LINE
8
0
10
64.160568
20
224.412397
11
64.160568
21
225.833732
0
LINE
8
0
10
64.160568
20
225.833732
11
61.312189
21
225.833732
0
LINE
8
0
10
61.312189
20
225.833732
11
61.312189
21
224.412397
0
LINE
8
0
10
65.593319
20
221.558309
11
67.014654
21
221.558309
0
LINE
8
0
10
67.014654
20
221.558309
11
67.014654
21
225.833732
0
LINE
8
0
10
67.014654
20
225.833732
11
65.593319
21
225.833732
0
LINE
8
0
10
65.593319
20
225.833732
11
65.593319
21
221.558309
0
LINE
8
0
10
59.885147
20
222.985353
11
61.306479
21
222.985353
0
LINE
8
0
10
61.306479
20
222.985353
11
61.306479
21
224.406688
0
LINE
8
0
10
61.306479
20
224.406688
11
59.885147
21
224.406688
0
LINE
8
0
10
59.885147
20
224.406688
11
59.885147
21
222.985353
0
LINE
8
0
10
62.739231
20
222.985353
11
64.160568
21
222.985353
0
LINE
8
0
10
64.160568
20
222.985353
11
64.160568
21
224.406688
0
LINE
8
0
10
64.160568
20
224.406688
11
62.739231
21
224.406688
0
LINE
8
0
10
62.739231
20
224.406688
11
62.739231
21
222.985353
0
LINE
8
0
10
67.020361
20
222.985353
11
69.868742
21
222.985353
0
LINE
8
0
10
69.868742
20
222.985353
11
69.868742
21
224.406688
0
LINE
8
0
10
69.868742
20
224.406688
11
67.020361
21
224.406688
0
LINE
8
0
10
67.020361
20
224.406688
11
67.020361
21
222.985353
0
LINE
8
0
10
52.749929
20
221.558309
11
55.598307
21
221.558309
0
LINE
8
0
10
55.598307
20
221.558309
11
55.598307
21
222.979643
0
LINE
8
0
10
55.598307
20
222.979643
11
52.749929
21
222.979643
0
LINE
8
0
10
52.749929
20
222.979643
11
52.749929
21
221.558309
0
LINE
8
0
10
61.312189
20
220.131267
11
62.733524
21
220.131267
0
LINE
8
0
10
62.733524
20
220.131267
11
62.733524
21
222.979643
0
LINE
8
0
10
62.733524
20
222.979643
11
61.312189
21
222.979643
0
LINE
8
0
10
61.312189
20
222.979643
11
61.312189
21
220.131267
0
LINE
8
0
10
41.333582
20
220.131267
11
48.463089
21
220.131267
0
LINE
8
0
10
48.463089
20
220.131267
11
48.463089
21
221.552602
0
LINE
8
0
10
48.463089
20
221.552602
11
41.333582
21
221.552602
0
LINE
8
0
10
41.333582
20
221.552602
11
41.333582
21
220.131267
0
LINE
8
0
10
51.322884
20
220.131267
11
54.171266
21
220.131267
0
LINE
8
0
10
54.171266
20
220.131267
11
54.171266
21
221.552602
0
LINE
8
0
10
54.171266
20
221.552602
11
51.322884
21
221.552602
0
LINE
8
0
10
51.322884
20
221.552602
11
51.322884
21
220.131267
0
LINE
8
0
10
55.604015
20
220.131267
11
57.025349
21
220.131267
0
LINE
8
0
10
57.025349
20
220.131267
11
57.025349
21
221.552602
0
LINE
8
0
10
57.025349
20
221.552602
11
55.604015
21
221.552602
0
LINE
8
0
10
55.604015
20
221.552602
11
55.604015
21
220.131267
0
LINE
8
0
10
58.458100
20
220.131267
11
59.879438
21
220.131267
0
LINE
8
0
10
59.879438
20
220.131267
11
59.879438
21
221.552602
0
LINE
8
0
10
59.879438
20
221.552602
11
58.458100
21
221.552602
0
LINE
8
0
10
58.458100
20
221.552602
11
58.458100
21
220.131267
0
LINE
8
0
10
64.166278
20
220.131267
11
65.587612
21
220.131267
0
LINE
8
0
10
65.587612
20
220.131267
11
65.587612
21
221.552602
0
LINE
8
0
10
65.587612
20
221.552602
11
64.166278
21
221.552602
0
LINE
8
0
10
64.166278
20
221.552602
11
64.166278
21
220.131267
0
LINE
8
0
10
67.020361
20
220.131267
11
68.441698
21
220.131267
0
LINE
8
0
10
68.441698
20
220.131267
11
68.441698
21
221.552602
0
LINE
8
0
10
68.441698
20
221.552602
11
67.020361
21
221.552602
0
LINE
8
0
10
67.020361
20
221.552602
11
67.020361
21
220.131267
 0 
ENDSEC
 0 
EOF