%TF.GenerationSoftware,KiCad,Pcbnew,8.0.7*%
%TF.CreationDate,2025-12-27T18:08:44+05:30*%
%TF.ProjectId,1CH_Relay,3143485f-5265-46c6-9179-2e6b69636164,rev?*%
%TF.SameCoordinates,Original*%
%TF.FileFunction,Copper,L2,Bot*%
%TF.FilePolarity,Positive*%
%FSLAX46Y46*%
G04 Gerber Fmt 4.6, Leading zero omitted, Abs format (unit mm)*
G04 Created by KiCad (PCBNEW 8.0.7) date 2025-12-27 18:08:44*
%MOMM*%
%LPD*%
G01*
G04 APERTURE LIST*
%TA.AperFunction,ComponentPad*%
%ADD10C,3.000000*%
%TD*%
%TA.AperFunction,ComponentPad*%
%ADD11C,2.500000*%
%TD*%
%TA.AperFunction,ComponentPad*%
%ADD12C,1.600000*%
%TD*%
%TA.AperFunction,ComponentPad*%
%ADD13O,1.600000X1.600000*%
%TD*%
%TA.AperFunction,ComponentPad*%
%ADD14R,2.600000X2.600000*%
%TD*%
%TA.AperFunction,ComponentPad*%
%ADD15C,2.600000*%
%TD*%
%TA.AperFunction,ComponentPad*%
%ADD16R,2.200000X2.200000*%
%TD*%
%TA.AperFunction,ComponentPad*%
%ADD17O,2.200000X2.200000*%
%TD*%
%TA.AperFunction,ComponentPad*%
%ADD18R,1.800000X1.800000*%
%TD*%
%TA.AperFunction,ComponentPad*%
%ADD19C,1.800000*%
%TD*%
%TA.AperFunction,Conductor*%
%ADD20C,0.500000*%
%TD*%
%TA.AperFunction,Conductor*%
%ADD21C,2.000000*%
%TD*%
G04 APERTURE END LIST*
D10*
%TO.P,K1,1*%
%TO.N,Net-(J2-Pad2)*%
X141840000Y-61570000D03*
D11*
%TO.P,K1,2*%
%TO.N,Net-(D1-A)*%
X135790000Y-63520000D03*
D10*
%TO.P,K1,3*%
%TO.N,Net-(J2-Pad1)*%
X135790000Y-75720000D03*
%TO.P,K1,4*%
%TO.N,Net-(J2-Pad3)*%
X147840000Y-75770000D03*
D11*
%TO.P,K1,5*%
%TO.N,Net-(D1-K)*%
X147790000Y-63520000D03*
%TD*%
D12*
%TO.P,R1,1*%
%TO.N,Net-(D2-Pad2)*%
X135250000Y-51840000D03*
D13*
%TO.P,R1,2*%
%TO.N,Net-(D1-K)*%
X135250000Y-49300000D03*
%TD*%
D14*
%TO.P,J2,1*%
%TO.N,Net-(J2-Pad1)*%
X136910000Y-86950000D03*
D15*
%TO.P,J2,2*%
%TO.N,Net-(J2-Pad2)*%
X141910000Y-86950000D03*
%TO.P,J2,3*%
%TO.N,Net-(J2-Pad3)*%
X146910000Y-86950000D03*
%TD*%
D16*
%TO.P,D1,1,K*%
%TO.N,Net-(D1-K)*%
X148390000Y-57770000D03*
D17*
%TO.P,D1,2,A*%
%TO.N,Net-(D1-A)*%
X140770000Y-57770000D03*
%TD*%
D14*
%TO.P,J1,1*%
%TO.N,Net-(D1-A)*%
X139920000Y-48880000D03*
D15*
%TO.P,J1,2*%
%TO.N,Net-(D1-K)*%
X144920000Y-48880000D03*
%TD*%
D18*
%TO.P,D2,1*%
%TO.N,Net-(D1-A)*%
X135240000Y-57170000D03*
D19*
%TO.P,D2,2*%
%TO.N,Net-(D2-Pad2)*%
X137780000Y-57170000D03*
%TD*%
D20*
%TO.N,Net-(D1-A)*%
X139920000Y-48880000D02*
X139920000Y-53830000D01*
X140770000Y-54680000D02*
X140770000Y-57770000D01*
X140770000Y-58180000D02*
X139450000Y-59500000D01*
X135240000Y-57170000D02*
X135240000Y-59500000D01*
X135240000Y-59500000D02*
X135240000Y-62970000D01*
X140770000Y-57770000D02*
X140770000Y-58180000D01*
X139920000Y-53830000D02*
X140770000Y-54680000D01*
X135240000Y-62970000D02*
X135790000Y-63520000D01*
X139450000Y-59500000D02*
X135240000Y-59500000D01*
%TO.N,Net-(D1-K)*%
X144480000Y-45830000D02*
X135900000Y-45830000D01*
X148390000Y-56580000D02*
X148390000Y-57770000D01*
X148390000Y-59420000D02*
X147790000Y-60020000D01*
X148390000Y-62920000D02*
X147790000Y-63520000D01*
X144920000Y-48880000D02*
X144920000Y-53110000D01*
X135250000Y-46480000D02*
X135250000Y-49300000D01*
X148390000Y-57770000D02*
X148390000Y-59420000D01*
X144920000Y-46270000D02*
X144480000Y-45830000D01*
X144920000Y-53110000D02*
X148390000Y-56580000D01*
X147790000Y-60020000D02*
X147790000Y-63520000D01*
X135900000Y-45830000D02*
X135250000Y-46480000D01*
X144920000Y-48880000D02*
X144920000Y-46270000D01*
%TO.N,Net-(D2-Pad2)*%
X137780000Y-54950000D02*
X137780000Y-57170000D01*
X135250000Y-51840000D02*
X135250000Y-52420000D01*
X135250000Y-52420000D02*
X137780000Y-54950000D01*
D21*
%TO.N,Net-(J2-Pad1)*%
X135790000Y-75720000D02*
X135790000Y-80520000D01*
X135790000Y-80520000D02*
X136910000Y-81640000D01*
X136910000Y-81640000D02*
X136910000Y-86950000D01*
%TO.N,Net-(J2-Pad3)*%
X147840000Y-80000000D02*
X146910000Y-80930000D01*
X147840000Y-75770000D02*
X147840000Y-80000000D01*
X146910000Y-80930000D02*
X146910000Y-86950000D01*
%TO.N,Net-(J2-Pad2)*%
X141840000Y-61570000D02*
X141840000Y-86880000D01*
X141840000Y-86880000D02*
X141910000Y-86950000D01*
%TD*%
M02*
