  0
SECTION
  2
HEADER
  9
$ACADVER
  1
AC1014
  9
$HANDSEED
  5
FFFF
  9
$INSUNITS
 70
     0
  9
$MEASUREMENT
 70
     1
  0
ENDSEC
  0
SECTION
  2
TABLES
  0
TABLE
  2
VPORT
  5
8
330
0
100
AcDbSymbolTable
 70
     4
  0
VPORT
  5
2E
330
8
100
AcDbSymbolTableRecord
100
AcDbViewportTableRecord
  2
*ACTIVE
 70
     0
 10
0.0
 20
0.0
 11
1.0
 21
1.0
 12
210.0
 22
148.5
 13
0.0
 23
0.0
 14
10.0
 24
10.0
 15
10.0
 25
10.0
 16
0.0
 26
0.0
 36
1.0
 17
0.0
 27
0.0
 37
0.0
 40
341.0
 41
1.24
 42
50.0
 43
0.0
 44
0.0
 50
0.0
 51
0.0
 71
     0
 72
   100
 73
     1
 74
     3
 75
     0
 76
     0
 77
     0
 78
     0
  0
ENDTAB
  0
TABLE
  2
LTYPE
  5
5
330
0
100
AcDbSymbolTable
 70
     1
  0
LTYPE
  5
14
330
5
100
AcDbSymbolTableRecord
100
AcDbLinetypeTableRecord
  2
BYBLOCK
 70
     0
  3

 72
    65
 73
     0
 40
0.0
  0
LTYPE
  5
15
330
5
100
AcDbSymbolTableRecord
100
AcDbLinetypeTableRecord
  2
BYLAYER
 70
     0
  3

 72
    65
 73
     0
 40
0.0
  0
LTYPE
  5
16
330
5
100
AcDbSymbolTableRecord
100
AcDbLinetypeTableRecord
  2
CONTINUOUS
 70
     0
  3
Solid line
 72
    65
 73
     0
 40
0.0
  0
ENDTAB
  0
TABLE
  2
LAYER
  5
2
100
AcDbSymbolTable
 70
2
  0
LAYER
  5
50
100
AcDbSymbolTableRecord
100
AcDbLayerTableRecord
  2
0
 70
0
  6
CONTINUOUS
  0
LAYER
  5
51
100
AcDbSymbolTableRecord
100
AcDbLayerTableRecord
  2
Defpoints
 70
0
  6
CONTINUOUS
  0
ENDTAB
  0
TABLE
  2
STYLE
  5
3
330
0
100
AcDbSymbolTable
 70
     1
  0
STYLE
  5
11
330
3
100
AcDbSymbolTableRecord
100
AcDbTextStyleTableRecord
  2
STANDARD
 70
     0
 40
0.0
 41
1.0
 50
0.0
 71
     0
 42
2.5
  3
txt
  4

  0
ENDTAB
  0
TABLE
  2
VIEW
  5
6
330
0
100
AcDbSymbolTable
 70
     0
  0
ENDTAB
  0
TABLE
  2
UCS
  5
7
330
0
100
AcDbSymbolTable
 70
     0
  0
ENDTAB
  0
TABLE
  2
APPID
  5
9
330
0
100
AcDbSymbolTable
 70
     2
  0
APPID
  5
12
330
9
100
AcDbSymbolTableRecord
100
AcDbRegAppTableRecord
  2
ACAD
 70
     0
  0
ENDTAB
  0
TABLE
  2
DIMSTYLE
  5
A
330
0
100
AcDbSymbolTable
 70
     1
  0
DIMSTYLE
105
27
330
A
100
AcDbSymbolTableRecord
100
AcDbDimStyleTableRecord
  2
ISO-25
 70
     0
  3

  4

  5

  6

  7

 40
1.0
 41
2.5
 42
0.625
 43
3.75
 44
1.25
 45
0.0
 46
0.0
 47
0.0
 48
0.0
140
2.5
141
2.5
142
0.0
143
0.03937007874016
144
1.0
145
0.0
146
1.0
147
0.625
 71
     0
 72
     0
 73
     0
 74
     0
 75
     0
 76
     0
 77
     1
 78
     8
170
     0
171
     3
172
     1
173
     0
174
     0
175
     0
176
     0
177
     0
178
     0
270
     2
271
     2
272
     2
273
     2
274
     3
340
11
275
     0
280
     0
281
     0
282
     0
283
     0
284
     8
285
     0
286
     0
287
     3
288
     0
  0
ENDTAB
  0
TABLE
  2
BLOCK_RECORD
  5
1
330
0
100
AcDbSymbolTable
 70
     1
  0
BLOCK_RECORD
  5
1F
330
1
100
AcDbSymbolTableRecord
100
AcDbBlockTableRecord
  2
*MODEL_SPACE
  0
BLOCK_RECORD
  5
1B
330
1
100
AcDbSymbolTableRecord
100
AcDbBlockTableRecord
  2
*PAPER_SPACE
  0
ENDTAB
  0
ENDSEC
  0
SECTION
  2
BLOCKS
  0
BLOCK
  5
20
330
1F
100
AcDbEntity
  8
0
100
AcDbBlockBegin
  2
*MODEL_SPACE
 70
     0
 10
0.0
 20
0.0
 30
0.0
  3
*MODEL_SPACE
  1

  0
ENDBLK
  5
21
330
1F
100
AcDbEntity
  8
0
100
AcDbBlockEnd
  0
BLOCK
  5
1C
330
1B
100
AcDbEntity
 67
     1
  8
0
100
AcDbBlockBegin
  2
*PAPER_SPACE
  1

  0
ENDBLK
  5
1D
330
1B
100
AcDbEntity
 67
     1
  8
0
100
AcDbBlockEnd
  0
ENDSEC
  0
SECTION
  2
ENTITIES
  0
SPLINE
  5
100
100
AcDbEntity
  8
0
 62
7
100
AcDbSpline
 70
8
 71
3
 72
8
 73
4
 74
0
 40
0
 40
0
 40
0
 40
0
 40
1
 40
1
 40
1
 40
1
 10
285.139005
 20
380.251557
 30
0.0
 10
229.830334
 20
385.588557
 30
0.0
 10
182.998553
 20
339.126406
 30
0.0
 10
182.998553
 20
283.560825
 30
0.0
  0
SPLINE
  5
101
100
AcDbEntity
  8
0
 62
7
100
AcDbSpline
 70
8
 71
3
 72
8
 73
4
 74
0
 40
0
 40
0
 40
0
 40
0
 40
1
 40
1
 40
1
 40
1
 10
182.998553
 20
283.560825
 30
0.0
 10
182.998543
 20
229.420424
 30
0.0
 10
225.861854
 20
184.998003
 30
0.0
 10
279.967685
 20
183.064413
 30
0.0
  0
SPLINE
  5
102
100
AcDbEntity
  8
0
 62
7
100
AcDbSpline
 70
8
 71
3
 72
8
 73
4
 74
0
 40
0
 40
0
 40
0
 40
0
 40
1
 40
1
 40
1
 40
1
 10
279.967685
 20
183.064413
 30
0.0
 10
334.073516
 20
181.130833
 30
0.0
 10
381.929607
 20
222.276654
 30
0.0
 10
383.863187
 20
276.382515
 30
0.0
  0
LINE
  5
103
100
AcDbEntity
  8
0
 62
7
100
AcDbLine
 10
383.863187
 20
276.382515
 30
0.0
 11
384.119717
 21
283.560825
 31
0.0
  0
SPLINE
  5
104
100
AcDbEntity
  8
0
 62
7
100
AcDbSpline
 70
8
 71
3
 72
8
 73
4
 74
0
 40
0
 40
0
 40
0
 40
0
 40
1
 40
1
 40
1
 40
1
 10
384.119717
 20
283.560825
 30
0.0
 10
386.176687
 20
341.119166
 30
0.0
 10
337.429716
 20
387.845827
 30
0.0
 10
279.834675
 20
387.845827
 30
0.0
  0
SPLINE
  5
105
100
AcDbEntity
  8
0
 62
7
100
AcDbSpline
 70
8
 71
3
 72
8
 73
4
 74
0
 40
0
 40
0
 40
0
 40
0
 40
1
 40
1
 40
1
 40
1
 10
279.834675
 20
387.845827
 30
0.0
 10
222.239634
 20
387.845827
 30
0.0
 10
175.549623
 20
341.155906
 30
0.0
 10
175.549623
 20
283.560825
 30
0.0
  0
SPLINE
  5
106
100
AcDbEntity
  8
0
 62
7
100
AcDbSpline
 70
8
 71
3
 72
8
 73
4
 74
0
 40
0
 40
0
 40
0
 40
0
 40
1
 40
1
 40
1
 40
1
 10
175.549623
 20
283.560825
 30
0.0
 10
175.549623
 20
225.310254
 30
0.0
 10
221.740644
 20
177.553053
 30
0.0
 10
279.958825
 20
175.611363
 30
0.0
  0
SPLINE
  5
107
100
AcDbEntity
  8
0
 62
7
100
AcDbSpline
 70
8
 71
3
 72
8
 73
4
 74
0
 40
0
 40
0
 40
0
 40
0
 40
1
 40
1
 40
1
 40
1
 10
279.958825
 20
175.611363
 30
0.0
 10
338.176996
 20
173.669683
 30
0.0
 10
389.386937
 20
218.145984
 30
0.0
 10
391.328627
 20
276.364195
 30
0.0
  0
LINE
  5
108
100
AcDbEntity
  8
0
 62
7
100
AcDbLine
 10
391.328627
 20
276.364195
 30
0.0
 11
391.568657
 21
283.560825
 31
0.0
  0
SPLINE
  5
109
100
AcDbEntity
  8
0
 62
7
100
AcDbSpline
 70
8
 71
3
 72
8
 73
4
 74
0
 40
0
 40
0
 40
0
 40
0
 40
1
 40
1
 40
1
 40
1
 10
391.568657
 20
283.560825
 30
0.0
 10
393.625627
 20
345.235546
 30
0.0
 10
341.543646
 20
395.294757
 30
0.0
 10
279.834675
 20
395.294757
 30
0.0
  0
SPLINE
  5
10a
100
AcDbEntity
  8
0
 62
7
100
AcDbSpline
 70
8
 71
3
 72
8
 73
4
 74
0
 40
0
 40
0
 40
0
 40
0
 40
1
 40
1
 40
1
 40
1
 10
279.834675
 20
395.294757
 30
0.0
 10
218.125694
 20
395.294757
 30
0.0
 10
168.100693
 20
345.269846
 30
0.0
 10
168.100693
 20
283.560825
 30
0.0
  0
SPLINE
  5
10b
100
AcDbEntity
  8
0
 62
7
100
AcDbSpline
 70
8
 71
3
 72
8
 73
4
 74
0
 40
0
 40
0
 40
0
 40
0
 40
1
 40
1
 40
1
 40
1
 10
168.100693
 20
283.560825
 30
0.0
 10
168.100683
 20
221.199604
 30
0.0
 10
217.620324
 20
170.107583
 30
0.0
 10
279.951065
 20
168.158793
 30
0.0
  0
SPLINE
  5
10c
100
AcDbEntity
  8
0
 62
7
100
AcDbSpline
 70
8
 71
3
 72
8
 73
4
 74
0
 40
0
 40
0
 40
0
 40
0
 40
1
 40
1
 40
1
 40
1
 10
279.951065
 20
168.158793
 30
0.0
 10
342.281796
 20
166.210013
 30
0.0
 10
396.843287
 20
214.017434
 30
0.0
 10
398.792077
 20
276.348195
 30
0.0
  0
LINE
  5
10d
100
AcDbEntity
  8
0
 62
7
100
AcDbLine
 10
398.792077
 20
276.348195
 30
0.0
 11
399.017587
 21
283.560825
 31
0.0
  0
SPLINE
  5
10e
100
AcDbEntity
  8
0
 62
7
100
AcDbSpline
 70
8
 71
3
 72
8
 73
4
 74
0
 40
0
 40
0
 40
0
 40
0
 40
1
 40
1
 40
1
 40
1
 10
399.017587
 20
283.560825
 30
0.0
 10
401.074557
 20
349.351626
 30
0.0
 10
345.657576
 20
402.743687
 30
0.0
 10
279.834675
 20
402.743687
 30
0.0
  0
SPLINE
  5
10f
100
AcDbEntity
  8
0
 62
7
100
AcDbSpline
 70
8
 71
3
 72
8
 73
4
 74
0
 40
0
 40
0
 40
0
 40
0
 40
1
 40
1
 40
1
 40
1
 10
279.834675
 20
402.743687
 30
0.0
 10
214.011764
 20
402.743687
 30
0.0
 10
160.651753
 20
349.383776
 30
0.0
 10
160.651753
 20
283.560825
 30
0.0
  0
SPLINE
  5
110
100
AcDbEntity
  8
0
 62
7
100
AcDbSpline
 70
8
 71
3
 72
8
 73
4
 74
0
 40
0
 40
0
 40
0
 40
0
 40
1
 40
1
 40
1
 40
1
 10
160.651753
 20
283.560825
 30
0.0
 10
160.651753
 20
217.088574
 30
0.0
 10
213.500754
 20
162.661713
 30
0.0
 10
279.944215
 20
160.706653
 30
0.0
  0
SPLINE
  5
111
100
AcDbEntity
  8
0
 62
7
100
AcDbSpline
 70
8
 71
3
 72
8
 73
4
 74
0
 40
0
 40
0
 40
0
 40
0
 40
1
 40
1
 40
1
 40
1
 10
279.944215
 20
160.706653
 30
0.0
 10
346.387676
 20
158.751583
 30
0.0
 10
404.298807
 20
209.890614
 30
0.0
 10
406.253877
 20
276.334105
 30
0.0
  0
LINE
  5
112
100
AcDbEntity
  8
0
 62
7
100
AcDbLine
 10
406.253877
 20
276.334105
 30
0.0
 11
406.466517
 21
283.560825
 31
0.0
  0
SPLINE
  5
113
100
AcDbEntity
  8
0
 62
7
100
AcDbSpline
 70
8
 71
3
 72
8
 73
4
 74
0
 40
0
 40
0
 40
0
 40
0
 40
1
 40
1
 40
1
 40
1
 10
406.466517
 20
283.560825
 30
0.0
 10
408.523487
 20
353.467456
 30
0.0
 10
349.771506
 20
410.192617
 30
0.0
 10
279.834675
 20
410.192617
 30
0.0
  0
SPLINE
  5
114
100
AcDbEntity
  8
0
 62
7
100
AcDbSpline
 70
8
 71
3
 72
8
 73
4
 74
0
 40
0
 40
0
 40
0
 40
0
 40
1
 40
1
 40
1
 40
1
 10
279.834675
 20
410.192617
 30
0.0
 10
209.897834
 20
410.192617
 30
0.0
 10
153.202823
 20
353.497706
 30
0.0
 10
153.202823
 20
283.560825
 30
0.0
  0
SPLINE
  5
115
100
AcDbEntity
  8
0
 62
7
100
AcDbSpline
 70
8
 71
3
 72
8
 73
4
 74
0
 40
0
 40
0
 40
0
 40
0
 40
1
 40
1
 40
1
 40
1
 10
153.202823
 20
283.560825
 30
0.0
 10
153.202813
 20
212.977214
 30
0.0
 10
209.381794
 20
155.215493
 30
0.0
 10
279.938125
 20
153.254843
 30
0.0
  0
SPLINE
  5
116
100
AcDbEntity
  8
0
 62
7
100
AcDbSpline
 70
8
 71
3
 72
8
 73
4
 74
0
 40
0
 40
0
 40
0
 40
0
 40
1
 40
1
 40
1
 40
1
 10
279.938125
 20
153.254843
 30
0.0
 10
350.494466
 20
151.294183
 30
0.0
 10
411.753627
 20
205.765224
 30
0.0
 10
413.714287
 20
276.321605
 30
0.0
  0
LINE
  5
117
100
AcDbEntity
  8
0
 62
7
100
AcDbLine
 10
413.714287
 20
276.321605
 30
0.0
 11
413.915447
 21
283.560825
 31
0.0
  0
SPLINE
  5
118
100
AcDbEntity
  8
0
 62
7
100
AcDbSpline
 70
8
 71
3
 72
8
 73
4
 74
0
 40
0
 40
0
 40
0
 40
0
 40
1
 40
1
 40
1
 40
1
 10
413.915447
 20
283.560825
 30
0.0
 10
415.972417
 20
357.583066
 30
0.0
 10
353.885436
 20
417.641547
 30
0.0
 10
279.834675
 20
417.641547
 30
0.0
  0
SPLINE
  5
119
100
AcDbEntity
  8
0
 62
7
100
AcDbSpline
 70
8
 71
3
 72
8
 73
4
 74
0
 40
0
 40
0
 40
0
 40
0
 40
1
 40
1
 40
1
 40
1
 10
279.834675
 20
417.641547
 30
0.0
 10
205.783904
 20
417.641547
 30
0.0
 10
145.753893
 20
357.611646
 30
0.0
 10
145.753893
 20
283.560825
 30
0.0
  0
SPLINE
  5
11a
100
AcDbEntity
  8
0
 62
7
100
AcDbSpline
 70
8
 71
3
 72
8
 73
4
 74
0
 40
0
 40
0
 40
0
 40
0
 40
1
 40
1
 40
1
 40
1
 10
145.753893
 20
283.560825
 30
0.0
 10
145.753883
 20
208.865594
 30
0.0
 10
205.263364
 20
147.769003
 30
0.0
 10
279.932685
 20
145.803333
 30
0.0
  0
SPLINE
  5
11b
100
AcDbEntity
  8
0
 62
7
100
AcDbSpline
 70
8
 71
3
 72
8
 73
4
 74
0
 40
0
 40
0
 40
0
 40
0
 40
1
 40
1
 40
1
 40
1
 10
279.932685
 20
145.803333
 30
0.0
 10
354.602006
 20
143.837673
 30
0.0
 10
419.207847
 20
201.641064
 30
0.0
 10
421.173517
 20
276.310435
 30
0.0
  0
LINE
  5
11c
100
AcDbEntity
  8
0
 62
7
100
AcDbLine
 10
421.173517
 20
276.310435
 30
0.0
 11
421.364377
 21
283.560825
 31
0.0
  0
SPLINE
  5
11d
100
AcDbEntity
  8
0
 62
7
100
AcDbSpline
 70
8
 71
3
 72
8
 73
4
 74
0
 40
0
 40
0
 40
0
 40
0
 40
1
 40
1
 40
1
 40
1
 10
421.364377
 20
283.560825
 30
0.0
 10
423.421347
 20
361.698506
 30
0.0
 10
357.999366
 20
425.090477
 30
0.0
 10
279.834675
 20
425.090477
 30
0.0
  0
SPLINE
  5
11e
100
AcDbEntity
  8
0
 62
7
100
AcDbSpline
 70
8
 71
3
 72
8
 73
4
 74
0
 40
0
 40
0
 40
0
 40
0
 40
1
 40
1
 40
1
 40
1
 10
279.834675
 20
425.090477
 30
0.0
 10
201.669974
 20
425.090477
 30
0.0
 10
138.304962
 20
361.725576
 30
0.0
 10
138.304962
 20
283.560825
 30
0.0
  0
SPLINE
  5
11f
100
AcDbEntity
  8
0
 62
7
100
AcDbSpline
 70
8
 71
3
 72
8
 73
4
 74
0
 40
0
 40
0
 40
0
 40
0
 40
1
 40
1
 40
1
 40
1
 10
138.304962
 20
283.560825
 30
0.0
 10
138.304952
 20
204.753744
 30
0.0
 10
201.145384
 20
140.322262
 30
0.0
 10
279.927785
 20
138.352082
 30
0.0
  0
SPLINE
  5
120
100
AcDbEntity
  8
0
 62
7
100
AcDbSpline
 70
8
 71
3
 72
8
 73
4
 74
0
 40
0
 40
0
 40
0
 40
0
 40
1
 40
1
 40
1
 40
1
 10
279.927785
 20
138.352082
 30
0.0
 10
358.710186
 20
136.381912
 30
0.0
 10
426.661568
 20
197.517933
 30
0.0
 10
428.631748
 20
276.300385
 30
0.0
  0
LINE
  5
121
100
AcDbEntity
  8
0
 62
7
100
AcDbLine
 10
428.631748
 20
276.300385
 30
0.0
 11
428.813318
 21
283.560825
 31
0.0
  0
SPLINE
  5
122
100
AcDbEntity
  8
0
 62
7
100
AcDbSpline
 70
8
 71
3
 72
8
 73
4
 74
0
 40
0
 40
0
 40
0
 40
0
 40
1
 40
1
 40
1
 40
1
 10
428.813318
 20
283.560825
 30
0.0
 10
430.870288
 20
365.813796
 30
0.0
 10
362.113306
 20
432.539408
 30
0.0
 10
279.834675
 20
432.539408
 30
0.0
  0
SPLINE
  5
123
100
AcDbEntity
  8
0
 62
7
100
AcDbSpline
 70
8
 71
3
 72
8
 73
4
 74
0
 40
0
 40
0
 40
0
 40
0
 40
1
 40
1
 40
1
 40
1
 10
279.834675
 20
432.539408
 30
0.0
 10
197.556043
 20
432.539408
 30
0.0
 10
130.856032
 20
365.839516
 30
0.0
 10
130.856032
 20
283.560825
 30
0.0
  0
SPLINE
  5
124
100
AcDbEntity
  8
0
 62
7
100
AcDbSpline
 70
8
 71
3
 72
8
 73
4
 74
0
 40
0
 40
0
 40
0
 40
0
 40
1
 40
1
 40
1
 40
1
 10
130.856032
 20
283.560825
 30
0.0
 10
130.856022
 20
200.641694
 30
0.0
 10
197.027773
 20
132.875312
 30
0.0
 10
279.923355
 20
130.901042
 30
0.0
  0
SPLINE
  5
125
100
AcDbEntity
  8
0
 62
7
100
AcDbSpline
 70
8
 71
3
 72
8
 73
4
 74
0
 40
0
 40
0
 40
0
 40
0
 40
1
 40
1
 40
1
 40
1
 10
279.923355
 20
130.901042
 30
0.0
 10
362.818926
 20
128.926782
 30
0.0
 10
434.114888
 20
193.395683
 30
0.0
 10
436.089118
 20
276.291315
 30
0.0
  0
LINE
  5
126
100
AcDbEntity
  8
0
 62
7
100
AcDbLine
 10
436.089118
 20
276.291315
 30
0.0
 11
436.262248
 21
283.560825
 31
0.0
  0
SPLINE
  5
127
100
AcDbEntity
  8
0
 62
7
100
AcDbSpline
 70
8
 71
3
 72
8
 73
4
 74
0
 40
0
 40
0
 40
0
 40
0
 40
1
 40
1
 40
1
 40
1
 10
436.262248
 20
283.560825
 30
0.0
 10
438.319218
 20
369.928957
 30
0.0
 10
366.227236
 20
439.988338
 30
0.0
 10
279.834675
 20
439.988338
 30
0.0
  0
SPLINE
  5
128
100
AcDbEntity
  8
0
 62
7
100
AcDbSpline
 70
8
 71
3
 72
8
 73
4
 74
0
 40
0
 40
0
 40
0
 40
0
 40
1
 40
1
 40
1
 40
1
 10
279.834675
 20
439.988338
 30
0.0
 10
193.442113
 20
439.988338
 30
0.0
 10
123.407092
 20
369.953447
 30
0.0
 10
123.407092
 20
283.560825
 30
0.0
  0
SPLINE
  5
129
100
AcDbEntity
  8
0
 62
7
100
AcDbSpline
 70
8
 71
3
 72
8
 73
4
 74
0
 40
0
 40
0
 40
0
 40
0
 40
1
 40
1
 40
1
 40
1
 10
123.407092
 20
283.560825
 30
0.0
 10
123.407092
 20
196.529483
 30
0.0
 10
192.910503
 20
125.428192
 30
0.0
 10
279.919315
 20
123.450202
 30
0.0
  0
SPLINE
  5
12a
100
AcDbEntity
  8
0
 62
7
100
AcDbSpline
 70
8
 71
3
 72
8
 73
4
 74
0
 40
0
 40
0
 40
0
 40
0
 40
1
 40
1
 40
1
 40
1
 10
279.919315
 20
123.450202
 30
0.0
 10
366.928136
 20
121.472222
 30
0.0
 10
441.567698
 20
189.274203
 30
0.0
 10
443.545728
 20
276.283065
 30
0.0
  0
LINE
  5
12b
100
AcDbEntity
  8
0
 62
7
100
AcDbLine
 10
443.545728
 20
276.283065
 30
0.0
 11
443.711178
 21
283.560825
 31
0.0
  0
SPLINE
  5
12c
100
AcDbEntity
  8
0
 62
7
100
AcDbSpline
 70
8
 71
3
 72
8
 73
4
 74
0
 40
0
 40
0
 40
0
 40
0
 40
1
 40
1
 40
1
 40
1
 10
443.711178
 20
283.560825
 30
0.0
 10
445.768188
 20
374.044007
 30
0.0
 10
370.341167
 20
447.437258
 30
0.0
 10
279.834675
 20
447.437258
 30
0.0
  0
SPLINE
  5
12d
100
AcDbEntity
  8
0
 62
7
100
AcDbSpline
 70
8
 71
3
 72
8
 73
4
 74
0
 40
0
 40
0
 40
0
 40
0
 40
1
 40
1
 40
1
 40
1
 10
279.834675
 20
447.437258
 30
0.0
 10
189.328173
 20
447.437258
 30
0.0
 10
115.958162
 20
374.067387
 30
0.0
 10
115.958162
 20
283.560825
 30
0.0
  0
SPLINE
  5
12e
100
AcDbEntity
  8
0
 62
7
100
AcDbSpline
 70
8
 71
3
 72
8
 73
4
 74
0
 40
0
 40
0
 40
0
 40
0
 40
1
 40
1
 40
1
 40
1
 10
115.958162
 20
283.560825
 30
0.0
 10
115.958172
 20
192.417123
 30
0.0
 10
188.793533
 20
117.980932
 30
0.0
 10
279.915645
 20
115.999542
 30
0.0
  0
SPLINE
  5
12f
100
AcDbEntity
  8
0
 62
7
100
AcDbSpline
 70
8
 71
3
 72
8
 73
4
 74
0
 40
0
 40
0
 40
0
 40
0
 40
1
 40
1
 40
1
 40
1
 10
279.915645
 20
115.999542
 30
0.0
 10
371.037747
 20
114.018162
 30
0.0
 10
449.020348
 20
185.153383
 30
0.0
 10
451.001698
 20
276.275545
 30
0.0
  0
LINE
  5
130
100
AcDbEntity
  8
0
 62
7
100
AcDbLine
 10
451.001698
 20
276.275545
 30
0.0
 11
451.160108
 21
283.560825
 31
0.0
  0
SPLINE
  5
131
100
AcDbEntity
  8
0
 62
7
100
AcDbSpline
 70
8
 71
3
 72
8
 73
4
 74
0
 40
0
 40
0
 40
0
 40
0
 40
1
 40
1
 40
1
 40
1
 10
451.160108
 20
283.560825
 30
0.0
 10
453.216928
 20
378.153847
 30
0.0
 10
374.449987
 20
454.873098
 30
0.0
 10
279.834675
 20
454.873098
 30
0.0
  0
SPLINE
  5
132
100
AcDbEntity
  8
0
 62
7
100
AcDbSpline
 70
8
 71
3
 72
8
 73
4
 74
0
 40
0
 40
0
 40
0
 40
0
 40
1
 40
1
 40
1
 40
1
 10
279.834675
 20
454.873098
 30
0.0
 10
185.219353
 20
454.873098
 30
0.0
 10
108.512832
 20
378.176207
 30
0.0
 10
108.509232
 20
283.560825
 30
0.0
  0
SPLINE
  5
133
100
AcDbEntity
  8
0
 62
7
100
AcDbSpline
 70
8
 71
3
 72
8
 73
4
 74
0
 40
0
 40
0
 40
0
 40
0
 40
1
 40
1
 40
1
 40
1
 10
108.509232
 20
283.560825
 30
0.0
 10
108.505232
 20
188.304623
 30
0.0
 10
184.676803
 20
110.533502
 30
0.0
 10
279.912265
 20
108.549002
 30
0.0
  0
SPLINE
  5
134
100
AcDbEntity
  8
0
 62
7
100
AcDbSpline
 70
8
 71
3
 72
8
 73
4
 74
0
 40
0
 40
0
 40
0
 40
0
 40
1
 40
1
 40
1
 40
1
 10
279.912265
 20
108.549002
 30
0.0
 10
375.147737
 20
106.564502
 30
0.0
 10
456.472488
 20
181.033143
 30
0.0
 10
458.457088
 20
276.268665
 30
0.0
  0
LINE
  5
135
100
AcDbEntity
  8
0
 62
7
100
AcDbLine
 10
458.457088
 20
276.268665
 30
0.0
 11
458.609048
 21
283.560825
 31
0.0
  0
SPLINE
  5
136
100
AcDbEntity
  8
0
 62
7
100
AcDbSpline
 70
8
 71
3
 72
8
 73
4
 74
0
 40
0
 40
0
 40
0
 40
0
 40
1
 40
1
 40
1
 40
1
 10
458.609048
 20
283.560825
 30
0.0
 10
460.665998
 20
382.268597
 30
0.0
 10
378.563807
 20
462.321748
 30
0.0
 10
279.834675
 20
462.321748
 30
0.0
  0
SPLINE
  5
137
100
AcDbEntity
  8
0
 62
7
100
AcDbSpline
 70
8
 71
3
 72
8
 73
4
 74
0
 40
0
 40
0
 40
0
 40
0
 40
1
 40
1
 40
1
 40
1
 10
279.834675
 20
462.321748
 30
0.0
 10
181.105533
 20
462.321748
 30
0.0
 10
101.063972
 20
382.290027
 30
0.0
 10
101.060302
 20
283.560825
 30
0.0
  0
SPLINE
  5
138
100
AcDbEntity
  8
0
 62
7
100
AcDbSpline
 70
8
 71
3
 72
8
 73
4
 74
0
 40
0
 40
0
 40
0
 40
0
 40
1
 40
1
 40
1
 40
1
 10
101.060302
 20
283.560825
 30
0.0
 10
101.056302
 20
184.192013
 30
0.0
 10
180.560293
 20
103.085962
 30
0.0
 10
279.909165
 20
101.098582
 30
0.0
  0
SPLINE
  5
139
100
AcDbEntity
  8
0
 62
7
100
AcDbSpline
 70
8
 71
3
 72
8
 73
4
 74
0
 40
0
 40
0
 40
0
 40
0
 40
1
 40
1
 40
1
 40
1
 10
279.909165
 20
101.098582
 30
0.0
 10
379.258037
 20
99.111212
 30
0.0
 10
463.924588
 20
176.913403
 30
0.0
 10
465.911978
 20
276.262335
 30
0.0
  0
LINE
  5
13a
100
AcDbEntity
  8
0
 62
7
100
AcDbLine
 10
465.911978
 20
276.262335
 30
0.0
 11
466.057978
 21
283.560825
 31
0.0
  0
SPLINE
  5
13b
100
AcDbEntity
  8
0
 62
7
100
AcDbSpline
 70
8
 71
3
 72
8
 73
4
 74
0
 40
0
 40
0
 40
0
 40
0
 40
1
 40
1
 40
1
 40
1
 10
466.057978
 20
283.560825
 30
0.0
 10
468.114848
 20
386.383287
 30
0.0
 10
382.677627
 20
469.770398
 30
0.0
 10
279.834675
 20
469.770398
 30
0.0
  0
SPLINE
  5
13c
100
AcDbEntity
  8
0
 62
7
100
AcDbSpline
 70
8
 71
3
 72
8
 73
4
 74
0
 40
0
 40
0
 40
0
 40
0
 40
1
 40
1
 40
1
 40
1
 10
279.834675
 20
469.770398
 30
0.0
 10
176.991713
 20
469.770398
 30
0.0
 10
93.615122
 20
386.403857
 30
0.0
 10
93.611372
 20
283.560825
 30
0.0
  0
SPLINE
  5
13d
100
AcDbEntity
  8
0
 62
7
100
AcDbSpline
 70
8
 71
3
 72
8
 73
4
 74
0
 40
0
 40
0
 40
0
 40
0
 40
1
 40
1
 40
1
 40
1
 10
93.611372
 20
283.560825
 30
0.0
 10
93.607372
 20
180.079303
 30
0.0
 10
176.443973
 20
95.638312
 30
0.0
 10
279.906295
 20
93.648282
 30
0.0
  0
SPLINE
  5
13e
100
AcDbEntity
  8
0
 62
7
100
AcDbSpline
 70
8
 71
3
 72
8
 73
4
 74
0
 40
0
 40
0
 40
0
 40
0
 40
1
 40
1
 40
1
 40
1
 10
279.906295
 20
93.648282
 30
0.0
 10
383.368617
 20
91.658252
 30
0.0
 10
471.376448
 20
172.794113
 30
0.0
 10
473.366418
 20
276.256495
 30
0.0
  0
LINE
  5
13f
100
AcDbEntity
  8
0
 62
7
100
AcDbLine
 10
473.366418
 20
276.256495
 30
0.0
 11
473.506908
 21
283.560825
 31
0.0
  0
SPLINE
  5
140
100
AcDbEntity
  8
0
 62
7
100
AcDbSpline
 70
8
 71
3
 72
8
 73
4
 74
0
 40
0
 40
0
 40
0
 40
0
 40
1
 40
1
 40
1
 40
1
 10
473.506908
 20
283.560825
 30
0.0
 10
475.563718
 20
390.497907
 30
0.0
 10
386.791457
 20
477.219058
 30
0.0
 10
279.834675
 20
477.219058
 30
0.0
  0
SPLINE
  5
141
100
AcDbEntity
  8
0
 62
7
100
AcDbSpline
 70
8
 71
3
 72
8
 73
4
 74
0
 40
0
 40
0
 40
0
 40
0
 40
1
 40
1
 40
1
 40
1
 10
279.834675
 20
477.219058
 30
0.0
 10
172.877883
 20
477.219058
 30
0.0
 10
86.166252
 20
390.517687
 30
0.0
 10
86.162432
 20
283.560825
 30
0.0
  0
SPLINE
  5
142
100
AcDbEntity
  8
0
 62
7
100
AcDbSpline
 70
8
 71
3
 72
8
 73
4
 74
0
 40
0
 40
0
 40
0
 40
0
 40
1
 40
1
 40
1
 40
1
 10
86.162432
 20
283.560825
 30
0.0
 10
86.158432
 20
175.966503
 30
0.0
 10
172.327843
 20
88.190572
 30
0.0
 10
279.903645
 20
86.198082
 30
0.0
  0
SPLINE
  5
143
100
AcDbEntity
  8
0
 62
7
100
AcDbSpline
 70
8
 71
3
 72
8
 73
4
 74
0
 40
0
 40
0
 40
0
 40
0
 40
1
 40
1
 40
1
 40
1
 10
279.903645
 20
86.198082
 30
0.0
 10
387.479447
 20
84.205601
 30
0.0
 10
478.827938
 20
168.675213
 30
0.0
 10
480.820448
 20
276.251095
 30
0.0
  0
LINE
  5
144
100
AcDbEntity
  8
0
 62
7
100
AcDbLine
 10
480.820448
 20
276.251095
 30
0.0
 11
480.955838
 21
283.560825
 31
0.0
  0
SPLINE
  5
145
100
AcDbEntity
  8
0
 62
7
100
AcDbSpline
 70
8
 71
3
 72
8
 73
4
 74
0
 40
0
 40
0
 40
0
 40
0
 40
1
 40
1
 40
1
 40
1
 10
480.955838
 20
283.560825
 30
0.0
 10
483.012729
 20
394.612467
 30
0.0
 10
390.905287
 20
484.667729
 30
0.0
 10
279.834675
 20
484.667729
 30
0.0
  0
SPLINE
  5
146
100
AcDbEntity
  8
0
 62
7
100
AcDbSpline
 70
8
 71
3
 72
8
 73
4
 74
0
 40
0
 40
0
 40
0
 40
0
 40
1
 40
1
 40
1
 40
1
 10
279.834675
 20
484.667729
 30
0.0
 10
168.764053
 20
484.667729
 30
0.0
 10
78.717401
 20
394.631517
 30
0.0
 10
78.713501
 20
283.560825
 30
0.0
  0
SPLINE
  5
147
100
AcDbEntity
  8
0
 62
7
100
AcDbSpline
 70
8
 71
3
 72
8
 73
4
 74
0
 40
0
 40
0
 40
0
 40
0
 40
1
 40
1
 40
1
 40
1
 10
78.713501
 20
283.560825
 30
0.0
 10
78.709501
 20
171.853613
 30
0.0
 10
168.211853
 20
80.742721
 30
0.0
 10
279.901185
 20
78.747951
 30
0.0
  0
SPLINE
  5
148
100
AcDbEntity
  8
0
 62
7
100
AcDbSpline
 70
8
 71
3
 72
8
 73
4
 74
0
 40
0
 40
0
 40
0
 40
0
 40
1
 40
1
 40
1
 40
1
 10
279.901185
 20
78.747951
 30
0.0
 10
391.590507
 20
76.753181
 30
0.0
 10
486.279379
 20
164.556683
 30
0.0
 10
488.274129
 20
276.246075
 30
0.0
  0
LINE
  5
149
100
AcDbEntity
  8
0
 62
7
100
AcDbLine
 10
488.274129
 20
276.246075
 30
0.0
 11
488.404769
 21
283.560825
 31
0.0
  0
SPLINE
  5
14a
100
AcDbEntity
  8
0
 62
7
100
AcDbSpline
 70
8
 71
3
 72
8
 73
4
 74
0
 40
0
 40
0
 40
0
 40
0
 40
1
 40
1
 40
1
 40
1
 10
488.404769
 20
283.560825
 30
0.0
 10
490.461609
 20
398.726977
 30
0.0
 10
395.019117
 20
492.116399
 30
0.0
 10
279.834675
 20
492.116399
 30
0.0
  0
SPLINE
  5
14b
100
AcDbEntity
  8
0
 62
7
100
AcDbSpline
 70
8
 71
3
 72
8
 73
4
 74
0
 40
0
 40
0
 40
0
 40
0
 40
1
 40
1
 40
1
 40
1
 10
279.834675
 20
492.116399
 30
0.0
 10
164.650233
 20
492.116399
 30
0.0
 10
71.268541
 20
398.745347
 30
0.0
 10
71.264571
 20
283.560825
 30
0.0
  0
SPLINE
  5
14c
100
AcDbEntity
  8
0
 62
7
100
AcDbSpline
 70
8
 71
3
 72
8
 73
4
 74
0
 40
0
 40
0
 40
0
 40
0
 40
1
 40
1
 40
1
 40
1
 10
71.264571
 20
283.560825
 30
0.0
 10
71.260571
 20
167.740673
 30
0.0
 10
164.096023
 20
73.294841
 30
0.0
 10
279.898885
 20
71.297941
 30
0.0
  0
SPLINE
  5
14d
100
AcDbEntity
  8
0
 62
7
100
AcDbSpline
 70
8
 71
3
 72
8
 73
4
 74
0
 40
0
 40
0
 40
0
 40
0
 40
1
 40
1
 40
1
 40
1
 10
279.898885
 20
71.297941
 30
0.0
 10
395.701757
 20
69.301041
 30
0.0
 10
493.730679
 20
160.438463
 30
0.0
 10
495.727489
 20
276.241415
 30
0.0
  0
LINE
  5
14e
100
AcDbEntity
  8
0
 62
7
100
AcDbLine
 10
495.727489
 20
276.241415
 30
0.0
 11
495.853699
 21
283.560825
 31
0.0
  0
SPLINE
  5
14f
100
AcDbEntity
  8
0
 62
7
100
AcDbSpline
 70
8
 71
3
 72
8
 73
4
 74
0
 40
0
 40
0
 40
0
 40
0
 40
1
 40
1
 40
1
 40
1
 10
495.853699
 20
283.560825
 30
0.0
 10
497.910479
 20
402.841457
 30
0.0
 10
399.132947
 20
499.565069
 30
0.0
 10
279.834675
 20
499.565069
 30
0.0
  0
SPLINE
  5
150
100
AcDbEntity
  8
0
 62
7
100
AcDbSpline
 70
8
 71
3
 72
8
 73
4
 74
0
 40
0
 40
0
 40
0
 40
0
 40
1
 40
1
 40
1
 40
1
 10
279.834675
 20
499.565069
 30
0.0
 10
160.536393
 20
499.565069
 30
0.0
 10
63.819671
 20
402.859187
 30
0.0
 10
63.815641
 20
283.560825
 30
0.0
  0
SPLINE
  5
151
100
AcDbEntity
  8
0
 62
7
100
AcDbSpline
 70
8
 71
3
 72
8
 73
4
 74
0
 40
0
 40
0
 40
0
 40
0
 40
1
 40
1
 40
1
 40
1
 10
63.815641
 20
283.560825
 30
0.0
 10
63.811641
 20
163.627653
 30
0.0
 10
159.980303
 20
65.846861
 30
0.0
 10
279.896745
 20
63.847971
 30
0.0
  0
SPLINE
  5
152
100
AcDbEntity
  8
0
 62
7
100
AcDbSpline
 70
8
 71
3
 72
8
 73
4
 74
0
 40
0
 40
0
 40
0
 40
0
 40
1
 40
1
 40
1
 40
1
 10
279.896745
 20
63.847971
 30
0.0
 10
399.813197
 20
61.849091
 30
0.0
 10
501.181669
 20
156.320543
 30
0.0
 10
503.180559
 20
276.237065
 30
0.0
  0
LINE
  5
153
100
AcDbEntity
  8
0
 62
7
100
AcDbLine
 10
503.180559
 20
276.237065
 30
0.0
 11
503.302639
 21
283.560825
 31
0.0
  0
SPLINE
  5
154
100
AcDbEntity
  8
0
 62
7
100
AcDbSpline
 70
8
 71
3
 72
8
 73
4
 74
0
 40
0
 40
0
 40
0
 40
0
 40
1
 40
1
 40
1
 40
1
 10
503.302639
 20
283.560825
 30
0.0
 10
505.359519
 20
406.955877
 30
0.0
 10
403.246777
 20
507.013749
 30
0.0
 10
279.834675
 20
507.013749
 30
0.0
  0
SPLINE
  5
155
100
AcDbEntity
  8
0
 62
7
100
AcDbSpline
 70
8
 71
3
 72
8
 73
4
 74
0
 40
0
 40
0
 40
0
 40
0
 40
1
 40
1
 40
1
 40
1
 10
279.834675
 20
507.013749
 30
0.0
 10
156.422563
 20
507.013749
 30
0.0
 10
56.370821
 20
406.973017
 30
0.0
 10
56.366711
 20
283.560825
 30
0.0
  0
SPLINE
  5
156
100
AcDbEntity
  8
0
 62
7
100
AcDbSpline
 70
8
 71
3
 72
8
 73
4
 74
0
 40
0
 40
0
 40
0
 40
0
 40
1
 40
1
 40
1
 40
1
 10
56.366711
 20
283.560825
 30
0.0
 10
56.362711
 20
159.514563
 30
0.0
 10
155.864693
 20
58.398801
 30
0.0
 10
279.894745
 20
56.398061
 30
0.0
  0
SPLINE
  5
157
100
AcDbEntity
  8
0
 62
7
100
AcDbSpline
 70
8
 71
3
 72
8
 73
4
 74
0
 40
0
 40
0
 40
0
 40
0
 40
1
 40
1
 40
1
 40
1
 10
279.894745
 20
56.398061
 30
0.0
 10
403.924797
 20
54.397311
 30
0.0
 10
508.632549
 20
152.202873
 30
0.0
 10
510.633359
 20
276.232995
 30
0.0
  0
LINE
  5
158
100
AcDbEntity
  8
0
 62
7
100
AcDbLine
 10
510.633359
 20
276.232995
 30
0.0
 11
510.751569
 21
283.560825
 31
0.0
  0
SPLINE
  5
159
100
AcDbEntity
  8
0
 62
7
100
AcDbSpline
 70
8
 71
3
 72
8
 73
4
 74
0
 40
0
 40
0
 40
0
 40
0
 40
1
 40
1
 40
1
 40
1
 10
510.751569
 20
283.560825
 30
0.0
 10
512.808509
 20
411.070267
 30
0.0
 10
407.360617
 20
514.462429
 30
0.0
 10
279.834675
 20
514.462429
 30
0.0
  0
SPLINE
  5
15a
100
AcDbEntity
  8
0
 62
7
100
AcDbSpline
 70
8
 71
3
 72
8
 73
4
 74
0
 40
0
 40
0
 40
0
 40
0
 40
1
 40
1
 40
1
 40
1
 10
279.834675
 20
514.462429
 30
0.0
 10
152.308733
 20
514.462429
 30
0.0
 10
48.921951
 20
411.086857
 30
0.0
 10
48.917771
 20
283.560825
 30
0.0
  0
SPLINE
  5
15b
100
AcDbEntity
  8
0
 62
7
100
AcDbSpline
 70
8
 71
3
 72
8
 73
4
 74
0
 40
0
 40
0
 40
0
 40
0
 40
1
 40
1
 40
1
 40
1
 10
48.917771
 20
283.560825
 30
0.0
 10
48.913771
 20
155.401433
 30
0.0
 10
151.749203
 20
50.950721
 30
0.0
 10
279.892865
 20
48.948231
 30
0.0
  0
SPLINE
  5
15c
100
AcDbEntity
  8
0
 62
7
100
AcDbSpline
 70
8
 71
3
 72
8
 73
4
 74
0
 40
0
 40
0
 40
0
 40
0
 40
1
 40
1
 40
1
 40
1
 10
279.892865
 20
48.948231
 30
0.0
 10
408.036537
 20
46.945741
 30
0.0
 10
516.083459
 20
148.085433
 30
0.0
 10
518.085929
 20
276.229175
 30
0.0
  0
LINE
  5
15d
100
AcDbEntity
  8
0
 62
7
100
AcDbLine
 10
518.085929
 20
276.229175
 30
0.0
 11
518.200499
 21
283.560825
 31
0.0
  0
SPLINE
  5
15e
100
AcDbEntity
  8
0
 62
7
100
AcDbSpline
 70
8
 71
3
 72
8
 73
4
 74
0
 40
0
 40
0
 40
0
 40
0
 40
1
 40
1
 40
1
 40
1
 10
518.200499
 20
283.560825
 30
0.0
 10
520.257349
 20
415.184627
 30
0.0
 10
411.474447
 20
521.911109
 30
0.0
 10
279.834675
 20
521.911109
 30
0.0
  0
SPLINE
  5
15f
100
AcDbEntity
  8
0
 62
7
100
AcDbSpline
 70
8
 71
3
 72
8
 73
4
 74
0
 40
0
 40
0
 40
0
 40
0
 40
1
 40
1
 40
1
 40
1
 10
279.834675
 20
521.911109
 30
0.0
 10
148.194893
 20
521.911109
 30
0.0
 10
41.473081
 20
415.200697
 30
0.0
 10
41.468841
 20
283.560825
 30
0.0
  0
SPLINE
  5
160
100
AcDbEntity
  8
0
 62
7
100
AcDbSpline
 70
8
 71
3
 72
8
 73
4
 74
0
 40
0
 40
0
 40
0
 40
0
 40
1
 40
1
 40
1
 40
1
 10
41.468841
 20
283.560825
 30
0.0
 10
41.464841
 20
151.288263
 30
0.0
 10
147.633803
 20
43.502591
 30
0.0
 10
279.891105
 20
41.498461
 30
0.0
  0
SPLINE
  5
161
100
AcDbEntity
  8
0
 62
7
100
AcDbSpline
 70
8
 71
3
 72
8
 73
4
 74
0
 40
0
 40
0
 40
0
 40
0
 40
1
 40
1
 40
1
 40
1
 10
279.891105
 20
41.498461
 30
0.0
 10
412.148407
 20
39.494331
 30
0.0
 10
523.534139
 20
143.968213
 30
0.0
 10
525.538279
 20
276.225595
 30
0.0
  0
LINE
  5
162
100
AcDbEntity
  8
0
 62
7
100
AcDbLine
 10
525.538279
 20
276.225595
 30
0.0
 11
525.649429
 21
283.560825
 31
0.0
  0
SPLINE
  5
163
100
AcDbEntity
  8
0
 62
7
100
AcDbSpline
 70
8
 71
3
 72
8
 73
4
 74
0
 40
0
 40
0
 40
0
 40
0
 40
1
 40
1
 40
1
 40
1
 10
525.649429
 20
283.560825
 30
0.0
 10
527.706319
 20
419.298957
 30
0.0
 10
415.588287
 20
529.359799
 30
0.0
 10
279.834675
 20
529.359799
 30
0.0
  0
SPLINE
  5
164
100
AcDbEntity
  8
0
 62
7
100
AcDbSpline
 70
8
 71
3
 72
8
 73
4
 74
0
 40
0
 40
0
 40
0
 40
0
 40
1
 40
1
 40
1
 40
1
 10
279.834675
 20
529.359799
 30
0.0
 10
144.081053
 20
529.359799
 30
0.0
 10
34.024221
 20
419.314537
 30
0.0
 10
34.019911
 20
283.560825
 30
0.0
  0
SPLINE
  5
165
100
AcDbEntity
  8
0
 62
7
100
AcDbSpline
 70
8
 71
3
 72
8
 73
4
 74
0
 40
0
 40
0
 40
0
 40
0
 40
1
 40
1
 40
1
 40
1
 10
34.019911
 20
283.560825
 30
0.0
 10
34.015911
 20
147.175023
 30
0.0
 10
143.518483
 20
36.054381
 30
0.0
 10
279.889445
 20
34.048711
 30
0.0
  0
SPLINE
  5
166
100
AcDbEntity
  8
0
 62
7
100
AcDbSpline
 70
8
 71
3
 72
8
 73
4
 74
0
 40
0
 40
0
 40
0
 40
0
 40
1
 40
1
 40
1
 40
1
 10
279.889445
 20
34.048711
 30
0.0
 10
416.260407
 20
32.043041
 30
0.0
 10
530.984759
 20
139.851182
 30
0.0
 10
532.990429
 20
276.222235
 30
0.0
  0
LINE
  5
167
100
AcDbEntity
  8
0
 62
7
100
AcDbLine
 10
532.990429
 20
276.222235
 30
0.0
 11
533.098369
 21
283.560825
 31
0.0
  0
SPLINE
  5
168
100
AcDbEntity
  8
0
 62
7
100
AcDbSpline
 70
8
 71
3
 72
8
 73
4
 74
0
 40
0
 40
0
 40
0
 40
0
 40
1
 40
1
 40
1
 40
1
 10
533.098369
 20
283.560825
 30
0.0
 10
535.155239
 20
423.413257
 30
0.0
 10
419.702127
 20
536.808499
 30
0.0
 10
279.834675
 20
536.808499
 30
0.0
  0
SPLINE
  5
169
100
AcDbEntity
  8
0
 62
7
100
AcDbSpline
 70
8
 71
3
 72
8
 73
4
 74
0
 40
0
 40
0
 40
0
 40
0
 40
1
 40
1
 40
1
 40
1
 10
279.834675
 20
536.808499
 30
0.0
 10
139.967212
 20
536.808499
 30
0.0
 10
26.575360
 20
423.428377
 30
0.0
 10
26.570980
 20
283.560825
 30
0.0
  0
SPLINE
  5
16a
100
AcDbEntity
  8
0
 62
7
100
AcDbSpline
 70
8
 71
3
 72
8
 73
4
 74
0
 40
0
 40
0
 40
0
 40
0
 40
1
 40
1
 40
1
 40
1
 10
26.570980
 20
283.560825
 30
0.0
 10
26.566980
 20
143.061763
 30
0.0
 10
139.403242
 20
28.606151
 30
0.0
 10
279.887885
 20
26.599020
 30
0.0
  0
SPLINE
  5
16b
100
AcDbEntity
  8
0
 62
7
100
AcDbSpline
 70
8
 71
3
 72
8
 73
4
 74
0
 40
0
 40
0
 40
0
 40
0
 40
1
 40
1
 40
1
 40
1
 10
279.887885
 20
26.599020
 30
0.0
 10
420.372517
 20
24.591890
 30
0.0
 10
538.435279
 20
135.734332
 30
0.0
 10
540.442400
 20
276.219055
 30
0.0
  0
LINE
  5
16c
100
AcDbEntity
  8
0
 62
7
100
AcDbLine
 10
540.442400
 20
276.219055
 30
0.0
 11
540.547300
 21
283.560825
 31
0.0
  0
SPLINE
  5
16d
100
AcDbEntity
  8
0
 62
7
100
AcDbSpline
 70
8
 71
3
 72
8
 73
4
 74
0
 40
0
 40
0
 40
0
 40
0
 40
1
 40
1
 40
1
 40
1
 10
540.547300
 20
283.560825
 30
0.0
 10
542.604170
 20
427.527528
 30
0.0
 10
423.815967
 20
544.257190
 30
0.0
 10
279.834675
 20
544.257190
 30
0.0
  0
SPLINE
  5
16e
100
AcDbEntity
  8
0
 62
7
100
AcDbSpline
 70
8
 71
3
 72
8
 73
4
 74
0
 40
0
 40
0
 40
0
 40
0
 40
1
 40
1
 40
1
 40
1
 10
279.834675
 20
544.257190
 30
0.0
 10
135.853372
 20
544.257190
 30
0.0
 10
19.126490
 20
427.542228
 30
0.0
 10
19.122050
 20
283.560825
 30
0.0
  0
SPLINE
  5
16f
100
AcDbEntity
  8
0
 62
7
100
AcDbSpline
 70
8
 71
3
 72
8
 73
4
 74
0
 40
0
 40
0
 40
0
 40
0
 40
1
 40
1
 40
1
 40
1
 10
19.122050
 20
283.560825
 30
0.0
 10
19.118050
 20
138.948452
 30
0.0
 10
135.288072
 20
21.157870
 30
0.0
 10
279.886405
 20
19.149360
 30
0.0
  0
SPLINE
  5
170
100
AcDbEntity
  8
0
 62
7
100
AcDbSpline
 70
8
 71
3
 72
8
 73
4
 74
0
 40
0
 40
0
 40
0
 40
0
 40
1
 40
1
 40
1
 40
1
 10
279.886405
 20
19.149360
 30
0.0
 10
424.484737
 20
17.140860
 30
0.0
 10
545.885710
 20
131.617642
 30
0.0
 10
547.894210
 20
276.216055
 30
0.0
  0
LINE
  5
171
100
AcDbEntity
  8
0
 62
7
100
AcDbLine
 10
547.894210
 20
276.216055
 30
0.0
 11
547.996230
 21
283.560825
 31
0.0
  0
SPLINE
  5
172
100
AcDbEntity
  8
0
 62
7
100
AcDbSpline
 70
8
 71
3
 72
8
 73
4
 74
0
 40
0
 40
0
 40
0
 40
0
 40
1
 40
1
 40
1
 40
1
 10
547.996230
 20
283.560825
 30
0.0
 10
550.053190
 20
431.648178
 30
0.0
 10
427.936208
 20
551.722260
 30
0.0
 10
279.834675
 20
551.722260
 30
0.0
  0
SPLINE
  5
173
100
AcDbEntity
  8
0
 62
7
100
AcDbSpline
 70
8
 71
3
 72
8
 73
4
 74
0
 40
0
 40
0
 40
0
 40
0
 40
1
 40
1
 40
1
 40
1
 10
279.834675
 20
551.722260
 30
0.0
 10
131.733142
 20
551.722260
 30
0.0
 10
11.673120
 20
431.662458
 30
0.0
 10
11.673110
 20
283.560825
 30
0.0
  0
SPLINE
  5
174
100
AcDbEntity
  8
0
 62
7
100
AcDbSpline
 70
8
 71
3
 72
8
 73
4
 74
0
 40
0
 40
0
 40
0
 40
0
 40
1
 40
1
 40
1
 40
1
 10
11.673110
 20
283.560825
 30
0.0
 10
11.673110
 20
134.835112
 30
0.0
 10
131.172962
 20
13.709540
 30
0.0
 10
279.885005
 20
11.699740
 30
0.0
  0
SPLINE
  5
175
100
AcDbEntity
  8
0
 62
7
100
AcDbSpline
 70
8
 71
3
 72
8
 73
4
 74
0
 40
0
 40
0
 40
0
 40
0
 40
1
 40
1
 40
1
 40
1
 10
279.885005
 20
11.699740
 30
0.0
 10
428.597038
 20
9.689930
 30
0.0
 10
553.336050
 20
127.501092
 30
0.0
 10
555.345860
 20
276.213225
 30
0.0
  0
LINE
  5
176
100
AcDbEntity
  8
0
 62
7
100
AcDbLine
 10
555.345860
 20
276.213225
 30
0.0
 11
555.445160
 21
283.560825
 31
0.0
  0
SPLINE
  5
177
100
AcDbEntity
  8
0
 62
7
100
AcDbSpline
 70
8
 71
3
 72
8
 73
4
 74
0
 40
0
 40
0
 40
0
 40
0
 40
1
 40
1
 40
1
 40
1
 10
555.445160
 20
283.560825
 30
0.0
 10
557.502130
 20
435.762498
 30
0.0
 10
432.050138
 20
559.171200
 30
0.0
 10
279.834675
 20
559.171200
 30
0.0
  0
SPLINE
  5
178
100
AcDbEntity
  8
0
 62
7
100
AcDbSpline
 70
8
 71
3
 72
8
 73
4
 74
0
 40
0
 40
0
 40
0
 40
0
 40
1
 40
1
 40
1
 40
1
 10
279.834675
 20
559.171200
 30
0.0
 10
127.619202
 20
559.171200
 30
0.0
 10
4.224180
 20
435.776398
 30
0.0
 10
4.224180
 20
283.560825
 30
0.0
  0
SPLINE
  5
179
100
AcDbEntity
  8
0
 62
7
100
AcDbSpline
 70
8
 71
3
 72
8
 73
4
 74
0
 40
0
 40
0
 40
0
 40
0
 40
1
 40
1
 40
1
 40
1
 10
4.224180
 20
283.560825
 30
0.0
 10
4.224180
 20
200.434814
 30
0.0
 10
41.246281
 20
121.627372
 30
0.0
 10
105.227812
 20
68.558671
 30
0.0
  0
SPLINE
  5
17a
100
AcDbEntity
  8
0
 62
7
100
AcDbSpline
 70
8
 71
3
 72
8
 73
4
 74
0
 40
0
 40
0
 40
0
 40
0
 40
1
 40
1
 40
1
 40
1
 10
105.227812
 20
68.558671
 30
0.0
 10
169.209333
 20
15.489980
 30
0.0
 10
253.502234
 20
-6.325840
 30
0.0
 10
335.195626
 20
9.040450
 30
0.0
  0
SPLINE
  5
17b
100
AcDbEntity
  8
0
 62
7
100
AcDbSpline
 70
8
 71
3
 72
8
 73
4
 74
0
 40
0
 40
0
 40
0
 40
0
 40
1
 40
1
 40
1
 40
1
 10
335.195626
 20
9.040450
 30
0.0
 10
416.889017
 20
24.406740
 30
0.0
 10
487.494549
 20
75.358511
 30
0.0
 10
527.821449
 20
148.047323
 30
0.0
  0
SPLINE
  5
17c
100
AcDbEntity
  8
0
 62
7
100
AcDbSpline
 70
8
 71
3
 72
8
 73
4
 74
0
 40
0
 40
0
 40
0
 40
0
 40
1
 40
1
 40
1
 40
1
 10
527.821449
 20
148.047323
 30
0.0
 10
568.148350
 20
220.736134
 30
0.0
 10
574.006420
 20
307.609215
 30
0.0
 10
543.803490
 20
385.054147
 30
0.0
  0
LINE
  5
17d
100
AcDbEntity
  8
0
 62
7
100
AcDbLine
 10
543.803490
 20
385.054147
 30
0.0
 11
506.992709
 21
479.442598
 31
0.0
  0
SPLINE
  5
17e
100
AcDbEntity
  8
0
 62
7
100
AcDbSpline
 70
8
 71
3
 72
8
 73
4
 74
0
 40
0
 40
0
 40
0
 40
0
 40
1
 40
1
 40
1
 40
1
 10
506.992709
 20
479.442598
 30
0.0
 10
495.173409
 20
477.508788
 30
0.0
 10
483.930669
 20
485.237389
 30
0.0
 10
481.503488
 20
496.960309
 30
0.0
  0
SPLINE
  5
17f
100
AcDbEntity
  8
0
 62
7
100
AcDbSpline
 70
8
 71
3
 72
8
 73
4
 74
0
 40
0
 40
0
 40
0
 40
0
 40
1
 40
1
 40
1
 40
1
 10
481.503488
 20
496.960309
 30
0.0
 10
479.076398
 20
508.682749
 30
0.0
 10
486.328279
 20
520.227249
 30
0.0
 10
497.942069
 20
523.146649
 30
0.0
  0
SPLINE
  5
180
100
AcDbEntity
  8
0
 62
7
100
AcDbSpline
 70
8
 71
3
 72
8
 73
4
 74
0
 40
0
 40
0
 40
0
 40
0
 40
1
 40
1
 40
1
 40
1
 10
497.942069
 20
523.146649
 30
0.0
 10
509.555849
 20
526.066049
 30
0.0
 10
521.404749
 20
519.322989
 30
0.0
 10
524.809329
 20
507.846259
 30
0.0
  0
SPLINE
  5
181
100
AcDbEntity
  8
0
 62
7
100
AcDbSpline
 70
8
 71
3
 72
8
 73
4
 74
0
 40
0
 40
0
 40
0
 40
0
 40
1
 40
1
 40
1
 40
1
 10
524.809329
 20
507.846259
 30
0.0
 10
528.214049
 20
496.369069
 30
0.0
 10
521.962289
 20
484.242819
 30
0.0
 10
510.633479
 20
480.357788
 30
0.0
  0
LINE
  5
182
100
AcDbEntity
  8
0
 62
7
100
AcDbLine
 10
510.633479
 20
480.357788
 30
0.0
 11
547.273420
 21
386.407387
 31
0.0
  0
SPLINE
  5
183
100
AcDbEntity
  8
0
 62
7
100
AcDbSpline
 70
8
 71
3
 72
8
 73
4
 74
0
 40
0
 40
0
 40
0
 40
0
 40
1
 40
1
 40
1
 40
1
 10
547.273420
 20
386.407387
 30
0.0
 10
577.879060
 20
307.929855
 30
0.0
 10
571.942870
 20
219.898474
 30
0.0
 10
531.078279
 20
146.240473
 30
0.0
  0
SPLINE
  5
184
100
AcDbEntity
  8
0
 62
7
100
AcDbSpline
 70
8
 71
3
 72
8
 73
4
 74
0
 40
0
 40
0
 40
0
 40
0
 40
1
 40
1
 40
1
 40
1
 10
531.078279
 20
146.240473
 30
0.0
 10
490.213689
 20
72.582481
 30
0.0
 10
418.666757
 20
20.951360
 30
0.0
 10
335.884116
 20
5.380180
 30
0.0
  0
SPLINE
  5
185
100
AcDbEntity
  8
0
 62
7
100
AcDbSpline
 70
8
 71
3
 72
8
 73
4
 74
0
 40
0
 40
0
 40
0
 40
0
 40
1
 40
1
 40
1
 40
1
 10
335.884116
 20
5.380180
 30
0.0
 10
253.101474
 20
-10.190990
 30
0.0
 10
167.684673
 20
11.915700
 30
0.0
 10
102.850062
 20
65.691981
 30
0.0
  0
SPLINE
  5
186
100
AcDbEntity
  8
0
 62
7
100
AcDbSpline
 70
8
 71
3
 72
8
 73
4
 74
0
 40
0
 40
0
 40
0
 40
0
 40
1
 40
1
 40
1
 40
1
 10
102.850062
 20
65.691981
 30
0.0
 10
38.015451
 20
119.468262
 30
0.0
 10
0.499720
 20
199.326464
 30
0.0
 10
0.499720
 20
283.560825
 30
0.0
  0
SPLINE
  5
187
100
AcDbEntity
  8
0
 62
7
100
AcDbSpline
 70
8
 71
3
 72
8
 73
4
 74
0
 40
0
 40
0
 40
0
 40
0
 40
1
 40
1
 40
1
 40
1
 10
0.499720
 20
283.560825
 30
0.0
 10
0.499720
 20
437.833368
 30
0.0
 10
125.562242
 20
562.895660
 30
0.0
 10
279.834675
 20
562.895660
 30
0.0
  0
SPLINE
  5
188
100
AcDbEntity
  8
0
 62
7
100
AcDbSpline
 70
8
 71
3
 72
8
 73
4
 74
0
 40
0
 40
0
 40
0
 40
0
 40
1
 40
1
 40
1
 40
1
 10
279.834675
 20
562.895660
 30
0.0
 10
434.107108
 20
562.895660
 30
0.0
 10
561.254390
 20
437.819278
 30
0.0
 10
559.169630
 20
283.560825
 30
0.0
  0
LINE
  5
189
100
AcDbEntity
  8
0
 62
7
100
AcDbLine
 10
559.169630
 20
283.560825
 30
0.0
 11
559.068970
 21
276.112575
 31
0.0
  0
SPLINE
  5
18a
100
AcDbEntity
  8
0
 62
7
100
AcDbSpline
 70
8
 71
3
 72
8
 73
4
 74
0
 40
0
 40
0
 40
0
 40
0
 40
1
 40
1
 40
1
 40
1
 10
559.068970
 20
276.112575
 30
0.0
 10
557.031630
 20
125.363282
 30
0.0
 10
430.583868
 20
5.938260
 30
0.0
 10
279.834675
 20
7.975600
 30
0.0
  0
SPLINE
  5
18b
100
AcDbEntity
  8
0
 62
7
100
AcDbSpline
 70
8
 71
3
 72
8
 73
4
 74
0
 40
0
 40
0
 40
0
 40
0
 40
1
 40
1
 40
1
 40
1
 10
279.834675
 20
7.975600
 30
0.0
 10
129.085482
 20
10.012940
 30
0.0
 10
7.948640
 20
132.797772
 30
0.0
 10
7.948650
 20
283.560825
 30
0.0
  0
SPLINE
  5
18c
100
AcDbEntity
  8
0
 62
7
100
AcDbSpline
 70
8
 71
3
 72
8
 73
4
 74
0
 40
0
 40
0
 40
0
 40
0
 40
1
 40
1
 40
1
 40
1
 10
7.948650
 20
283.560825
 30
0.0
 10
7.948650
 20
433.719428
 30
0.0
 10
129.676172
 20
555.446730
 30
0.0
 10
279.834675
 20
555.446730
 30
0.0
  0
SPLINE
  5
18d
100
AcDbEntity
  8
0
 62
7
100
AcDbSpline
 70
8
 71
3
 72
8
 73
4
 74
0
 40
0
 40
0
 40
0
 40
0
 40
1
 40
1
 40
1
 40
1
 10
279.834675
 20
555.446730
 30
0.0
 10
429.993168
 20
555.446730
 30
0.0
 10
553.806220
 20
433.704948
 30
0.0
 10
551.720690
 20
283.560825
 30
0.0
  0
LINE
  5
18e
100
AcDbEntity
  8
0
 62
7
100
AcDbLine
 10
551.720690
 20
283.560825
 30
0.0
 11
551.617240
 21
276.112615
 31
0.0
  0
SPLINE
  5
18f
100
AcDbEntity
  8
0
 62
7
100
AcDbSpline
 70
8
 71
3
 72
8
 73
4
 74
0
 40
0
 40
0
 40
0
 40
0
 40
1
 40
1
 40
1
 40
1
 10
551.617240
 20
276.112615
 30
0.0
 10
549.580450
 20
129.477582
 30
0.0
 10
426.469608
 20
13.388430
 30
0.0
 10
279.834675
 20
15.425220
 30
0.0
  0
SPLINE
  5
190
100
AcDbEntity
  8
0
 62
7
100
AcDbSpline
 70
8
 71
3
 72
8
 73
4
 74
0
 40
0
 40
0
 40
0
 40
0
 40
1
 40
1
 40
1
 40
1
 10
279.834675
 20
15.425220
 30
0.0
 10
133.199732
 20
17.462020
 30
0.0
 10
15.397570
 20
136.911652
 30
0.0
 10
15.397580
 20
283.560825
 30
0.0
  0
SPLINE
  5
191
100
AcDbEntity
  8
0
 62
7
100
AcDbSpline
 70
8
 71
3
 72
8
 73
4
 74
0
 40
0
 40
0
 40
0
 40
0
 40
1
 40
1
 40
1
 40
1
 10
15.397580
 20
283.560825
 30
0.0
 10
15.397580
 20
429.605498
 30
0.0
 10
133.790102
 20
547.997800
 30
0.0
 10
279.834675
 20
547.997800
 30
0.0
  0
SPLINE
  5
192
100
AcDbEntity
  8
0
 62
7
100
AcDbSpline
 70
8
 71
3
 72
8
 73
4
 74
0
 40
0
 40
0
 40
0
 40
0
 40
1
 40
1
 40
1
 40
1
 10
279.834675
 20
547.997800
 30
0.0
 10
425.879238
 20
547.997800
 30
0.0
 10
546.358110
 20
429.590598
 30
0.0
 10
544.271760
 20
283.560825
 30
0.0
  0
LINE
  5
193
100
AcDbEntity
  8
0
 62
7
100
AcDbLine
 10
544.271760
 20
283.560825
 30
0.0
 11
544.165350
 21
276.112655
 31
0.0
  0
SPLINE
  5
194
100
AcDbEntity
  8
0
 62
7
100
AcDbSpline
 70
8
 71
3
 72
8
 73
4
 74
0
 40
0
 40
0
 40
0
 40
0
 40
1
 40
1
 40
1
 40
1
 10
544.165350
 20
276.112655
 30
0.0
 10
542.129140
 20
133.591912
 30
0.0
 10
422.355327
 20
20.838710
 30
0.0
 10
279.834675
 20
22.874930
 30
0.0
  0
SPLINE
  5
195
100
AcDbEntity
  8
0
 62
7
100
AcDbSpline
 70
8
 71
3
 72
8
 73
4
 74
0
 40
0
 40
0
 40
0
 40
0
 40
1
 40
1
 40
1
 40
1
 10
279.834675
 20
22.874930
 30
0.0
 10
137.314022
 20
24.911150
 30
0.0
 10
22.842080
 20
141.025542
 30
0.0
 10
22.846510
 20
283.560825
 30
0.0
  0
SPLINE
  5
196
100
AcDbEntity
  8
0
 62
7
100
AcDbSpline
 70
8
 71
3
 72
8
 73
4
 74
0
 40
0
 40
0
 40
0
 40
0
 40
1
 40
1
 40
1
 40
1
 10
22.846510
 20
283.560825
 30
0.0
 10
22.850920
 20
425.485308
 30
0.0
 10
137.910292
 20
540.532840
 30
0.0
 10
279.834675
 20
540.532840
 30
0.0
  0
SPLINE
  5
197
100
AcDbEntity
  8
0
 62
7
100
AcDbSpline
 70
8
 71
3
 72
8
 73
4
 74
0
 40
0
 40
0
 40
0
 40
0
 40
1
 40
1
 40
1
 40
1
 10
279.834675
 20
540.532840
 30
0.0
 10
421.759047
 20
540.532840
 30
0.0
 10
538.909950
 20
425.469958
 30
0.0
 10
536.822829
 20
283.560825
 30
0.0
  0
LINE
  5
198
100
AcDbEntity
  8
0
 62
7
100
AcDbLine
 10
536.822829
 20
283.560825
 30
0.0
 11
536.713289
 21
276.112705
 31
0.0
  0
SPLINE
  5
199
100
AcDbEntity
  8
0
 62
7
100
AcDbSpline
 70
8
 71
3
 72
8
 73
4
 74
0
 40
0
 40
0
 40
0
 40
0
 40
1
 40
1
 40
1
 40
1
 10
536.713289
 20
276.112705
 30
0.0
 10
534.677679
 20
137.706262
 30
0.0
 10
418.241027
 20
28.289040
 30
0.0
 10
279.834675
 20
30.324651
 30
0.0
  0
SPLINE
  5
19a
100
AcDbEntity
  8
0
 62
7
100
AcDbSpline
 70
8
 71
3
 72
8
 73
4
 74
0
 40
0
 40
0
 40
0
 40
0
 40
1
 40
1
 40
1
 40
1
 10
279.834675
 20
30.324651
 30
0.0
 10
141.428322
 20
32.360261
 30
0.0
 10
30.290941
 20
145.139423
 30
0.0
 10
30.295441
 20
283.560825
 30
0.0
  0
SPLINE
  5
19b
100
AcDbEntity
  8
0
 62
7
100
AcDbSpline
 70
8
 71
3
 72
8
 73
4
 74
0
 40
0
 40
0
 40
0
 40
0
 40
1
 40
1
 40
1
 40
1
 10
30.295441
 20
283.560825
 30
0.0
 10
30.299441
 20
421.371457
 30
0.0
 10
142.024133
 20
533.084149
 30
0.0
 10
279.834675
 20
533.084149
 30
0.0
  0
SPLINE
  5
19c
100
AcDbEntity
  8
0
 62
7
100
AcDbSpline
 70
8
 71
3
 72
8
 73
4
 74
0
 40
0
 40
0
 40
0
 40
0
 40
1
 40
1
 40
1
 40
1
 10
279.834675
 20
533.084149
 30
0.0
 10
417.645207
 20
533.084149
 30
0.0
 10
531.461949
 20
421.355637
 30
0.0
 10
529.373899
 20
283.560825
 30
0.0
  0
LINE
  5
19d
100
AcDbEntity
  8
0
 62
7
100
AcDbLine
 10
529.373899
 20
283.560825
 30
0.0
 11
529.261039
 21
276.112745
 31
0.0
  0
SPLINE
  5
19e
100
AcDbEntity
  8
0
 62
7
100
AcDbSpline
 70
8
 71
3
 72
8
 73
4
 74
0
 40
0
 40
0
 40
0
 40
0
 40
1
 40
1
 40
1
 40
1
 10
529.261039
 20
276.112745
 30
0.0
 10
527.226069
 20
141.820633
 30
0.0
 10
414.126697
 20
35.739461
 30
0.0
 10
279.834675
 20
37.774421
 30
0.0
  0
SPLINE
  5
19f
100
AcDbEntity
  8
0
 62
7
100
AcDbSpline
 70
8
 71
3
 72
8
 73
4
 74
0
 40
0
 40
0
 40
0
 40
0
 40
1
 40
1
 40
1
 40
1
 10
279.834675
 20
37.774421
 30
0.0
 10
145.542643
 20
39.809381
 30
0.0
 10
37.739881
 20
149.253293
 30
0.0
 10
37.744381
 20
283.560825
 30
0.0
  0
SPLINE
  5
1a0
100
AcDbEntity
  8
0
 62
7
100
AcDbSpline
 70
8
 71
3
 72
8
 73
4
 74
0
 40
0
 40
0
 40
0
 40
0
 40
1
 40
1
 40
1
 40
1
 10
37.744381
 20
283.560825
 30
0.0
 10
37.748381
 20
417.257617
 30
0.0
 10
146.137973
 20
525.635459
 30
0.0
 10
279.834675
 20
525.635459
 30
0.0
  0
SPLINE
  5
1a1
100
AcDbEntity
  8
0
 62
7
100
AcDbSpline
 70
8
 71
3
 72
8
 73
4
 74
0
 40
0
 40
0
 40
0
 40
0
 40
1
 40
1
 40
1
 40
1
 10
279.834675
 20
525.635459
 30
0.0
 10
413.531367
 20
525.635459
 30
0.0
 10
524.013989
 20
417.241297
 30
0.0
 10
521.924969
 20
283.560825
 30
0.0
  0
LINE
  5
1a2
100
AcDbEntity
  8
0
 62
7
100
AcDbLine
 10
521.924969
 20
283.560825
 30
0.0
 11
521.808579
 21
276.112805
 31
0.0
  0
SPLINE
  5
1a3
100
AcDbEntity
  8
0
 62
7
100
AcDbSpline
 70
8
 71
3
 72
8
 73
4
 74
0
 40
0
 40
0
 40
0
 40
0
 40
1
 40
1
 40
1
 40
1
 10
521.808579
 20
276.112805
 30
0.0
 10
519.774289
 20
145.935033
 30
0.0
 10
410.012357
 20
43.189961
 30
0.0
 10
279.834675
 20
45.224231
 30
0.0
  0
SPLINE
  5
1a4
100
AcDbEntity
  8
0
 62
7
100
AcDbSpline
 70
8
 71
3
 72
8
 73
4
 74
0
 40
0
 40
0
 40
0
 40
0
 40
1
 40
1
 40
1
 40
1
 10
279.834675
 20
45.224231
 30
0.0
 10
149.656983
 20
47.258511
 30
0.0
 10
45.189311
 20
153.367163
 30
0.0
 10
45.193311
 20
283.560825
 30
0.0
  0
SPLINE
  5
1a5
100
AcDbEntity
  8
0
 62
7
100
AcDbSpline
 70
8
 71
3
 72
8
 73
4
 74
0
 40
0
 40
0
 40
0
 40
0
 40
1
 40
1
 40
1
 40
1
 10
45.193311
 20
283.560825
 30
0.0
 10
45.197311
 20
413.143777
 30
0.0
 10
150.251813
 20
518.186769
 30
0.0
 10
279.834675
 20
518.186769
 30
0.0
  0
SPLINE
  5
1a6
100
AcDbEntity
  8
0
 62
7
100
AcDbSpline
 70
8
 71
3
 72
8
 73
4
 74
0
 40
0
 40
0
 40
0
 40
0
 40
1
 40
1
 40
1
 40
1
 10
279.834675
 20
518.186769
 30
0.0
 10
409.417537
 20
518.186769
 30
0.0
 10
516.566009
 20
413.126927
 30
0.0
 10
514.476029
 20
283.560825
 30
0.0
  0
LINE
  5
1a7
100
AcDbEntity
  8
0
 62
7
100
AcDbLine
 10
514.476029
 20
283.560825
 30
0.0
 11
514.355889
 21
276.112865
 31
0.0
  0
SPLINE
  5
1a8
100
AcDbEntity
  8
0
 62
7
100
AcDbSpline
 70
8
 71
3
 72
8
 73
4
 74
0
 40
0
 40
0
 40
0
 40
0
 40
1
 40
1
 40
1
 40
1
 10
514.355889
 20
276.112865
 30
0.0
 10
512.322409
 20
150.049453
 30
0.0
 10
405.897997
 20
50.640541
 30
0.0
 10
279.834675
 20
52.674081
 30
0.0
  0
SPLINE
  5
1a9
100
AcDbEntity
  8
0
 62
7
100
AcDbSpline
 70
8
 71
3
 72
8
 73
4
 74
0
 40
0
 40
0
 40
0
 40
0
 40
1
 40
1
 40
1
 40
1
 10
279.834675
 20
52.674081
 30
0.0
 10
153.771343
 20
54.707631
 30
0.0
 10
52.638241
 20
157.481023
 30
0.0
 10
52.642241
 20
283.560825
 30
0.0
  0
SPLINE
  5
1aa
100
AcDbEntity
  8
0
 62
7
100
AcDbSpline
 70
8
 71
3
 72
8
 73
4
 74
0
 40
0
 40
0
 40
0
 40
0
 40
1
 40
1
 40
1
 40
1
 10
52.642241
 20
283.560825
 30
0.0
 10
52.646241
 20
409.029937
 30
0.0
 10
154.365643
 20
510.738089
 30
0.0
 10
279.834675
 20
510.738089
 30
0.0
  0
SPLINE
  5
1ab
100
AcDbEntity
  8
0
 62
7
100
AcDbSpline
 70
8
 71
3
 72
8
 73
4
 74
0
 40
0
 40
0
 40
0
 40
0
 40
1
 40
1
 40
1
 40
1
 10
279.834675
 20
510.738089
 30
0.0
 10
405.303697
 20
510.738089
 30
0.0
 10
509.118269
 20
409.012507
 30
0.0
 10
507.027099
 20
283.560825
 30
0.0
  0
LINE
  5
1ac
100
AcDbEntity
  8
0
 62
7
100
AcDbLine
 10
507.027099
 20
283.560825
 30
0.0
 11
506.902949
 21
276.112925
 31
0.0
  0
SPLINE
  5
1ad
100
AcDbEntity
  8
0
 62
7
100
AcDbSpline
 70
8
 71
3
 72
8
 73
4
 74
0
 40
0
 40
0
 40
0
 40
0
 40
1
 40
1
 40
1
 40
1
 10
506.902949
 20
276.112925
 30
0.0
 10
504.870169
 20
154.163923
 30
0.0
 10
401.783607
 20
58.091251
 30
0.0
 10
279.834675
 20
60.124021
 30
0.0
  0
SPLINE
  5
1ae
100
AcDbEntity
  8
0
 62
7
100
AcDbSpline
 70
8
 71
3
 72
8
 73
4
 74
0
 40
0
 40
0
 40
0
 40
0
 40
1
 40
1
 40
1
 40
1
 10
279.834675
 20
60.124021
 30
0.0
 10
157.885743
 20
62.156781
 30
0.0
 10
60.087171
 20
161.594883
 30
0.0
 10
60.091171
 20
283.560825
 30
0.0
  0
SPLINE
  5
1af
100
AcDbEntity
  8
0
 62
7
100
AcDbSpline
 70
8
 71
3
 72
8
 73
4
 74
0
 40
0
 40
0
 40
0
 40
0
 40
1
 40
1
 40
1
 40
1
 10
60.091171
 20
283.560825
 30
0.0
 10
60.095171
 20
404.916097
 30
0.0
 10
158.479483
 20
503.289409
 30
0.0
 10
279.834675
 20
503.289409
 30
0.0
  0
SPLINE
  5
1b0
100
AcDbEntity
  8
0
 62
7
100
AcDbSpline
 70
8
 71
3
 72
8
 73
4
 74
0
 40
0
 40
0
 40
0
 40
0
 40
1
 40
1
 40
1
 40
1
 10
279.834675
 20
503.289409
 30
0.0
 10
401.189867
 20
503.289409
 30
0.0
 10
501.670509
 20
404.898057
 30
0.0
 10
499.578169
 20
283.560825
 30
0.0
  0
LINE
  5
1b1
100
AcDbEntity
  8
0
 62
7
100
AcDbLine
 10
499.578169
 20
283.560825
 30
0.0
 11
499.449739
 21
276.113005
 31
0.0
  0
SPLINE
  5
1b2
100
AcDbEntity
  8
0
 62
7
100
AcDbSpline
 70
8
 71
3
 72
8
 73
4
 74
0
 40
0
 40
0
 40
0
 40
0
 40
1
 40
1
 40
1
 40
1
 10
499.449739
 20
276.113005
 30
0.0
 10
497.417799
 20
158.278423
 30
0.0
 10
397.669177
 20
65.542091
 30
0.0
 10
279.834675
 20
67.574021
 30
0.0
  0
SPLINE
  5
1b3
100
AcDbEntity
  8
0
 62
7
100
AcDbSpline
 70
8
 71
3
 72
8
 73
4
 74
0
 40
0
 40
0
 40
0
 40
0
 40
1
 40
1
 40
1
 40
1
 10
279.834675
 20
67.574021
 30
0.0
 10
162.000173
 20
69.605951
 30
0.0
 10
67.536101
 20
165.708733
 30
0.0
 10
67.540101
 20
283.560825
 30
0.0
  0
SPLINE
  5
1b4
100
AcDbEntity
  8
0
 62
7
100
AcDbSpline
 70
8
 71
3
 72
8
 73
4
 74
0
 40
0
 40
0
 40
0
 40
0
 40
1
 40
1
 40
1
 40
1
 10
67.540101
 20
283.560825
 30
0.0
 10
67.544101
 20
400.802267
 30
0.0
 10
162.593313
 20
495.840729
 30
0.0
 10
279.834675
 20
495.840729
 30
0.0
  0
SPLINE
  5
1b5
100
AcDbEntity
  8
0
 62
7
100
AcDbSpline
 70
8
 71
3
 72
8
 73
4
 74
0
 40
0
 40
0
 40
0
 40
0
 40
1
 40
1
 40
1
 40
1
 10
279.834675
 20
495.840729
 30
0.0
 10
397.076027
 20
495.840729
 30
0.0
 10
494.222889
 20
400.783567
 30
0.0
 10
492.129239
 20
283.560825
 30
0.0
  0
LINE
  5
1b6
100
AcDbEntity
  8
0
 62
7
100
AcDbLine
 10
492.129239
 20
283.560825
 30
0.0
 11
491.996219
 21
276.113085
 31
0.0
  0
SPLINE
  5
1b7
100
AcDbEntity
  8
0
 62
7
100
AcDbSpline
 70
8
 71
3
 72
8
 73
4
 74
0
 40
0
 40
0
 40
0
 40
0
 40
1
 40
1
 40
1
 40
1
 10
491.996219
 20
276.113085
 30
0.0
 10
489.965129
 20
162.392973
 30
0.0
 10
393.554707
 20
72.993061
 30
0.0
 10
279.834675
 20
75.024101
 30
0.0
  0
SPLINE
  5
1b8
100
AcDbEntity
  8
0
 62
7
100
AcDbSpline
 70
8
 71
3
 72
8
 73
4
 74
0
 40
0
 40
0
 40
0
 40
0
 40
1
 40
1
 40
1
 40
1
 10
279.834675
 20
75.024101
 30
0.0
 10
166.114633
 20
77.055141
 30
0.0
 10
74.985041
 20
169.822583
 30
0.0
 10
74.989041
 20
283.560825
 30
0.0
  0
SPLINE
  5
1b9
100
AcDbEntity
  8
0
 62
7
100
AcDbSpline
 70
8
 71
3
 72
8
 73
4
 74
0
 40
0
 40
0
 40
0
 40
0
 40
1
 40
1
 40
1
 40
1
 10
74.989041
 20
283.560825
 30
0.0
 10
74.993041
 20
396.688437
 30
0.0
 10
166.707143
 20
488.392059
 30
0.0
 10
279.834675
 20
488.392059
 30
0.0
  0
SPLINE
  5
1ba
100
AcDbEntity
  8
0
 62
7
100
AcDbSpline
 70
8
 71
3
 72
8
 73
4
 74
0
 40
0
 40
0
 40
0
 40
0
 40
1
 40
1
 40
1
 40
1
 10
279.834675
 20
488.392059
 30
0.0
 10
392.962197
 20
488.392059
 30
0.0
 10
486.775369
 20
396.669037
 30
0.0
 10
484.680309
 20
283.560825
 30
0.0
  0
LINE
  5
1bb
100
AcDbEntity
  8
0
 62
7
100
AcDbLine
 10
484.680309
 20
283.560825
 30
0.0
 11
484.542359
 21
276.113175
 31
0.0
  0
SPLINE
  5
1bc
100
AcDbEntity
  8
0
 62
7
100
AcDbSpline
 70
8
 71
3
 72
8
 73
4
 74
0
 40
0
 40
0
 40
0
 40
0
 40
1
 40
1
 40
1
 40
1
 10
484.542359
 20
276.113175
 30
0.0
 10
482.512179
 20
166.507563
 30
0.0
 10
389.440217
 20
80.444161
 30
0.0
 10
279.834675
 20
82.474241
 30
0.0
  0
SPLINE
  5
1bd
100
AcDbEntity
  8
0
 62
7
100
AcDbSpline
 70
8
 71
3
 72
8
 73
4
 74
0
 40
0
 40
0
 40
0
 40
0
 40
1
 40
1
 40
1
 40
1
 10
279.834675
 20
82.474241
 30
0.0
 10
170.229133
 20
84.504321
 30
0.0
 10
82.433961
 20
173.936423
 30
0.0
 10
82.437971
 20
283.560825
 30
0.0
  0
SPLINE
  5
1be
100
AcDbEntity
  8
0
 62
7
100
AcDbSpline
 70
8
 71
3
 72
8
 73
4
 74
0
 40
0
 40
0
 40
0
 40
0
 40
1
 40
1
 40
1
 40
1
 10
82.437971
 20
283.560825
 30
0.0
 10
82.441971
 20
392.574597
 30
0.0
 10
170.820973
 20
480.943388
 30
0.0
 10
279.834675
 20
480.943388
 30
0.0
  0
SPLINE
  5
1bf
100
AcDbEntity
  8
0
 62
7
100
AcDbSpline
 70
8
 71
3
 72
8
 73
4
 74
0
 40
0
 40
0
 40
0
 40
0
 40
1
 40
1
 40
1
 40
1
 10
279.834675
 20
480.943388
 30
0.0
 10
388.848367
 20
480.943388
 30
0.0
 10
479.327818
 20
392.554437
 30
0.0
 10
477.231378
 20
283.560825
 30
0.0
  0
LINE
  5
1c0
100
AcDbEntity
  8
0
 62
7
100
AcDbLine
 10
477.231378
 20
283.560825
 30
0.0
 11
477.088128
 21
276.113275
 31
0.0
  0
SPLINE
  5
1c1
100
AcDbEntity
  8
0
 62
7
100
AcDbSpline
 70
8
 71
3
 72
8
 73
4
 74
0
 40
0
 40
0
 40
0
 40
0
 40
1
 40
1
 40
1
 40
1
 10
477.088128
 20
276.113275
 30
0.0
 10
475.059058
 20
170.622213
 30
0.0
 10
385.325667
 20
87.895462
 30
0.0
 10
279.834675
 20
89.924512
 30
0.0
  0
SPLINE
  5
1c2
100
AcDbEntity
  8
0
 62
7
100
AcDbSpline
 70
8
 71
3
 72
8
 73
4
 74
0
 40
0
 40
0
 40
0
 40
0
 40
1
 40
1
 40
1
 40
1
 10
279.834675
 20
89.924512
 30
0.0
 10
174.343683
 20
91.953562
 30
0.0
 10
89.882902
 20
178.050263
 30
0.0
 10
89.886902
 20
283.560825
 30
0.0
  0
SPLINE
  5
1c3
100
AcDbEntity
  8
0
 62
7
100
AcDbSpline
 70
8
 71
3
 72
8
 73
4
 74
0
 40
0
 40
0
 40
0
 40
0
 40
1
 40
1
 40
1
 40
1
 10
89.886902
 20
283.560825
 30
0.0
 10
89.890902
 20
388.460767
 30
0.0
 10
174.934803
 20
473.494728
 30
0.0
 10
279.834675
 20
473.494728
 30
0.0
  0
SPLINE
  5
1c4
100
AcDbEntity
  8
0
 62
7
100
AcDbSpline
 70
8
 71
3
 72
8
 73
4
 74
0
 40
0
 40
0
 40
0
 40
0
 40
1
 40
1
 40
1
 40
1
 10
279.834675
 20
473.494728
 30
0.0
 10
384.734547
 20
473.494728
 30
0.0
 10
471.880458
 20
388.439787
 30
0.0
 10
469.782438
 20
283.560825
 30
0.0
  0
LINE
  5
1c5
100
AcDbEntity
  8
0
 62
7
100
AcDbLine
 10
469.782438
 20
283.560825
 30
0.0
 11
469.633458
 21
276.113385
 31
0.0
  0
SPLINE
  5
1c6
100
AcDbEntity
  8
0
 62
7
100
AcDbSpline
 70
8
 71
3
 72
8
 73
4
 74
0
 40
0
 40
0
 40
0
 40
0
 40
1
 40
1
 40
1
 40
1
 10
469.633458
 20
276.113385
 30
0.0
 10
467.605508
 20
174.736923
 30
0.0
 10
381.211077
 20
95.346942
 30
0.0
 10
279.834675
 20
97.374872
 30
0.0
  0
SPLINE
  5
1c7
100
AcDbEntity
  8
0
 62
7
100
AcDbSpline
 70
8
 71
3
 72
8
 73
4
 74
0
 40
0
 40
0
 40
0
 40
0
 40
1
 40
1
 40
1
 40
1
 10
279.834675
 20
97.374872
 30
0.0
 10
178.458273
 20
99.402812
 30
0.0
 10
97.332332
 20
182.164083
 30
0.0
 10
97.335832
 20
283.560825
 30
0.0
  0
SPLINE
  5
1c8
100
AcDbEntity
  8
0
 62
7
100
AcDbSpline
 70
8
 71
3
 72
8
 73
4
 74
0
 40
0
 40
0
 40
0
 40
0
 40
1
 40
1
 40
1
 40
1
 10
97.335832
 20
283.560825
 30
0.0
 10
97.338832
 20
384.346947
 30
0.0
 10
179.048623
 20
466.046078
 30
0.0
 10
279.834675
 20
466.046078
 30
0.0
  0
SPLINE
  5
1c9
100
AcDbEntity
  8
0
 62
7
100
AcDbSpline
 70
8
 71
3
 72
8
 73
4
 74
0
 40
0
 40
0
 40
0
 40
0
 40
1
 40
1
 40
1
 40
1
 10
279.834675
 20
466.046078
 30
0.0
 10
380.620717
 20
466.046078
 30
0.0
 10
464.433278
 20
384.325067
 30
0.0
 10
462.333508
 20
283.560825
 30
0.0
  0
LINE
  5
1ca
100
AcDbEntity
  8
0
 62
7
100
AcDbLine
 10
462.333508
 20
283.560825
 30
0.0
 11
462.178318
 21
276.113515
 31
0.0
  0
SPLINE
  5
1cb
100
AcDbEntity
  8
0
 62
7
100
AcDbSpline
 70
8
 71
3
 72
8
 73
4
 74
0
 40
0
 40
0
 40
0
 40
0
 40
1
 40
1
 40
1
 40
1
 10
462.178318
 20
276.113515
 30
0.0
 10
460.151538
 20
178.851703
 30
0.0
 10
377.096427
 20
102.798612
 30
0.0
 10
279.834675
 20
104.825342
 30
0.0
  0
SPLINE
  5
1cc
100
AcDbEntity
  8
0
 62
7
100
AcDbSpline
 70
8
 71
3
 72
8
 73
4
 74
0
 40
0
 40
0
 40
0
 40
0
 40
1
 40
1
 40
1
 40
1
 10
279.834675
 20
104.825342
 30
0.0
 10
182.572923
 20
106.852072
 30
0.0
 10
104.781262
 20
186.277903
 30
0.0
 10
104.784762
 20
283.560825
 30
0.0
  0
SPLINE
  5
1cd
100
AcDbEntity
  8
0
 62
7
100
AcDbSpline
 70
8
 71
3
 72
8
 73
4
 74
0
 40
0
 40
0
 40
0
 40
0
 40
1
 40
1
 40
1
 40
1
 10
104.784762
 20
283.560825
 30
0.0
 10
104.787762
 20
380.233117
 30
0.0
 10
183.162443
 20
458.597428
 30
0.0
 10
279.834675
 20
458.597428
 30
0.0
  0
SPLINE
  5
1ce
100
AcDbEntity
  8
0
 62
7
100
AcDbSpline
 70
8
 71
3
 72
8
 73
4
 74
0
 40
0
 40
0
 40
0
 40
0
 40
1
 40
1
 40
1
 40
1
 10
279.834675
 20
458.597428
 30
0.0
 10
376.506897
 20
458.597428
 30
0.0
 10
456.986108
 20
380.210277
 30
0.0
 10
454.884578
 20
283.560825
 30
0.0
  0
LINE
  5
1cf
100
AcDbEntity
  8
0
 62
7
100
AcDbLine
 10
454.884578
 20
283.560825
 30
0.0
 11
454.722648
 21
276.113655
 31
0.0
  0
SPLINE
  5
1d0
100
AcDbEntity
  8
0
 62
7
100
AcDbSpline
 70
8
 71
3
 72
8
 73
4
 74
0
 40
0
 40
0
 40
0
 40
0
 40
1
 40
1
 40
1
 40
1
 10
454.722648
 20
276.113655
 30
0.0
 10
452.697278
 20
182.966543
 30
0.0
 10
372.981717
 20
110.250542
 30
0.0
 10
279.834675
 20
112.275952
 30
0.0
  0
SPLINE
  5
1d1
100
AcDbEntity
  8
0
 62
7
100
AcDbSpline
 70
8
 71
3
 72
8
 73
4
 74
0
 40
0
 40
0
 40
0
 40
0
 40
1
 40
1
 40
1
 40
1
 10
279.834675
 20
112.275952
 30
0.0
 10
186.687623
 20
114.301372
 30
0.0
 10
112.230192
 20
190.391703
 30
0.0
 10
112.233702
 20
283.560825
 30
0.0
  0
SPLINE
  5
1d2
100
AcDbEntity
  8
0
 62
7
100
AcDbSpline
 70
8
 71
3
 72
8
 73
4
 74
0
 40
0
 40
0
 40
0
 40
0
 40
1
 40
1
 40
1
 40
1
 10
112.233702
 20
283.560825
 30
0.0
 10
112.236702
 20
376.119297
 30
0.0
 10
187.276263
 20
451.148778
 30
0.0
 10
279.834675
 20
451.148778
 30
0.0
  0
SPLINE
  5
1d3
100
AcDbEntity
  8
0
 62
7
100
AcDbSpline
 70
8
 71
3
 72
8
 73
4
 74
0
 40
0
 40
0
 40
0
 40
0
 40
1
 40
1
 40
1
 40
1
 10
279.834675
 20
451.148778
 30
0.0
 10
372.393077
 20
451.148778
 30
0.0
 10
449.539328
 20
376.095387
 30
0.0
 10
447.435648
 20
283.560825
 30
0.0
  0
LINE
  5
1d4
100
AcDbEntity
  8
0
 62
7
100
AcDbLine
 10
447.435648
 20
283.560825
 30
0.0
 11
447.266348
 21
276.113815
 31
0.0
  0
SPLINE
  5
1d5
100
AcDbEntity
  8
0
 62
7
100
AcDbSpline
 70
8
 71
3
 72
8
 73
4
 74
0
 40
0
 40
0
 40
0
 40
0
 40
1
 40
1
 40
1
 40
1
 10
447.266348
 20
276.113815
 30
0.0
 10
445.242288
 20
187.081493
 30
0.0
 10
368.866957
 20
117.702702
 30
0.0
 10
279.834675
 20
119.726692
 30
0.0
  0
SPLINE
  5
1d6
100
AcDbEntity
  8
0
 62
7
100
AcDbSpline
 70
8
 71
3
 72
8
 73
4
 74
0
 40
0
 40
0
 40
0
 40
0
 40
1
 40
1
 40
1
 40
1
 10
279.834675
 20
119.726692
 30
0.0
 10
190.802393
 20
121.750672
 30
0.0
 10
119.682622
 20
194.505493
 30
0.0
 10
119.682632
 20
283.560825
 30
0.0
  0
SPLINE
  5
1d7
100
AcDbEntity
  8
0
 62
7
100
AcDbSpline
 70
8
 71
3
 72
8
 73
4
 74
0
 40
0
 40
0
 40
0
 40
0
 40
1
 40
1
 40
1
 40
1
 10
119.682632
 20
283.560825
 30
0.0
 10
119.682632
 20
372.010417
 30
0.0
 10
191.385143
 20
443.712798
 30
0.0
 10
279.834675
 20
443.712798
 30
0.0
  0
SPLINE
  5
1d8
100
AcDbEntity
  8
0
 62
7
100
AcDbSpline
 70
8
 71
3
 72
8
 73
4
 74
0
 40
0
 40
0
 40
0
 40
0
 40
1
 40
1
 40
1
 40
1
 10
279.834675
 20
443.712798
 30
0.0
 10
368.284196
 20
443.712798
 30
0.0
 10
442.092658
 20
371.985337
 30
0.0
 10
439.986708
 20
283.560825
 30
0.0
  0
LINE
  5
1d9
100
AcDbEntity
  8
0
 62
7
100
AcDbLine
 10
439.986708
 20
283.560825
 30
0.0
 11
439.809358
 21
276.114005
 31
0.0
  0
SPLINE
  5
1da
100
AcDbEntity
  8
0
 62
7
100
AcDbSpline
 70
8
 71
3
 72
8
 73
4
 74
0
 40
0
 40
0
 40
0
 40
0
 40
1
 40
1
 40
1
 40
1
 10
439.809358
 20
276.114005
 30
0.0
 10
437.787008
 20
191.196533
 30
0.0
 10
364.752086
 20
125.155222
 30
0.0
 10
279.834675
 20
127.177642
 30
0.0
  0
SPLINE
  5
1db
100
AcDbEntity
  8
0
 62
7
100
AcDbSpline
 70
8
 71
3
 72
8
 73
4
 74
0
 40
0
 40
0
 40
0
 40
0
 40
1
 40
1
 40
1
 40
1
 10
279.834675
 20
127.177642
 30
0.0
 10
194.917253
 20
129.200062
 30
0.0
 10
127.131552
 20
198.619284
 30
0.0
 10
127.131562
 20
283.560825
 30
0.0
  0
SPLINE
  5
1dc
100
AcDbEntity
  8
0
 62
7
100
AcDbSpline
 70
8
 71
3
 72
8
 73
4
 74
0
 40
0
 40
0
 40
0
 40
0
 40
1
 40
1
 40
1
 40
1
 10
127.131562
 20
283.560825
 30
0.0
 10
127.131562
 20
367.896486
 30
0.0
 10
195.499073
 20
436.263868
 30
0.0
 10
279.834675
 20
436.263868
 30
0.0
  0
SPLINE
  5
1dd
100
AcDbEntity
  8
0
 62
7
100
AcDbSpline
 70
8
 71
3
 72
8
 73
4
 74
0
 40
0
 40
0
 40
0
 40
0
 40
1
 40
1
 40
1
 40
1
 10
279.834675
 20
436.263868
 30
0.0
 10
364.170266
 20
436.263868
 30
0.0
 10
434.646178
 20
367.870126
 30
0.0
 10
432.537778
 20
283.560825
 30
0.0
  0
LINE
  5
1de
100
AcDbEntity
  8
0
 62
7
100
AcDbLine
 10
432.537778
 20
283.560825
 30
0.0
 11
432.351558
 21
276.114225
 31
0.0
  0
SPLINE
  5
1df
100
AcDbEntity
  8
0
 62
7
100
AcDbSpline
 70
8
 71
3
 72
8
 73
4
 74
0
 40
0
 40
0
 40
0
 40
0
 40
1
 40
1
 40
1
 40
1
 10
432.351558
 20
276.114225
 30
0.0
 10
430.330898
 20
195.311713
 30
0.0
 10
360.637136
 20
132.608102
 30
0.0
 10
279.834675
 20
134.628792
 30
0.0
  0
SPLINE
  5
1e0
100
AcDbEntity
  8
0
 62
7
100
AcDbSpline
 70
8
 71
3
 72
8
 73
4
 74
0
 40
0
 40
0
 40
0
 40
0
 40
1
 40
1
 40
1
 40
1
 10
279.834675
 20
134.628792
 30
0.0
 10
199.032214
 20
136.649482
 30
0.0
 10
134.580492
 20
202.733054
 30
0.0
 10
134.580492
 20
283.560825
 30
0.0
  0
SPLINE
  5
1e1
100
AcDbEntity
  8
0
 62
7
100
AcDbSpline
 70
8
 71
3
 72
8
 73
4
 74
0
 40
0
 40
0
 40
0
 40
0
 40
1
 40
1
 40
1
 40
1
 10
134.580492
 20
283.560825
 30
0.0
 10
134.580492
 20
363.782546
 30
0.0
 10
199.613004
 20
428.814938
 30
0.0
 10
279.834675
 20
428.814938
 30
0.0
  0
SPLINE
  5
1e2
100
AcDbEntity
  8
0
 62
7
100
AcDbSpline
 70
8
 71
3
 72
8
 73
4
 74
0
 40
0
 40
0
 40
0
 40
0
 40
1
 40
1
 40
1
 40
1
 10
279.834675
 20
428.814938
 30
0.0
 10
360.056336
 20
428.814938
 30
0.0
 10
427.199948
 20
363.754766
 30
0.0
 10
425.088847
 20
283.560825
 30
0.0
  0
LINE
  5
1e3
100
AcDbEntity
  8
0
 62
7
100
AcDbLine
 10
425.088847
 20
283.560825
 30
0.0
 11
424.892827
 21
276.114475
 31
0.0
  0
SPLINE
  5
1e4
100
AcDbEntity
  8
0
 62
7
100
AcDbSpline
 70
8
 71
3
 72
8
 73
4
 74
0
 40
0
 40
0
 40
0
 40
0
 40
1
 40
1
 40
1
 40
1
 10
424.892827
 20
276.114475
 30
0.0
 10
422.874027
 20
199.427024
 30
0.0
 10
356.522076
 20
140.061382
 30
0.0
 10
279.834675
 20
142.080173
 30
0.0
  0
SPLINE
  5
1e5
100
AcDbEntity
  8
0
 62
7
100
AcDbSpline
 70
8
 71
3
 72
8
 73
4
 74
0
 40
0
 40
0
 40
0
 40
0
 40
1
 40
1
 40
1
 40
1
 10
279.834675
 20
142.080173
 30
0.0
 10
203.147264
 20
144.098963
 30
0.0
 10
142.029423
 20
206.846804
 30
0.0
 10
142.029423
 20
283.560825
 30
0.0
  0
SPLINE
  5
1e6
100
AcDbEntity
  8
0
 62
7
100
AcDbSpline
 70
8
 71
3
 72
8
 73
4
 74
0
 40
0
 40
0
 40
0
 40
0
 40
1
 40
1
 40
1
 40
1
 10
142.029423
 20
283.560825
 30
0.0
 10
142.029423
 20
359.668616
 30
0.0
 10
203.726934
 20
421.366007
 30
0.0
 10
279.834675
 20
421.366007
 30
0.0
  0
SPLINE
  5
1e7
100
AcDbEntity
  8
0
 62
7
100
AcDbSpline
 70
8
 71
3
 72
8
 73
4
 74
0
 40
0
 40
0
 40
0
 40
0
 40
1
 40
1
 40
1
 40
1
 10
279.834675
 20
421.366007
 30
0.0
 10
355.942406
 20
421.366007
 30
0.0
 10
419.754027
 20
359.639246
 30
0.0
 10
417.639917
 20
283.560825
 30
0.0
  0
LINE
  5
1e8
100
AcDbEntity
  8
0
 62
7
100
AcDbLine
 10
417.639917
 20
283.560825
 30
0.0
 11
417.432997
 21
276.114765
 31
0.0
  0
SPLINE
  5
1e9
100
AcDbEntity
  8
0
 62
7
100
AcDbSpline
 70
8
 71
3
 72
8
 73
4
 74
0
 40
0
 40
0
 40
0
 40
0
 40
1
 40
1
 40
1
 40
1
 10
417.432997
 20
276.114765
 30
0.0
 10
415.416327
 20
203.542504
 30
0.0
 10
352.406896
 20
147.515143
 30
0.0
 10
279.834675
 20
149.531823
 30
0.0
  0
SPLINE
  5
1ea
100
AcDbEntity
  8
0
 62
7
100
AcDbSpline
 70
8
 71
3
 72
8
 73
4
 74
0
 40
0
 40
0
 40
0
 40
0
 40
1
 40
1
 40
1
 40
1
 10
279.834675
 20
149.531823
 30
0.0
 10
207.262444
 20
151.548493
 30
0.0
 10
149.478353
 20
210.960544
 30
0.0
 10
149.478363
 20
283.560825
 30
0.0
  0
SPLINE
  5
1eb
100
AcDbEntity
  8
0
 62
7
100
AcDbSpline
 70
8
 71
3
 72
8
 73
4
 74
0
 40
0
 40
0
 40
0
 40
0
 40
1
 40
1
 40
1
 40
1
 10
149.478363
 20
283.560825
 30
0.0
 10
149.478363
 20
355.554676
 30
0.0
 10
207.840874
 20
413.917077
 30
0.0
 10
279.834675
 20
413.917077
 30
0.0
  0
SPLINE
  5
1ec
100
AcDbEntity
  8
0
 62
7
100
AcDbSpline
 70
8
 71
3
 72
8
 73
4
 74
0
 40
0
 40
0
 40
0
 40
0
 40
1
 40
1
 40
1
 40
1
 10
279.834675
 20
413.917077
 30
0.0
 10
351.828476
 20
413.917077
 30
0.0
 10
412.308457
 20
355.523536
 30
0.0
 10
410.190987
 20
283.560825
 30
0.0
  0
LINE
  5
1ed
100
AcDbEntity
  8
0
 62
7
100
AcDbLine
 10
410.190987
 20
283.560825
 30
0.0
 11
409.971897
 21
276.115115
 31
0.0
  0
SPLINE
  5
1ee
100
AcDbEntity
  8
0
 62
7
100
AcDbSpline
 70
8
 71
3
 72
8
 73
4
 74
0
 40
0
 40
0
 40
0
 40
0
 40
1
 40
1
 40
1
 40
1
 10
409.971897
 20
276.115115
 30
0.0
 10
407.957577
 20
207.658184
 30
0.0
 10
348.291566
 20
154.969493
 30
0.0
 10
279.834675
 20
156.983803
 30
0.0
  0
SPLINE
  5
1ef
100
AcDbEntity
  8
0
 62
7
100
AcDbSpline
 70
8
 71
3
 72
8
 73
4
 74
0
 40
0
 40
0
 40
0
 40
0
 40
1
 40
1
 40
1
 40
1
 10
279.834675
 20
156.983803
 30
0.0
 10
211.377774
 20
158.998113
 30
0.0
 10
156.927293
 20
215.074264
 30
0.0
 10
156.927293
 20
283.560825
 30
0.0
  0
SPLINE
  5
1f0
100
AcDbEntity
  8
0
 62
7
100
AcDbSpline
 70
8
 71
3
 72
8
 73
4
 74
0
 40
0
 40
0
 40
0
 40
0
 40
1
 40
1
 40
1
 40
1
 10
156.927293
 20
283.560825
 30
0.0
 10
156.927293
 20
351.440746
 30
0.0
 10
211.954804
 20
406.468157
 30
0.0
 10
279.834675
 20
406.468157
 30
0.0
  0
SPLINE
  5
1f1
100
AcDbEntity
  8
0
 62
7
100
AcDbSpline
 70
8
 71
3
 72
8
 73
4
 74
0
 40
0
 40
0
 40
0
 40
0
 40
1
 40
1
 40
1
 40
1
 10
279.834675
 20
406.468157
 30
0.0
 10
347.714546
 20
406.468157
 30
0.0
 10
404.863297
 20
351.407596
 30
0.0
 10
402.742057
 20
283.560825
 30
0.0
  0
LINE
  5
1f2
100
AcDbEntity
  8
0
 62
7
100
AcDbLine
 10
402.742057
 20
283.560825
 30
0.0
 11
402.509277
 21
276.115535
 31
0.0
  0
SPLINE
  5
1f3
100
AcDbEntity
  8
0
 62
7
100
AcDbSpline
 70
8
 71
3
 72
8
 73
4
 74
0
 40
0
 40
0
 40
0
 40
0
 40
1
 40
1
 40
1
 40
1
 10
402.509277
 20
276.115535
 30
0.0
 10
400.497617
 20
211.774094
 30
0.0
 10
344.176076
 20
162.424493
 30
0.0
 10
279.834675
 20
164.436143
 30
0.0
  0
SPLINE
  5
1f4
100
AcDbEntity
  8
0
 62
7
100
AcDbSpline
 70
8
 71
3
 72
8
 73
4
 74
0
 40
0
 40
0
 40
0
 40
0
 40
1
 40
1
 40
1
 40
1
 10
279.834675
 20
164.436143
 30
0.0
 10
215.493264
 20
166.447793
 30
0.0
 10
164.376213
 20
219.187944
 30
0.0
 10
164.376223
 20
283.560825
 30
0.0
  0
SPLINE
  5
1f5
100
AcDbEntity
  8
0
 62
7
100
AcDbSpline
 70
8
 71
3
 72
8
 73
4
 74
0
 40
0
 40
0
 40
0
 40
0
 40
1
 40
1
 40
1
 40
1
 10
164.376223
 20
283.560825
 30
0.0
 10
164.376223
 20
347.326806
 30
0.0
 10
216.068734
 20
399.019227
 30
0.0
 10
279.834675
 20
399.019227
 30
0.0
  0
SPLINE
  5
1f6
100
AcDbEntity
  8
0
 62
7
100
AcDbSpline
 70
8
 71
3
 72
8
 73
4
 74
0
 40
0
 40
0
 40
0
 40
0
 40
1
 40
1
 40
1
 40
1
 10
279.834675
 20
399.019227
 30
0.0
 10
343.600606
 20
399.019227
 30
0.0
 10
397.418657
 20
347.291376
 30
0.0
 10
395.293117
 20
283.560825
 30
0.0
  0
SPLINE
  5
1f7
100
AcDbEntity
  8
0
 62
7
100
AcDbSpline
 70
8
 71
3
 72
8
 73
4
 74
0
 40
0
 40
0
 40
0
 40
0
 40
1
 40
1
 40
1
 40
1
 10
395.293117
 20
283.560825
 30
0.0
 10
395.210317
 20
281.079225
 30
0.0
 10
395.044817
 20
276.116035
 30
0.0
 10
395.044817
 20
276.116035
 30
0.0
  0
SPLINE
  5
1f8
100
AcDbEntity
  8
0
 62
7
100
AcDbSpline
 70
8
 71
3
 72
8
 73
4
 74
0
 40
0
 40
0
 40
0
 40
0
 40
1
 40
1
 40
1
 40
1
 10
395.044817
 20
276.116035
 30
0.0
 10
393.036177
 20
215.890304
 30
0.0
 10
340.060376
 20
169.880323
 30
0.0
 10
279.834675
 20
171.888963
 30
0.0
  0
SPLINE
  5
1f9
100
AcDbEntity
  8
0
 62
7
100
AcDbSpline
 70
8
 71
3
 72
8
 73
4
 74
0
 40
0
 40
0
 40
0
 40
0
 40
1
 40
1
 40
1
 40
1
 10
279.834675
 20
171.888963
 30
0.0
 10
219.608974
 20
173.897603
 30
0.0
 10
171.825153
 20
223.301604
 30
0.0
 10
171.825153
 20
283.560825
 30
0.0
  0
SPLINE
  5
1fa
100
AcDbEntity
  8
0
 62
7
100
AcDbSpline
 70
8
 71
3
 72
8
 73
4
 74
0
 40
0
 40
0
 40
0
 40
0
 40
1
 40
1
 40
1
 40
1
 10
171.825153
 20
283.560825
 30
0.0
 10
171.825153
 20
343.212876
 30
0.0
 10
220.182664
 20
391.570297
 30
0.0
 10
279.834675
 20
391.570297
 30
0.0
  0
SPLINE
  5
1fb
100
AcDbEntity
  8
0
 62
7
100
AcDbSpline
 70
8
 71
3
 72
8
 73
4
 74
0
 40
0
 40
0
 40
0
 40
0
 40
1
 40
1
 40
1
 40
1
 10
279.834675
 20
391.570297
 30
0.0
 10
339.486676
 20
391.570297
 30
0.0
 10
389.974627
 20
343.174816
 30
0.0
 10
387.844187
 20
283.560825
 30
0.0
  0
LINE
  5
1fc
100
AcDbEntity
  8
0
 62
7
100
AcDbLine
 10
387.844187
 20
283.560825
 30
0.0
 11
387.578157
 21
276.116645
 31
0.0
  0
SPLINE
  5
1fd
100
AcDbEntity
  8
0
 62
7
100
AcDbSpline
 70
8
 71
3
 72
8
 73
4
 74
0
 40
0
 40
0
 40
0
 40
0
 40
1
 40
1
 40
1
 40
1
 10
387.578157
 20
276.116645
 30
0.0
 10
385.572947
 20
220.006874
 30
0.0
 10
335.944416
 20
177.337133
 30
0.0
 10
279.834675
 20
179.342333
 30
0.0
  0
SPLINE
  5
1fe
100
AcDbEntity
  8
0
 62
7
100
AcDbSpline
 70
8
 71
3
 72
8
 73
4
 74
0
 40
0
 40
0
 40
0
 40
0
 40
1
 40
1
 40
1
 40
1
 10
279.834675
 20
179.342333
 30
0.0
 10
223.724924
 20
181.347533
 30
0.0
 10
179.274083
 20
227.415234
 30
0.0
 10
179.274083
 20
283.560825
 30
0.0
  0
SPLINE
  5
1ff
100
AcDbEntity
  8
0
 62
7
100
AcDbSpline
 70
8
 71
3
 72
8
 73
4
 74
0
 40
0
 40
0
 40
0
 40
0
 40
1
 40
1
 40
1
 40
1
 10
179.274083
 20
283.560825
 30
0.0
 10
179.274083
 20
340.041696
 30
0.0
 10
225.849474
 20
387.239847
 30
0.0
 10
282.242585
 20
384.092577
 30
0.0
  0
SPLINE
  5
200
100
AcDbEntity
  8
0
 62
7
100
AcDbSpline
 70
8
 71
3
 72
8
 73
4
 74
0
 40
0
 40
0
 40
0
 40
0
 40
1
 40
1
 40
1
 40
1
 10
282.242585
 20
384.092577
 30
0.0
 10
304.678985
 20
382.840417
 30
0.0
 10
322.604046
 20
364.621196
 30
0.0
 10
327.776156
 20
342.753206
 30
0.0
  0
SPLINE
  5
201
100
AcDbEntity
  8
0
 62
7
100
AcDbSpline
 70
8
 71
3
 72
8
 73
4
 74
0
 40
0
 40
0
 40
0
 40
0
 40
1
 40
1
 40
1
 40
1
 10
327.776156
 20
342.753206
 30
0.0
 10
332.948276
 20
320.885216
 30
0.0
 10
324.128926
 20
298.089135
 30
0.0
 10
305.585815
 20
285.396085
 30
0.0
  0
SPLINE
  5
202
100
AcDbEntity
  8
0
 62
7
100
AcDbSpline
 70
8
 71
3
 72
8
 73
4
 74
0
 40
0
 40
0
 40
0
 40
0
 40
1
 40
1
 40
1
 40
1
 10
305.585815
 20
285.396085
 30
0.0
 10
307.582195
 20
273.608575
 30
0.0
 10
299.946665
 20
262.337485
 30
0.0
 10
288.264135
 20
259.820665
 30
0.0
  0
SPLINE
  5
203
100
AcDbEntity
  8
0
 62
7
100
AcDbSpline
 70
8
 71
3
 72
8
 73
4
 74
0
 40
0
 40
0
 40
0
 40
0
 40
1
 40
1
 40
1
 40
1
 10
288.264135
 20
259.820665
 30
0.0
 10
276.582065
 20
257.303945
 30
0.0
 10
264.995505
 20
264.433495
 30
0.0
 10
261.960045
 20
275.995725
 30
0.0
  0
SPLINE
  5
204
100
AcDbEntity
  8
0
 62
7
100
AcDbSpline
 70
8
 71
3
 72
8
 73
4
 74
0
 40
0
 40
0
 40
0
 40
0
 40
1
 40
1
 40
1
 40
1
 10
261.960045
 20
275.995725
 30
0.0
 10
258.924595
 20
287.557955
 30
0.0
 10
265.514885
 20
299.459505
 30
0.0
 10
276.926695
 20
303.005665
 30
0.0
  0
SPLINE
  5
205
100
AcDbEntity
  8
0
 62
7
100
AcDbSpline
 70
8
 71
3
 72
8
 73
4
 74
0
 40
0
 40
0
 40
0
 40
0
 40
1
 40
1
 40
1
 40
1
 10
276.926695
 20
303.005665
 30
0.0
 10
288.338955
 20
306.551965
 30
0.0
 10
300.526275
 20
300.485005
 30
0.0
 10
304.577475
 20
289.236945
 30
0.0
  0
SPLINE
  5
206
100
AcDbEntity
  8
0
 62
7
100
AcDbSpline
 70
8
 71
3
 72
8
 73
4
 74
0
 40
0
 40
0
 40
0
 40
0
 40
1
 40
1
 40
1
 40
1
 10
304.577475
 20
289.236945
 30
0.0
 10
320.794566
 20
301.103375
 30
0.0
 10
328.530306
 20
321.387646
 30
0.0
 10
324.333186
 20
341.039366
 30
0.0
  0
SPLINE
  5
207
100
AcDbEntity
  8
0
 62
7
100
AcDbSpline
 70
8
 71
3
 72
8
 73
4
 74
0
 40
0
 40
0
 40
0
 40
0
 40
1
 40
1
 40
1
 40
1
 10
324.333186
 20
341.039366
 30
0.0
 10
320.136066
 20
360.691096
 30
0.0
 10
305.141035
 20
378.321467
 30
0.0
 10
285.139005
 20
380.251557
 30
0.0
  0
LINE
  5
208
100
AcDbEntity
  8
0
 62
7
100
AcDbLine
 10
285.139005
 20
380.251557
 30
0.0
 11
285.139005
 21
380.251557
 31
0.0
  0
ENDSEC
  0
SECTION
  2
OBJECTS
  0
DICTIONARY
  5
C
330
0
100
AcDbDictionary
  3
ACAD_GROUP
350
D
  3
ACAD_MLINESTYLE
350
17
  0
DICTIONARY
  5
D
330
C
100
AcDbDictionary
  0
DICTIONARY
  5
1A
330
C
100
AcDbDictionary
  0
DICTIONARY
  5
17
330
C
100
AcDbDictionary
  3
STANDARD
350
18
  0
DICTIONARY
  5
19
330
C
100
AcDbDictionary
  0
ENDSEC
  0
EOF
