%TF.GenerationSoftware,KiCad,Pcbnew,8.0.7*%
%TF.CreationDate,2025-10-03T17:15:42+05:30*%
%TF.ProjectId,ESP8266_PLC,45535038-3236-4365-9f50-4c432e6b6963,rev?*%
%TF.SameCoordinates,Original*%
%TF.FileFunction,Copper,L2,Bot*%
%TF.FilePolarity,Positive*%
%FSLAX46Y46*%
G04 Gerber Fmt 4.6, Leading zero omitted, Abs format (unit mm)*
G04 Created by KiCad (PCBNEW 8.0.7) date 2025-10-03 17:15:42*
%MOMM*%
%LPD*%
G01*
G04 APERTURE LIST*
%TA.AperFunction,ComponentPad*%
%ADD10R,1.600000X1.600000*%
%TD*%
%TA.AperFunction,ComponentPad*%
%ADD11C,1.600000*%
%TD*%
%TA.AperFunction,ComponentPad*%
%ADD12C,2.600000*%
%TD*%
%TA.AperFunction,ConnectorPad*%
%ADD13C,3.800000*%
%TD*%
%TA.AperFunction,ComponentPad*%
%ADD14R,3.000000X3.000000*%
%TD*%
%TA.AperFunction,ComponentPad*%
%ADD15C,3.000000*%
%TD*%
%TA.AperFunction,ComponentPad*%
%ADD16R,1.200000X1.200000*%
%TD*%
%TA.AperFunction,ComponentPad*%
%ADD17C,1.200000*%
%TD*%
%TA.AperFunction,ComponentPad*%
%ADD18O,1.800000X1.800000*%
%TD*%
%TA.AperFunction,ComponentPad*%
%ADD19R,1.800000X1.800000*%
%TD*%
%TA.AperFunction,ComponentPad*%
%ADD20R,1.700000X1.700000*%
%TD*%
%TA.AperFunction,ComponentPad*%
%ADD21O,1.700000X1.700000*%
%TD*%
%TA.AperFunction,ComponentPad*%
%ADD22C,1.500000*%
%TD*%
%TA.AperFunction,ComponentPad*%
%ADD23O,2.100000X1.000000*%
%TD*%
%TA.AperFunction,ComponentPad*%
%ADD24O,1.800000X1.000000*%
%TD*%
%TA.AperFunction,ViaPad*%
%ADD25C,1.000000*%
%TD*%
%TA.AperFunction,ViaPad*%
%ADD26C,0.600000*%
%TD*%
%TA.AperFunction,Conductor*%
%ADD27C,1.000000*%
%TD*%
%TA.AperFunction,Conductor*%
%ADD28C,0.500000*%
%TD*%
%TA.AperFunction,Conductor*%
%ADD29C,0.400000*%
%TD*%
%TA.AperFunction,Conductor*%
%ADD30C,1.500000*%
%TD*%
%TA.AperFunction,Conductor*%
%ADD31C,0.200000*%
%TD*%
%TA.AperFunction,Conductor*%
%ADD32C,0.800000*%
%TD*%
%TA.AperFunction,Conductor*%
%ADD33C,0.300000*%
%TD*%
G04 APERTURE END LIST*
D10*
%TO.P,C2,1*%
%TO.N,+5V*%
X147110000Y-71060000D03*
D11*
%TO.P,C2,2*%
%TO.N,GND*%
X147110000Y-73560000D03*
%TD*%
D12*
%TO.P,H1,1*%
%TO.N,N/C*%
X114230000Y-58500000D03*
D13*
X114230000Y-58500000D03*
%TD*%
D12*
%TO.P,H4,1*%
%TO.N,N/C*%
X114450000Y-116820000D03*
D13*
X114450000Y-116820000D03*
%TD*%
D12*
%TO.P,H3,1*%
%TO.N,N/C*%
X167560000Y-116560000D03*
D13*
X167560000Y-116560000D03*
%TD*%
D14*
%TO.P,J4,1*%
%TO.N,Net-(J4-Pad1)*%
X137560000Y-60710000D03*
D15*
%TO.P,J4,2*%
%TO.N,Net-(J4-Pad2)*%
X142640000Y-60710000D03*
%TD*%
D16*
%TO.P,C3,1*%
%TO.N,+3.3V*%
X140250000Y-78300000D03*
D17*
%TO.P,C3,2*%
%TO.N,GND*%
X140250000Y-79800000D03*
%TD*%
D18*
%TO.P,K1,13*%
%TO.N,Net-(J4-Pad2)*%
X129577500Y-63482500D03*
%TO.P,K1,14*%
%TO.N,Net-(J4-Pad1)*%
X129577500Y-56482500D03*
D19*
%TO.P,K1,A1*%
%TO.N,+5V*%
X124877500Y-74982500D03*
D18*
%TO.P,K1,A2*%
%TO.N,Net-(D4-A)*%
X129577500Y-74982500D03*
%TD*%
D20*
%TO.P,J2,1,Pin_1*%
%TO.N,SDA*%
X165900000Y-77610000D03*
D21*
%TO.P,J2,2,Pin_2*%
%TO.N,SCL*%
X165900000Y-75070000D03*
%TO.P,J2,3,Pin_3*%
%TO.N,+3.3V*%
X165900000Y-72530000D03*
%TO.P,J2,4,Pin_4*%
%TO.N,GND*%
X165900000Y-69990000D03*
%TD*%
D22*
%TO.P,Y1,1,1*%
%TO.N,Net-(U4-XI)*%
X146820000Y-78900000D03*
%TO.P,Y1,2,2*%
%TO.N,Net-(U4-XO)*%
X151720000Y-78900000D03*
%TD*%
D14*
%TO.P,J8,1*%
%TO.N,ADC*%
X117760000Y-84690000D03*
D15*
%TO.P,J8,2*%
%TO.N,CSO*%
X117760000Y-79610000D03*
%TO.P,J8,3*%
%TO.N,SCLK*%
X117760000Y-74530000D03*
%TO.P,J8,4*%
%TO.N,MISO*%
X117760000Y-69450000D03*
%TO.P,J8,5*%
%TO.N,MOSI*%
X117760000Y-64370000D03*
%TD*%
D14*
%TO.P,J9,1,Pin_1*%
%TO.N,Net-(D1-A)*%
X148880000Y-60780000D03*
D15*
%TO.P,J9,2,Pin_2*%
%TO.N,GND*%
X153960000Y-60780000D03*
%TO.P,J9,3,Pin_3*%
%TO.N,Net-(D2-K)*%
X159040000Y-60780000D03*
%TD*%
D20*
%TO.P,J1,1,Pin_1*%
%TO.N,TXD*%
X165887500Y-106730000D03*
D21*
%TO.P,J1,2,Pin_2*%
%TO.N,RXD*%
X165887500Y-104190000D03*
%TO.P,J1,3,Pin_3*%
%TO.N,+3.3V*%
X165887500Y-101650000D03*
%TO.P,J1,4,Pin_4*%
%TO.N,GND*%
X165887500Y-99110000D03*
%TD*%
D23*
%TO.P,J3,S1,SHIELD*%
%TO.N,GND*%
X163940000Y-91390000D03*
D24*
X168120000Y-91390000D03*
D23*
X163940000Y-82750000D03*
D24*
X168120000Y-82750000D03*
%TD*%
D14*
%TO.P,J7,1*%
%TO.N,GPIO10*%
X117790000Y-110540000D03*
D15*
%TO.P,J7,2*%
%TO.N,GPIO9*%
X117790000Y-105460000D03*
%TO.P,J7,3*%
%TO.N,GPIO14*%
X117790000Y-100380000D03*
%TO.P,J7,4*%
%TO.N,GPIO13*%
X117790000Y-95300000D03*
%TO.P,J7,5*%
%TO.N,GPIO12*%
X117790000Y-90220000D03*
%TD*%
D12*
%TO.P,H2,1*%
%TO.N,N/C*%
X167840000Y-58250000D03*
D13*
X167840000Y-58250000D03*
%TD*%
D25*
%TO.N,GND*%
X137170000Y-93270000D03*
X158930000Y-82010000D03*
X155950000Y-82310000D03*
D26*
X146200000Y-82190000D03*
D25*
X155906397Y-89513603D03*
X155610000Y-93310000D03*
X161130000Y-82010000D03*
%TO.N,+3.3V*%
X145910000Y-97640000D03*
X144990000Y-89410000D03*
X141860000Y-106040000D03*
%TO.N,+5V*%
X155000000Y-88245000D03*
X155130000Y-84800000D03*
X156060000Y-97740000D03*
X142670000Y-75950000D03*
X151470000Y-93720000D03*
%TO.N,RXD*%
X142960000Y-109690000D03*
X159820000Y-105650000D03*
%TO.N,TXD*%
X163720000Y-96830000D03*
X163170000Y-109530000D03*
X142970000Y-110990000D03*
X163700000Y-105390000D03*
%TO.N,Net-(U4-UD-)*%
X160400000Y-86100000D03*
X161080000Y-87915000D03*
%TO.N,RST*%
X151810000Y-95490000D03*
X151670000Y-106100000D03*
%TO.N,GPIO0*%
X143580000Y-88335000D03*
X136910000Y-103500000D03*
%TO.N,SDA*%
X161950000Y-80370000D03*
X143027112Y-107110000D03*
%TO.N,SCL*%
X142980000Y-108380000D03*
X163640000Y-76740000D03*
%TO.N,MOSI*%
X128020000Y-84250000D03*
%TO.N,GPIO12*%
X138900000Y-98480000D03*
%TO.N,ADC*%
X137400000Y-101080000D03*
%TO.N,GPIO9*%
X142160000Y-97260000D03*
%TO.N,GPIO10*%
X144060000Y-98060000D03*
%TO.N,CSO*%
X130440000Y-85230000D03*
%TO.N,GPIO13*%
X137250000Y-98030000D03*
%TO.N,GPIO16*%
X151000000Y-98910000D03*
X143350000Y-90170000D03*
%TO.N,GPIO14*%
X137340000Y-99820000D03*
%TD*%
D27*
%TO.N,GND*%
X169010000Y-81860000D02*
X169010000Y-71810000D01*
D28*
X155906397Y-93013603D02*
X155610000Y-93310000D01*
D27*
X168120000Y-91390000D02*
X168120000Y-98820000D01*
D29*
X137170000Y-93270000D02*
X137180000Y-93260000D01*
D28*
X155830000Y-82190000D02*
X155950000Y-82310000D01*
D27*
X167190000Y-69990000D02*
X165900000Y-69990000D01*
D28*
X158930000Y-82010000D02*
X161130000Y-82010000D01*
D30*
X153960000Y-63610000D02*
X153960000Y-60780000D01*
D27*
X168120000Y-98820000D02*
X167830000Y-99110000D01*
D30*
X153960000Y-69240000D02*
X153960000Y-71320000D01*
D28*
X141660000Y-87210000D02*
X141660000Y-81210000D01*
X156080000Y-82440000D02*
X156080000Y-89480000D01*
X156080000Y-89480000D02*
X156110000Y-89510000D01*
X163940000Y-91390000D02*
X168120000Y-91390000D01*
D29*
X155906397Y-89513603D02*
X156113603Y-89513603D01*
D27*
X167830000Y-99110000D02*
X165887500Y-99110000D01*
D28*
X155950000Y-82310000D02*
X156080000Y-82440000D01*
D27*
X168120000Y-82750000D02*
X169010000Y-81860000D01*
X169010000Y-71810000D02*
X167190000Y-69990000D01*
D30*
X165900000Y-69990000D02*
X154710000Y-69990000D01*
X153960000Y-69240000D02*
X153960000Y-63610000D01*
D28*
X155906397Y-89513603D02*
X155906397Y-93013603D01*
X141660000Y-81210000D02*
X140250000Y-79800000D01*
X146200000Y-82190000D02*
X155830000Y-82190000D01*
X137180000Y-93260000D02*
X137180000Y-91690000D01*
D30*
X153960000Y-71320000D02*
X151720000Y-73560000D01*
X151720000Y-73560000D02*
X147110000Y-73560000D01*
D28*
X163940000Y-82750000D02*
X168120000Y-82750000D01*
D30*
X154710000Y-69990000D02*
X153960000Y-69240000D01*
D28*
X137180000Y-91690000D02*
X141660000Y-87210000D01*
%TO.N,+3.3V*%
X142490000Y-78300000D02*
X140250000Y-78300000D01*
X145000000Y-89400000D02*
X145000000Y-80810000D01*
X145000000Y-80810000D02*
X142490000Y-78300000D01*
D31*
X141860000Y-106040000D02*
X141920000Y-106040000D01*
D28*
X144990000Y-89410000D02*
X145000000Y-89400000D01*
X141920000Y-106040000D02*
X145910000Y-102050000D01*
X145910000Y-102050000D02*
X145910000Y-97640000D01*
%TO.N,+5V*%
X151470000Y-93720000D02*
X151970000Y-93720000D01*
X155130000Y-84800000D02*
X155180000Y-84850000D01*
D32*
X142670000Y-75950000D02*
X142600000Y-76020000D01*
D28*
X151970000Y-93720000D02*
X155990000Y-97740000D01*
D32*
X125340000Y-73350000D02*
X124877500Y-73812500D01*
D28*
X155180000Y-88065000D02*
X155000000Y-88245000D01*
X155180000Y-84850000D02*
X155180000Y-88065000D01*
D32*
X137530000Y-73350000D02*
X125340000Y-73350000D01*
D28*
X155990000Y-97740000D02*
X156060000Y-97740000D01*
X125190000Y-74500000D02*
X124990000Y-74300000D01*
D32*
X124877500Y-73812500D02*
X124877500Y-74982500D01*
X140200000Y-76020000D02*
X137530000Y-73350000D01*
X142600000Y-76020000D02*
X140200000Y-76020000D01*
D29*
%TO.N,RXD*%
X142960000Y-109690000D02*
X142990000Y-109720000D01*
D28*
X158890000Y-109720000D02*
X159790000Y-108820000D01*
X159790000Y-108820000D02*
X159790000Y-105680000D01*
X142990000Y-109720000D02*
X158890000Y-109720000D01*
D31*
X159790000Y-105680000D02*
X159820000Y-105650000D01*
D29*
%TO.N,TXD*%
X163717500Y-105372500D02*
X163700000Y-105390000D01*
D28*
X163717500Y-96832500D02*
X163717500Y-105372500D01*
X161710000Y-110990000D02*
X142970000Y-110990000D01*
D31*
X163720000Y-96830000D02*
X163717500Y-96832500D01*
D28*
X163170000Y-109530000D02*
X161710000Y-110990000D01*
D33*
%TO.N,Net-(U4-UD-)*%
X161080000Y-86800000D02*
X160400000Y-86120000D01*
X160400000Y-86120000D02*
X160400000Y-86100000D01*
X161080000Y-87915000D02*
X161080000Y-86800000D01*
D28*
%TO.N,RST*%
X151950000Y-95630000D02*
X151950000Y-105820000D01*
D29*
X151810000Y-95490000D02*
X151950000Y-95630000D01*
X151950000Y-105820000D02*
X151670000Y-106100000D01*
D28*
%TO.N,GPIO0*%
X143580000Y-88335000D02*
X142715000Y-88335000D01*
X140120000Y-100920000D02*
X137540000Y-103500000D01*
X137540000Y-103500000D02*
X136910000Y-103500000D01*
X140120000Y-90930000D02*
X140120000Y-100920000D01*
X142715000Y-88335000D02*
X140120000Y-90930000D01*
%TO.N,SDA*%
X156760000Y-107220000D02*
X157090000Y-106890000D01*
X157090000Y-106890000D02*
X157090000Y-81700000D01*
X143100000Y-107220000D02*
X156760000Y-107220000D01*
D29*
X143027112Y-107110000D02*
X143100000Y-107182888D01*
D28*
X161940000Y-80360000D02*
X161950000Y-80370000D01*
X158430000Y-80360000D02*
X161940000Y-80360000D01*
D29*
X143100000Y-107182888D02*
X143100000Y-107220000D01*
D28*
X157090000Y-81700000D02*
X158430000Y-80360000D01*
%TO.N,SCL*%
X158430000Y-86053503D02*
X163640000Y-80843503D01*
X143010000Y-108410000D02*
X157790000Y-108410000D01*
X163640000Y-80843503D02*
X163640000Y-76740000D01*
X157790000Y-108410000D02*
X158430000Y-107770000D01*
X158430000Y-107770000D02*
X158430000Y-86053503D01*
D29*
X142980000Y-108380000D02*
X143010000Y-108410000D01*
D28*
%TO.N,MOSI*%
X121550000Y-78280000D02*
X120970000Y-77700000D01*
X120420000Y-64180000D02*
X116700000Y-64180000D01*
X128020000Y-84250000D02*
X128020000Y-79030000D01*
X128020000Y-79030000D02*
X127270000Y-78280000D01*
X120970000Y-64730000D02*
X120420000Y-64180000D01*
X127270000Y-78280000D02*
X121550000Y-78280000D01*
X120970000Y-77700000D02*
X120970000Y-64730000D01*
%TO.N,GPIO12*%
X131940000Y-96490000D02*
X131940000Y-91070000D01*
X138900000Y-98480000D02*
X138900000Y-98336497D01*
X131940000Y-91070000D02*
X131130000Y-90260000D01*
X132530000Y-97080000D02*
X131940000Y-96490000D01*
X137643503Y-97080000D02*
X132530000Y-97080000D01*
X138900000Y-98336497D02*
X137643503Y-97080000D01*
X131130000Y-90260000D02*
X117440000Y-90260000D01*
D29*
%TO.N,ADC*%
X137400000Y-101080000D02*
X137390000Y-101070000D01*
D28*
X112610000Y-102800000D02*
X111700000Y-101890000D01*
X116700000Y-84500000D02*
X112800000Y-84500000D01*
X111700000Y-101890000D02*
X111700000Y-85600000D01*
X112800000Y-84500000D02*
X111700000Y-85600000D01*
X137390000Y-101070000D02*
X135660000Y-102800000D01*
X135660000Y-102800000D02*
X112610000Y-102800000D01*
%TO.N,GPIO9*%
X117810000Y-105630000D02*
X117690000Y-105750000D01*
X137810000Y-105630000D02*
X117810000Y-105630000D01*
X142160000Y-97260000D02*
X142160000Y-101280000D01*
X142160000Y-101280000D02*
X137810000Y-105630000D01*
%TO.N,GPIO10*%
X144040000Y-102080000D02*
X140160000Y-105960000D01*
X144060000Y-98060000D02*
X144060000Y-102080000D01*
X144060000Y-102080000D02*
X144040000Y-102080000D01*
X139620000Y-110540000D02*
X117790000Y-110540000D01*
X140160000Y-105960000D02*
X140160000Y-110000000D01*
X140160000Y-110000000D02*
X139620000Y-110540000D01*
%TO.N,CSO*%
X125930000Y-79630000D02*
X126500000Y-80200000D01*
X126850000Y-85230000D02*
X130440000Y-85230000D01*
X121360050Y-79610000D02*
X121380050Y-79630000D01*
X126500000Y-80200000D02*
X126500000Y-84880000D01*
X126500000Y-84880000D02*
X126850000Y-85230000D01*
X121380050Y-79630000D02*
X125930000Y-79630000D01*
X117370000Y-79430000D02*
X117550000Y-79610000D01*
X117550000Y-79610000D02*
X121360050Y-79610000D01*
%TO.N,GPIO13*%
X130150000Y-95560000D02*
X130760000Y-96170000D01*
X130760000Y-97660000D02*
X131130000Y-98030000D01*
X130760000Y-96170000D02*
X130760000Y-97660000D01*
X131130000Y-98030000D02*
X137250000Y-98030000D01*
X117660000Y-95560000D02*
X130150000Y-95560000D01*
%TO.N,GPIO16*%
X151000000Y-97820000D02*
X151000000Y-98910000D01*
X143350000Y-90170000D02*
X151000000Y-97820000D01*
D29*
%TO.N,GPIO14*%
X137340000Y-99820000D02*
X137230000Y-99710000D01*
D28*
X136510000Y-100430000D02*
X117450000Y-100430000D01*
X117450000Y-100430000D02*
X117400000Y-100380000D01*
X137230000Y-99710000D02*
X136510000Y-100430000D01*
D30*
%TO.N,Net-(J4-Pad1)*%
X129637500Y-56542500D02*
X129577500Y-56482500D01*
X136602500Y-56542500D02*
X129637500Y-56542500D01*
X136742500Y-56682500D02*
X136602500Y-56542500D01*
X136742500Y-60497500D02*
X136742500Y-56682500D01*
%TO.N,Net-(J4-Pad2)*%
X134080000Y-65510000D02*
X132052500Y-63482500D01*
X141970000Y-65510000D02*
X134080000Y-65510000D01*
X142640000Y-60710000D02*
X142640000Y-64840000D01*
X132052500Y-63482500D02*
X129577500Y-63482500D01*
X142640000Y-64840000D02*
X141970000Y-65510000D01*
%TD*%
M02*
